/* XPM */
static char *_5c2a7a0954f466beab5719ff91fba46eH2JsSOEqZkbLIqw[] = {
/* columns rows colors chars-per-pixel */
"64 64 256 2 ",
"   c #141210",
".  c #221F19",
"X  c #24221C",
"o  c #3C2A0D",
"O  c #282826",
"+  c #36332B",
"@  c #393935",
"#  c #5C0F06",
"$  c #6E0D06",
"%  c #4B340B",
"&  c #55360A",
"*  c #553B14",
"=  c #493211",
"-  c #6C3A06",
";  c #453C26",
":  c #014D06",
">  c #015507",
",  c #005B06",
"<  c #08550A",
"1  c #145812",
"2  c #105C09",
"3  c #026509",
"4  c #006C08",
"5  c #026607",
"6  c #00730A",
"7  c #027B0B",
"8  c #186B1E",
"9  c #286616",
"0  c #35793A",
"q  c #33500E",
"w  c #5B430E",
"e  c #70530D",
"r  c #786B0D",
"t  c #4D4228",
"y  c #544A2C",
"u  c #47443B",
"i  c #525139",
"p  c #655B37",
"a  c #6A552A",
"s  c #507B2A",
"d  c #6D683C",
"f  c #7C7030",
"g  c #407C09",
"h  c #55554C",
"j  c #7B7344",
"k  c #67675B",
"l  c #706B4F",
"z  c #76766C",
"x  c #6D6D66",
"c  c #625E53",
"v  c #921B08",
"b  c #AE2009",
"n  c #835905",
"m  c #924E06",
"M  c #A9540F",
"N  c #8B6707",
"B  c #966905",
"V  c #907010",
"C  c #A47304",
"Z  c #AC7A04",
"A  c #A97705",
"S  c #B27D04",
"D  c #BB7807",
"F  c #A8730B",
"G  c #8F742E",
"H  c #805F38",
"J  c #887B4D",
"K  c #817C68",
"L  c #00840B",
"P  c #01890A",
"I  c #01980D",
"U  c #079014",
"Y  c #00A916",
"T  c #01B416",
"R  c #08A60F",
"E  c #129727",
"W  c #2F8A2C",
"Q  c #03AB2A",
"!  c #03BA33",
"~  c #16B331",
"^  c #21B72F",
"/  c #308818",
"(  c #51950B",
")  c #728E33",
"_  c #5CA11B",
"`  c #02C737",
"'  c #00CA29",
"]  c #35B74C",
"[  c #7B904B",
"{  c #4EAD55",
"}  c #748F6E",
"|  c #58B165",
" . c #68AE6B",
".. c #5C9846",
"X. c #2EC850",
"o. c #27CD56",
"O. c #5BD271",
"+. c #56C86C",
"@. c #68C775",
"#. c #46CB5A",
"$. c #938A05",
"%. c #A68606",
"&. c #B68104",
"*. c #BC8504",
"=. c #BA8909",
"-. c #BA9503",
";. c #AD8315",
":. c #B58D14",
">. c #B18F35",
",. c #A9A720",
"<. c #C48B04",
"1. c #CA8E04",
"2. c #C58C09",
"3. c #CD9205",
"4. c #C89B03",
"5. c #D39505",
"6. c #D59904",
"7. c #DC9D05",
"8. c #D1980B",
"9. c #C6941A",
"0. c #D39D16",
"q. c #C38F15",
"w. c #D7A904",
"e. c #DDB101",
"r. c #D6B204",
"t. c #CFAA0A",
"y. c #E6A805",
"u. c #E2B601",
"i. c #E6B901",
"p. c #EBBD01",
"a. c #E7B70E",
"s. c #F3B304",
"d. c #F9BA06",
"f. c #F1AE05",
"g. c #C69727",
"h. c #C19838",
"j. c #E4B42A",
"k. c #D6A621",
"l. c #FCC305",
"z. c #F5C704",
"x. c #F7D504",
"c. c #EECC08",
"v. c #FEE802",
"b. c #FFF501",
"n. c #F4C52F",
"m. c #DBCF02",
"M. c #88854A",
"N. c #92894B",
"B. c #948B53",
"V. c #9B9558",
"C. c #8E924E",
"Z. c #A79349",
"A. c #B89949",
"S. c #A29B5B",
"D. c #A69C58",
"F. c #8FA954",
"G. c #ABA35A",
"H. c #B0B153",
"J. c #858575",
"K. c #908C77",
"L. c #9D9374",
"P. c #A79B6E",
"I. c #92B268",
"U. c #ADA463",
"Y. c #A8AA64",
"T. c #B7AB66",
"R. c #BEB26B",
"E. c #B6B56B",
"W. c #BDBB77",
"Q. c #AAB567",
"!. c #D7AC44",
"~. c #CCAF55",
"^. c #C2B66C",
"/. c #C7BA72",
"(. c #D5B974",
"). c #CEB06B",
"_. c #C18D57",
"`. c #B8C466",
"'. c #F7D251",
"]. c #C9CA69",
"[. c #CBC177",
"{. c #D7C67A",
"}. c #DBD06B",
"|. c #E5D86B",
" X c #E1CC7D",
".X c #EAD974",
"XX c #F4D671",
"oX c #EEE479",
"OX c #EFE372",
"+X c #7CCB86",
"@X c #67DA87",
"#X c #96968A",
"$X c #9FA297",
"%X c #8FB990",
"&X c #B4AB85",
"*X c #A6A699",
"=X c #B2B295",
"-X c #ADACA7",
";X c #B8B7A9",
":X c #BEBFB2",
">X c #B1B1B0",
",X c #ADB4A3",
"<X c #95A591",
"1X c #C0BFB2",
"2X c #C3BFA8",
"3X c #C9B783",
"4X c #8BC790",
"5X c #9ECEA1",
"6X c #BBC8B7",
"7X c #ABD4AF",
"8X c #B3E6BB",
"9X c #D3CC91",
"0X c #E1CD84",
"qX c #EBD491",
"wX c #EBE194",
"eX c #C1C1B5",
"rX c #C5C5B9",
"tX c #CAC9BC",
"yX c #C9C8B9",
"uX c #D4CDB0",
"iX c #E4D8A8",
"pX c #E8DBB6",
"aX c #EBE4BB",
"sX c #F2E6AC",
"dX c #DFE386",
"fX c #BCDEC1",
"gX c #CDCCC3",
"hX c #CBCAC8",
"jX c #D2CFC4",
"kX c #D5D4CB",
"lX c #DBDBD4",
"zX c #CBD6C6",
"xX c #E5DECB",
"cX c #C5E9CB",
"vX c #D7E5D7",
"bX c #CDF2D5",
"nX c #EAE4C9",
"mX c #E9E5D6",
"MX c #F2ECD9",
"NX c #F5EFD1",
"BX c #EDEBE5",
"VX c #EEEEEE",
"CX c #E3E7E3",
"ZX c #F1EFEA",
"AX c #F0ECE1",
"SX c #EDF1EA",
"DX c #F3F2ED",
"FX c #F7F5EB",
"GX c #EFEFF0",
"HX c #EFF0F1",
"JX c #F3F3F3",
"KX c #F6F6F9",
"LX c #FAFAF9",
"PX c #F7F7F6",
"IX c #F0EFF1",
"UX c #DBF4E2",
/* pixels */
"LXVXPXVXKXHXJXJXJXJXHXKXZXKXVXLXCXCXhXGXGXHXIXJXJXIXKXZXPXVXKXVXKXVXKXZXKXHXJXJXJXJXZXKXZXLXVXKXZXKXVXKXZXKXHXJXJXHXPXZXKXVXPXBX",
"VXPXGXJXZXJXJXJXJXHXJXZXJXHXJXlX-Xz O >XKXHXJXHXJXJXHXKXHXPXZXKXZXPXHXPXHXJXIXJXJXHXJXHXJXHXJXHXPXGXPXHXPXIXJXJXJXJXHXPXHXPXHXKX",
"PXVXPXGXJXJXJXJXJXJXHXJXHXPXhXx h .   z IXKXHXJXJXJXJXIXJXJXJXIXJXHXJXHXJXJXJXJXJXJXJXJXIXJXJXJXIXJXHXJXHXJXIXJXJXIXJXHXJXIXJXHX",
"JXJXJXJXJXHXJXHXJXJXJXJXJXVXz @ O . O @ hXKXJXJXJXIXJXJXJXJXJXJXIXJXJXJXJXIXJXJXHXJXJXJXJXJXJXJXJXJXJXJXJXJXJXJXJXJXJXJXJXJXJXIX",
"VXJXGXJXHXJXJXJXJXJXJXZXMX,Xu + O O O u CXJXJXHXJXJXHXJXHXPXHXJXHXJXHXKXIXJXJXJXJXJXJXHXJXHXJXIXPXZXJXHXJXIXJXJXJXJXIXJXIXPXZXKX",
"LXVXPXVXPXHXJXJXJXJXJXxXg.a @ O O O O x BXPXHXJXJXIXPXZXPXHXKXZXKXIXJXZXPXIXJXJXIXKXHXPXHXKXZXKXZXKXHXPXHXPXHXJXJXIXPXHXPXHXJXVX",
"VXPXVXPXVXJXJXJXJXZXKXuX:.; O O O O O $XKXHXJXJXJXJXJXPXZXPXVXKXZXKXHXPXZXJXZXJXIXIXJXIXPXZXKXIXPXGXKXHXPXZXJXJXJXJXHXKXZXPXHXKX",
"PXVXPXVXPXGXJXJXJXJXJXnXj.;.N w = o = tXJXJXJXJXJXIXJXHXKXGXJXHXPXZXJXJXPXLXKXZXBXZXHXJXIXKXZXKXGXPXVXJXHXPXHXJXJXIXJXHXKXHXKXZX",
"HXKXZXPXHXJXJXJXJXJXKXmX>.C B B B m V iXKXIXJXJXJXJXSXKXHXKXHXKXIXBXJXLXLXPXAXkXgXjXlXJXJXIXJXIXPXIXPXHXJXHXJXJXJXJXHXJXHXJXHXPX",
"JXIXJXJXJXJXJXIXJXJXKXCXc e % O o & a jXKXMXNXJXJXJXJXHXJXHXJXCX5XcXLXLXFXkX1X;X1XgXyXCXJXJXJXJXJXJXIXJXJXJXJXJXJXJXJXJXJXJXJXJX",
"JXIXJXHXJXJXJXJXJXJXZX$X@ ; B w & - - H  Xj.0.(.HXJXJXDXKXHXbX+.O.PXLXPXkX1X1XyX2X2XyXjXBXJXIXJXZXJXHXJXHXJXJXJXJXJXJXJXJXIXJXZX",
"VXPXHXPXHXJXIXJXJXJXCXk u O + e n e - M y.1.6.0.~.0XmXKXHXcXo.` bXLXLXlX1X1X=XJ a y x 2XCXHXKXZXPXHXPXHXJXJXJXIXJXJXZXJXJXPXHXKX",
"KXZXPXGXPXZXJXJXHXKXlXh + O O   . @ J 0.w.w.y.*.D B ).KXUX] ! @XLXLXCXtX:X=XK d B n + x uXKXIXKXVXKXVXPXZXJXJXJXJXJXJXZXPXGXKXVX",
"ZXKXVXKXHXPXIXJXHXHXHX$X+ O O X X u mXj.y.f.=.C A <.~.ZX@X! ! fXLXSXjX:XeX#X-X;X>.:.K + ;XZXKXZXKXZXPXGXPXHXJXJXJXJXHXPXZXPXVXKX",
"KXHXJXHXKXHXKXIXKXKXGXJX>Xx @ O + #XMXj.s.6.*.3.5.1.2.&X] o.+XvXFXlXeXeXP.#XtXhXU.q.&Xh #XZXIXPXZXPXGXJXJXJXJXJXJXHXJXHXJXHXJXVX",
"HXJXJXJXIXJXIXJXJXIXJXGXKXCXkX>XhXVXFX'.y.1.5.<.<.3.Z ) X.UXJX1XtXtXeX3XG &XnX%Xl 2.J k K.ZXJXHXJXJXJXHXJXIXJXIXJXJXJXJXJXJXJXJX",
"JXJXIXJXJXJXJXJXJXZXJXJXJXHXPXJXPXIXJXXX7.1.*.D 3.D m r cXLXPXrX#X;X1XZ.N &XaX%Xh 8.,.,.~.sXJXIXJXHXJXJXJXJXJXJXHXJXJXJXJXJXJXJX",
"PXHXPXHXJXJXJXHXJXJXJXJXHXJXHXJXHXPXJXpX0.<.S S 7.M M _.LXPXDXkX#X*X&X;.A A.wXdX[ c.b.m.t.x..XJXHXKXHXJXIXJXJXJXJXJXJXHXJXHXKXZX",
"VXKXZXJXZXPXIXJXJXJXJXHXPXZXKXVXPXGXKXBX!.S S *.7.5.D (.SX#X-XkX$XJ.Z.2.7.y.j.n.c.b.b.v.x.x.c.pXKXVXPXHXPXHXJXIXIXJXZXJXHXJXZXLX",
"PXZXKXHXKXHXJXJXIXPXHXPXHXPXHXPXZXKXVXKXuX:.&.1.7.y.y.).rXu z gX;XJ F 7.f.s.c.x.b.v.x.z.c.i.p.'.VXKXZXPXHXJXJXJXJXJXPXHXJXVXKXVX",
"VXPXZXKXHXJXIXJXJXHXJXHXPXZXKXGXPXVXKXIXDX(.*.5.7.y.7.h.1Xk z yX6XJ F 6.y.x.v.v.c.c.i.e.w.u.p.n.FXIXPXZXJXHXJXJXJXJXHXPXHXKXZXKX",
"JXHXKXZXJXJXJXJXHXJXJXJXGXPXHXJXIXPXIXJXJXnXq.1.7.7.5.D uXkX1XrXrXL.B 5.x.x.c.i.e.e.e.e.u.i.p.'.ZXJXHXPXIXJXJXJXJXJXJXIXJXHXPXHX",
"JXJXJXJXJXJXJXJXJXJXJXJXJXIXJXJXIXIXJXJXIXIX!.<.1.6.5.1.~.jXrX1X1XK.n e.x.c.i.i.i.i.i.i.i.p.l.OXKXHXJXJXJXJXJXIXJXJXJXJXJXJXIXJX",
"HXJXHXJXHXJXJXJXJXJXJXHXJXJXJXHXPXIXJXIXKXJXqX3.<.5.6.6.9.L.>X1X1Xl w e.e.i.4.&.-.4.r.e.p.z.x.sXKXHXJXHXJXJXJXJXIXJXJXJXIXJXHXPX",
"KXHXPXHXPXHXJXJXJXJXJXJXGXJXHXPXIXKXIXJXHXKXMXj.<.<.3.6.5.G x z l * * -.w.i.B # $ # = N t.p.'.FXGXJXGXPXGXKXGXJXJXJXJXHXPXHXJXZX",
"ZXKXVXPXZXPXHXJXJXHXPXHXPXGXKXZXPXZXKXIXPXKXbXH.3.<.1.5.5.g.#Xc * * * N 4.z.=.$ $ $ # # !.XXNXHXPXVXPXGXPXGXJXJXJXJXHXPXZXKXGXLX",
"KXVXPXZXKXIXJXJXJXJXZXKXGXPXGXPXVXPXZXKXHX8X#.I.9.<.1.5.6.0.P.z h = & * %.e.u.n $ v b m wXKXHXKXGXPXVXJXVXPXJXJXJXZXPXHXJXVXKXVX",
"ZXKXIXJXHXJXZXJXJXIXJXHXJXGXPXGXJXIXPXHX8Xo.+XO._ <.2.1.6.5.>.x y ; & & w -.i.4.e v b M nXHXJXSXKXGXPXJXJXGXJXJXJXJXHXJXHXPXHXJX",
"KXHXJXIXPXIXJXHXJXJXJXJXIXJXJXJXHXJXDXcXX.I.O.` ^ :.<.<.5.5.2.; l J p & % & %.w.w.Z M D nXLXKXFXsXqXwX'.'.XXnXJXJXJXJXHXJXIXJXIX",
"JXHXJXJXJXJXJXJXJXJXJXJXJXJXIXJXJXJXBXO.@.O.` ` o.[.<.1.5.5.5.a p N.V.l t X y %.4.e.w.w.0XwX X'.d.l.d.d.l.s.!.MXJXIXJXJXJXJXJXJX",
"HXJXHXJXIXJXJXJXJXJXJXHXPXHXPXIXPXJXfX+.@.` ` ! 8XtX>.<.3.5.5.N p j B.U.B.j f >.1.5.7.7.s.d.d.f.y.y.s.y.d.7.q.nXJXJXHXJXHXJXHXPX",
"LXZXKXHXPXHXJXJXIXJXHXPXZXJXZXPXIXJX4X7X#.` ! +.vX;X=X:.<.5.5.B p C.J B.U.E.T.>.S D <.5.7.y.y.3.D 2.5.5.5.<.9.mXJXIXPXHXKXZXPXVX",
"BXPXVXPXSXKXDXJXKXHXKXDXJXHXKXSXLXmX%X4X| ! ! 7XjX1X$Xa C 3.<.n p D.S.N.N.D.G.G n B C C A Z Z C Z D &.&.C *.S 9XKXJXIXPXIXPXZXLX",
"PXVXKXVXKXSXKXJXJXHXDXJXHXKXHXPXHXFX| {  .Y ] lXrX1Xk y w n B = d T.T.U.D.D.A.G m B B B C A C F Z C S *.C D &.iXKXIXKXIXJXIXKXGX",
"GXKXVXPXHXJXHXJXJXDXJXJXJXDXKXHXKXfX` ^ %XE +XkXtX-Xi j j ; = i J V.T.^.^.^.).T.T.A.>.9.q.2.2.Z A C S *.D <.0.xXJXJXIXJXHXJXIXJX",
"JXHXJXJXJXJXKXJXJXHXHXKXHXHXJXJXKX+X! ! =X=XzXgXgXK y J S.B.B.U.R.U.S.U.^.^.T.9XPXJXZXmXpXpXiXqXg.*.S S Z *.g.MXJXIXJXJXJXJXJXIX",
"KXHXJXJXJXHXKXHXJXJXJXJXJXJXJXJXHX@.! !  .%XmXrX:Xh y J S.S.T.R.^././.R.T.^.T.9XJXJXJXKXJXKXHXKXpX!.0.9.q.1.!.ZXJXJXJXHXPXHXJXHX",
"BXPXGXJXHXJXDXHXJXHXJXHXPXSXPXSXKX+.! Q { 4XkXhX*Xi J J S.U.T.R.R./.[.{.0X(.(.pXJXJXJXGXJXGXPXGXPXAXNXnXpXqXmXKXJXJXIXPXHXPXZXLX",
"PXGXPXGXLXDXJXHXJXJXHXPXSXSXvXaXpX@.Q Q { lXgXrXz p V.V.B.U.T.R././.(.{. X0X0XpXJXJXGXPXGXPXVXPXZXKXHXKXGXKXIXKXJXHXJXHXKXZXKXVX",
"VXPXVXPXDXJXJXJXJXDXLXnX}...~ _ j.) Q Q | lXrX,Xl J S.U.Y.S.S.R././.{.{.{. X XmXJXHXJXGXPXGXPXVXKXZXKXHXKXGXHXHXJXJXHXJXIXKXZXKX",
"PXGXPXVXJXHXJXJXHXJXMXoX_ I I U r.,.U Q 5XgX6XK d B.D.U.T.T.U.S.T./.[.{. X XqXAXJXJXDXKXDXPXGXPXZXPXHXJXZXJXHXJXJXIXJXZXJXHXPXVX",
"GXJXJXJXJXJXJXJXJXDXsX .P P L 6 $.w./ { jXeX$Xc j V.S.Y.Y.Q.E.E.Y.T.^.{.{.(.uXJXJXJXJXHXJXHXJXHXJXJXJXJXJXJXJXJXJXJXJXJXJXJXHXJX",
"GXJXJXJXJXJXJXJXJXBX0X/ 7 6 4 5 9 -.) 6XtX,Xl a G >.Z.G.Y.Y.Q.E.W./././.[.0XmXJXKXHXJXJXJXJXJXJXJXIXJXJXJXJXJXJXJXJXIXJXIXJXJXJX",
"PXGXPXGXJXVXJXJXJXmXY.7 6 4 5 , P 9 /.xX6XK.e <.y.w.3.;.N.S.I.Y.E./.{.0X0XsXJXJXJXJXDXJXVXKXGXJXHXPXHXJXHXJXHXJXJXJXJXJXPXHXKXZX",
"VXPXVXPXVXPXGXJXKXmX[ 4 5 5 > 5 7 q ;XgXL.N 6.l.d.s.7.*.V M.C.V.Q.^.{. XwXFXJXJXJXDXKXSXKXSXPXVXKXZXKXGXJXHXJXJXJXJXHXJXHXPXGXKX",
"PXVXPXVXPXGXJXJXHXiX/ 4 4 3 > 6 2 w A.P.G <.l.l.d.s.7.Z N f [ C.G.R.{.0XNXSXJXJXHXJXDXKXHXKXVXPXHXPXHXJXZXPXJXJXJXHXPXHXJXZXKXVX",
"VXJXVXPXJXJXJXJXAXQ.4 5 6 , > 5 q B 2.;.B y.l.l.d.s.6.%.N r d M.S.R.{.nXHXKXSXJXJXHXKXHXPXVXPXVXKXZXJXHXPXIXJXJXIXPXHXPXHXJXVXKX",
"PXGXPXHXJXGXJXJXnX[ 3 4 4 > > 3 e C =.Z B 8.s.s.d.u.4.$.N r d [ F.&XmXJXJXJXJXJXJXJXDXJXHXPXVXPXHXPXHXJXIXJXJXJXJXIXJXJXJXHXPXZX",
"JXJXJXJXJXJXJXKXpXs 5 4 4 , : 5 e Z Z Z Z Z <.7.s.w.-.$.C r W ~ ~ ] %XCXJXJXJXJXJXJXJXJXJXJXJXJXJXJXJXJXJXJXJXJXJXJXHXJXJXJXJXJX",
"GXJXHXJXHXJXIXJXpXs , 6 6 4 > , 0 A.Z &.<.<.&.=.w.4.$.$._ ^ ' T I U 7  .SXJXJXJXJXHXJXJXJXJXJXHXJXIXJXHXJXJXJXHXHXJXJXJXHXJXHXPX",
"PXGXPXGXJXHXJXJXmXC., 6 7 7 6 4 | BX9Xh.k.!.0X~.4.$.( ( ^ ' T I L 7 5 3 5XJXJXHXIXJXJXJXHXPXGXJXGXKXHXPXIXPXHXJXJXZXJXHXJXHXPXVX",
"VXPXVXPXZXPXJXJXJX9X0 4 7 U U W fXJXLXBXMXBXKXuX_ R I Y ' T U L 4 3 > > ..VXDXJXJXJXJXHXJXVXKXGXKXZXKXZXKXZXJXJXJXJXJXPXHXKXZXPX",
"PXVXPXVXJXHXJXJXJXBX2X .W E | fXVXPXVXPXDXPXbX{ R 7 6 T T I L 6 3 , , , 8 zXLXJXJXJXHXPXZXKXZXPXVXPXZXKXHXPXIXJXJXHXJXHXPXVXKXVX",
"VXPXGXPXHXJXHXJXJXZXIXGXCXvXHXHXPXVXKXVXKXPX7XL 5 , 7 T I P 4 , > : : < 1 6XKXJXJXZXJXHXPXHXPXGXKXZXKXHXPXHXJXJXIXPXIXPXZXKXZXPX",
"JXHXJXHXJXJXJXHXJXJXJXKXKXKXHXHXJXKXJXJXDXKXvX0 5 P T R P 6 , : 1 s [ C.F.tXPXHXIXJXJXJXIXJXIXJXHXJXJXJXHXJXJXJXJXJXJXIXJXHXJXHX",
"JXJXJXJXJXJXJXJXJXJXHXJXHXHXKXHXSXJXJXJXHXJXLX5XI T R P 6 , < ) ].|.].~.).uXJXJXJXJXJXJXJXJXJXJXIXJXIXJXIXJXJXJXJXJXJXJXJXJXJXHX",
"VXKXHXJXJXJXJXJXJXJXJXHXJXHXPXZXKXVXKXVXJXJXJX@.R R I 6 3 8 Q.oX|.}.|.|.|.nXHXJXJXJXJXIXPXHXJXHXJXHXPXHXJXHXJXJXIXJXIXJXJXJXHXKX",
"KXZXPXHXJXZXJXJXJXJXHXPXHXKXZXKXGXPXVXPXSXJXSX+.I P 6 3 9 ].oX}.|.OXOXdXsXZXJXJXJXJXHXJXZXPXIXJXHXKXZXKXHXPXHXJXJXJXPXIXPXZXPXVX",
"VXPXZXKXHXPXHXJXJXJXJXZXJXGXKXGXPXVXPXVXPXHXJX .P 6 , 1 `.oX|.|.}.}.iXMXHXPXHXJXJXHXKXZXKXVXPXVXKXZXPXZXPXZXJXJXJXJXZXKXZXPXVXKX",
"KXVXPXHXJXHXJXJXHXJXJXJXGXPXZXKXVXPXVXPXHXJXJX%X4 , 2 F.).G.Z.C.N.T.JXDXJXHXJXJXJXJXHXPXHXPXVXPXIXKXHXKXHXJXHXJXJXHXJXHXKXHXKXZX",
"ZXKXHXJXIXJXJXJXJXJXJXJXJXHXJXHXKXSXPXHXKXHXKXvX0 : Q.}.Z.D.H.~.[.mXHXJXIXJXJXJXJXJXJXHXJXHXJXZXJXHXPXIXJXJXJXZXJXJXIXJXHXJXHXKX",
"IXJXJXIXJXJXJXJXHXJXJXJXJXJXJXJXHXJXJXJXHXJXHXJX6X[ oX|.|.|.OXwXMXJXJXJXJXJXJXJXIXJXJXJXJXJXJXJXIXJXJXJXJXJXJXJXJXJXJXJXJXJXJXJX",
"JXJXJXJXJXJXJXJXJXJXIXJXHXJXHXPXHXJXDXJXHXJXJXJXJXxX|.oXoXwXaXZXKXJXJXJXJXJXJXJXJXJXJXJXHXJXIXPXHXKXHXJXIXJXJXJXJXJXJXHXJXHXJXHX",
"VXKXZXKXHXJXZXJXJXHXPXHXKXZXKXVXPXSXKXHXLXHXJXJXJXSXaXaXNXJXVXLXVXPXZXKXHXJXZXJXJXHXPXZXKXHXKXVXKXZXKXZXPXHXJXIXJXJXHXKXZXKXZXLX"
};
