/* XPM */
static char *result[] = {
/* columns rows colors chars-per-pixel */
"64 64 132 2 ",
"   c #0B0401",
".  c #1C0B02",
"X  c #1D0B02",
"o  c #1E0B02",
"O  c #1E0C02",
"+  c #1F0C02",
"@  c #210D02",
"#  c #220D02",
"$  c #230D02",
"%  c #240E02",
"&  c #250E02",
"*  c #260E02",
"=  c #260F02",
"-  c #270F02",
";  c #260E03",
":  c #270F03",
">  c #280F02",
",  c #290F02",
"<  c #280F03",
"1  c #290F03",
"2  c #281002",
"3  c #291002",
"4  c #291003",
"5  c #2A1002",
"6  c #2A1003",
"7  c #2E1203",
"8  c #2F1203",
"9  c #301203",
"0  c #311203",
"q  c #301303",
"w  c #311303",
"e  c #321303",
"r  c #331303",
"t  c #331403",
"y  c #351403",
"u  c #351503",
"i  c #361403",
"p  c #371403",
"a  c #361503",
"s  c #371503",
"d  c #371504",
"f  c #381503",
"g  c #391503",
"h  c #381603",
"j  c #391603",
"k  c #3C1603",
"l  c #3C1703",
"z  c #3D1703",
"x  c #3E1703",
"c  c #381504",
"v  c #381604",
"b  c #3A1604",
"n  c #3B1604",
"m  c #3B1704",
"M  c #3C1604",
"N  c #3C1704",
"B  c #3D1704",
"V  c #3E1704",
"C  c #3E1803",
"Z  c #3F1803",
"A  c #863308",
"S  c #873308",
"D  c #873408",
"F  c #883308",
"G  c #883408",
"H  c #893408",
"J  c #893508",
"K  c #8A3408",
"L  c #8B3408",
"P  c #8A3508",
"I  c #8B3508",
"U  c #8B3509",
"Y  c #8C3508",
"T  c #8D3508",
"R  c #8C3509",
"E  c #8D3509",
"W  c #8C3608",
"Q  c #8D3608",
"!  c #8D3609",
"~  c #8E3608",
"^  c #8F3608",
"/  c #8F3708",
"(  c #8E3609",
")  c #8F3609",
"_  c #8F3709",
"`  c #903608",
"'  c #903708",
"]  c #913708",
"[  c #903609",
"{  c #903709",
"}  c #913709",
"|  c #923709",
" . c #923809",
".. c #933809",
"X. c #A43E0A",
"o. c #A53E0A",
"O. c #A53F0A",
"+. c #A63F0A",
"@. c #A73F0A",
"#. c #A7400A",
"$. c #A8400A",
"%. c #A9400A",
"&. c #A9410A",
"*. c #AA400A",
"=. c #AA410A",
"-. c #AB410A",
";. c #AA410B",
":. c #AB410B",
">. c #AC410A",
",. c #AD410A",
"<. c #AC410B",
"1. c #AC420A",
"2. c #AD420A",
"3. c #AC420B",
"4. c #AD420B",
"5. c #AE420A",
"6. c #AF420A",
"7. c #AF430A",
"8. c #AE420B",
"9. c #AF430B",
"0. c #B0430A",
"q. c #C84C0C",
"w. c #C94D0C",
"e. c #CA4D0C",
"r. c #CB4D0C",
"t. c #CC4D0C",
"y. c #CC4E0C",
"u. c #CD4E0C",
"i. c #CE4E0C",
"p. c #CF4E0C",
"a. c #CE4F0C",
"s. c #CF4F0C",
/* pixels */
"q.q.q.q.q.w.>.l X.r.q.q.q.e.=.M +.e.q.q.q.w.-.N O.r.q.q.q.e.%.N #.e.q.q.q.w.=.N +.r.q.q.q.e.$.k $.e.q.q.q.e.*.B @.r.q.q.q.e.$.% ",
"e.e.e.e.e.r.5.z O.u.e.e.e.y.>.B $.t.e.e.e.r.2.B +.y.e.e.e.y.=.N %.t.e.e.e.r.>.B #.u.e.e.e.y.=.z %.t.e.e.e.r.-.B $.y.e.e.e.y.&.% ",
"-.-.-.,.-.>...e Y 2.-.,.-.2.} e ~ ,.-.,.-.>. .e T 2.-.,.-.2.} e ^ ,.-.,.-.>.} e ( 2.-.,.-.2._ e / ,.-.,.-.>.} e ( 2.-.,.-.2._ X ",
"z z j 5 f x f * s x j 5 f x f * s x g 5 f x f * s x j 5 f x f * f x g 5 f x f & s x g 5 g x f * f x g 5 g x f & f x g 5 g x f @ ",
"X.+.T 0 S +.o.+.o.+.T 8 F +.o.+.o.+.Y 0 G +.o.+.o.+.Y 7 G +.o.+.o.+.I 0 H +.o.+.o.+.I 8 H +.o.+.o.+.P 0 H +.o.+.o.+.K 7 K +.o.+.",
"r.u.5.x #.i.r.r.r.u.8.N $.i.r.r.r.u.2.C $.u.r.r.r.u.4.N %.i.r.r.r.u.1.C %.u.r.r.r.u.<.N =.i.r.r.r.i.-.x =.u.r.r.r.u.:.N -.i.r.r.",
">.5...r Q 5.>.5.2.5...w Q 5.1.5.1.5. .r ~ 5.>.5.1.5.| 0 ( 5.1.5.1.5.} r ^ 5.1.5.1.5.} w ) 5.1.5.1.5.} r { 5.1.5.1.5.} w { 5.1.5.",
"l l f - s z f , s z f * s z f > s z f - s z f , s z f * s z f , f z f - s z f , s z s * s z f , f z s - s z f , f z s * s z f & ",
"X.X.X.O.X.O.T 9 A +.X.O.X.+.I 9 D O.X.O.X.O.Y 9 S +.X.O.X.+.P 9 G O.X.O.X.O.I 9 G +.X.O.X.+.H 9 H O.X.O.X.O.P 9 G +.X.O.X.+.H . ",
"y.y.y.y.y.i.0.x $.s.y.y.y.s.5.B =.i.y.y.y.i.7.V %.s.y.y.y.s.2.B -.i.y.y.y.i.5.V *.s.y.y.y.s.>.z >.i.y.y.y.i.2.V -.s.y.y.y.s.-.& ",
"-.-.-.1.>.1...r Y 8.-.,.>.4.} e ( 2.-.1.-.1. .e T 4.-.,.>.4.} e ( 2.-.1.-.1.} e ( 4.-.,.>.4.{ e ) 2.-.1.-.1.{ e ( 4.>.,.>.4._ o ",
"n m s 3 a m a % y m s < a m a % y m s 3 a m a % y m s < a m i % y m s 3 a m a % y m s < a m i % y m s 3 a m i % y m s < s m i @ ",
"o.@.Q e F @.o.+.O.@.! 8 G @.O.+.O.@.Y e G @.o.+.O.@.R 8 H @.O.+.O.@.Y w H @.o.+.O.@.U 8 H @.O.+.O.@.I w K @.o.+.O.@.U 8 P @.O.+.",
"y.i.6.Z $.p.y.y.u.p.9.N %.s.u.y.y.p.5.Z %.p.y.y.u.p.8.N =.s.u.y.y.p.2.Z =.p.y.y.u.p.4.N -.s.u.y.y.p.>.C -.p.y.y.u.p.<.N >.s.u.y.",
"=.>.} r I >.=.-.=.>.} w Y >.=.-.=.>.' r Y >.=.-.=.>.{ w ! >.=.-.=.>.` r Q >.=.-.=.>.) 0 ( >.=.-.=.>.^ r ( >.=.-.=.>.) 0 ( >.=.-.",
"N N s & i B v 6 s B s % a B f 6 f B s & i B c 6 s B s % a B f 6 f B s & a B c 6 f B s % a B f 6 f B s & a B c 6 f B s % a B f - ",
"+.+.@.$.@.@.( 9 D $.@.$.@.$.T 9 H $.@.$.@.@.~ 9 G $.@.$.@.$.Y 9 K $.@.$.@.@.Q 9 H $.@.$.@.$.I 9 I $.@.$.@.#.Y 9 K $.@.$.@.$.I . ",
"t.t.t.t.t.u.7.z #.i.t.t.t.i.2.B %.i.t.t.t.u.6.B $.i.t.t.t.i.>.B =.u.t.t.t.u.2.B %.i.t.t.t.i.-.z -.u.t.t.t.u.,.V *.i.t.t.t.i.-.& ",
"=.=.=.-.=.-. .e I 1.=.-.=.1.' e T >.=.-.=.-.| e Y 1.=.-.=.1.' e ~ >.=.-.=.-.] e T 1.=.-.=.1.^ w ^ -.=.-.=.-.' e Q 1.=.-.=.1.^ X ",
"z z j 3 f x g = s x j , f x f * f x j 3 f x f * s x j 3 f x f * f x j 3 f x f * f x j , f x f = f x j 3 h x f = f x j 3 g x f # ",
"O.@.~ 0 G @.+.@.+.@.Q 8 G @.+.@.+.@.T 0 H @.+.@.+.@.Y 8 H @.+.@.+.@.Y 0 H @.+.@.+.@.Y 8 K @.+.@.+.@.I 0 P @.+.@.+.@.I 8 I @.+.@.",
"r.u.5.V #.u.r.r.r.u.8.N $.i.r.r.r.u.2.C $.u.r.r.r.u.4.N %.i.r.r.r.u.1.C %.u.r.r.r.u.<.N =.i.r.r.r.i.-.x =.u.r.r.r.u.:.N -.i.r.r.",
"-.2. .r Y 2.>.2.1.2. .q T 2.>.2.1.2.} r Q 2.>.2.1.2.} 0 ! 2.>.2.1.2.} r ~ 2.>.2.1.2.} w ( 2.>.2.1.2.{ r ) 2.>.2.1.2.{ w _ 2.1.2.",
"N B c : d B h > s B f = s B f > s B c : d B f > s B f = s B f > s B d : d B f > f B f = s B f > f B d : d B f > f B s = f B f & ",
"O.O.O.+.O.+.( 9 S @.O.+.O.@.Y 9 H +.O.+.O.+.Q 9 D @.O.+.O.@.I 9 H +.O.+.O.+.Y 9 G @.O.+.O.@.P q P +.O.+.O.+.I 0 H @.O.+.O.@.P . ",
"y.y.y.y.y.i.0.x $.s.y.y.y.s.5.B *.i.y.y.y.i.7.V %.s.y.y.y.s.2.B -.i.y.y.y.i.5.V *.s.y.y.y.s.>.z >.i.y.y.y.i.2.V -.s.y.y.y.s.-.& ",
"=.=.=.-.-.-.| e I 4.=.>.-.3.{ e E >.=.-.-.>.} e Y 3.-.>.-.3.[ e ( >.=.-.=.>.} e ! 3.-.>.-.3.) e ) >.=.-.=.>.{ e ( 3.-.>.-.3.) o ",
"n m s > i m a & y m s < a m a & y m s > a m a & y m a : a m a & i m a > a m a & y m a : a m a & i m a > a m a & a m a : a m a # ",
"+.$.~ e G $.+.#.+.$.( 8 H $.+.#.+.$.Q e H $.+.#.+.$.E 8 H $.+.#.+.$.Y e K $.+.#.+.$.R 8 P $.+.#.+.$.Y e I $.+.#.+.$.R 8 I $.+.#.",
"y.i.6.Z $.p.y.y.y.p.9.N %.s.y.y.y.p.5.Z %.p.y.y.y.p.8.N =.s.y.y.y.p.2.Z =.p.y.y.y.p.4.N -.s.y.y.y.p.>.C -.i.y.y.y.p.<.N >.s.y.y.",
"%.=.} r I -.%.=.%.=.} w I -.%.=.%.=.' r Y -.%.=.%.=.[ 9 Y -.%.=.%.-.^ e Y -.%.=.%.=.) 9 Q -.%.=.%.-.~ r ( =.%.=.%.-.( 0 ~ -.%.=.",
"N N s & a N c 6 s N s & a N f 4 s N s & a N c 4 s N s & a N f 4 s N s & a N c 4 s N s & a N f 4 f N s & s N c 4 s N s & a N s - ",
"#.#.#.%.#.$.) 0 G %.#.%.#.%.! q K $.#.%.#.$.~ w J &.#.%.#.%.! 9 I $.#.%.#.$.~ w P &.#.%.#.%.Y 9 Y $.#.%.#.$.T 0 P &.#.%.#.%.Y . ",
"t.t.t.t.t.u.7.z @.i.t.t.t.i.2.B %.i.t.t.t.u.6.B $.i.t.t.t.i.>.B =.i.t.t.t.u.2.B %.i.t.t.t.i.-.z -.u.t.t.t.u.,.V *.i.t.t.t.i.-.& ",
"%.%.%.-.%.=.| e L -.%.-.*.-.` w Y -.%.-.%.=.} e I -.%.-.%.-.^ w Q -.%.-.%.=.' e Y -.%.-.%.-.~ w ~ -.%.-.%.-.^ w T -.%.-.%.-.~ X ",
"z z j 3 f x g - s x j > f x f - f x j 3 f x g - f x j > f x f - f x j 3 f x f - f x g > f x f - f x j 3 f x f - f x f > f x f $ ",
"+.$.~ w H $.@.$.@.$.~ 8 H $.@.$.@.$.~ 0 H $.@.$.@.$.~ 8 K $.@.$.@.$.Q w P $.@.$.@.$.T 8 L $.@.$.@.$.Y w I $.@.$.@.$.Y 8 Y $.@.$.",
"r.u.5.V #.u.r.r.r.u.8.N $.i.r.r.r.u.2.C $.u.r.r.r.u.4.N %.i.r.r.r.u.1.C %.u.r.r.r.u.<.N =.i.r.r.r.u.-.x =.u.r.r.r.u.:.N -.i.r.r.",
"=.>.} e I >.=.>.-.>.} q Y >.-.>.-.>.] e Y >.-.>.-.>.} 9 E >.-.>.-.>.' e Q >.-.>.-.>.{ 9 ( >.-.>.-.>.^ e ~ >.-.>.-.>._ 9 ( >.-.1.",
"N B f < s B f - s B f - s B f - s B f < s B f - s B f - s B s - s B f < s B f - s B f - s B s - s B s < s B f - s B s - s B s % ",
"+.+.+.@.+.#.( 0 G $.+.#.+.$.Y 9 H #.+.@.+.#.~ w G $.+.#.+.$.Y 9 P #.+.@.+.#.Q 0 H $.+.#.+.$.I q I @.+.@.+.#.Y 0 K $.+.#.+.$.P X ",
"y.y.y.y.y.i.0.x $.s.y.y.y.s.5.B *.i.y.y.y.i.7.V %.s.y.y.y.s.2.B -.i.y.y.y.i.5.V *.s.y.y.y.s.>.z >.i.y.y.y.i.2.V -.s.y.y.y.s.-.& ",
"%.%.%.=.*.-.| e L <.*.-.*.:.) w Y -.%.=.*.-.} e I :.*.-.*.:.) w T -.%.=.*.-.{ e R :.*.-.*.:.( e ~ -.%.=.%.-.) e E :.*.-.*.:.( X ",
"n n s - i m s * y m a : i m a & y m a - i m a & y m a : i m a & i m a - i m a & y m a : i m i * a m a - a m a & i m a : i m i $ ",
"@.%.^ e H %.#.$.#.%.( 9 K %.#.$.#.%.~ e K %.#.$.#.%.( 9 P %.#.$.#.%.T e L %.#.$.#.%.E 9 I %.#.$.#.%.Y e Y %.#.$.#.%.R 9 Y %.#.$.",
"u.p.6.Z %.p.u.y.u.p.9.N %.s.u.u.u.p.5.Z %.p.u.u.u.p.8.N =.s.u.u.u.p.2.Z =.p.u.u.u.p.4.N -.s.u.y.u.p.>.C -.p.u.u.u.p.<.N >.s.u.y.",
"$.=.{ e P =.$.%.$.=.{ 9 K =.$.%.$.=.^ e I =.$.%.$.=.) 9 I =.$.%.$.=.~ e I =.$.%.$.=.( 9 Y =.$.%.$.=.Q e Y =.$.%.$.=.! 9 T =.$.%.",
"k l s * a l f , s z s & i z f , s l s * a l f , s z s & i z f , s z s * a l f 3 s z s & p z f , f z s * a l f , s z s & p z f = ",
"$.$.$.%.$.%.{ w H =.$.%.$.=.( w I %.$.%.$.%.) w P =.$.%.$.=.( 0 Y %.$.%.$.%.) w I =.$.%.$.=.T 0 R %.$.%.$.%.( 0 I =.$.%.$.=.Y . ",
"t.t.t.t.t.u.7.z @.a.t.t.t.i.2.B %.i.t.t.t.u.5.B $.a.t.t.t.i.1.B =.u.t.t.t.u.5.B %.i.t.t.t.i.-.z -.u.t.t.t.u.,.V *.i.t.t.t.i.-.& ",
"$.$.%.*.%.%.} e K -.%.*.%.=.^ w I *.%.*.%.%.{ w P -.%.*.%.=.~ w Y *.%.*.%.*.^ w I =.%.*.%.=.Q w T *.%.*.%.*.~ w Y =.%.*.%.=.T X ",
"z z j 2 f x g - s x g > f x f - f x g 2 f x g - f x g > f x f - f x g 2 f x f - f x g > f x f - f x f 2 f x f - f x f > f x f $ ",
"#.%.) e H %.$.%.$.%.^ 9 K %.$.%.$.%.~ e P %.$.%.$.%.~ 9 I %.$.%.$.%.Q w I %.$.%.$.%.Q 8 I %.$.%.$.%.Q w Y %.$.%.$.%.T 8 Y %.$.%.",
"r.u.5.V #.u.r.r.r.u.8.N $.i.r.r.r.u.2.x $.u.r.r.r.u.4.N %.i.r.r.r.u.1.C %.u.r.r.r.u.<.N =.i.r.r.r.u.-.x =.u.r.r.r.u.:.N -.i.r.r.",
"%.-.{ e I -.*.-.*.-.{ 9 I -.*.-.*.-.' e Y -.*.-.*.-.{ 9 R -.*.-.*.-.^ e W -.*.-.*.-.) 9 ! -.*.-.*.-.~ e Q -.*.-.*.-.( 9 ( -.*.>.",
"B B f 1 s B f - s B f > s B f - s B f 4 s B f - s B f > s B f - s B f 4 s B f - s B f > s B f = s B f 1 f B f - s B f - f B s $ ",
"@.@.@.$.@.$.) w G %.@.$.@.%.Q w P $.@.$.@.$.) w H %.@.$.@.%.Q w I $.@.$.@.$.~ w K %.@.$.@.%.Y w I $.@.$.@.$.T w I %.@.$.@.%.Y X ",
"y.y.y.y.y.i.0.x $.s.y.y.y.s.5.B *.i.y.y.y.i.7.V $.s.y.y.y.s.2.B -.i.y.y.y.i.5.V *.s.y.y.y.s.>.z >.i.y.y.y.i.2.V -.s.y.y.y.s.-.& ",
"$.$.%.%.%.*.} w K :.%.*.%.;.) w Y =.$.%.%.*.{ w P ;.%.*.%.;.( w Y =.$.%.%.*._ e I ;.%.*.%.;.! w Q =.$.*.%.*.( e R ;.%.*.%.;.! X ",
"b n a = y m a = y m a ; y m i = u m a = u m a * y m a ; y m i * a m a = a m a = i m a ; i m a = a m a = a m a = i m a ; i m i % ",
"#.%.` e K %.$.%.$.%.) 9 P *.$.%.$.%.^ e I %.$.%.$.%.( 9 I *.$.%.$.%.~ e Y %.$.%.$.%.( 9 Y *.$.%.$.%.Q e Y %.$.%.$.%.! 9 T *.$.%.",
"u.p.6.Z %.p.u.u.u.p.9.N %.s.u.u.u.p.5.Z %.p.u.u.u.p.8.N =.s.u.u.u.p.2.Z =.p.u.u.u.p.4.N -.s.u.u.u.p.>.C -.p.u.u.u.p.<.N >.s.u.u.",
"$.&.{ t P &.$.$.$.&._ w K =.$.$.$.&.^ r I &.$.$.$.&.) w I =.$.$.$.&.~ r I &.$.$.$.&.( w Y =.$.$.$.&.Q r Y &.$.$.$.&.! w W &.$.$.",
"% % +   o % % % % % +   o % % % % % +   o % % % % % +   o % % % % % +   o % % % % % +   O % % % % % O   O % % % % % O   O % % % "
};
