/* XPM */
static char *result[] = {
/* columns rows colors chars-per-pixel */
"64 64 239 2 ",
"   c #15192F",
".  c #0C1233",
"X  c #091639",
"o  c #121B34",
"O  c #141937",
"+  c #111639",
"@  c #151A3C",
"#  c #191C3D",
"$  c #291F35",
"%  c #1B2C2B",
"&  c #1C3628",
"*  c #1C2839",
"=  c #233A2F",
"-  c #272535",
";  c #263738",
":  c #2B5A1B",
">  c #2F6E0E",
",  c #34740E",
"<  c #377A0E",
"1  c #306113",
"2  c #346E13",
"3  c #38691D",
"4  c #347313",
"5  c #387614",
"6  c #3A7B14",
"7  c #3D771B",
"8  c #3F781B",
"9  c #294629",
"0  c #2C5127",
"q  c #34572A",
"w  c #2C4633",
"e  c #334A39",
"r  c #395737",
"t  c #396826",
"y  c #3D7422",
"u  c #3D6633",
"i  c #6B5812",
"p  c #417E17",
"a  c #4E7911",
"s  c #407319",
"d  c #417D1C",
"f  c #6E6F11",
"g  c #455936",
"h  c #665931",
"j  c #436E2B",
"k  c #50652C",
"l  c #427523",
"z  c #447C23",
"x  c #47792A",
"c  c #456839",
"v  c #4A7635",
"b  c #527C38",
"n  c #786D2E",
"m  c #151C41",
"M  c #1A1E42",
"N  c #1C2245",
"B  c #1E2349",
"V  c #1C2750",
"C  c #242847",
"Z  c #22264C",
"A  c #24294D",
"S  c #322E49",
"D  c #2B3748",
"F  c #37374C",
"G  c #252B52",
"H  c #212A54",
"J  c #2A2D54",
"K  c #2B2F59",
"L  c #312E59",
"P  c #2C3055",
"I  c #27335C",
"U  c #2D315A",
"Y  c #373857",
"T  c #33345D",
"R  c #2A3665",
"E  c #343661",
"W  c #373963",
"Q  c #3B3B65",
"!  c #343B6C",
"~  c #3D3D6A",
"^  c #413F56",
"/  c #433F64",
"(  c #403E6C",
")  c #354848",
"_  c #3F5A45",
"`  c #3C4758",
"'  c #364264",
"]  c #354475",
"[  c #3D7575",
"{  c #484A48",
"}  c #415949",
"|  c #494E56",
" . c #495A59",
".. c #4A6947",
"X. c #516F4E",
"o. c #567A49",
"O. c #4B6654",
"+. c #777750",
"@. c #454967",
"#. c #43436E",
"$. c #4A4D6C",
"%. c #514D65",
"&. c #4C5965",
"*. c #4E566D",
"=. c #525B6B",
"-. c #454373",
";. c #484475",
":. c #4B4B74",
">. c #4A4778",
",. c #4E4A7A",
"<. c #514D7C",
"1. c #4F5472",
"2. c #565778",
"3. c #53527C",
"4. c #615B68",
"5. c #586868",
"6. c #5D7263",
"7. c #63796A",
"8. c #687578",
"9. c #8D7C14",
"0. c #A07C11",
"q. c #A67626",
"w. c #4A8917",
"e. c #45811D",
"r. c #4B851F",
"t. c #4F881F",
"y. c #498327",
"u. c #4C8425",
"i. c #4D8A21",
"p. c #508727",
"a. c #528B21",
"s. c #51842C",
"d. c #558B2C",
"f. c #598E2B",
"g. c #4E9521",
"h. c #579123",
"j. c #5B9323",
"k. c #5E9A27",
"l. c #589528",
"z. c #5E992C",
"x. c #568836",
"c. c #5A8E32",
"v. c #5D9431",
"b. c #5B923A",
"n. c #608B22",
"m. c #629B2A",
"M. c #659C36",
"N. c #669839",
"B. c #5FA527",
"V. c #66A229",
"C. c #68A228",
"Z. c #6DAA2C",
"A. c #66A130",
"S. c #6BA433",
"D. c #6FAB35",
"F. c #6CA33B",
"G. c #73AE31",
"H. c #72A63E",
"J. c #72AB3A",
"K. c #79B33B",
"L. c #5B8347",
"P. c #648C4B",
"I. c #679846",
"U. c #6C9752",
"Y. c #6FA245",
"T. c #75A845",
"R. c #7BA756",
"E. c #6E876E",
"W. c #978B12",
"Q. c #929152",
"!. c #83B64F",
"~. c #A4A356",
"^. c #8E8E67",
"/. c #85AE64",
"(. c #88B262",
"). c #8CB077",
"_. c #96B87C",
"`. c #A6A972",
"'. c #95C264",
"]. c #AACB77",
"[. c #E4E475",
"{. c #334F8A",
"}. c #335694",
"|. c #3A6491",
" X c #3A74B5",
".X c #534D81",
"XX c #4F5983",
"oX c #575486",
"OX c #5A5584",
"+X c #5C5A83",
"@X c #5E5A8B",
"#X c #605F83",
"$X c #625D8D",
"%X c #645E90",
"&X c #676789",
"*X c #64638C",
"=X c #74788C",
"-X c #696595",
";X c #696596",
":X c #716C9D",
">X c #4E7BAF",
",X c #746FA1",
"<X c #7974A4",
"1X c #807F88",
"2X c #7CAA90",
"3X c #4E88AF",
"4X c #639BA4",
"5X c #729BBC",
"6X c #529FC3",
"7X c #7DB0D0",
"8X c #66C5D7",
"9X c #9A9F9D",
"0X c #84AB8C",
"qX c #9CBC84",
"wX c #A0BE8B",
"eX c #8281A7",
"rX c #ACACB8",
"tX c #96C491",
"yX c #ABC696",
"uX c #ABC992",
"iX c #B3CD9A",
"pX c #AFE792",
"aX c #B4CBA6",
"sX c #BBD2AA",
"dX c #D9EC9D",
"fX c #EDEF93",
"gX c #C4DBAD",
"hX c #C3D6B7",
"jX c #89BAD2",
"kX c #80C8DB",
"lX c #A2EFDA",
"zX c #B7F5F0",
"xX c #D9E5D0",
"cX c #E4EDDD",
"vX c #E6E9E7",
"bX c #ECF3E7",
"nX c #F0F6EC",
"mX c #F5F8F2",
"MX c #FEFEFD",
/* pixels */
"a.a.a.h.d h.m.r.h.m.u.h.t.r.h.t.h.p m.t.a.t.C.e.m.a.p f f a.e.m.3 p.e.V.a f a 8 K.D.e.r.J., m.a.h.< j.h.r.D.m.8 t.J.e.m.j.a.e.h.",
"5 k.i.V.t.t.V.d a.h.i.e.r., Z.t.K.e.a.m.p t.m.r.p t.d n.f W.w.j g g i.W.9.f a.w.k.h.k.< h.h.r.t.j.t.6 r.h.h.h.j.w.j.t.i.w.a.w.p ",
"m.i.e.u.h.d h.e.C., a.6 6 m.r.t.e.h.6 h.s m.p i.8 t.h.e.f 0.W.h n 9.f W.9.a h.h.8 i.t.r.e.r.A.e.i.p > m.t.8 t.a.e.i.t.F., a.5 , ",
"m.< e.t.Z.5 r.h.p a.s , S.k.p p r.Z.d.4 m.p a.e.6 G.i.a.1 P.n q.0.q.9.+.k 5 S.8 t.< h.e.D.p z a.5 p p m., t.e.m., A.t.d a.5 > i.",
"G.< j.8 m.t., 8 i.i.A., h.D.t.w.s v.5.j 6 e.h.k.8 z.J.m.y E.2Xh i i { 2XE.d H.S.J., r.e.m.s.&.2 F.e.w.G.e.J.5 h.5 e.r.i.8 F., a.",
"p M.r., e.h.i.h.i.F.8 < K.e.T.u d 9 5.x.p e.v.8 w.K.i.F.z P.X.h i n { P.d t.h.h.d.s t.e.y.l. .w l u a.e.c.i., t.i.p j.e.D.8 , m.",
"< A.4 r.v., A.4 7 e.e.d k.4 b &.u $.X.m.8 8 y.t.y.h.6 M.o.O.#X*X%X-X;X*.O.I.t.t.j.d J.e.V.a.O.$.0 =.v e.m.e.e.F., D.8 6 8 , e.Z.",
"a.y.d k.r.t.h., e., F.l.8 k.& $.; -.o.h.e.t.e.G.i.8 b.w ] ! ] R ~ ! ] ! ! ' 0 N.r.e.u.a.k.e.O.$.; &.& t.c.r.a.z h.j.< , < f.m.5 ",
"u.i.7 a.e.u.5 r.8 h.i.a.7 y . Q M :...5 d d F.3 r D M @ M Q R M M M H R R m M M _ r z p d i.O.<.@ Y X 3 h.> t.t.8 e.t.d i.z.e., ",
"F.6 p.p h.F.r.i.8 r.t.e.z.c.o P Y O D t y.d j * ~ K Q Z J ( G M + m Z L ( A T W E T 9 d s.x C + ' P o s.6 d.< h.z.u.r.> r.e.e.T.",
"a.e.e.K.i.i.f.7 c.s.y.y D.u ; N T P A ) 5.b.* W U Q K E ( W W ~ %XoX( E ( #.P E U E L w 8.} N J Y B ; u y.s.Y.T.d.M.l e.k.e.8 m.",
"a.d a.a.8 y.% C &X2.' ' [ ] J XXkX;XK J ,Xv  .# @ Z K @XW ( ' .X%X%X>.( Q ] .XZ N + S } :XU K XXjXXXH [ 4X@.2.&X&Xo = 5 i.7 V.a.",
"G., d h.t.K.z * Z J XX' 3XG ' 7XzX7XW R <X1.q . . . . B H W #.@X:X@X*XW -.N N X . . % $.<XW ] 7XzX5X~ G |.P :.A V ; 4 Z.A.8 h.u.",
"e.h.t.m.d t.Z.t * D eX*X' V G Y 5X' K .X*X,.@ . M H R  XXXL N B %XZ N N R |.}.R A m + -.%X@XP ' 5X' K G U -XeXo * M.e.k.h.h.8 r.",
"e.k.r.B.t.t.m.e.h.w.s.2.$X-.' ( T ' $X,.m N N N V R  XlXzX>XR J / Z G ] 7XzX8X}.J H @ N m ;.+X#.T ~ ~ ;.#X2.P.h.p h.t.t.w.r.t.6 ",
"V.r.r.d h.p a.a.j., t.= N $X*X:X;XoX* . . ; ` R H V }.8X8X{.G M ,.<.Z R 3X8X6X{.H J P T . . C @X;X;X;XOX* 9 d h.p t.t.D.5 i., < ",
"m.< r.i.A.w.4 t.s a.7 9 B ,.F Y A + .   & j ` J N U K {.{.Z M Z $X( L M I }.! G J N U 6.& . . N A K Q L * z d m., a.d e.r.6 , a.",
"Z.p k.6 o.x 5 e.a.l - T .X:X<.A - = b 2 , p b * . Z J ,.3.G Z ( $X( E J A OXR J . + w e.k.r.0 % ) ` S $.#.D : j.5 a.t.y.d F., a.",
", Y.x _ @. .x ..7...T / ;XoXJ = 3 s m.h.a.a.x D B @ . . . M N K 3.:.K M M . . . M B e 6 d m.d a.l F S -X%XT * q p p F.d V.8 , m.",
"6 o.}  .O.@.*.&XY +X~ ,.$.A c 5 m.p.e.h.6 z d t C M Z Z N N Z E ,./ Z G M M Z Z M ; F.i.J.e.4 7 > = D ( %XOXS k 8 G.c 1...u d.m.",
"i.d 6 h.l o.=XY &XJ Y <X:.= 4 6 m.i.a.h.d t.r.v.& . . . . . + + / . + . . . . X . 0 y.t.a.e., p S.a.1 C ~ S F d s.&.1.1.*.=.O.5 ",
"g.t.d t.t.E.u +XP :.#X/ &.........c x , d 8 J.p & . X # { # # m :.. . # - { @ . . 0 i.7 e.e.p i.m.4 p 9 C Y ;.%.*X@.O...a.h.y.6 ",
"M.5 p.t.S.k.c.C Q :.C $X5. .@.@.@.&.N.M.d r.d t . . X `.fX/ ~.Z F - ^ Q.=XfX@.X . o p.6 M.h.2 p.l z T.o.#X<.~ @.| E.P.> d d 4 K.",
"i.i.y.P.....X.{ 2.S 1.=.o.u..._ O.l i.h.d k., t + m I 0XdXiXfX1XfX9X9XfX0XpX=XV @ O F.t.m.s. .1.1.1.*.5.1.;X1.L 2.| E.L.m.e.d h.",
"h.5 r.O.@.@.j N.l 8.v  . .V.6 i.m.p t.6 J.i.r.: O V ` pX0XpX2XdX[.fX[.2X].0X`.P N O p.5 r.a.d.=.=.5.s.x 7.L P *XP :.P.b x d J.i.",
"Z.8 j @. .I.r.e.h.G.e. .@.M.y.6 m.p H.p a.p m.q * E J ^.4.~.+.^.xXgX$.Q.=.+.@.W Z * a.e.h.> Z.e.d a.j.o.1.8.^ ' 3.; &.1.=.l a.i.",
"6 k...N.d d J.e.u.j.t. .@.y G.8 m.d r.G.a.p C.l e T J K K F P E 6X[ I ) G U J W D c t.6 m.d h.a.h., a.O.1.x.E.{ e M.j &.1.O.p r.",
"e.h.y.B.t.a.m.e.k.8 8 ..@._ m.i.Z.e.a.m., S.h.d x ` ~ ~ Q U J E ` ' I P E ~ ~ Q c a.k.e.a.h.e.m.j.p 2 =.*.p.j.E.z a.p.h.X.X.p., ",
"V.d a.6 m.< r.h.h.p i.5 c  .5 i.e.C.p e.Z.h.p i.5 c _ W >..X>.Q ;X>.E .X.X$.} x 8 d a.r.a.d m.i.d d t *.&.u.6 h.6 a.r.z.d z , , ",
"S., e.i.Z.t., e.e.t.a.4 h.X.y.8 a.Z.J.> i.s p.a.q U G U ~ >.@XoX;X,X.XOX=.b G.d h.4 h.e.z.8 a.e.< r.X.=.u i.e.m.5 r.d r.a.6 , a.",
"M.a.h.5 h.w.4 y.r.a.p.6 j.z.A.t.p a.C.5 4 d M.r I B J V B G Z E J K T c u q L.v L.4 h.p j.a.7 , M.y.v T.w.m., a.< t.t.e.e.c.p a.",
"< G.6 , r.r.h.C.e.m.u.4 K.< v.d p t.h.m.a.i.c W -.P U P G B G ,.( ;.,.D P U G J ) t t.< e.A.8 a.8 p m.w.H.6 , a.p 6 H.p k.5 5 D.",
"r.H.u.m.a.r.m., 8 8 u.V.h.y.M.e.J.i.t.h.6 t OXY *X;.~ :.N . N ;..X,.( Z G N K H H I b p.G.d , 8 , j.i.p.F.a.a.v.y.G., , 5 , D.a.",
"r.p 5 j.d a.e.6 r.> z.a.6 i.6 6 m.8 t.t.e.z | @X:XoX.XS   . . B L L . + G G E E G J ` j e.y.6 e.K.p , t.p.6 a.d a.p 6 8 , J.e., ",
"V.i.y.d e.z 4 r.8 k.r.j.d F.e.i.d d i., r.p ..$X$X$X/ m . . 9 O Z B   w + G B H Y E Z A r.e.8 a.k., h.u.i.5 t.p z p t.8 a.h.i.i.",
"v.4 d.k.D.a.D.u.e.8 r., D.h.p z j.A.F.S.y.a.3 C K T * k : l d e O   j & . $ 4.$ 2.7.7...F.a.4 h.7 d D.D., H.h.M.d F.r.4 d d , J.",
"d a.5 A.z i.h.a.e.e.r.8 m.e.e.2 J.e.a.a.r.h.1 A ( E C l > H.r.p.h.p m.& . + OX3.<X=X&Xv a.h.5 V.6 8 a.i.i.p h.d.a.h.h., j.e.8 j.",
"m.4 i.j.a.a.6 m.a.8 6 D.5 D.p a.m.e.h.4 G.p.} K $X;.+X7.c.m., t.6 G.e.z j k D <.%X%X2.3 r.e.m.8 u.z.a.h.d i.r.h.a.e.a.j.s d J.i.",
"m.t.u.h.r.C.h.e.h.G.d j.w.m.r.e.h.e.G.r.h.d 7.J OXoXT :.o.a., D., h.< h.d m.g N T L 9 6 z., C.w.i.r.j.h.u.m.h.a.h.h.e.m.C.e.i.a.",
", m.6 H.e.d G.d e.j.i.e.a.< K.p C.s r.J.d p j # @ m M e l m.p h.m.r.r.m.p p r C Q ( w 8 h.t.t.r.h.5 i.p h.r.H.r.d z.d t.a.a.p p.",
"w.h.d g.h.a.m.e.S.6 r.e.d 6 h.d C.a.r.m.< J.; A J G N M w m.z r.j.< A.h.s y.6.Q %X$X) z d h.t.h.h.7 < V.h.e.g.h.t.i.t.j.8 t.e., ",
"m.< t.6 Z., t.m.i.r.r., h.m.6 r.t.Z.w.8 G.c U OX,X$XQ G K &XP.h.s J.a.5 e.6.N $.@X<.@.s.k.d k.t.8 7 , j.e.t.6 k., j.t.h.t.8 < 6 ",
"G., i.i.C.t.> 6 r.r.V., h.D.p e.e.V.J.> c +X,.T Z G ;.:.Q ) x.K.s r.s r.h.0 Z # + + * 3 z.8 t.8 p r.a.D.> h.p j.6 d d t.y.r., t.",
"m.j.a., r.e.p e.r.M.y.8 k.k.J.a.e.r.V.b #.# *.C @X~ Y &XF ;.:.Y.r.> < F.z ; M M Z G C t j.a.8 4 d.r.r.D.e.h., r.d e.t.r.i.i.8 j.",
", D.6 , a.6 S.a.d a.d d S.> m.6 p a.y.M.0Xc hXrXQ =XnXyXd.=XC x.K.r.r.7.&.A G ( <X<X~ D e.D.e.t.4 r.J.w.D.8 4 h.6 r.z.p i.4 e.J.",
"t.F.t.k.p.w.m.4 p 5 j.A.i.p.c.e.J.a.Y.N.gXxXsXMXMXMXMXwXaXsXh.R.t.6 s k C T >.( B N ;.E 5.d > z , S.8 t.D.r.a.p.t.Z., > 4 6 D.r.",
"d r.6 j.8 a.p u.i.4 z.a.8 d d e.m.d Y.c.I.a.d._.MXMXyX6 f.H.I.iXa.i.s.<.#.( ( # ;.-.# .XJ =Xe.p K.6 < 8 h., h.u.t.8 e.u., K.u., ",
"D.r.r.8 e.d., t.7 h.i.h.p.J.d t.p p a.b.).z iX/.S.8 /.).a.qXU.u.8 x 4XC  .!.mXrX<X:X9XP.D ; 5 p.h.6 A.i.e.z 8 d i.8 i.5 a.i.r.j.",
"a.4 d.J.j.p.S.d a.e.i.4 K.h.d z m.p.c.m.p j.c.bXbXnXbXM.4 m.e.M.h.e.T.v nXuXmXMXvXvXmX/.bXR.e.K.8 7 z.m., A.A.J.i.J.p d j.e., D.",
"d i.5 k.d r.u.m.p r.s e.m.e.d 2 K.p r.t.d.a.8 R.cXcX/.6 > J.t.e.t.v.xXd.hXa._.bXMXMXiXw._.R.qXT.d i.h.y.a.8 a.z p.i.m., h.d d h.",
"G.> a.i.r.G.e.p.a.i.d S.5 G.8 a.m.p m.p m.d h.U.'.I.gXv.r.m., h.6 V.5 _.N.!.uX/.R.U.uXI.m.aX!., r.h.k.j.6 a.d h.M.t.e.V.d i.m.i.",
"m.t.u.h.r.m.h.r.j.C.d j.a.k.t.e.h.p G.e.a.r.T.xXMXMXcXY.h.a.s G.< a.5 m.p m.wXsX]._.sXs M.4 C.e.h.e.j.h.r.G.a.r.h.m.6 m.m.e.i.a.",
", m.r.S.r.e.C.r.t.j.t.e.t., Z.r.J.p a.C.p z m.v.sXsXd.G.t.G.5 a.j.e.6 C.r.6 N.sXbXcXT.6 h.a.r.p h.e.e.e.t.a.m.h.p j.u.i.e.a.r.r.",
"a.a.p g.a.a.m.p G., t.d e.w.a.d m.a.e.m.5 G.d y.y.a.t.a.t.h.w.e.h.6 m.t.8 e.V.i.y.f.(.r.p a.h.r.a.6 , m.t.e.g.h.t.r.t.C.< a.p , ",
"m.6 t.e.Z., a.j.e.t.d , Z.m.p e.a.C.t.d C.i.N.sXsXnX/.e.6 a.f.m.e.M.t.p d 8 _.cXmXmXiXd F.t.i.a.8 8 5 m.6 t.p m., C.t.e.h.p > e.",
"G., h.e.m.t.> p i.r.A., a.G.e.e.d C.J., p z a.H.yXtXC.j., d j.K.p p 5 a.j.a.A.uXMXxXj.e.v.e.r.6 t.e.t.Z.6 k.p g.4 y.8 t.l j., t.",
"r.v.p., d h.p i.r.F.8 6 D.i.J.i.e.d m.r.< p M.p d G.h.J.e.t.p m.a., < v.d e.m.h.I.z a.y.t.h.d e.i.p a.a.p.p., r.r.d h.e.A.z 6 k.",
", S., 6 a., J.8 8 t.8 y.V., m., e.i.p K.d p p a.M.qXd v.6 a.a.y.K.d z d r.m./.qXhXhXV.8 i.Z.e.d > t.K.d m.e.5 k.< h.a.p u., e.J.",
"h.f.r.k.a.a.z., e.< Z.z.d z.y.y.G.i.h.h.p r.p K.a.U.F.u.z D.a.j.t.p e.d K.e.c.(.xX_.d.h.k.e., d 6 J.4 h.M.a.r.y.h.m.6 > 5 w.F.5 ",
"p r.s h.d r.6 i.r.8 h.t.7 5 e.y.m.8 i.8 y.t.j.d I.yXt.p a.h.d d t.r.r.C., w.8 t., a.h.e.8 i.r.e.K., , l a.4 h.t.r.5 t.r.6 J.e., ",
"H.d i.6 i.F., i.7 i.i.y.l.J.6 i.8 t.v.5 e.y.h.i.d.p.h.6 r.e.5 p.d 6 t.h.r.z.6 8 s.b.y.8 d r., t.i.y.D.i.d y.6 i.m.e.i.2 i.u.y.D.",
"h.5 p.G.a.i.m.7 h.i.i.4 K.i.y.8 V.8 i.h.l k., i.e.K.i.a., M.p M.a.d J.< r.r.V.e.(.R.K.r.J.r.r.K.7 8 j.j.5 A.F.J.i.J.8 i.k.d 5 m.",
"e.u.u.h.8 r.d D.s i.6 i.h.h.7 8 Z.8 8 r.k.i.e.e.a.a.D.y , Z.d s a.i.m.8 m.a.e.D.qX).d.e.8 k.< m.d V.a.d h.e.r.z i.8 G., a.8 j.h.",
"J., u.t.t.K.i.r.f.h.i.k.< K.d r.m.e.V.e.t.e.h.i.K.< k.e.e.m.6 h.< k., a.a.K.e.i.I.b.h.r.h., A.4 t.h.m.z., i.8 h.J.t.6 S.a.u.h.r."
};
