/* XPM */
static char *result[] = {
/* columns rows colors chars-per-pixel */
"64 64 247 2 ",
"   c #0E1A2F",
".  c #141B2E",
"X  c #0C1233",
"o  c #0E163A",
"O  c #111535",
"+  c #131C34",
"@  c #111639",
"#  c #151A3C",
"$  c #231E38",
"%  c #1B302B",
"&  c #1C2736",
"*  c #1B253C",
"=  c #262C33",
"-  c #243737",
";  c #26531D",
":  c #2F6E0E",
">  c #34740E",
",  c #377A0E",
"<  c #2F6419",
"1  c #346F14",
"2  c #386A1B",
"3  c #347412",
"4  c #387614",
"5  c #3A7B14",
"6  c #37721A",
"7  c #3C771B",
"8  c #3F781B",
"9  c #27452A",
"0  c #32462B",
"q  c #2E5527",
"w  c #345929",
"e  c #2B4632",
"r  c #324739",
"t  c #375737",
"y  c #3A6726",
"u  c #3E7224",
"i  c #3E6835",
"p  c #5D5B08",
"a  c #64501C",
"s  c #417E17",
"d  c #42741C",
"f  c #417D1C",
"g  c #557715",
"h  c #616D11",
"j  c #716E12",
"k  c #41583A",
"l  c #43692B",
"z  c #457726",
"x  c #457D23",
"c  c #45792A",
"v  c #456B37",
"b  c #4C7638",
"n  c #517A39",
"m  c #6F6B2E",
"M  c #171D41",
"N  c #1A1E43",
"B  c #1C2244",
"V  c #102148",
"C  c #1E254B",
"Z  c #192A52",
"A  c #262947",
"S  c #21264C",
"D  c #242A4D",
"F  c #312D48",
"G  c #2A3649",
"H  c #34384C",
"J  c #262B52",
"K  c #2A2D54",
"L  c #292C56",
"P  c #312F5A",
"I  c #2B3056",
"U  c #2D325A",
"Y  c #2A3659",
"T  c #353856",
"R  c #32345D",
"E  c #3A3C5D",
"W  c #2A3666",
"Q  c #353661",
"!  c #383764",
"~  c #363963",
"^  c #3A3B65",
"/  c #3C3C69",
"(  c #393E73",
")  c #433650",
"_  c #403E6C",
"`  c #354746",
"'  c #3C5744",
"]  c #3C4658",
"[  c #3A695A",
"{  c #3D4367",
"}  c #2D4977",
"|  c #374677",
" . c #425B48",
".. c #51514D",
"X. c #42455B",
"o. c #475859",
"O. c #486746",
"+. c #49644E",
"@. c #4E7444",
"#. c #547746",
"$. c #4E6657",
"%. c #54695C",
"&. c #597654",
"*. c #727453",
"=. c #454C65",
"-. c #43426C",
";. c #444A69",
":. c #494968",
">. c #504D6F",
",. c #4D5768",
"<. c #4D566D",
"1. c #545869",
"2. c #454472",
"3. c #494673",
"4. c #4C4A75",
"5. c #4B4679",
"6. c #4E4B7A",
"7. c #524D7B",
"8. c #4F5471",
"9. c #4B557E",
"0. c #54537C",
"q. c #585879",
"w. c #61577B",
"e. c #556665",
"r. c #5E7368",
"t. c #5A6174",
"y. c #64796A",
"u. c #72726A",
"i. c #676478",
"p. c #677774",
"a. c #8D7C13",
"s. c #927E26",
"d. c #A67824",
"f. c #807D47",
"g. c #4A8917",
"h. c #45821D",
"j. c #4B851F",
"k. c #4F881F",
"l. c #58831C",
"z. c #778114",
"x. c #488326",
"c. c #4C8525",
"v. c #4D8A21",
"b. c #4C812A",
"n. c #4E8B2A",
"m. c #508727",
"M. c #528B21",
"N. c #52852B",
"B. c #558B2C",
"V. c #5B8A2A",
"C. c #579123",
"Z. c #5B9424",
"A. c #529A22",
"S. c #5E9A27",
"D. c #5C922B",
"F. c #5E992C",
"G. c #568735",
"H. c #5A8F31",
"J. c #5C9432",
"K. c #61972B",
"L. c #629B2A",
"P. c #659B36",
"I. c #669939",
"U. c #5EA527",
"Y. c #66A22A",
"T. c #69A229",
"R. c #6DAA2C",
"E. c #66A130",
"W. c #6BA433",
"Q. c #6FAB35",
"!. c #6BA139",
"~. c #73AE31",
"^. c #72AB3A",
"/. c #74A93E",
"(. c #72B231",
"). c #79B33B",
"_. c #5E8746",
"`. c #48825C",
"'. c #6A9748",
"]. c #6B9452",
"[. c #76A54A",
"{. c #7FB347",
"}. c #7AA658",
"|. c #4B8075",
" X c #718773",
".X c #9F880C",
"XX c #8AB155",
"oX c #8B8D6C",
"OX c #85AD65",
"+X c #8EB76B",
"@X c #95B975",
"#X c #A3AA74",
"$X c #91C05E",
"%X c #AFC377",
"&X c #D0D374",
"*X c #31518F",
"=X c #3768A7",
"-X c #524C81",
";X c #565283",
":X c #595683",
">X c #5D5B84",
",X c #5B5689",
"<X c #5E5A8A",
"1X c #625D8E",
"2X c #635E91",
"3X c #54739E",
"4X c #666787",
"5X c #72748B",
"6X c #6C6897",
"7X c #6C6799",
"8X c #716C9C",
"9X c #7975A4",
"0X c #478D97",
"qX c #718491",
"wX c #78A990",
"eX c #5597B1",
"rX c #6D86A7",
"tX c #45C8B4",
"yX c #6198C4",
"uX c #5DB7D3",
"iX c #77AED1",
"pX c #7FE7E4",
"aX c #859987",
"sX c #96B58E",
"dX c #849FB8",
"fX c #ACB2B0",
"gX c #A6C589",
"hX c #A8C696",
"jX c #B3CD9B",
"kX c #B3DA94",
"lX c #B7E992",
"zX c #B4CCA2",
"xX c #A5DBA4",
"cX c #BAD2AA",
"vX c #DDE990",
"bX c #D3DDAE",
"nX c #EDECA5",
"mX c #8DC3D1",
"MX c #9EE8D2",
"NX c #AEEDEB",
"BX c #D0D5D0",
"VX c #D4E3CA",
"CX c #DEE9D4",
"ZX c #E3EED9",
"AX c #ECF2E8",
"SX c #F2F6EF",
"DX c #FBFBFB",
/* pixels */
"M.M.M.C.s M.K.c.C.L.j.C.k.j.C.v.C.s K.k.M.k.T.h.S.M.s R.L.k.h.W.> Z.h.T., L.k.h.).~.d j.^.> L.k.C., C.C.j.^.S.f k.^.s L.C.M.s M.",
"4 S.v.Y.v.k.T.h.k.C.k.h.j.> R.k.).h.M.T.s k.L.j.5 M.s R.M.)., C.C.8 M.L.k.5 C.k.S.A.S., C.C.j.M.Z.k., M.C.C.C.C.g.C.v.v.M.M.M.s ",
"S.k.h.c.C.s C.h.R.: M.5 5 L.j.k.h.C., C.7 K.s k.d v.Z.h.k.h.M.5 M.h.C.h.d s C.C.d M.v.v.h.c.L.h.k.7 : L.M.8 k.M.h.v.k.^.> M.4 > ",
"Y., h.k.R.4 c.Z.s M.d > T.L.5 h.k.R.C.5 L.s M.h.5 ~.v.c.> C.C.P.s Z.j.j.h.s R.8 M.> M.h.~.f c.M.4 s h.L.: k.g.L.> W.k.8 M.3 : k.",
"Q., Z.8 L.v.> 5 k.x.Y.> Z.Q.v.h.d L.^.> 5 h.C.K.s K.^.h p g B.).l 2 4 K.z.p P.T.^.> v.h.L.k.8 3 W.h.k.(.h.^.7 M.5 h.k.v.8 W.> M.",
"h.P.j.> h.C.c.C.v.^.7 , ).h.^.j.h.f L.M.s h.J.f h.).c.V.j j g @.k t f g a.h C.Z.B.7 k.f x.A.f v.x h.C.h.H.j.> v.v.s Z.h.Q.8 > L.",
"> T.3 v.H.> Y.3 7 h.x.8 S.3 ^.: v.c.h.L.8 8 h.v.c.C.4 Q.h .X.Xm s.a.a..Xj g v.v.Z.s ^.s L.Z.5 7 : k.W.h.S.h.h.W.> Q.8 4 8 > h.R.",
"M.x.8 S.j.M.C.3 h.> W.C.8 S.x h.R.v.v n s k.h.^.v.h.^.h.1 *.m .Xa.d.a.].m d v.^.c.h.m.M.K.f y f M.W.4 M.H.j.k.x.C.C., > , C.P.4 ",
"k.v.8 M.f c.4 j.8 A.v.M.7 v.x.y N.w ,.n h.f !.s M.f M.5 G. XwXa a a ..sXr.g.8 M.> M.M.8 s G.o.9 E.w 4 d C.: M.v.f s k.8 v.F.h.> ",
"W.5 c.h.Z.W.k.M.d h.v.f F.W.4 e.z r y.f c.f k.v.j.v.k.d x.&.p.5Xw.f.6Xp.n H.k.5 v.5 M.h.m.c.o.G c %.Q.S.4 B., M.F.c.k.: k.h.5 {.",
"M.h.h./.v.m.S.f M.j.v.7 (.k.9 T ` ;.%.M.7 S.3 v.5 Q.z t ,.W ( W ( ( _ ( | o.l x v.h.{.g.T.M.$.7.e E q M.h.M.^.Q.M.Q.c.h.S.x.7 L.",
"M.f k.C.8 c.s ^.h.j.> S.k.H.+ G # 8. .x.T.v.c.s b.q & N C ( ( C L C W ( W B B = u u M.8 8 L.o.>X+ J + x M.M.k.b.j.7 W.5 v.7 E.M.",
"~.> f C.k.).M.h.A.E.h.S.> P.  E R # o.2 B.s B.9 U ~ U N C R S N X N B L Q N J P / J y k.M.1 ,.@ { E + M.4 x.f M.^.C.5 R.Y.8 C.c.",
"h.C.k.K.s k.T.x.C.F.v.v.k.u r M C C B  .e.N.e U ! ! ! L _ / P Q -X5._ P _ ! L / U / A w y.t N S S N r z v.E.W.s h.^.s K.C.M.8 k.",
"h.S.k.U.j.j.l 9 y.+.' $.[ [ J ~ rX1XL L 6X_.] K B U K -X_ ! _ 5.7X,X_ _ ! 5._ J J N R ` 7XU L 9.rX{ K |.`.&.%.%.y.9 q k.g.v.v.5 ",
"Y.j.c.s A.h.l * U U { ] eXY ~ dXNXiX{ L 8XX.y X X X X B J 7.;X,X8X1X1X5.1XB M O X X - ] 7XL | yXNXdX~ Y 0XI ^ K U & u Q.5 v.> > ",
"L., k.v.W.g.3 y * D rX1X| J R | mXrXR -.9X4X* X M N C *X} Z M ( 1X_ _ M C *X} N N @ # 1X8X6.~ qXmX| I J } <X9XB * l 8 h.k.5 : M.",
"W.5 S.5 S.h.4 s x x '.i.1X2.! ! Q E <X:XN C M M Z W =XpXNXeXW J ;.N D } iXNXuX*XK D @ B D 9.:X~ ^ ~ ! 2.>X5Xb c.1 g.k.j.f Q.5 k.",
", ^.s > j.M.c.I.c.L.f 9 :.1X6X8X7X6X4.B X & G L L W =XMXNX3XW J 0.2.D } iXNXuX*XJ J S # X @ 3.6X7X7X7X>X-.9 > k.f s ^.s Y.8 > E.",
"5 W.8 M.H.4 #.o.O.f h.z e K F -.I C X X . v X.K N W Z *X| C V C :X-.I V W *X} L K C I r.& X X B K K J A 0 c.c.!.8 (.> > x > M.L.",
"k.x 5 C.s C.c :.;.6 V.q J 7.:.F I + % w 1 k.y   X R R 6.>XJ S / >X_ ! K K <X~ R M X % c.l q % * J U _ F & u M.s M.G.3 > > !.M.3 ",
"M.k.8 k.k.x > O.;.+.= K ;X7X5.K 0 x v.> f 7 '.D C # X X O M N P 0.6.P N M X X X M C t 7 h.h.4 c.v ^ F 7._ - l v +.o.v.8 k.C.h.5 ",
"E.4 G.c.I.K.W.O.:. .k F 6X7.D 9 j.L.Q.E.8 v.f y B D C S S S J R 3.3.S J D C S C J * N.4 P.M.> v.u $ / 7X2X! & X.8.#.k.> f f 5 ).",
"v.v.z $.=.+.G.$.q.,.;._ ) K w 3 !.h.x.C.f S.3 h.% X @ @ X X # B 7.@ M O X X M o X q ^.v.L.M.7 T.6 r { 6.2X6.H 8.,.P.v.f S.h.f C.",
"C.6 +.;.;.;.<.5X` q._ 6.8X= 3 k.L.s k.5 ^.v.h.3 e X X X # O X # 4XX X X O . X X X q M.5 j.k.Z.k.h.&.8.{ _ $ k <.t.5 S.c.c f ^.v.",
"R.u  .@.O.p.p.:.0.P q.q.=.!.x x L.s ^.s C.s K.z & X o *.&X:.*.$ F A $ *.i.&XP X X % M.h.C.: R.h.h.n e.<.E 3._ 0.0.%.+.1.1.v v.v.",
"5 K.s ~.s b.[.0.K ;XE P 5X{ =. .H.l k.Q.M.s T.< X M Z wXlX#XnXi.&XoXaXnXaXlXq.V o & j.s L.h.C.M.C.> B.+.4X7.-.>.X.4Xt.8.8.,.c k.",
"f A.j.U.c.l.K.e 0.^ F u.c o.=.;.;. .M.L.> W.C.y M C { lXjXxXgXbXnXnXvXhXkXhXsXJ C + Z.s M.M.h.L.C.z 2 _.>.q.>.U 0.>.p.y.b @.n > ",
"T.f M.5 Y., k.n ] X.p.4 f L.i  .O.L.s f W.C.8 y o U R  X*.#X*.oXVXjX1.XX1.u.X.T C + v.j.M.8 _.@.O.1.<.e.r.E P 0.I :.N.K.x.h.> > ",
"W.> h.k.T.k.>  .;.e.H.3 A.K.x.d M.R.^.: k.d k.b.- Q K R K ..X.~ tX3XF ..F R J E C 9 M.j.F.7 @.,.8.8.,.'.6 p.E -.0.e x h.k.4 > k.",
"W.k.C.4 C.g.6 ;.;.+.b.4 K.K.T.v.h.M.T.5 > s Q.v.y ] { / ! R J R } ] J J ! ! _ / #.5 C.s S.M.u u &.b b.).g.I.&.:.X.j.k.h.h.H.s v.",
", ^.5 > j.j.B.$.=.G.j.4 ).> K.f 5 M.Z.S.C.j.m.h.h.'. .] 4.3._ P ;X~ U 2.-X:.X.@.7 5 k., s W.8 M.u s K.g.^.5 l q.,.f ^.h.S.4 4 Q.",
"c.^.j.S.M.j.L.y o.8 j.E.C.h.P.x.^.m.v.C.4 f f M.b.t ` ' E 3.2X,X8X9X:X<X%.b M.D.C.h.P.k.~.h.> 7 > K.v.M.^.k.N.8.8._.> > 4 , W.M.",
"j.f 3 S.f M.x.4 v : F.k.5 v.5 4 K.f k.v.h.M.M.m.t E J Q R R :._ 3.2.! &.d h.b.S.5 k.v.v.h.h.8 h.).5 > k.m.4 N.$.8.b 8 5 > ^.h.3 ",
"Y.v.c.8 h.x.> j.8 S.h.S.h.W.h.v.s h.v.: h.s P.r U C L Z A D S _ / / / v e  .e ' w c.d > c.h.7 c.S.3 C.k.v.4 j.+.+.f k.7 M.A.c.k.",
"D.> B.S.!.M.^.c.x.8 k.3 ^.C.s z Z.E.^.W.x.M.r _ U L ! J J M S 7.-X-X6.J J ~ K J { w K.7 W.M.5 C.7 8 ^.W.3 ^.M.I.u Q.k.3 f 8 , ^.",
"f v.7 E.x M.M.M.h.h.j.7 L.s h.3 ^.h.j.M.c.x -.K >X^ I -.N X # _ 6.5.K C J C Y J J K @.x.M.C.5 Y.5 8 M.M.k.7 C.B.v.C.C.4 Z.h.8 S.",
"L.4 v.C.M.M.8 S.k.s 5 ^.5 Q.s M.L.h.C.> Q.M.%.6XqXw.w.) . X   N K J O . Z J R R J L E w k.h.L.d n.S.M.C.h.k.j.C.M.h.M.Z.d s ^.x.",
"K.k.c.C.c.T.C.h.C.(.d S.g.L.k.h.C.s ^.h.Z.f  .1X7X1X6.B O + 9 * S N . 9 X S J J 3.^ J G S.> T.h.v.k.Z.C.k.L.M.M.D.C.s L.T.h.k.M.",
"> S.5 ^.h.f ~.s s C.k.h.k., ).d R.d k.).f s V.A Q Q A I.f m.3 w 0 = d - X $ q.) 7X].5Xv A.k.k.j.A.3 x.s M.k.^.c.8 S.s k.M.M.s k.",
"g.C.s A.C.k.K.g.W.4 k.h.f 5 Z.s Y.k.k.L.> ^.f A ! R A m.k.L.h.h.Z., T.9 X + 6.7.9X4Xq.c 8 A.k.C.A.8 > T.C.h.A.C.v.v.M.Z.7 M.f > ",
"L.5 k.5 R.> j.S.v.j.j.> A.L.5 k.k.R.h.f (.M.w I 1X2.-.@.h.k.Z.C.d ^.M.2 7 2 ` -.;X;Xo.x.F.h.S.k.7 8 > C.s k.> K.> S.v.M.k.s > 4 ",
"^.> M.k.T.k.: 8 k.j.E.3 C.W.s h.h.L.~.: s f %.K ,X;X8.t.b k.C.).7 k.7 k.C.k.v B L ! 0 s F.8 v.8 s h.M.Q.> M.5 S.4 f f k.x.c.> M.",
"L.C.k., j.h.s h.c.L.x.5 K.S.^.M.h.j.Y.s 4 z b * # # N G y g.h.T.j.: > W.j.s +.D 7.5.t f C.M.7 , B.c.j.Q.c.C.> v.s h.v.k.k.c.s Z.",
"> Q.5 3 k.5 T.C.f C.f f W.3 J.5 h.k.h.^.M.f t B S B N * q k.j.h.).k.c.8 v.I.4X>.,X;XH u h.^.h.k.3 k.^.g.Q.s 3 C.4 k.K.5 k.3 h.^.",
"M.!.v.S.m.k.S.4 7 5 M.W.v.M.H.h.^.M.C.C.4 z G 2.6X:XR S J p.I.K.k.4 s s Y.o.B ~ _ ! E N.R.h.> u > W.7 M.!.v.v.N.k.R.3 : 3 5 ^.j.",
"s c.5 Z.8 v.8 c.v.> F.M.5 x s h.L.8 k.j.b.<.! 2.K Q 5.P R  .c M.M.c.k.S.4 w B M # N - s 8 k.h.s ).4 > s C.> C.k.k.8 h.c.> ).j.> ",
"W.j.j.s h.B.> k.8 C.v.C.c.^.s k.5 h.M.7 ,.3.0.B -.R T 8X^ _ o.G.7 f k.P.u G B D _ _ A y h.j.4 k.Z.5 P.M.h.x 5 8 c.h.v.4 M.v.j.Z.",
"C.3 B.^.S.m.T.f v.h.v.> ).C.s x L.k.H.H.A = sX0.9X1XfXfXw K _  XA.x.R.y.3.J J 3.9X9X/ G [.M.s ~.7 7 K.L.> W.T.^.v.^.f h.Z.x.> Q.",
"f c.4 S.d c.c.K.s c.d h.L.h.f 1 ).f B.D.jXcXzXSXfXBXDXhXOXzXw H.M.h.L.' D 3.,XR J J / >X1.G.> L.s v.C.x.M.8 M.x m.c.S.> C.f 8 C.",
"~.: M.k.k.~.s m.C.v.h.W.> ^.7 M.L.s gX}.gX].[.CXDXDXAXI.'.hXm.kX5 T.@.5.^ X.4XT -X;XT <.A 4XR.5 v.C.S.Z.4 M.s M.T.M.h.T.h.j.Y.c.",
"K.M.v.M.k.K.C.k.C.T.f C.M.S.M.h.C.s ^.C.+Xc.@X}.%X@XXX@XZ.OX}.+X> D.&.& ; XXSXBXw.4XBX_.l ; L.s Z.s Z.C.k.^.M.k.M.F.4 L.L.h.h.C.",
"> K.h.R.c.s T.h.k.C.k.h.k.> R.k.^.s M.T.c.x.[.CXhXhXVXXXg.{.8 M.Z.h.5 K.j.n.VXDXSXSXCXb.C.M.j.s M.h.h.h.k.M.S.M.h.Z.c.v.h.M.j.j.",
"k.C.s A.M.M.K.s (., k.8 h.g.M.s S.c.h.L.3 ^.c.gXSXSXzXn.M.A.k.h.C.4 K.k.8 h.+XVXSXAXOXB.f k.C.j.Z.4 > Y.M.8 A.C.k.j.k.T., M.s > ",
"L., k.h.R.> M.Z.h.k.h.> T.L.s h.k.R.c.s T.c.x.G.G.{.sXB.5 M.C.S.h.P.j.s f b.jXOXI.'.jXN.Q.x.m.M.7 d 4 L.5 k.s S.> Y.k.h.C.8 : h.",
"^., C.h.L.M.: s v.j.W.> M.^.h.h.h.T.^.> s h.J.bXVXVXZXE.> h.Z.).s s 4 M.A.k.jXCXVXVXgXh.S.h.k.4 c.h.k.R.5 S.s A.4 f 8 k.f C., k.",
"v.D.m.> s C.s v.j.W.7 4 ^.v.^.v.h.s L.j., s I.I.VXZX}.{.h.k.f L.M.> , D.8 h.K.@XzXsXD.h.k.C.f h.c.h.M.M.m.m.> j.c.s C.h.P.x 4 L.",
"> W.> 4 M.> ^.8 8 v.s x.Y.> L.> h.k.s ).f s f B.}.[.7 J.5 B.M.f ).s x d v.F.H.[.[.].gXh.v.T.h.f : k.).f L.h.4 S.> A.M.s k.> f ~.",
"C.H.j.S.M.M.S.3 f , W.K.8 S.c.x.(.M.C.C.s x.c.kX@XcX+Xc.f ~.M.S.k.s f f ).h.}.ZXDXSX}.C.L.h., s 4 (.3 C.P.k.c.x Z.L.> : 5 h.Q.7 ",
"8 j.d C.f v.4 v.c.s C.k.5 7 x.x.K.8 k.f h.M.K.H.zXcXD.s c.Z.s h.M.k.c.R.> h.x [.ZX@XZ.h.8 v.j.h.).> > x M.3 C.v.j.7 M.j.5 /.h.> ",
"^.s v.5 k.!.> v.8 k.v.c.D.^.5 v.h.v.H.4 h.x.C.v.m.h.C.4 k.h.4 m.8 8 k.C.j.S.5 f f f c.d 8 j.> M.v.x.^.v.8 x.4 v.Y.f k.> k.v.x.^.",
"M.4 m.^.M.m.L.8 C.c.v.4 ).v.h.8 L.5 m.C.z S.> v.h.$Xv.C.> P.s I.M.h.^.> j.j.L.h.L.k.).M.(.k.j.^.7 f C.Z.4 Y.^.^.v.^.8 k.S.8 4 S.",
"f k.c.A.7 j.f ~.8 j.4 M.n.A.7 8 R.8 8 j.S.k.h.h.D.OX^.7 > W.s 7 M.k.L.s L.M.h.^.x 3 B.h.8 F., K.h.L.M.s C.x.k.u v.8 ^.> M.8 Z.C.",
"^.> c.k.k.).c.j.C.A.v.L., ).f k.L.h.Y.h.k.h.A.k.XXhXS.x.s L.5 A., S.> M.M.).h.v.f f A.j.C.> W.4 v.C.K.S.3 g.f C.^.k.5 W.M.j.C.c."
};
