/* XPM */
static char *result[] = {
/* columns rows colors chars-per-pixel */
"64 64 235 2 ",
"   c #1B152C",
".  c #0C1234",
"X  c #0C1735",
"o  c #121B33",
"O  c #111639",
"+  c #151A3D",
"@  c #181D3F",
"#  c #1B302C",
"$  c #1A2636",
"%  c #223C29",
"&  c #2F2B30",
"*  c #25263A",
"=  c #253839",
"-  c #28521B",
";  c #2F6E0E",
":  c #34740E",
">  c #377A0E",
",  c #2E6615",
"<  c #356D18",
"1  c #347413",
"2  c #387614",
"3  c #3A7B14",
"4  c #3D771A",
"5  c #3F781B",
"6  c #28472B",
"7  c #345827",
"8  c #2C4637",
"9  c #314E30",
"0  c #365637",
"q  c #386824",
"w  c #3E7620",
"e  c #3D6338",
"r  c #5A5D0A",
"t  c #6B5813",
"y  c #4B7013",
"u  c #417E17",
"i  c #467318",
"p  c #417D1C",
"a  c #6F7312",
"s  c #475B36",
"d  c #675A32",
"f  c #416B2B",
"g  c #457727",
"h  c #457D24",
"j  c #4B7D2B",
"k  c #436939",
"l  c #4D7738",
"z  c #527335",
"x  c #786D2F",
"c  c #151D42",
"v  c #1A1E43",
"b  c #1C2245",
"n  c #1E244A",
"m  c #1D2A52",
"M  c #242944",
"N  c #22264C",
"B  c #25294E",
"V  c #2B2D4D",
"C  c #312E4E",
"Z  c #2A3848",
"A  c #35354C",
"S  c #252B52",
"D  c #2A2D54",
"F  c #282D58",
"G  c #2D325B",
"H  c #2B3558",
"J  c #32345D",
"K  c #39395A",
"L  c #2A3869",
"P  c #343561",
"I  c #353963",
"U  c #373865",
"Y  c #3B3C65",
"T  c #3D3C6A",
"R  c #2C3D71",
"E  c #483B59",
"W  c #423E63",
"Q  c #413E6B",
"!  c #364849",
"~  c #3C594E",
"^  c #3C4254",
"/  c #3E4165",
"(  c #384469",
")  c #2E4775",
"_  c #3D4176",
"`  c #3E6D77",
"'  c #435C48",
"]  c #45495B",
"[  c #4F5151",
"{  c #465858",
"}  c #4A6946",
"|  c #567749",
" . c #4D6456",
".. c #52665D",
"X. c #5B775A",
"o. c #6C7151",
"O. c #454C66",
"+. c #43426D",
"@. c #464968",
"#. c #495564",
"$. c #4E566D",
"%. c #54536E",
"&. c #525D6A",
"*. c #444272",
"=. c #494674",
"-. c #4C4B74",
";. c #4B4779",
":. c #4E4A7B",
">. c #524E73",
",. c #514D7C",
"<. c #4E5372",
"1. c #54527C",
"2. c #585879",
"3. c #615678",
"4. c #586768",
"5. c #5E6A74",
"6. c #627B65",
"7. c #687072",
"8. c #917C14",
"9. c #A57527",
"0. c #4A8917",
"q. c #45811D",
"w. c #4B851F",
"e. c #4F881F",
"r. c #708416",
"t. c #458122",
"y. c #4C8425",
"u. c #4D8A21",
"i. c #4D832A",
"p. c #508727",
"a. c #528B21",
"s. c #53862C",
"d. c #548B2C",
"f. c #4E9521",
"g. c #579123",
"h. c #5B9323",
"j. c #589627",
"k. c #5E9A27",
"l. c #5E992C",
"z. c #5A8E33",
"x. c #578538",
"c. c #5E9332",
"v. c #5A9239",
"b. c #649427",
"n. c #629A29",
"m. c #709621",
"M. c #659A35",
"N. c #659839",
"B. c #5EA527",
"V. c #66A229",
"C. c #69A229",
"Z. c #6DAA2C",
"A. c #66A130",
"S. c #6BA433",
"D. c #6FAB35",
"F. c #6CA33A",
"G. c #73AE31",
"H. c #7DAB33",
"J. c #72AB3A",
"K. c #79B33B",
"L. c #5C8447",
"P. c #618A47",
"I. c #689846",
"U. c #6E9951",
"Y. c #749E59",
"T. c #6FA148",
"R. c #76A748",
"E. c #7BA75B",
"W. c #678268",
"Q. c #739172",
"!. c #7BA562",
"~. c #9F880C",
"^. c #969555",
"/. c #86B557",
"(. c #A2A35D",
"). c #84AC67",
"_. c #8AB465",
"`. c #90B16C",
"'. c #92B675",
"]. c #9DC27B",
"[. c #BBCD71",
"{. c #DCDB72",
"}. c #34508B",
"|. c #3B6792",
" X c #3C77B7",
".X c #524D81",
"XX c #4F5881",
"oX c #565381",
"OX c #5B5686",
"+X c #5B5A84",
"@X c #5F5A8B",
"#X c #615C84",
"$X c #615D8E",
"%X c #645E92",
"&X c #57678A",
"*X c #63618D",
"=X c #69688C",
"-X c #6C718A",
";X c #727589",
":X c #666192",
">X c #6C6798",
",X c #4675A7",
"<X c #756FA1",
"1X c #7975A4",
"2X c #488387",
"3X c #7AAE93",
"4X c #4F8CB5",
"5X c #6B8CAF",
"6X c #6EBBD4",
"7X c #6DC2D9",
"8X c #868A94",
"9X c #9CBC87",
"0X c #97B09A",
"qX c #A7B58D",
"wX c #AAAAAC",
"eX c #A9C697",
"rX c #B2CD9A",
"tX c #B1D693",
"yX c #B4CDA1",
"uX c #BDD6A6",
"iX c #C6EB9A",
"pX c #ECEF96",
"aX c #C5D9B1",
"sX c #CDE2B6",
"dX c #EBEFA3",
"fX c #86B5CF",
"gX c #BEBEC7",
"hX c #8FDDD9",
"jX c #B8F5EF",
"kX c #C8D1C4",
"lX c #D8E5CE",
"zX c #E5EDDD",
"xX c #EDF3E9",
"cX c #EEF0ED",
"vX c #FBFCF9",
/* pixels */
"a.a.a.g.5 g.k.w.g.n.w.g.e.w.g.a.g.p n.a.a.e.C.q.k.a.r a m.w.q.z.< h.u m.r h.0.q.K.D.q.w.J.> n.e.h.> h.g.w.F.n.5 e.J.q.k.h.a.u g.",
"2 k.u.V.e.a.C.p a.g.u.q.w.: Z.e.K.q.a.n.u e.n.w.q.0.y a r.H.7 s s i a 8.a : g.w.k.g.k.> g.g.w.a.g.e.3 e.g.g.g.h.0.h.e.e.e.a.0.q.",
"n.u.q.u.g.p g.t.Z.; a.3 3 n.w.e.q.a.3 a.i k.u w.4 e.h.a 8.8.d x 8.r.~.8.y u h.g.5 a.e.w.u w.n.p u.p ; n.a.5 e.a.q.u.u.F.: a.1 : ",
"n.> q.u.Z.2 w.g.u a.p ; C.n.u u a.C.d.2 n.q.a.q.3 G.u.i X.9.9.8.9.8.o.z i u S.5 e.: g.q.D.h u.u.2 u u n.: 0.q.n.: A.e.q.a.1 : e.",
"G.> h.5 n.e.: 3 u.y.V.: g.D.u.q.5 &.U.: 3 q.a.n.p k.J.N.W.3Xd r t [ Q.Q.h.q.J.S.J.: w.q.N.#.w 1 F.q.e.J.0.F.5 g.2 p u.u.4 S.: a.",
"u M.y.: 5 g.w.g.u.J.5 : K.t.| h 6 #.N.a.u t.c.p q.K.u.D.l | d t x ] L.d.p u.g.g.d.5 e.q.i.{ % y.k u g.q.c.w.: u.a.p h.q.D.5 1 n.",
": S.2 u.c.: S.1 4 q.q.p k.- 4.7 O.X.p n.5 5 q.u.y.g.3 Y.~ +X*X:X=X*X#.~ L.g.u.u.h.p J.u A.X.<.7 ] q Z.q.k.q.q.S.: G.3 3 5 : q.Z.",
"a.t.p k.w.e.g.> q.1 D.g.p 6 O.= Y X.a.g.u e.w.J.t.q ! ( L _ L _ L _ R L #.6 g J.w.q.i.a.k.4.+.8 / 0 2 a.z.w.a.h g.g.: > : j.M.2 ",
"w.u.3 a.q.i.2 y.5 g.u.u.q X K b /  .w.3 q.5 z.8 ! v + c P G v v v m G P c c b ' 6 y.a.5 p ..-.v K X < 3 g.: e.e.p u a.u u.n.h : ",
"S.3 p.q.g.S.w.u.5 w.u.5 s.o B / + M l g u.< $ Y G U S F Q B n O @ N P Q N P U Y G % a.p g M O @.N o M.j.> d.> g.l.y.w.; w.p p J.",
"a.q.q.R.u.j s.j s.h i.w L.= b I F b ! 5.f Z I G U G U *.U U Y %XoXT P T Q P P L J D ' 5.{ n D Y b Z e v.g d.T.R.h M.w.h k.q.p n.",
"a.p a.a.5 % $ =X<./ @.` ` F XXfX5XG G >XP.{ + O B D oXU *.Q .X%X:X;.*.U Q ,.N c O V  .>XG J &X6X2.D 2X2X<.1.2.*Xo # G.2 u.5 A.a.",
"G.: p g.e.F.= N D 3.I 4XS U 5XjXfXT G 1X2.6 . . . . n m P T @X>X@X:XJ / n c . . . $ 2.1XI *.fXjX5XI S |.P .XS m 8 a.3 Z.A.p g.y.",
"q.g.u.n.p e.z.# * 5X:XL S F ( 5X( G .X:X:.+ . b B L  X|.F v N $XN n n R  X|.F m @ . =.$XOXG ( 5XH F F H >X8X$ $ h J.u k.a.g.p e.",
"q.k.a.B.e.e.n.q.h.d.4.:X-.*._ Y *.*X-.X b $ b S L  XhXjX4XL D =.N S ) fXjX7X|.m B + + + +.@X*.Y *.*.,.*X4.x.g.g.p h.e.e.0.u.e.3 ",
"V.w.w.p g.u a.a.n.: 9 $ oX#X>X*X1.@ X . = O.P S F }.7X7X) D @ >.:.N L ,X7X4XR m S J Y . . b +X*X*X*X-.$ 7 p p h.u e.e.Z.4 u.: : ",
"n.: j } L.q.3 e.5 g 6 B ,.E C V . . o # j ^ B v G G }.}.N @ N OXQ G v F }.R F D v B X.# o X c N G W V * , w.p n.: a.p q.w.3 1 a.",
"P.' O.O.O.{ 0 X.f K Y oX>X;.V # % f G.: : 4 b O n B Q -.N b Q OX=.U D N >.D B X O 6 a.p h.7 % 8 / V ,.Q = x.2 h.2 a.u.u.p S.2 a.",
"w L.} 0 O.#.2.<.%.Q .X<XoXD 0 q 0.p b.g.a.h Z N + . . O v b C #X=.C n v . . . b N 8 u.3 3 n.5 s.C J >X$XJ * - a.u q.S.3 n.5 : M.",
"3 C.4 a.v.X.&.>.W W %X%XF 6 I.4 z.j t.h.5 h q $ v n N $ v N G ,.J N v v v B b @ = u.F.u.K.t.2 4 % = *.%X>.V f M.f X.$.' l 2 a.n.",
"w.h 3 g.6.W.&.+.J =X+.Q / #./ #.{ } a.a.q.e.w.6 . . . . . . O W . O . .   X . . 7 t.w.w.a.q.1 3 Z.g M Y & ^ p.l #.$.$.$.#.X.a.1 ",
"d.e.p s.s.} K J oXV @.Q.e  .O.O.' t.u.: 5 5 F.# . . v [ v * O Q . . * C [ o . . - u.w.5 q.q.5 e.n.; 6 M Q ;.#.2.&. .l 5 a.g.q.3 ",
"n.3 } @.#.O.] =XD A &X{ V.c.g g p.M.F.A.5 u.q . . c (.pX@.(.C A A ! ^.=XpXE X . $ 2 a.3 n.s.< s.g g X.*X;.Q >.] W.I.a.: p p 2 K.",
"u.p.{ @.{ j e.7  .W.' / A.u.e.3 S.q.y.g.5 h., O c L eXiXuXpXqXpXqXwXdX0XiX5Xm c o w J.a.c.4.<.%.%.$...-.#X>.G >.#.Q.L.p n.q.p g.",
"g.q #.| p w.u S.d.p ' +.k A.3 e.n.u w.3 J.u.q O S K tX3XtX3XpX{.pX{.3X[.3X(.m v X p a.4 w.s.&.#. .N.s.7.A C +XG %.} L.j p p F.a.",
"Z.f p a.e.J.e.p g.G.' @.e Z.t.5 n.u J.u g.u g @ G G o.[ (.o.6.hXeXW ^.] o.U P S $ 5 g.q.a.; Z.0.5 p.| %.5.W W 1.8 &.<.&.F.u a.u.",
"3 k.u G.p q.J.q.w.g.j { #.< G.5 n.u w.G.a.u n.0 J J U J A V ^ 4X&XS A B J G U V z S.u.u n.p g.a.j.1 ..$.z.6.] 9 i I.{ $.| g.u a.",
"q.g.w.V.e.a.n.q.n.p h i.{ 2 V.u.Z.q.u.C.: S.a.5 ! T Q T I S I Q R S G T T Y O.k g.a.k.u a.g.q.n.g.g <.&.g.d.I.g.t.g.a.| } y.e.: ",
"V.5 u.3 C.> w.b.g.u u.: h V.3 u.p n.u p S.g.5 y.0 ! P ;.,.;.Q %XoXT :.XX#.0 d.e.p p a.u.a.p n.u.q.k $...t.w.3 g.3 a.w.n.h q.: : ",
"S.> q.u.C.u.1 p q.e.a.1 g.k.q.5 a.G.J.; e.5 y.k H S G Y *.@X$X>X<X.X+X .l a.G.q.a.1 g.q.l.5 a.q.>  ...I.: u.q.k.2 w.p w.e.3 : e.",
"V.u.g.2 g.0.2 q.w.g.i.3 h.n.S.e.u a.C.3 : h ' F N S S N S N U D J U 6 } 0 9 } l A.3 g.u h.a.4 1 N.l y.K.0.n.1 a.> w.w.q.q.z.u a.",
"> J.3 : w.w.g.A.p n.w.2 K.: c.5 u a.h.b.g.0 I F S I S S n S .XQ ;.;.Z S I S F ^ q 4 e.> p S.p a.5 p n.0.F.3 : a.u u J.u k.3 1 D.",
"u.J.w.n.a.w.n.: 5 5 w.A.g.t.N.q.J.y.e.g.< *.V @XP D Y M . v Q ,.,.J N D n F S S D e M.e.G.q.: 4 : n.u.u.S.a.a.v.w.G.: : 2 > S.a.",
"w.p 2 h.p a.q.3 u.; n.u.3 u.3 3 n.q.e.e.p 4.-X;X2.3.E   . . b D D . O N S J P S F K f e.q.q.4 q.K.3 : u.s.2 a.p a.p 4 5 : J.q.: ",
"M.e.w.p q.h : w.5 h.w.h.p S.p a.5 q.u.1 t.! #X>X$X;.v . . % + M b o % . N D N T K S Z : u.q.4 u.k.: g.u.u.2 a.p h p e.5 a.g.w.u.",
"l.: d.n.F.a.J.w.h p w.: J.j.u h h.V.F.S.q.j V U U M g j , a.6 $ $ 7 6 . * 3.& *XQ.7.P.i F.a.3 g.5 p J.F.1 J.g.n.p S.w.2 w.p : J.",
"5 e.4 A.y.w.g.a.q.q.w.5 n.p q.1 J.q.e.a.w.y.* J J M j p ; F.w.p.a.p 6 .   :.,.1X-X2.L.e.e.h.4 n.3 5 a.a.w.u g.d.a.g.g.3 g.p 5 h.",
"V.1 u.g.a.a.3 n.a.p 3 J.4 G.u a.n.q.g.1 J.f G $XQ W Y.q.a.C.: a.3 G.i g f ! =.#X#XO.s.2 e.q.n.u i.h.a.g.p a.w.g.a.q.a.h.u p J.u.",
"n.u.w.a.a.M.g.q.g.G.3 h.0.n.0.q.h.u J.w.g.{ D OXoX1.5.I.q.a.> J.: h.3 h.h s b G P % g.3 n.: n.q.u.w.h.f.y.n.a.a.g.g.u n.C.q.u.a.",
": n.3 J.p p G.p u g.a.q.a.: K.4 C.3 e.J.q.9 b v v N * P.a.n.3 g.n.u.0.n.p 9 N Q =.0 g.3 g.e.a.u.g.3 w.q.g.w.J.y.p l.p e.a.a.u y.",
"0.g.p f.g.e.n.q.F.> e.w.5 3 h.u C.a.a.n.: l b b v b * q u.n.t.q.g.> S.a.g 5.+.@XOX! s.y.p g.u.a.g.4 : C.g.w.f.g.u.u.w.h.u e.q.: ",
"n.3 e.3 Z.> e.k.u.w.w.: j.n.3 w.u.Z.p u S.A *.:XoXG n Z X.L.g.g.p F.a.i ..n / =.T ^ x.0.h.p k.a.5 5 : g.u u.: n.2 h.e.g.e.p : 3 ",
"J.: a.e.C.e.; 5 w.w.A.: g.D.3 w.q.n.J.< { Y :.-.;.*.F P { l h.K.4 y.3 w.7 n v + c # h 3 l.p w.5 3 w.a.D.: a.u h.2 p p a.h u.: e.",
"n.g.a.: e.q.u q.w.n.j 3 k.k.J.a.q.w.A.#.oX1.v T D J <XT *...y.C.q.; 4 N.= v N P P M f q.g.a.u 3 d.w.y.D.u.g.: u.u q.w.w.u.y.u g.",
": J.3 : e.3 C.a.p a.p p C.; c.3 p a.g V $ 0X%.<XoXwX0Xs V +.W.q.K.w.W.-.B S *.<X1XT Z p p J.q.e.1 w.J.0.G.p < g.> w.n.u a.1 p J.",
"a.M.u.n.u.e.k.2 p 3 g.S.u.a.z.q.J.d.k.rXeXyXcX8XkXvXrX`.0X0 n.n.e.2 k B T 1.T N B T -.&.N.q.; h > S.5 a.S.u.a.i.u.Z.1 ; 2 3 J.w.",
"p w.3 h.p a.p u.u.: l.a.5 t.p w.n.9X).eX).T.xXvXvXxXN.I.eXR.eXu.a.x.:.T Y >.M ,.:.v ,.D ;Xe.q.u K.2 : p g.: a.y.a.5 h w.: K.w.: ",
"S.w.w.p p d.; u.5 a.u.j.y.J.p a.u u M.U.p E.`.eXaXE.).4 ).Y.U.s.g 6.V 8Xv.vXgX=X=XkXP.4.' w.2 w.g.3 A.e.p h u p y.u u.2 a.u.u.h.",
"g.1 d.J.h.p.S.p e.q.u.: J.g.p h n.a.v.F.u E.kXR.U.sXI.g.y.F.q.M.g.I.T.cX9XxXvXcXcXxX].zX_.N.w.G.5 5 n.n.: S.C.F.u.K.p q.h.t.: D.",
"p u.2 n.p e.y.n.p w.5 q.n.w.p ; G.w.y.e.a.M.rXvXvXaXc.u ; J.w.q.M.9XR.'.y.`.lXvXcXE.M.).I.rXi.n.p u.g.t.a.5 u.j y.w.k.: a.p p g.",
"G.; a.w.e.D.q.p.g.e.q.S.2 J.u a.n.u n.3 h.p n.I./.Y.J.w.w.n.: g.2 V.).z.c.rXE.R.T.eXN.z.rXy.Z.: u.g.k.h.3 a.p g.C.a.t.V.p u.n.u.",
"n.a.u.g.w.b.h.e.g.C.p g.e.n.a.p g.u J.0.a.d.eXeXuXlXN.n.g.e.u J.: g.4 k.u tXkXyXsXrXa.3 S.1 C.q.g.p h.g.w.G.a.w.a.n.3 n.n.p u.g.",
"; n.y.C.u.p C.p u.g.e.q.e.: Z.w.J.u a.C.u y._.zXzX_.u G.e.J.1 a.h.u u C.y.y.9XaXuXN.n.2 g.a.w.u g.q.q.q.a.a.n.g.q.h.w.e.q.a.w.w.",
"e.g.u g.a.u.n.u G.: e.p q.0.a.p k.a.q.b.2 G.q.).!.a.e.e.e.h.e.u g.3 n.e.p u.J.N.I.'.g.w.p a.g.w.g.2 : n.a.p f.g.e.w.e.M.> a.u : ",
"n.> e.0.Z.> p.h.w.e.p : C.n.u q.a.C.w.p n.a.'.!.9X_.a.q.3 a.j.k.p C.w.p u !.zXvXvX).g.p F.e.p.a.5 5 2 n.3 e.u k.> V.e.q.g.i ; q.",
"J.> g.p n.a.; u e.w.S.> a.G.q.q.q.C.J.: p z.'.aXlXR.C.g.> q.g.K.p p 2 a.h.e.].xXaX: a.q.k.q.w.1 u.q.u.Z.3 k.u g.2 p 5 u.p g.> a.",
"y.n.p.: p g.3 u.w.S.p 3 J.u.J.u.q.p n.w.> u M.3 u J.a.K.q.a.p n.a.: > c.p u.M.M.F.5 a.t.e.g.p q.y.u a.a.p.p.: w.u.p g.q.A.h 2 k.",
": S.: 2 a.: K.5 5 u.p h n.1 n.: q.a.u K.p p q.a.l.j.5 c.3 a.a.p K.p h u w.].9XlXlXh k.5 e.S.q.p ; e.K.p n.q.2 h.> g.a.u u.: q.J.",
"a.z.w.k.u.a.k.: p > S.k.p k.i.t.G.w.g.g.u w.u /.'.w.S.i.h D.a.h.a.u p p K.q.N.uXU.p d.g.V.q.: u 3 J.1 g.M.a.u.j g.n.: ; 2 0.S.5 ",
"p w.5 g.p e.4 u.u.u g.e.4 p t.t.k.5 u.p w.w.h.z.eXp e.u e.g.p w.e.w.w.S.: q.p e.: e.j.q.5 u.w.q.K.: : h a.1 a.u.w.4 e.w.3 J.q.1 ",
"F.u u.3 u.F.: u.5 u.u.y.j.J.3 u.q.e.c.2 q.y.g.c.).y.g.> w.q.2 p.p 5 e.h.w.n.3 Y.I.w u.5 5 w.: e.u.q.J.u.p h 3 u.n.q.u.1 u.y.t.J.",
"g.2 p.J.a.u.n.5 a.u.u.1 K.a.t.4 n.u y.g.h k.: u.p K.u.a.1 M.u M.a.u J.: w.w.n.E./.t.K.u.J.e.w.J.5 p h.h.2 A.J.J.u.J.5 e.k.5 2 n.",
"q.w.w.h.5 w.5 D.5 u.3 a.g.g.4 5 Z.5 p w.j.u.q.q.a.a.F.5 : Z.p 4 a.u.n.u n.a.q.uX`.1 d.q.5 k.> n.p n.a.p g.q.w.h u.5 J.: a.5 h.g.",
"J.: y.e.e.K.y.u.g.g.u.k.1 K.q.w.n.q.n.q.a.p g.u.K.> n.t.u n.3 g.> k.: a.e.K.q.c.p.5 g.u.g.: S.3 u.g.n.k.: u.5 g.J.e.3 S.a.u.a.u."
};
