/* XPM */
static char *result[] = {
/* columns rows colors chars-per-pixel */
"64 64 242 2 ",
"   c #0C1233",
".  c #0E1837",
"X  c #111536",
"o  c #141A38",
"O  c #14193C",
"+  c #172A2E",
"@  c #1C332D",
"#  c #192337",
"$  c #233B2B",
"%  c #27273C",
"&  c #263839",
"*  c #1F461E",
"=  c #28531D",
"-  c #2F6E0E",
";  c #34740E",
":  c #377A0E",
">  c #346F13",
",  c #34691D",
"<  c #347313",
"1  c #387614",
"2  c #3A7B14",
"3  c #3D761B",
"4  c #3F781B",
"5  c #294928",
"6  c #2C5426",
"7  c #34572A",
"8  c #2A4335",
"9  c #304C34",
"0  c #385736",
"q  c #396925",
"w  c #3D7421",
"e  c #3D6435",
"r  c #52550B",
"t  c #6E561F",
"y  c #49650F",
"u  c #417E17",
"i  c #417D1C",
"p  c #727213",
"a  c #475737",
"s  c #416D2A",
"d  c #427625",
"f  c #457D23",
"g  c #487827",
"h  c #4B7D2B",
"j  c #456938",
"k  c #4B7637",
"l  c #577334",
"z  c #6B7432",
"x  c #161D41",
"c  c #191E42",
"v  c #1C2245",
"b  c #1E2449",
"n  c #1E294E",
"m  c #1B2A52",
"M  c #22264C",
"N  c #272B48",
"B  c #24294D",
"V  c #322D46",
"C  c #2B3348",
"Z  c #35384D",
"A  c #262B52",
"S  c #2A2D55",
"D  c #292C57",
"F  c #302E59",
"G  c #2D3154",
"H  c #27335A",
"J  c #2D315A",
"K  c #32345D",
"L  c #353858",
"P  c #3A3B5D",
"I  c #2B3767",
"U  c #353661",
"Y  c #363963",
"T  c #353867",
"R  c #3B3B64",
"E  c #3C3C69",
"W  c #343C71",
"Q  c #423E66",
"!  c #413F6D",
"~  c #35464A",
"^  c #3B5745",
"/  c #374973",
"(  c #386978",
")  c #465C48",
"_  c #45485A",
"`  c #475A58",
"'  c #525153",
"]  c #4F6F44",
"[  c #486748",
"{  c #55764A",
"}  c #4D6555",
"|  c #536B57",
" . c #587755",
".. c #6A6F53",
"X. c #424264",
"o. c #454C66",
"O. c #43426E",
"+. c #454B69",
"@. c #4C4968",
"#. c #504B6D",
"$. c #4B5666",
"%. c #4E556D",
"&. c #53596C",
"*. c #444473",
"=. c #494674",
"-. c #4B4B74",
";. c #48487A",
":. c #4D4A7A",
">. c #514D76",
",. c #514D7C",
"<. c #4F5471",
"1. c #4A537C",
"2. c #535474",
"3. c #54537C",
"4. c #585978",
"5. c #586965",
"6. c #556276",
"7. c #71786B",
"8. c #656C79",
"9. c #667575",
"0. c #887910",
"q. c #986E26",
"w. c #82766F",
"e. c #4A8917",
"r. c #45811D",
"t. c #4B851F",
"y. c #4F881F",
"u. c #56881E",
"i. c #628017",
"p. c #468223",
"a. c #4C8424",
"s. c #4D8A21",
"d. c #4D832A",
"f. c #508727",
"g. c #528B21",
"h. c #56882B",
"j. c #548B2C",
"k. c #4E9521",
"l. c #579123",
"z. c #5B9324",
"x. c #5E9A27",
"c. c #589428",
"v. c #5E992C",
"b. c #548333",
"n. c #5A8F31",
"m. c #598B38",
"M. c #5D9333",
"N. c #63992A",
"B. c #629B2A",
"V. c #659B37",
"C. c #659839",
"Z. c #5EA527",
"A. c #66A229",
"S. c #69A229",
"D. c #6DAA2C",
"F. c #6BA433",
"G. c #69A235",
"H. c #6FAB35",
"J. c #73AE31",
"K. c #71A43D",
"L. c #72AB3A",
"P. c #75B136",
"I. c #79B23B",
"U. c #548849",
"Y. c #628A47",
"T. c #689747",
"R. c #6E9A51",
"E. c #719B56",
"W. c #75A749",
"Q. c #7DB342",
"!. c #7AA558",
"~. c #708773",
"^. c #77AA6B",
"/. c #8D8512",
"(. c #889113",
"). c #82AE58",
"_. c #8AB357",
"`. c #9E9F62",
"'. c #909175",
"]. c #83AC67",
"[. c #90B168",
"{. c #8FB375",
"}. c #95B977",
"|. c #99C272",
" X c #A0C974",
".X c #D5D961",
"XX c #2E4A82",
"oX c #30538C",
"OX c #315590",
"+X c #3C79BA",
"@X c #544F81",
"#X c #565483",
"$X c #595584",
"%X c #5C5B84",
"&X c #5E5A8A",
"*X c #615C8D",
"=X c #645F91",
"-X c #556A92",
";X c #65648A",
":X c #666392",
">X c #6A6595",
",X c #6C6699",
"<X c #6E699B",
"1X c #737395",
"2X c #4C70A7",
"3X c #756FA1",
"4X c #7B76A5",
"5X c #3F848D",
"6X c #5D9596",
"7X c #748484",
"8X c #598CAD",
"9X c #708AA6",
"0X c #46CFB9",
"qX c #58ADD0",
"wX c #7FE5E2",
"eX c #8A9392",
"rX c #A5BC8A",
"tX c #ADBC93",
"yX c #A3A3A9",
"uX c #AECA8D",
"iX c #AAC799",
"pX c #B2CB99",
"aX c #9FEA9A",
"sX c #B6CEA5",
"dX c #BBD2A7",
"fX c #AAE9B0",
"gX c #C6C887",
"hX c #E2ED92",
"jX c #D7D6A9",
"kX c #C5D8B7",
"lX c #92B6CF",
"zX c #BABAC2",
"xX c #96D2E1",
"cX c #AFDBE5",
"vX c #91EBE6",
"bX c #D0D8CE",
"nX c #DAE6CF",
"mX c #E2ECDA",
"MX c #E7F1DD",
"NX c #ECF1E9",
"BX c #F1F6EE",
"VX c #F9FBF8",
/* pixels */
"g.y.g.l.u g.N.a.l.B.t.l.y.t.l.a.g.r.B.y.u.t.A.r.x.u.i F.B.u.r.D.; z.r.A.: A.e.r.I.L.r.r.J.; B.y.z.: z.u.t.L.x.r.y.L.u B.z.u.u l.",
"1 x.s.A.a.g.S.r.y.l.s.r.t.: D.y.I.r.u.A.u y.A.t.2 g.u i.u.P.: g.g.3 e.Z.u.y l.a.x.l.x.: l.l.t.y.z.y.2 y.l.l.l.l.e.l.y.a.y.u.y.u ",
"B.s.p.t.l.u l.r.D.; y.1 1 B.t.y.r.l.4 g.2 v.2 s.i g.u.r 0.u z.a a q l.p p y l.l.i y.s.s.u a.S.r.s.4 ; B.y.4 y.y.r.s.s.L.: s.2 ; ",
"A.: r.y.D.1 t.l.u g.i - D.B.u u y.D.l.1 B.r.u.r.1 J.g.u././.z a a z p (.0.u D.4 y.; l.r.L.i a.y.2 2 r.B.; y.r.B.; A.s.i g.< - s.",
"J.: z.4 B.s.; u s.r.G.; l.H.y.r.4 B.L.: 1 r.j.N.i N.L.l.r `.0.q./.q.0.z y r.L.F.H.; s.r.A.y.i < F.p.y.L.e.K.4 l.< r.t.y.3 F.< g.",
"2 V.t.; u l.a.l.s.L.3 : I.r.L.t.r.3 k a.u r.v.i r.I.s.F.{ 9...q.0.q.7.~.l g.k.l.j.4 s.4 p.k w s.f 2 l.r.n.t.; s.y.r.z.p.H.4 < B.",
": F.< s.n.; F.< 4 r.r.4 v.> K.6 d.~ 9.A.4 4 r.g.s.g.2 K.p.~.j t r t [  .j.l.s.s.z.r.L.u G.~.8 , , a.F.r.x.r.r.F.; H.2 2 4 ; r.D.",
"g.h u x.s.g.g.; r.; K.l.i Z.s | l ~ b.g.r.y.r.L.s.i L.p.d T.8.w.w.;X9.a.W.r.s.L.t.p.s.y.z.w P 7 | Y.1 g.n.t.y.p.l.z.: ; ; l.V.2 ",
"a.s.i g.r.d.1 t.4 l.s.s.3 p.# ` & 3.d.2 r.4 F.i g.w w ~ @XW W T ! T W W #X7 q s.- j.u.4 i h &XC } # < i g.- g.s.u u y.i s.v.i ; ",
"F.1 f.u l.F.t.s.4 t.s.i v.j . G v %XY.r.s.r.t.p.d $ O x I ! J M D D I W D c # 6 h 1 k.r.a.g %XN L o j z.2 j.: g.v.a.y.- t.r.4 Q.",
"g.r.r.I.s.f.N.r.l.t.y.3 D.6 o 3.O R 0 g.3 v.= & E J A x A A c x O c c F M c J T K & V.s.G.j L o 3.o 7 l.p.g.L.L.g.H.p.r.v.p.4 B.",
"g.i y.g.i a.r.L.i t.; x.s.k # B x v N } T.d v E F ! A D @XD R U =XT U ! =.H J T K K 8 k } C v c M # s p.g.g.g.p.s.3 H.1 s.3 A.g.",
"J.; i l.g.K.5 0  . .} j U.m D @X9XY D *.7X9 T M D D E :.U E / *X,X! ! U E :.G J v S ~ ;X*.A K 9X;.G H ^.9  .5. .[ 5 < D.A.4 l.s.",
"r.l.s.N.u a.0 N U K U ( 5XD @XcXxX2XG *.;X0 9       x c -.O.*X:X,X$X=X@XE c .     X 8 ;X=.G 2XxXcX#Xm ( / R Y H M j i N.l.l.u a.",
"r.x.y.Z.y.y.B.$ b -.1X/ I A W 8XlX6.J :X<X&.    x x I OXA c K -.*X! S c A oXm O O   E <X;XU -XlX8XT A I / 3XY % 5 h.t.t.e.s.s.2 ",
"A.t.t.i l.d k h h., ~.*X#XK K / J O.*XR M B   n m / qXvXlXXXB K F M A 2XcXwX+XI A v O B E &XX.K K Y Y :.:X~.w g u y.s.D.3 s.; ; ",
"B.: r.s.F.i ` ) j g.3 G :.,X:X,X,X%X@.    & M A D XXqXvXxXOXS Q @XK D 8XcXwX+XI A A c X   R %X:X>X,X>X4.N r.r.x.< d.4 r.y.2 ; s.",
"F.u x.2 B.r.e o.` d.n.@ J >.V P M       * { D M A D W OXW M O ! @XK A M XXOXJ F b D o.^     . v H :.V K 5 T.3 { $.k t.t.r.F.1 g.",
": L.u ; a.g.s.o.3.` ` F ,.,XQ V X X 7 7 d.p.$   c R K $XR A M :.,.E A A =.;.S F   X q > 6 7   . G F @.@XG $ q &.$.u H.r.A.4 ; G.",
"2 F.3 ] { 4 R.&.Q >.! *X,X=.A $ h.a.r.l.2 f 9 A x X   X O x b ! *XR M x O X X X c A C.t.L.i < 3 $ P 3.<X$XJ o.<.k J.; ; f ; s.B.",
"s.f e +.o.&.~._ %XN 2.<X:.B 5 2 N.s.g.u.u g.d & M b M M M M F Q $XM M B M M M M M 7 r.y.l.r.; u C.&.2.,.>XV X.2.k g.< 3 ; L.y.< ",
"j.] o.o.o.;Xo.<.S %XX.-.P 5 r.s.y.r.s.; i i K.3     x       c P P o c     O c   + t.a.3 r.r.3 y.C.) %.2.Q :.>.3.%.[ } %.} g.r.2 ",
"A.w l d.C.n.j S 3.L C >X| j.d d.g.B.F.V.i t.i g         o X X Q P       % X     # 1 l.1 V.u.; a.i i R.4.*X! P #.%.;X%.%.%.[ 2 I.",
"s.a.f K.t.f.u.) P P 8.[ ` +.+.^ | s a.l.i x.; 6     F `.'.' a # V O ..Q  X5.O   X q L.y.B.y.4 D.1 d h } %X2.P O.2.9.1X[ { ] d l.",
"l.< y.l.i a.u N.` 9.3 K.d $.o.+.$.4 y.2 L.y.p.+ X . 1.aXrXhXyX'..X4.kXrXuX6XH . . 6 g.2 t.g.b.k } &.%.4.-.% &XP K { C.t.i u K.y.",
"D.4 u l.g.L.f.` X.Y.4 N.4 F.j e v.r.H.r.l.u z.$ b m '.aXtXfXgXjXhXjX.XfXtXhX$.m x 5 l.r.g., 5.2.<.%.| l. .&.G 3.Z g 4 S.L.i y.y.",
"2 N.u J.u r.T.o.+.j.y.t.l.: J.4 B.i t.H.y.u B.$ n T $.`.' .X@.pXnX'.' `.' 7.F K v s s.u B.i h.{ | w g.r.z.Y.&.P s F.u g.u.l.r.e.",
"r.l.a.Z.t.t.{ +.o.w i y.4 : A.s.D.e.t.S.; F.l.6 G D D E Z ..N 5X0X/ Z ' S F S J % d x.u g.l.r.B.l.i < F.l.s.9.<.k h.y.l.r.y.y.; ",
"A.i y.2 S.: h o.} r.t.; i A.2 s.i B.u r.D.g.i h ~ E E E E A D E / J M U ! E E ~ d i g.t.s.r.B.s.r.4 - x.r.s.` <.$.a.y.v.r.r.; ; ",
"F.: r.s.S.s.< ) [ e.l.< l.v.r.4 u.D.K.- s.i a.0 I U J E :.*.U ! >.J T =.,.T ) j g.: l.r.v.4 g.r.: r.y.P.- s.] <.[ s.u t.s.2 ; y.",
"A.s.l.1 l.e.1 r.t.g.a.2 z.x.D.s.r.y.S.2 ; d _ K O.A K S E @X&X,X4X=X*X;.T U S P [ 2 l.u z.g.3 < V.s.t.I.e.B.w $.3 p.t.r.r.M.u k.",
": L.2 ; t.t.l.F.r.N.a.1 I.: M.4 r.e.z.B.g.j -.P ;XI =.J b D E -.=.! E J A D D A H 7 a.: u F.4 g.3 u v.e.L.4 < h u u L.r.z.1 1 H.",
"s.L.t.v.g.t.B.; 4 3 s.A.l.p.V.r.L.d.y.l.2 0 ,.$X4X,.>.%     X F B M   M N A K A G K ] a.J.p.; 3 ; B.s.t.F.g.j.M.t.J.; ; 1 ; K.g.",
"r.i 1 z.i g.r.2 s.- v.t.1 s.2 2 B.u y.s.e.h 2.:X,X<XB     o $ M M c $ X M D M U >XM K s r.r.u r.I.4 ; y.d.2 g.u s.i 2 4 ; L.r.; ",
"V.y.s.i r.p.; t.3 x.t.x.u L.r.s.i u s.; i i 0 K F c C 5 5 5 = o c + 7     #.$X#.4X2.&., s.r.3 a.v.< l.s.s.1 a.i f u s.4 g.l.t.y.",
"v.; j.z.K.g.L.a.r.4 t.; K.l.u f z.F.K.F.r.l.5 U Q v 0 l.; g.s.C.h.i g     M =.*X4X@X) 4 G.g.1 l.4 u L.F.; L.l.F.i F.a.1 r.i < J.",
"u s.3 F.d.t.l.g.r.r.t.4 B.r.r.< J.p.y.g.t.g.Z *.*XQ 8.k - L.t.f.l.i z.* 5 7 G =.*.O.l g.u.g.1 S.2 4 u.y.y.4 g.j.y.l.l.: z.i 4 z.",
"B.1 g.g.g.g.2 x.g.4 2 L.4 H.r.e.B.u l.1 L.d.P H ! -.A &.a.S.; y.2 J.r.y.t.n.V F M C j.1 k.r.B.i a.v.j.l.r.y.t.l.j.r.g.z.i i L.t.",
"B.s.t.g.y.B.l.r.l.J.4 z.e.B.e.r.l.u L.i l.4 & x O X M 9 r.g.; H.; z.2 l.4 C.L E %XL h 4 B.; S.r.y.s.z.l.t.A.s.s.l.l.r.B.A.r.a.u.",
"; N.2 L.p.i J.u u z.s.r.y.: I.4 S.u y.I.i 3 B S U A v % d x.u u.N.t.r.B.f 8.>.$X>XK | 4 l.t.t.t.l.: s.4 l.t.L.s.4 v.4 y.k.u.r.y.",
"e.l.i k.z.s.N.r.L.: t.t.r.2 l.i B.g.t.B.< ] T *X,X=.A B ~ ~.e.e.l.: D.g.d G M K K M [ a.u l.s.l.l.3 : A.l.r.k.l.y.y.y.x.2 y.r.; ",
"B.2 y.2 D.; y.x.s.t.t.- l.B.2 t.g.D.e.d 5.;X! M B G #X3.D | z.u.i K.g.2 d + c c v # 7 e.v.u v.y.3 3 ; z.u s.: N.; x.y.l.t.i ; 2 ",
"J.< s.s.S.y.- 4 t.t.G.; l.F.r.r.r.B.L.] L =.L U ;.v ;X;XS :. .).u t.3 k ~ v b E :.U 9 d v.4 y.4 u t.u.H.; g.2 z.: i i y.p.a.; s.",
"N.l.u.: t.r.2 e.t.B.f 2 x.x.L.u.r.t.S.7 9 k bX4X;XyXBX_.e # | V.t.- i &.U J E @X3.=.K ` h.g.4 1 j.t.t.L.a.l.; y.i r.y.t.s.a.u l.",
"; L.2 ; y.2 F.l.i l.i i F.- v.2 r.y.p.Q.dXR.BXBXNXVXBXY.iXm.i r.I.t.h E S 3X;.c D M $X<X^ W.r.y.< t.L.e.H.2 < l.< y.x.r.g.< u L.",
"y.F.y.v.f.y.x.< 4 1 l.F.s.k.n.r.H.n.uXC.kXE.{.nXBXNX{.C.kX).}.K.y.{ 4.R ) eXyX:.>X<.eXN X.k - d ; F.4 u.H.s.g.b.y.D.; - 1 2 L.t.",
"4 s.2 z.4 g.4 t.s.; v.g.3 p.i r.A.4 M.M.M.C.pXT.v.j.iXj.j.W.iXC.y.j.8 eX}.dXVXyX_ zXdXR.tXr.r.u I.< ; i l.; g.s.y.4 r.a.; I.a.; ",
"F.t.t.u r.j.; y.4 g.s.c.a.L.4 y.u i g.Y.a.r.iXnXnXbXpXi n.!.< s.4 ].!.dXrX|.NXVXVXBXE.].iXM.^.g.z.2 F.s.r.d i i a.u s.1 g.s.t.z.",
"l.< j.L.z.f.F.i s.r.y.; L.l.i f N.g.n.N.i z.p.sXmXmXl.l.< B.r.V.l.j.I.T.p.W.|.mXMX{._.t.[.).{.J.3 3 x.G.; F.A.K.s.L.4 r.z.r.< H.",
"r.p.1 v.i t.a.N.i s.i r.B.r.i > P.r.t.y.j.g.p.T.T.).rX3 - L.t.r.y.p.V.m.a.!.dXW.m.rX].y.T.C.; B.i s.l.i l.4 s.p.f.t.x.; l.i 4 l.",
"J.- g.y.y.J.r.a.g.s.r.F.1 J.i u.B.u N.u B.u [.nXVXBX|.t.t.B.; l.2 S.< y.s.Q.pXVXVXkXN.r.u.2 D.1 y.l.x.x.1 u.u l.F.y.r.A.r.s.A.p.",
"N.s.s.l.t.B.l.s.l.S.i l.y.x.y.r.l.2 L.e.y.y.B.!.NX}.s.Z.l.y.4 P.: l.4 x.i S.j.]. X!.j.3 D.< B.e.l.4 z.l.t.J.j.t.u.v.2 A.B.r.t.l.",
"; B.t.D.t.r.S.r.s.l.y.r.y.; D.a.L.u g.S.u p.B.f.a.s.u J.y.P.< u.z.u u S.t.p.sXkXkXnXW.: l.g.a.u l.r.e.r.s.g.x.l.u z.s.s.r.y.t.t.",
"y.g.4 z.u.y.N.2 J.: y.4 r.e.g.u z.g.r.B.1 J.f.n.T.!.y.t.y.l.y.r.l.2 N.y.4 s.|.BXVXuXl.s.u g.l.t.l.: ; B.g.i k.l.y.t.a.S.: u.u ; ",
"B.: s.r.D.; s.x.r.y.u < F.B.u r.y.D.g.i S.a.!.].BXdXl.e.2 g.c.x.i G.y.u i 4 B.].}.2 l.i F.a.f.g.3 4 < B.1 y.r.B.; S.y.r.g.4 - r.",
"J.< l.r.A.y.- i s.t.F.: u.J.r.r.r.B.L.; u r.g.K.T.v.F.l.; r.l.I.u i 1 g.z.e.).V.).p.g.r.v.r.t.1 s.p.y.D.2 x.2 l.1 p.4 y.p.l.; k.",
"t.M.s.< u l.u s.t.H.i 2 K.s.L.s.r.i B.t.: r.V.i p.Q.l.Q.p.g.i B.y.; : M.u j.}.dXMXY.y.r.y.l.u r.a.u g.g.f.a.; t.t.i l.r.F.f < x.",
"; F.< : j.: L.4 3 s.i f A.; B.; r.t.u I.u u i g.}.W.3 n.2 g.u.i I.i f u a.N.y.M.C.4 x.i s.F.p.u - y.I.4 B.p.: v.: l.g.u t.; r.L.",
"l.n.t.x.y.u.x.; i : D.N.i x.d.p.J.t.l.l.u t.u I.}.T.F.f.f H.g.z.y.u r.i I.r.s.L.T.4 j.l.Z.r.; u 2 P.1 l.V.y.t.p.l.B.; - < e.L.4 ",
"i t.4 l.i t.3 s.s.4 g.s.3 4 p.p.N.i s.i i g.z.i }.T.y.u y.l.i p.s.t.t.F.: r.4 C.pXy.l.r.4 s.t.r.I.< ; p.u.< l.t.t.4 y.t.2 K.r.; ",
"K.r.y.2 s.G.< s.4 s.y.a.l.L.2 s.u y.n.1 r.p.l.y.j.r.k.2 t.r.1 s.i 3 y.l.s.v.1 j.sX3 p.4 i t.; y.s.r.L.s.4 p.4 s.V.u t.< y.a.r.L.",
"g.1 s.P.g.s.B.4 l.t.s.; I.g.p.4 V.2 s.l.p.x.; y.4 I.s.j.; V.u V.g.i P.; t.t.B.m.uXs.I.y.L.t.t.P.3 i z.l.: F.L.L.y.P.4 y.x.i 2 x.",
"i s.s.l.4 t.r.H.4 t.1 j.l.l.3 i D.4 r.t.x.s.p.r.s.u.F.3 : D.r.4 s.s.A.4 A.u.r.L.r.< j.r.4 x.: N.i A.s.r.l.r.y.w y.4 L.; y.i c.l.",
"L.; a.t.y.I.s.p.l.l.s.Z.< I.i t.B.r.A.r.s.4 l.s.I.: B.p.4 B.2 l.: x.; y.y.I.r.t.r.r.l.t.l.; F.1 s.g.B.v.; t.i l.L.y.2 F.l.a.g.s."
};
