/* XPM */
static char *result[] = {
/* columns rows colors chars-per-pixel */
"64 64 235 2 ",
"   c #0C1233",
".  c #0E1836",
"X  c #151A35",
"o  c #111638",
"O  c #141A3D",
"+  c #2F1C28",
"@  c #14252E",
"#  c #1D342B",
"$  c #1B2737",
"%  c #1A243B",
"&  c #223C2B",
"*  c #243735",
"=  c #2E313B",
"-  c #2F6E0E",
";  c #34740E",
":  c #377A0E",
">  c #2F6814",
",  c #336F14",
"<  c #396D1D",
"1  c #347412",
"2  c #387614",
"3  c #3A7B14",
"4  c #35711D",
"5  c #3D761B",
"6  c #3F781B",
"7  c #27442A",
"8  c #2C4D2C",
"9  c #2E5424",
"0  c #345A28",
"q  c #2D4636",
"w  c #334A39",
"e  c #3A583A",
"r  c #3A6725",
"t  c #3D7323",
"y  c #3C6236",
"u  c #6E580A",
"i  c #66531C",
"p  c #417E17",
"a  c #417D1C",
"s  c #547214",
"d  c #6D7210",
"f  c #4C5935",
"g  c #44682E",
"h  c #447C23",
"j  c #487D24",
"k  c #447629",
"l  c #4B7D2B",
"z  c #52752E",
"x  c #436C33",
"c  c #426839",
"v  c #4B7735",
"b  c #527839",
"n  c #76682E",
"m  c #161D41",
"M  c #191E42",
"N  c #1C2144",
"B  c #1A2645",
"V  c #1E244A",
"C  c #1C2B52",
"Z  c #252946",
"A  c #21254B",
"S  c #23294D",
"D  c #292B4D",
"F  c #322C4D",
"G  c #2B354D",
"H  c #31374A",
"J  c #252A52",
"K  c #2A2C54",
"L  c #2B2F58",
"P  c #293159",
"I  c #2D315A",
"U  c #33345D",
"Y  c #363858",
"T  c #2C3664",
"R  c #343661",
"E  c #3B3B65",
"W  c #363968",
"Q  c #3D3D6A",
"!  c #423E5E",
"~  c #413E6B",
"^  c #354946",
"/  c #3C5545",
"(  c #2A445D",
")  c #394655",
"_  c #2C436F",
"`  c #3D4168",
"'  c #34497B",
"]  c #4E4D4F",
"[  c #42584A",
"{  c #43425A",
"}  c #455658",
"|  c #486648",
" . c #55774A",
".. c #52714E",
"X. c #4B6453",
"o. c #4D6556",
"O. c #526A59",
"+. c #757154",
"@. c #444C65",
"#. c #43426D",
"$. c #444A69",
"%. c #494969",
"&. c #4A5667",
"*. c #525869",
"=. c #454573",
"-. c #4A4675",
";. c #4C4B75",
":. c #484779",
">. c #4E4B7B",
",. c #514F7A",
"<. c #4F5472",
"1. c #445870",
"2. c #515574",
"3. c #585A75",
"4. c #54537D",
"5. c #5A5B7C",
"6. c #546863",
"7. c #576875",
"8. c #67776A",
"9. c #72766B",
"0. c #616B78",
"q. c #89700D",
"w. c #976733",
"e. c #4A8917",
"r. c #45811D",
"t. c #4B851F",
"y. c #4F881F",
"u. c #57861E",
"i. c #758B19",
"p. c #4A8327",
"a. c #4C8425",
"s. c #4D8A21",
"d. c #508727",
"f. c #528B21",
"g. c #57892D",
"h. c #548A2D",
"j. c #4E9521",
"k. c #579123",
"l. c #579626",
"z. c #5B9324",
"x. c #5E9A27",
"c. c #5E992C",
"v. c #5A8E32",
"b. c #568438",
"n. c #5C9335",
"m. c #63942A",
"M. c #629B2A",
"N. c #659B37",
"B. c #65983A",
"V. c #699D3B",
"C. c #5EA527",
"Z. c #66A229",
"A. c #69A229",
"S. c #6DAA2C",
"D. c #66A130",
"F. c #6BA433",
"G. c #6FAB35",
"H. c #6CA33B",
"J. c #73AE31",
"K. c #72A63D",
"L. c #72AB3A",
"P. c #79B23B",
"I. c #5D824C",
"U. c #6A9948",
"Y. c #668C52",
"T. c #78AA47",
"R. c #7BA854",
"E. c #6F8574",
"W. c #8A8312",
"Q. c #938111",
"!. c #A78D0F",
"~. c #908F54",
"^. c #83B158",
"/. c #B6B64C",
"(. c #8C8A73",
"). c #82AB66",
"_. c #8DB46B",
"`. c #96B875",
"'. c #ADAE73",
"]. c #9AC772",
"[. c #ACC874",
"{. c #32548E",
"}. c #524E82",
"|. c #465287",
" X c #555282",
".X c #595583",
"XX c #5C5A86",
"oX c #5C568A",
"OX c #5E5B8A",
"+X c #615C8D",
"@X c #625E91",
"#X c #576991",
"$X c #65658A",
"%X c #6D7487",
"&X c #666394",
"*X c #6A6594",
"=X c #6E699A",
"-X c #737096",
";X c #487AAB",
":X c #7A75A6",
">X c #3D7FC5",
",X c #817BAD",
"<X c #509299",
"1X c #7D9389",
"2X c #5182A7",
"3X c #6D96B5",
"4X c #6095C1",
"5X c #59AECF",
"6X c #68A7C6",
"7X c #5BDFC1",
"8X c #8D9890",
"9X c #A2B094",
"0X c #8690AB",
"qX c #80A0B5",
"wX c #ACACB0",
"eX c #AAC699",
"rX c #B3CF98",
"tX c #ADE085",
"yX c #B5CCA6",
"uX c #BDD3AD",
"iX c #CACE90",
"pX c #EBEF9C",
"aX c #C7DBB5",
"sX c #EDF1A3",
"dX c #AAE9C7",
"fX c #9AE3E4",
"gX c #D2D2D6",
"hX c #DAE6D0",
"jX c #ECF6C7",
"kX c #E2EBDB",
"lX c #DFDFE3",
"zX c #C5EAEF",
"xX c #EFF4EA",
"cX c #F5F8F4",
"vX c #FDFDFC",
/* pixels */
"f.f.f.k.a k.z.t.k.M.t.k.y.t.k.y.z.a x.y.f.y.A.r.x.f.p S.M.y.r.D.: z.r.A.: M.y.a P.G.p t.L.: M.f.k.: z.k.t.L.x.a y.K.3 M.z.f.p k.",
"2 x.s.Z.y.f.A.r.f.k.y.r.t.; S.y.P.r.f.M.p y.M.y.3 f.p S.f.J.: k.k.p u.M.f.3 k.f.x.k.x.: k.k.t.t.z.y.3 y.k.k.k.k.e.z.y.y.f.f.y.p ",
"M.s.r.a.k.a f.a.A.; f.2 3 M.t.t.r.f.3 k.p m.p y.6 t.u.u i.p y.r g j u.s u s z.f.6 f.y.y.p t.D.r.y.5 - M.f.6 y.f.r.s.s.K.; f.2 ; ",
"M.: r.y.S.2 t.k.a f.a ; S.M.3 r.f.S.k.2 M.a y.r.3 J.a.s Q.m.p.f g g u.i.W.p A.p y.: k.r.L.a t.f.1 r.p M.; e.r.M.: Z.s.a f.1 - y.",
"J.: z.a M.y.; 3 y.a.Z.; k.G.t.r.a M.J.; 3 r.f.M.6 x.K.m.d !.n n d i.q.W.d a L.F.H.; y.r.M.y.6 ; G.r.y.J.r.L.5 f.1 r.t.y.6 H.; f.",
"p N.t.; a k.s.k.y.K.6 ; P.r.L.t.a a b u.p r.n.a r.P.s.F.b E.w.w.q.w.+.E.k s.k.k.g.a y.6 a.l a f.j 3 f.r.v.t.; s.y.r.z.r.G.6 ; M.",
": D.1 t.v.; S.1 5 r.a.a x.1 L., f.x *.M.a a r.s.a.k.3 G.Y.8X8.u u i E.E.b.l.s.s.z.a L.a Z.O.r 4 - s.D.a.x.r.r.F.: G.r.1 6 1 r.S.",
"f.p.a x.t.f.f.1 r.: H.f.a x.t X.g.G I.f.p t.r.L.s.r.K.r.k U.O.+.+.3.8.g.T.a s.L.s.r.a.s.c.v D r o.V.3 f.v.t.f.p.k.k.; 1 : l.M.2 ",
"t.s.p f.a d.2 t.5 j.s.s.5 a.8 6.w 5.l 3 a a G.a f.6 a.t 6.&.@X+X*X+XOXO.O.h 5 f., f.f.a a b.2.w 8.7 2 a k.- s.s.a p y.r.s.c.a ; ",
"H.2 f.r.z.F.t.f.6 y.s.a c.v.$ 3.. 5.U.a t.a t.t.a.r * V T ' W W E Q W W T B 8 > d.2 f.a a.b.2.B *.% b.z.3 h.: k.x.a.y.- t.r.p T.",
"f.r.a T.s.d.m.a f.t.y.5 J.9 . ` N 2.v f.a M.; 0 ^ Z N . J T V m m V J T V O B ) / r L.f.G.b 4.M ~ O 9 k.r.f.K.G.f.G.t.r.x.p.6 M.",
"f.a f.f.a t.p L.a a.; x.s.x . R M B % v V.a.* K W R R P =.Q J N R J K :.Q K E I Q D r k c * O A U o r a.f.s.s.j a.6 G.1 s.5 Z.f.",
"J.; a k.f.P.j a g.H.h v.4 H C K %.D J #.E.8 T R U T K -.Q I Q oX@X~ Q I =.W K Q K W Z 0.#.S S #.K S ^ n.4 l p.h.H.f.3 S.Z.5 k.a.",
"r.k.y.M.a a * I ;.;.#.T <XJ ` qXfX:.K ~ %Xc H   O N E R Q #. XoX=XoX,.=.R -.S M   o / -X#.J |.fXqX` _ <X(  X4.>.S * 4 x.k.k.6 y.",
"r.x.y.C.y.y.c.$ S =.=X' {.J :.6XzX3XL OX,X8.      . N P B O 4..X=X@XQ V M L o   .   %.,XXXP qXzX6X:.J T W +XE S $ f.y.y.e.s.y.3 ",
"Z.t.t.6 k.a d.r 8 / 1X XU L L 1.{.S #.+XQ I   m C P ;X5X#XP m E R m M _ 2X5X{.K S   D ~ OX-.S ' ` J K I oX0Xw 7 < s.y.G.3 s.; ; ",
"Z.; t.s.D.a } | y y.h ) OX+X+X+X+X+X.Xo o $ N S J {.5XfXzX{.J E -.I P 4XzXfX>XT J S o   O ;.OXOX#X+X&XXXY g.a M.; f.6 r.y.1 ; s.",
"D.p M.3 M.r.c @.X.f.v.@ N *X5.*XXXY     X [ I I J L ;X5X2XP N U XXR J _ 4X5X{.J J U R Z     ` XXOX$X+XX & H.2 k.5 s.t.t.r.G.2 f.",
": L.6 ; a.f.p.{ 5.| [ S =.*X! F o   & & l d.$ . A R T  XW J V =.4.W S K ' :.K R   o e 4 # *   % K -.F U e 4 - ..&.k L.r.Z.6 ; D.",
"3 G.3 d.b.3 M.3.;.,.-.-.@X@X~ X q 8 a k.3 j 8 O . K K ;.P J L :.,.~ J B ` ` A M . B V.a.J.6 & 7 Y Y { ,.D 8 v 2.&.J.; ; h ; f.M.",
"f.h k @.}  .E./ 3.F %.=XoXU # 3 M.t.f.f.a y.y G D M m m A J A ;..XD A S N O M S S * p.f.s.r.; r.w )  X=X.XU @.2.b f.; ; ; H.f.1 ",
"f.j } %.$.&X*.3.` #.5..XQ * t t.f.a s.; a 5 H.9 O O S m O m D #.,.A S O O A S O % h t.6 r.a.6 s.z <.2. X&XY @.2.x 6 s.k f.f.r.3 ",
"N.c [ X.O.o.6.K E ,.Z +X*.g k j f.M.F.N.a t.r.a       X X     K K       $       $ 3 k.3 M.f.; t.k X.<.<.! >.;..X<.I.o.<.| h 3 P.",
"s.s.h L.y.f.j { +XZ %.<.@.} } 4 U.a s.k.a m.: <     O ] +.N X M O   X D ~.D .   @ 6 K.f.M.f.6 S.2 h b 3.oX~ ! %.<.$X<.<.<.v a k.",
"f.2 t.z.a s.a b.= 0. .K.c @.$.$.@.g f.3 L.s.a.#     ` tX9X'.(.6.~.~ '.(.iXE.P .   9 k.: t.y.z.t.j N.g.O.@X5.Y ;.*.0.%XX.| | K.y.",
"S.a a k.f.J.t.c &.O.p m.5 B.} @.b.p L.p f.p z.* V N 9XpXdXsXsXwXjXwXpXdXhXpXXXB A 9 z.r.k.- N.j X.*.*.3.%.% $XU E I.l A.L.5 s.y.",
"3 M.p J.a r.H.@.@.g.y.t.k.; J.5 M.a t.J.f.p M.# V T +.tX9.[.(.sXsXiX9.[.8.`.) P O x y.p M.l *.<.2.<.o.a Y.,.I 4.H v.p f.f.k.r.y.",
"r.k.r.Z.t.f. .$.@.k a f.a : Z.s.S.r.f.M.: F.f.& V P K %.! /.K <X7X*.] +.F ` S J . r x.p y.k.j O.*.k , F.g.Y.{ H r k.u.k.e.y.y.; ",
"Z.a f.3 M.: v @.} a s.; a Z.3 s.r.A.p r.A.k.6 a.^ I R W K S J 1.<XR J J I U Q U e a f.t.s.h M.f.r.p - x.r.a.7.<.y f.t.x.r.r.; ; ",
"S.; r.s.A.f.1 } [ y.f.1 k.M.r.6 y.S.L.- s.a s.f.r ` R ` >.Q U E Q K U =.>.Q } c k.1 k.r.c.5 f.r.: r.s.J.- s.*.*.&.s.a a.t.3 : t.",
"N.s.f.2 k.e.2 k v k.d.3 z.x.D.s.p f.A.2 ; a H.p.Y P P :.>.}.:..X=X=.}.}.2.y L.M.F.3 k.p z.f.6 ; N.r.a.P.t.M.c 2.c s.s.r.r.v.3 f.",
": J.3 : t.t.k.A.a M.a.2 P.; N.6 p y.z.M.f.s.v H =.S J V L ~ -. X.X-.>./ / e e / 1 6 y.: r.D.a f.6 a M.e.L.3 t } h p L.a x.2 2 J.",
"a.L.t.M.f.t.M.; 6 6 a.A.k.r.N.r.L.s.y.k.3 k 0.#.&XL  XU A M E R K ~ U D K U J U / h B.t.J.r.; 6 ; m.s.y.H.y.g.b.s.J.: ; 2 ; F.k.",
"t.a : l.a f.r.3 t.- c.y.3 s.3 3 M.6 y.y.r.e }..X:X}.4.D o o K -.}.~ A J J J L S R ^ j s.r.r.2 r.P.a : y.d.3 f.a f.a 2 5 ; L.a 1 ",
"Z.s.a.6 r.j 1 a.6 x.t.z.a H.r.f.a r.s.; r.r 2.&X=X*XD +     X D K M o M J I Q I *XY / 2 a.r.5 s.x.: k.a.s.2 t.a h a y.6 f.k.s.s.",
"c.1 h.z.L.f.L.s.r.6 t.; L.k.a h z.Z.H.L.r.f.7 U K M O     @ & A A o 8   m ;. X>.:X-.-.0 H.f.: k.5 p K.F.; L.k.N.a F.t.2 a a ; L.",
"6 s.5 D.p.s.f.f.r.r.t.5 M.r.r., L.r.f.f.a.k.7 U R M w r > v.r X X & j     F ;.+X,X}.[ j f.k.2 Z.3 5 f.f.y.6 k.h.f.k.f.: m.a 5 z.",
"M.2 s.k.s.f.3 M.s.r.3 L.2 L.p f.M.a k.1 J.a.H #.+XQ %Xb.y.A.2 y.: S.k X . $ D -.#.%.z 2 y.r.M.a p.x.f.k.r.y.s.f.f.r.f.z.p a L.t.",
"M.s.s.f.y.Z.k.r.k.J.6 z.e.M.y.p k.p L.r.k.l %.E +X+XA %Xr.k.; G.; z.2 d.< g.Z I A Z d.3 x.; A.r.s.t.z.l.a.M.f.f.k.k.r.M.A.a f.f.",
"; M.3 K.r.p J.6 r.z.y.r.y.: P.p A.a f.J.r.a * O O o A e t.x.p k.m.y.p M.p k Y ~ +XY l 6 k.t.f.t.l.2 s.3 k.t.L.s.a M.a y.f.f.r.t.",
"e.k.a j.k.t.M.r.H.: t.t.6 3 z.a N.y.y.M.; V.Z K U K M % x M.r.a.z.: A.f.k 0.,..X*XU O.f.a f.y.f.k.5 ; A.k.r.l.f.s.s.f.z.2 y.r.; ",
"M.3 f.3 S.: y.m.s.t.t.; k.Z.3 t.f.S.r.a J.e R +X=X-.J S ) E.k.k.p H.y.a h K S I U S | e.M.a x.f.6 6 ; k.3 y.: M.1 z.s.k.f.a : 2 ",
"J.2 s.y.A.y.- 3 t.t.Z.; k.G.3 r.r.A.L.- &.&X#.K J U  X5.D o.z.P.p t.p a a.$ M m m B 9 p M.5 t.a p t.f.G.1 f.p z.2 a a t.j t.; f.",
"M.k.f.; y.r.p r.t.N.j 3 x.x.L.f.r.t.Z. .Y %.Y U -.M $XXXI ;...A.j - 2 U.^ M V Q -.R w h k.f.a 1 h.t.t.L.s.k.; s.p r.f.t.s.p.p k.",
"; G.3 ; y.3 F.f.a k.a a D.- c.3 r.y.r.b 8 v gX-X,.wXxXY.9 O } a.^.e.g.} R A ~ >.,.-.U ) a L.r.s.1 t.L.e.G.3 1 f.1 y.M.a f.1 a J.",
"t.H.s.M.f.t.M.1 6 2 k.F.s.f.v.r.P.f.z.k.2 n.xXlXgXvXxXU.a b.s.M.e.; k E K *X-.A K K  X*X .a.- h : D.6 f.G.t.f.g.y.S.1 - 2 3 K.s.",
"a t.3 z.6 f.a t.s.; c.f.6 r.a r.M.6 f.t.s.f.eXcXvXvXrX3 y.M.a y.u.Y.5.U ^ 8XwX,.*X3.8X* %.v r.p P.2 ; a k.; k.a.y.6 r.s.; P.a.; ",
"H.t.s.3 r.h.; y.6 k.s.l.p.L.a y.r.3 f.1 a r.K.uXvXkXN.5 t.p ; d.p j q 8X`.aXcX0X%.wXyXI.9Xr.1 f.k.3 A.s.r.h 6 a a.p s.2 f.s.t.k.",
"k.; g.L.z.d.S.6 s.r.s.: L.z.a h M.f.v.M.a z.: g.`.^.e.z.1 M.r.V.k.).].9XeX_.xXvXvXxX`.`.rXN.).J.6 5 x.N.; F.A.K.s.L.a a.k.r.; G.",
"a t.2 M.a y.a.M.a a.a r.M.a a , P.a t.y.f.h.3 r.a.x.f.p - L.t.r.f.d.D.U.h.T.R.hXhX).R.f.U.).).M.h s.k.r.f.6 f.j s.t.x.; k.a 6 k.",
"J.- f.y.f.G.r.d.f.y.r.D.2 J.a u.M.p M.3 M.a k.r.P.1 F.t.t.M.; k.3 Z.h V.a.].uXT.U.eX^.a R.d.S.: t.k.x.z.2 f.a k.D.f.r.Z.r.t.M.s.",
"M.s.s.k.t.z.z.t.k.A.r.k.y.x.y.r.k.p J.e.y.t.M.a A.s.f.M.k.t.p L.; l.a z.5 L.hXvXvXkXv.p F.1 M.r.k.r.z.k.t.J.f.t.f.M.3 M.M.r.a.k.",
"; M.t.S.t.a A.r.f.k.t.r.y.; S.s.J.a f.Z.p a M.f.3 f.p J.y.J.2 f.z.r.r.Z.a.3 h.R.^.R.M.1 k.f.t.p k.r.r.r.f.f.M.k.p k.s.s.r.f.t.t.",
"t.f.a j.f.f.M.p J.; f.a r.e.f.a m.y.r.m.2 L.p s.r.f.t.t.s.z.y.p k.3 M.t.6 s.rXuXyXkXN.y.a f.k.t.k.2 ; M.y.r.j.k.y.a.f.A.: f.3 ; ",
"M.: f.r.S.; f.m.a f.a ; F.M.p p f.S.y.a A.s.t.a 3 K.y.e.3 f.l.M.a A.t.p 6 h `.cXvX`.z.a F.a.d.f.6 6 1 M.3 y.p M.; N.t.r.k.3 ; r.",
"J.2 k.r.M.y.- p y.t.F.: f.J.r.r.r.M.L.; p j f.F.p k.G.k.; r.k.P.a a 2 f.x.y.Z._.`.1 u.a M.r.y.2 y.r.y.S.3 x.p j.2 r.a y.h k.; y.",
"a.m.d.: a k.a s.t.H.6 3 L.s.L.s.r.a M.t.: p V.p p J.k.P.r.y.a M.f.; : v.a r.^.N.).g.f.r.s.f.a r.a.r.f.f.d.d.; r.t.a k.r.F.h 2 M.",
"; F.; 2 f.; L.6 3 y.6 a.Z.- Z.; r.y.p P.a a a f.f.k.6 v.3 f.f.r.P.a h a y.V._.yXkXv.x.6 s.F.r.a - y.P.a M.r.2 x.: z.f.p t.; a L.",
"f.v.t.z.f.f.x.1 a : F.m.6 x.p.p.J.t.f.k.p t.p P.f.s.H.a.k J.f.z.f.p a a P.r.s.T.n.a g.k.M.r.: p 3 J.2 f.N.f.t.p.z.M.: - 1 y.F.a ",
"a t.p k.a t.3 s.t.p k.f.5 5 a p.M.a s.a r.f.z.a s.6 y.p f.k.a r.y.t.t.S.: r.a f.b.y.k.a a s.t.a P.; ; h f.1 k.t.r.2 y.t.3 L.a ; ",
"H.p f.3 s.H.; s.6 s.s.p.l.P.3 a.3 s.v.3 r.t.k.y.d.p.j.: t.r.2 d.a a y.k.t.m.3 n.aXa a a a t.; f.s.p.J.s.a j 3 y.M.r.s., y.a.r.L.",
"k.2 d.L.f.s.M.6 k.t.s.2 P.s.r.5 Z.r.d.k.h x.; s.a P.s.f.; N.p N.f.a J.: t.t.M.n.aXs.P.f.J.s.r.L.5 6 k.l.2 D.L.L.s.L.6 s.x.a 2 M.",
"r.t.t.k.6 t.6 G.6 t.2 f.j.l.5 p D.6 a t.z.s.r.r.f.f.H.6 ; S.a 5 f.a.M.3 M.f.a.R.yX2 g.a a c.: M.a M.f.a k.r.a.h s.6 J.; f.6 z.k.",
"L.1 s.y.y.P.s.t.l.k.s.M.1 P.a s.M.r.Z.r.f.a k.t.P.: x.p.a M.3 k.: x.; f.f.P.t.s.r.a k.s.f.1 D.3 s.k.M.M.: t.6 k.L.s.3 D.k.a.k.s."
};
