/* XPM */
static char *result[] = {
/* columns rows colors chars-per-pixel */
"64 64 244 2 ",
"   c #10182F",
".  c #0C1233",
"X  c #0E1934",
"o  c #131C35",
"O  c #11173A",
"+  c #13173A",
"@  c #151A3D",
"#  c #241E38",
"$  c #18292D",
"%  c #1C342A",
"&  c #1A2639",
"*  c #2A372B",
"=  c #223B2D",
"-  c #282A36",
";  c #253636",
":  c #29551D",
">  c #2F6E0E",
",  c #35640B",
"<  c #34740E",
"1  c #377A0E",
"2  c #2E6617",
"3  c #346E13",
"4  c #386D1C",
"5  c #347412",
"6  c #387614",
"7  c #3A7B14",
"8  c #3D771A",
"9  c #3F781B",
"0  c #2A462B",
"q  c #2F4C2C",
"w  c #355A29",
"e  c #2D4634",
"r  c #334A39",
"t  c #3A5639",
"y  c #3C6C24",
"u  c #386628",
"i  c #3E7321",
"p  c #3E6534",
"a  c #675711",
"s  c #52730F",
"d  c #407414",
"f  c #417E17",
"g  c #417D1C",
"h  c #686F10",
"j  c #555836",
"k  c #40692A",
"l  c #477827",
"z  c #447D24",
"x  c #44762A",
"c  c #4B7C2C",
"v  c #456A38",
"b  c #516A32",
"n  c #497634",
"m  c #527A3D",
"M  c #776726",
"N  c #161D41",
"B  c #1A1E42",
"V  c #1C2145",
"C  c #1D244A",
"Z  c #1E2952",
"A  c #262946",
"S  c #21264C",
"D  c #23294D",
"F  c #302D47",
"G  c #2C3648",
"H  c #32344D",
"J  c #252B52",
"K  c #2A2D54",
"L  c #292C56",
"P  c #302F58",
"I  c #293155",
"U  c #2D325A",
"Y  c #32335C",
"T  c #37395A",
"R  c #2A3666",
"E  c #353661",
"W  c #363A64",
"Q  c #3B3C65",
"!  c #373968",
"~  c #3D3C6A",
"^  c #363D73",
"/  c #413A53",
"(  c #423E6B",
")  c #364848",
"_  c #3C5547",
"`  c #3C4458",
"'  c #3D4269",
"]  c #2E4878",
"[  c #364676",
"{  c #3F676E",
"}  c #435B47",
"|  c #42425C",
" . c #445A52",
".. c #485859",
"X. c #545352",
"o. c #4A6847",
"O. c #516D4D",
"+. c #557A45",
"@. c #4D6457",
"#. c #536A5A",
"$. c #567A5A",
"%. c #77764C",
"&. c #757958",
"*. c #424465",
"=. c #444C66",
"-. c #44436C",
";. c #444A6A",
":. c #4B4A68",
">. c #4C5865",
",. c #4D556C",
"<. c #535969",
"1. c #454372",
"2. c #4A4576",
"3. c #4C4B75",
"4. c #4E4B7A",
"5. c #534F7A",
"6. c #4F5471",
"7. c #575678",
"8. c #54537D",
"9. c #61577C",
"0. c #5B6B6A",
"q. c #5E7266",
"w. c #5C6475",
"e. c #487B76",
"r. c #62766B",
"t. c #6B6F70",
"y. c #677875",
"u. c #907912",
"i. c #A2712B",
"p. c #4A8917",
"a. c #45811D",
"s. c #4B851F",
"d. c #4F881F",
"f. c #50801C",
"g. c #4A8527",
"h. c #4C8424",
"j. c #4D8A21",
"k. c #508727",
"l. c #528B21",
"z. c #56892B",
"x. c #558B2C",
"c. c #4E9521",
"v. c #579123",
"b. c #569726",
"n. c #5B9324",
"m. c #5E9A27",
"M. c #5E992C",
"N. c #568736",
"B. c #5B8F31",
"V. c #5D9331",
"C. c #5B923A",
"Z. c #699222",
"A. c #61962E",
"S. c #629A2A",
"D. c #669C35",
"F. c #659938",
"G. c #5EA527",
"H. c #6AA127",
"J. c #66A229",
"K. c #69A229",
"L. c #6DAA2C",
"P. c #66A130",
"I. c #6BA432",
"U. c #6FAB35",
"Y. c #6DA23C",
"T. c #73AE31",
"R. c #70A43A",
"E. c #72AB3A",
"W. c #72B231",
"Q. c #79B33B",
"!. c #5C854D",
"~. c #6B9C43",
"^. c #67904E",
"/. c #6A9849",
"(. c #729E4D",
"). c #75A846",
"_. c #7EB445",
"`. c #78A456",
"'. c #438163",
"]. c #69846A",
"[. c #758C71",
"{. c #7BA462",
"}. c #908918",
"|. c #A48A0B",
" X c #95A953",
".X c #85AD68",
"XX c #8AB467",
"oX c #93B777",
"OX c #92B870",
"+X c #9FC579",
"@X c #355288",
"#X c #325293",
"$X c #346097",
"%X c #386AA9",
"&X c #534D82",
"*X c #5A5585",
"=X c #5A5886",
"-X c #605C85",
";X c #615D8D",
":X c #625C90",
">X c #4E7291",
",X c #656587",
"<X c #757A8B",
"1X c #6B6696",
"2X c #716C9D",
"3X c #657B90",
"4X c #78749D",
"5X c #4673A6",
"6X c #746EA1",
"7X c #7875A2",
"8X c #807A9D",
"9X c #40878F",
"0X c #5490B3",
"qX c #718EB3",
"wX c #45C7B4",
"eX c #5CB5D1",
"rX c #6AB4D3",
"tX c #7EE4E1",
"yX c #989D8D",
"uX c #89B08D",
"iX c #A4BC95",
"pX c #9A99A7",
"aX c #ADB3B1",
"sX c #A7C697",
"dX c #AECE93",
"fX c #B7CEA7",
"gX c #A5DBA4",
"hX c #D4D586",
"jX c #C9ED94",
"kX c #EBEC97",
"lX c #CBDCAF",
"zX c #EDEDA6",
"xX c #86B9CE",
"cX c #89BDD8",
"vX c #98EBD4",
"bX c #A5EAEA",
"nX c #B7F4EF",
"mX c #CDD2CE",
"MX c #D6E5C8",
"NX c #DCE8D2",
"BX c #E4ECDF",
"VX c #EBF0E8",
"CX c #F2F6EF",
"ZX c #FAFAFA",
/* pixels */
"l.l.l.v.g l.S.s.v.S.s.v.d.s.v.j.v.g n.l.l.s.K.f m.l.g h h h a.P.w b g H.h a f.p.Q.U.f s.T.< S.l.v.1 v.v.s.E.m.g d.E.g S.v.l.f v.",
"6 m.j.J.l.d.H.g l.v.j.a.s.< L.l.Q.a.l.K.f l.S.s.f l.g n.h }.p.k t w h.Z.u.s l.p.m.b.S.1 v.v.s.j.n.d.7 l.v.v.b.v.p.v.l.j.d.l.d.f ",
"S.j.a.h.v.g v.a.L.> l.7 7 S.a.l.a.v.9 l.8 S.f d.9 d.v.g h u.|.M u.u.}.|.h s v.v.9 l.d.j.g a.D.a.d.9 > S.j.9 d.d.a.j.j.R.< l.6 < ",
"S.1 a.d.L.6 s.l.f l.d 5 K.S.f f p.L.o.u S.f l.a.7 T.j.l., &.%.i.i.i.u.&.b d I.d d.< v.a.E.z v f.6 f f S.< p.a.S.< K.l.g l.6 > s.",
"W.1 n.g S.d.< f d.h.P.< v.U.d.p 8 t 0.c 1 a.v.S.g S.E.S.8 ].uXj a M X.uX[.g R.I.U.< d.a.S.x...0 I.p d.E.p.R.8 v.5 a.s.d.8 I.< l.",
"7 D.s.< g l.h.v.d.E.9 < Q.g.Y.q.c G ].l.f g.V.8 a.Q.j.I.g.+.<X4X4X4X6Xr.x z.n.v.z.g d.9 g.b.0.G n q.s.a.B.s.< d.d.a.n.a.U.f < A.",
"1 I.6 j.V.< I.5 8 a.a.g m.5 t ` e -.#.S.8 9 a.j.h.l.2 _ 6.R ^ R ^ ! ^ ^ [ ..w z n.g U.g J.l.@.3.0 T w g.m.a.a.I.< U.a.6 9 < a.L.",
"l.z g m.s.l.l.1 a.< Y.v.g k.X K @ 4.o.v.f d.a.E.y r & N C ^ ^ V S C R E R @ V & v u g.l.m.a. .=XN L X z B.s.l.g.v.n.< < < b.D.6 ",
"h.j.8 l.a.g.6 s.9 c.j.j.i g.  T Y @ | 2 l g F.% U E E C S E S B O B S K W C K E W L w 8 g z ` @ ' U X 4 l.> l.j.g f d.9 j.M.a.< ",
"I.7 k.g n.I.s.s.9 d.j.z M.C.% V V S & _ #.l ; Y E W E L ( ! E E &X4.( P 2.~ K W U ~ A w 0.} V C S V t g.7 x.1 v.m.h.d.> d.a.a.).",
"l.a.a.Q.j.h.w e r.@._ _ $.{ J ' qX>XK K 1X!.) D B L L 5.~ ~ ( 2.1X;X( ~ Y 1.1.J S N Y _ 1XU K 7.qX' I e.'.0.q.q.r.e 0 a.m.g.7 S.",
"l.g d.v.9 h.4 ; L U &X' 0XI ! qXnXcX~ U 7X7.w . . . . C D Q 1.:X1X:X1XQ 1.V V . . . ; ,.7XY 1.rXnXqXW I >XU 3.I U & D.5 j.8 J.l.",
"T.< g v.d.Q.l.w & K qX=X] Z U ] xX3XE 1.2X;X& . N B Z $X[ S B ~ :X~ Q N Z @X@XC B N O *X2X4.W 3XxX[ I J ^ =X7XV & l 7 L.P.9 v.s.",
"a.v.d.S.g d.K.g.v.Z.z.w.;X3.' ' E -.1X8.@ V N V L R %XvXnX0XR L 2.V J ] cXnXeX#XL S N B B 3.;X~ T ~ ~ 3.:Xy.(.9 j.E.7 m.l.v.g d.",
"a.m.d.G.p.l.A.l v.p.g e ` =X6X6X2X1X' N . $ ) L Z R %XtXbX5XR S 3.4.J ] rXbXeX@XJ J S V . O ' 1X2X2X2X*XT q b.v.a.n.d.d.p.j.j.7 ",
"J.s.s.g v.a.o...O.5 l.3 = Y H -.I V . . % m ` L V L R #X@XS N S =X*.P V U #X] J L B L q.$ . X V J J L S * g g v.f d.j.L.8 d.< < ",
"S.< h.d.L.a.4 =.=.k.4 % P *X6.- P o q : k.g k o . L Y =X1XP D ( :XQ P P L 2X~ E + . 0 a.B.4 % & K W 1.F & z a.S.< z.g a.d.6 5 j.",
"K.a.m.7 m.a.6 o.;.} - P *X1X2.D 0 S.T.< < f z.G C @ X . X B B P 8.2.E N N . . . B C t a.m.j.9 < +.T F 5.2.G : m @...h.s.9 U.5 l.",
"1 E.9 6 c k.j.O.:.O.k F 2X4.S q f f S.v.l.j.z.w C D Z Z S S J E 2.3.D J D D S J D & h.6 g S.9 v.y - ~ 1X1XE & / 6.o.T.f J.9 < I.",
"7 I.i ..;._ N.@.5.,.( -.T A m 6 A.k.g n.7 g g l.% . O O . . O N 3.O N . . . N X . w E.d.E.a.5 9 3 r ' 4.;X5.F 6.,.W.< < z < l.S.",
"j.x  .=.;.;.7.0.| 6.( &X1X* 5 7 S.j.l.l.g d.s.V.% . . . - + . + 7.. . . & - o . . w a.s.l.a.1 f Y.O.6.*.~ - _ ,.w.z < i y I.l.5 ",
"k.c v o.o.q.0.:.6.U 7.7.=.x.x h.s.a.j.5 g g E.4 o . @ &.hX/ %.# F F A %.t.dXT . . % h.8 a.a.9 j.J.y @.6.T 2.1.5.4.#.@.>.,.+.a.7 ",
"I.6 z.j.I.F.(.;.U *XY *.y.;.=. .o.+.Y.S.g s.g k O N U sXjXsXkX8XhXyXpXkXuXjX<XZ N o l.7 D.l.< s.9 9 ).!.w.:X-.*.6.7.,X6.6.,.p Q.",
"j.j.z R.s.k.l.e 7.Q H r.F...;.;.:.} k.v.g n.< 4 O Z =.jXsXgXiXzXzXzXkXsXdXdXyXJ C o R.s.S.k.d L.7 x k.+.6.7.7.Y 3.,.r.q.!.o.n n.",
"l.7 l.v.a.s.8 !.T | r.E.f D.p o.N.g d.7 U.j.s.: @ P Y &.#. X&.[.vXdX:. XX.t./ Y C o l.6 j.s.m o.@.<.<.>.q.| K 7.Y *.B.z.g f R.d.",
"L.d g v.l.E.p. .=.r.g S.9 L.a.9 A.g E.f v.f S.8 ) U L E U X./ ( wX9XF X.P T K E D 0 l.s.v.> ^.,.6.6.<.N.i t.| ' 7.q 8 H.E.8 l.d.",
"7 S.f T.g a.~.;.;.o.l.s.v.1 T.8 S.g s.E.d.a.K.a.z _ ~ ~ ~ E L Y ( Q J J Q ~ ( ( m K.d.7 S.z v.z.O.p k.a.b.v.[.>.` I.f l.l.v.a.p.",
"a.v.s.G.d.d.A. .;.x g l.9 1 J.j.L.p.l.S.< I.v.g h.N.} *.4.2.( Y =XQ Y 1.&X2. .b v.l.m.a.l.v.a.S.b.a.< I.v.j.V.7.<.z.s.v.a.l.j.< ",
"J.9 d.7 J.1 s.m ..f j.< g J.7 j.g S.f a.I.v.9 d.4 t t r ` 1.;X*X2X7X&X=X@.y v.j.9 f l.s.j.a.S.j.a.9 > m.a.h.i ,.6.O.s.m.a.a.< < ",
"I.< a.d.K.d.< z l d.l.5 v.m.a.9 l.L.I.< d.g s.j.) W L W R L  .P T Y H n l.h.T.g b.5 v.a.M.9 l.a.1 a.j.W.> j.a.#.,.h.g h.d.7 < d.",
"K.j.v.6 v.p.6 a.s.v.k.7 n.S.I.d.f l.H.d < 9 F._ I C K Z D J C ~ ~ ~ ! } t r o._ +.6 v.7 n.l.8 5 D.s.h.Q.p.S.5 O.o.a.l.a.g.B.a.p.",
"1 E.7 6 d.s.v.P.g S.h.6 Q.< V.g f d.n.S.v.h.) ~ U I ! J L N D &X&X&X4.I J E U L T r l.1 a.I.9 l.8 g S.p.E.7 < k.g f E.7 n.6 6 T.",
"j.E.d.m.l.s.S.< 9 9 s.P.l.g.D.a.E.j.d.v.7 i 2.K -XQ P ( B . + ( 4.2.K S D D L L D I o.s.T.a.< 8 5 S.j.j.Y.d.l.B.h.T.< < 6 1 I.l.",
"s.9 6 n.a.l.a.7 s.> M.d.7 j.7 7 S.a.d.j.a.l...,X<X9.7.P   . $ @ L J O $ B L L U K K T t a.a.7 a.Q.f < j.k.7 l.a.d.a.8 8 < E.a.5 ",
"P.j.h.9 a.z 5 s.9 m.s.n.9 U.a.d.g g j.< a.g  .;X1X:X2.&     0 o S B o q . V J J 2.T K G h.a.8 j.S.< l.j.j.6 j.g z 7 j.8 l.v.s.j.",
"M.< x.m.Y.l.R.j.a.9 s.5 U.b.g z n.D.Y.I.a.l.4 A E E A c 2 k.z v * ; c % . # 9./ 1X$.<Xv I.l.6 v.8 g E.Y.5 R.v.D.9 U.j.6 g g 1 E.",
"9 j.9 P.h.j.l.l.a.a.s.9 S.a.a.3 E.a.d.l.s.v.2 A E E V k > E.j.h.v.f S.%   o 2.5.7X,X=Xl l.v.6 H.7 9 l.l.d.9 v.z.d.v.v.1 n.h.8 n.",
"S.5 j.v.h.l.7 S.l.g 7 T.7 U.f l.S.a.v.1 R.l.k P :X( :.!.l.S.< l.1 T.a.d.s.B.) ( 5.5...4 d.a.S.g h.S.l.l.a.d.j.l.l.a.l.n.d g E.s.",
"S.j.j.l.d.J.v.a.v.T.9 n.p.S.d.a.v.a.E.a.v.f q.L =X*X4.w.+.v.< T.1 v.7 v.g S.t B P E 0 8 S.< K.a.d.s.n.b.s.K.l.l.b.v.a.S.H.a.j.l.",
"< S.7 E.a.g T.g f v.d.g.d.1 Q.d L.d d.E.g f p B O N B ; y S.f l.S.s.f.S.f f } D 3.3.r 8 b.s.s.j.b.5 s.f l.s.E.j.g M.9 d.l.l.a.s.",
"p.v.g b.v.d.m.p.Y.1 s.s.g 7 n.g J.d.l.S.< E.q V C B B V q S.a.a.n.1 I.l.9 N.4X6.*X&XH c g v.j.l.b.9 < H.n.g c.v.j.j.l.n.8 l.a.< ",
"S.7 s.7 L.< d.m.l.a.s.< b.S.7 s.d.L.a.g T.c G 1.1X*XY D K $.^.n.d E.l.8 z o.V W ( E T g.m.g m.l.8 9 < v.f j.1 S.< n.d.v.p.g < 7 ",
"E.< l.d.K.p.> 8 s.s.D.< v.I.f a.a.S.E.> x 6.~ 1.D Y 2.P E ) V.Q.8 s.8 s.b.y V B N V e 8 A.g s.g 7 s.l.U.< z.g n.6 g g s.g.s.< l.",
"S.v.l.< s.a.f a.s.S.g.7 m.m.E.l.a.s.H.a.=.-.6.A 1.Y Y 7XT 1...I.s.> < R.x C V S ~ ~ D u v.l.d 5 x.s.s.U.s.v.5 j.g a.l.s.j.h.f v.",
"< U.7 < l.7 I.l.g v.g g I.> V.7 g j.a.D.H ; iX,X6X;XaXiXx H ( ].Q.s.a.r.;.J L 1.6X2X-.G x Y.a.j.5 s.E.p.T.g 5 l.6 s.S.g l.5 g E.",
"s.Y.j.S.k.d.m.5 g 6 v.I.j.l.B.a.E.l.A.V.sXfXfXCXaXmXZXfXoXaXw Y.l.6 9 o.K 2.*XE J J ( 7.w.c > z 1 I.8 l.I.j.l.k.d.L.5 > 5 7 E.s.",
"g s.7 n.8 l.g s.j.< M.l.8 a.g a.S.g XX`.OX(./.lXZXZXMXg.F.OXC.sXl.k.].-.H ..pX;.;X;X:.0.V ,.a.f Q.6 < g l.< v.s.d.d g j.1 Q.a.< ",
"I.s.s.f a.x.< j.9 l.j.b.h.E.g l.f f l.z {.z OX{.dXoX.X{.d..X`.`.8 z $.H yXXXCXmX,X,XmX!.[.o.5 l.v.7 K.d.a.z g g h.g j.6 l.h.j.n.",
"v.5 x.E.n.k.I.g l.a.j.5 E.v.g z S.l.B.D.h.n.B.NXfXlXMXY.5 R.j.F.v.l.dXn BXXXMXCXCXZXNX~.MX).`. X9 8 m.D.5 U.D.E.d.T.g a.n.a.< U.",
"g j.6 A.g s.h.S.g s.d a.S.s.g 3 T.a.s.d.l.l.a.iXCXCXfXi > E.h.g l.x.OXx..Xd..XMXCXBXOXl.(.).iXE.z j.v.a.l.d l.z j.h.m.< v.g g l.",
"T.> l.s.s.T.a.k.v.j.a.I.6 T.9 l.S.f n.f m.g v.h._.i +Xb.s.S.< v.7 J.6 XXv. XsXXXV.N.fXx.V.uXT.6 j.v.m.n.6 l.g v.D.l.a.J.a.s.D.d.",
"S.l.j.v.s.S.v.s.v.K.g v.l.m.l.a.l.p.E.a.l.h.Y.fXMXMXNX).v.p.f E.< b.6 m.7 G.iXNXMXMXsX8 L.< S.p.v.g n.v.s.T.l.s.l.S.7 S.S.a.s.v.",
"< S.s.K.s.a.K.a.j.v.j.a.s.< T.s.E.f l.H.g a.S.F.MXNX/.W.d.Q.6 l.n.a.f J.h.7 s.OXfXdXm.6 l.l.s.f v.a.p.a.l.l.S.v.f n.s.l.a.l.s.s.",
"l.l.8 b.l.d.m.a.T.< d.g a.p.l.g S.s.a.S.6 T.a.p.C.C.d.j.d.b.d.f v.7 S.p.g a.J.j.s.l.v.s.g l.v.s.v.6 < S.l.g c.l.d.s.d.I.1 l.7 < ",
"S.1 d.p.L.< j.n.a.l.a.5 K.S.f a.l.L.d.g D.p.B.iXXXlX{.a.7 l.v.S.g D.d.g g 9 S.a.s.1 v.g I.h.k.l.8 8 6 S.7 d.7 S.< D.p.g v.7 < a.",
"E.< v.a.H.d.> g d.s.K.< l.T.a.a.g H.E.< g a.z.).sXfXQ.b.< a.v.Q.f g 6 l.n.j.S.v.S.< d.p.S.a.d.6 l.a.s.L.7 m.f b.6 a.g d.z v.< d.",
"s.V.k.< g v.f j.s.I.9 7 E.j.E.j.a.g S.s.1 f D.g f E.v.E.a.l.g S.l.< < B.g a.D.A.`.N.l.a.j.l.g a.g.f l.l.k.k.1 a.d.g l.a.K.z 6 m.",
"< I.< 6 l.< E.9 g j.z z J.< S.< a.l.f Q.g g a.l.B.XXg V.7 l.l.a.Q.g l f d.m..XoXVXfXS.g j.I.a.g > d.Q.g S.g 6 S.1 v.z.f j.< g E.",
"v.B.s.m.l.l.m.< g 1 K.m.9 m.g.z T.j.v.v.f s.f Q.m..XU.g.x U.l.n.d.f g g Q.a.j._.oXC.z.v.S.a.1 f 7 E.5 v.D.l.s.h.v.S.< > 6 p.R.9 ",
"g s.8 v.g d.7 k.h.f v.l.8 8 g.g.m.9 j.9 a.d.n.g F.sXd.7 d.n.g a.l.p.k.L.1 g g j.< l.v.z g j.s.g Q.< < z l.5 l.h.s.8 l.p.7 E.a.< ",
"R.f j.7 j.D.5 j.9 j.j.g.b.E.7 j.a.d.B.6 g j.v.d.C.(.v.8 h.a.5 k.g f d.v.s.S.6 g {./.j.g 9 s.< l.d.a.E.j.g z 7 j.S.g j.5 j.g.a.E.",
"v.7 k.T.l.j.S.g v.s.j.6 Q.j.a.9 S.f j.v.z m.< j.g Q.j.l.6 K.f D.l.g E.< s.s.S.a.OX(.Q.j.E.d.s.E.9 g v.n.6 I.E.E.j.E.9 d.m.9 7 S.",
"a.s.h.v.9 d.9 U.g a.5 l.b.b.8 9 L.8 f d.m.j.a.a.l.l.Y.8 6 I.g d l.j.S.f S.l.a.E.sX{.x.a.9 m.1 m.g S.l.g v.a.s.z j.9 U.< l.9 n.v.",
"E.< g.d.d.Q.j.h.v.n.j.S.< Q.9 d.S.a.D.a.j.9 v.d.Q.< m.g.g S.7 v.1 n.< l.l.Q.a.j.a.g b.s.v.< I.7 d.v.S.S.< s.g v.E.j.7 I.v.s.v.h."
};
