/* XPM */
static char *result[] = {
/* columns rows colors chars-per-pixel */
"64 64 243 2 ",
"   c #12162D",
".  c #0C1233",
"X  c #0C1935",
"o  c #111639",
"O  c #161C38",
"+  c #151A3D",
"@  c #261E36",
"#  c #16272E",
"$  c #1D362A",
"%  c #1A2639",
"&  c #1F3631",
"*  c #252B2E",
"=  c #22382E",
"-  c #28293B",
";  c #253837",
":  c #27521D",
">  c #2F6E0E",
",  c #34740E",
"<  c #377A0E",
"1  c #2E6318",
"2  c #346F14",
"3  c #376B1B",
"4  c #347412",
"5  c #387614",
"6  c #3A7B14",
"7  c #377418",
"8  c #3D771A",
"9  c #3F781B",
"0  c #2B4928",
"q  c #324A25",
"w  c #2F5227",
"e  c #355629",
"r  c #2D4734",
"t  c #334A37",
"y  c #3A5739",
"u  c #3A6825",
"i  c #3E7421",
"p  c #3E6537",
"a  c #5A6D12",
"s  c #417E17",
"d  c #417D1C",
"f  c #69700E",
"g  c #495434",
"h  c #64552B",
"j  c #437424",
"k  c #447C24",
"l  c #477929",
"z  c #436B36",
"x  c #4B7734",
"c  c #527838",
"v  c #74662C",
"b  c #141C41",
"n  c #1A1E42",
"m  c #1C2245",
"M  c #1E244A",
"N  c #1A2850",
"B  c #272847",
"V  c #22264C",
"C  c #24294E",
"Z  c #2B2C4C",
"A  c #352F4D",
"S  c #2B3849",
"D  c #333A4A",
"F  c #252B52",
"G  c #2A2D54",
"H  c #2B2F58",
"J  c #2C3154",
"K  c #2D315B",
"L  c #2B395A",
"P  c #33345D",
"I  c #373A5B",
"U  c #2B3766",
"Y  c #353662",
"T  c #353A63",
"R  c #3A3B63",
"E  c #353869",
"W  c #3D3D6A",
"Q  c #2B3E71",
"!  c #423A50",
"~  c #413E6B",
"^  c #2E4545",
"/  c #37484C",
"(  c #3E5B49",
")  c #3B4356",
"_  c #3E6241",
"`  c #3A4265",
"'  c #334A77",
"]  c #4F5045",
"[  c #435C4B",
"{  c #454A57",
"}  c #485959",
"|  c #605E5A",
" . c #466545",
".. c #4A6849",
"X. c #547749",
"o. c #4D6359",
"O. c #516D50",
"+. c #5B7559",
"@. c #6E7758",
"#. c #444B65",
"$. c #43416C",
"%. c #474868",
"&. c #504D66",
"*. c #495565",
"=. c #4C5C62",
"-. c #4E566E",
";. c #53586E",
":. c #444372",
">. c #494575",
",. c #4D4B75",
"<. c #4A4679",
"1. c #4E4A7B",
"2. c #524E7A",
"3. c #4F5373",
"4. c #53527C",
"5. c #565878",
"6. c #64577B",
"7. c #526A71",
"8. c #637A69",
"9. c #646B7A",
"0. c #84651A",
"q. c #907C18",
"w. c #895C30",
"e. c #3D8024",
"r. c #4A8917",
"t. c #45811D",
"y. c #4B851F",
"u. c #4F881F",
"i. c #54811D",
"p. c #458122",
"a. c #4C8425",
"s. c #4D8A21",
"d. c #4D832A",
"f. c #4E8B2A",
"g. c #508726",
"h. c #528B21",
"j. c #52852D",
"k. c #558B2C",
"l. c #579123",
"z. c #569627",
"x. c #5B9324",
"c. c #5E9A27",
"v. c #5E992C",
"b. c #558735",
"n. c #5A8E32",
"m. c #5D9332",
"M. c #5F943F",
"N. c #61962F",
"B. c #629B2A",
"V. c #608E37",
"C. c #659837",
"Z. c #659B36",
"A. c #62943A",
"S. c #5EA527",
"D. c #6BA027",
"F. c #66A229",
"G. c #69A229",
"H. c #6DAA2C",
"J. c #66A130",
"K. c #6BA432",
"L. c #6FAB35",
"P. c #6BA23A",
"I. c #73AE31",
"U. c #70A53F",
"Y. c #72AB3A",
"T. c #79B23B",
"R. c #5A8248",
"E. c #5D8050",
"W. c #679843",
"Q. c #648459",
"!. c #6F9A51",
"~. c #77AA46",
"^. c #78B042",
"/. c #7AA659",
"(. c #678464",
"). c #738B77",
"_. c #7EA864",
"`. c #948914",
"'. c #969555",
"]. c #81AC59",
"[. c #84B550",
"{. c #A7A659",
"}. c #8C8F69",
"|. c #8BB26D",
" X c #95B77C",
".X c #99C46C",
"XX c #A9C679",
"oX c #CCCA79",
"OX c #334F8A",
"+X c #3A6A9A",
"@X c #524C81",
"#X c #4F5983",
"$X c #565382",
"%X c #595786",
"&X c #5C5A85",
"*X c #5E5A8A",
"=X c #635B82",
"-X c #615D8C",
";X c #645F92",
":X c #546E8F",
">X c #656589",
",X c #707286",
"<X c #656293",
"1X c #6C6797",
"2X c #716C9C",
"3X c #767798",
"4X c #4375A6",
"5X c #7A74A6",
"6X c #548A97",
"7X c #788B89",
"8X c #508BAF",
"9X c #759ABB",
"0X c #48A8A6",
"qX c #4B98C4",
"wX c #70B4CF",
"eX c #6CC3D8",
"rX c #849086",
"tX c #88AC8C",
"yX c #9DBD87",
"uX c #A8A695",
"iX c #A5C48A",
"pX c #ACC898",
"aX c #AED293",
"sX c #A9DA9C",
"dX c #B5CBA7",
"fX c #BCD0AC",
"gX c #D2E392",
"hX c #EAEE94",
"jX c #C7DAB9",
"kX c #F1F2A3",
"lX c #85B7D3",
"zX c #9FEFD9",
"xX c #B7F4EF",
"cX c #CDD8C7",
"vX c #D6E4CB",
"bX c #DCE8D3",
"nX c #E2EBDB",
"mX c #E7F1DD",
"MX c #E6E8E6",
"NX c #EBF2E5",
"BX c #F0F5EC",
"VX c #F5F7F5",
"CX c #FDFEFD",
/* pixels */
"h.h.h.l.d l.B.y.l.B.y.l.u.y.l.s.l.d B.u.u.u.G.s B.u.d a f f e.C.e z t.H.f f r.d T.L.t.y.Y., B.h.x., x.l.y.L.c.d s.U.t.B.l.h.s l.",
"5 c.s.F.u.u.G.t.u.l.s.t.y., H.h.T.t.u.G.t.u.B.r.s h.d D.`.`.f y g h a `.`.f l.u.c.z.c.< l.l.t.h.l.u.6 u.l.l.z.l.r.l.u.u.u.h.u.s ",
"B.s.p.y.h.d x.t.H., u.5 5 B.t.s.t.l.6 h.5 B.s u.d s.x.t.a q.q.0.0.q.`.`.f a l.l.6 h.u.y.s y.N.t.u.8 > B.u.9 u.u.t.h.s.U., h., , ",
"B.< t.s.H.5 a.h.s u.d , H.B.s d u.Z.=.z B.s h.t.6 I.h.u.d ).).@.v w.v ).8.d G.d u., l.t.Y.l =.k 5 s t.B., y.r.B., G.s.d h.5 > u.",
"I.< x.d B.u., s s.s.F., l.L.u.y d r 8.j 6 t.z.c.d B.Y.c.8 (.7Xv h v } 7XQ.t.Y.K.L., y.t.B.a.} & Z.z u.Y.r.U.9 l.5 t.y.u.9 L.> h.",
"t.Z.y., d l.y.l.s.U.9 , T.t.c 7.e #.+.i.s d m.9 t.Y.y.C.+.( #X;X>X1X1X-.[ R.s.l.k.8 u.t.p.z.+.%.y ;.u t.k.y., u.u.s c.t.L.9 , B.",
", H.4 p.n., H.4 8 t.t.d c.2 t 5.; I +.B.d d t.u.a.h.1 S ` U ' E ` Q <.Q U L r i x.t.L.t.J.l.+.R $ 3.r t.B.t.t.P., L.t., d > t.H.",
"h.p.d c.y.h.h.5 t.4 P.x.d g.. R m :.O.h.s y.t.V.y D n + m U P n m n F K K + m M [ r l h.c.t.[ ,.% R . k m.y.u.p.l.x., , , z.Z.6 ",
"y.s.d h.t.d.4 y.9 l.f.h.6 i X C I + m 1 l d b.% W H W F H >.F m n m F P <.F U R Y Y = 8 i l M X ` M X u h.> h.s.d s u.d u.v.t., ",
"K.5 g.s l.K.k k l d.p.i n.X.; M T P V / 9.x B E H W H Y >.Y Y W ;X4.W Y W :.K P Y P K r ,X/ M J T N ^ z e.b.8 m.m.l k > y.t.9 ^.",
"h.p.d ^.u.a.= B >X5.` ` 7.' F #XlX:XF K 1Xc [ b o V H %XY ~ $.@X;X;X<.~ W W $XN n o J  .2XK K -XlX5.J 7.6X*.5.>X>X% # t.c.p.9 B.",
"h.d s.l.9 s.7 ; C J &X` 0XH ` 9XxXlXR P 5X5.w . . . . M F P $.-X1X-X1XP ` m b . . . # 3.5XR ` wXxX9XT C +XH 1.F F % J.6 a.8 F.h.",
"I., d l.u.T.u.u = / 7X1XU F F ` :X` U %X4.$.+ . M F Q qX8XE m C 4.V V n OX8X4XQ F n o ~ @X-XP L 6XK H F Y 2X3X= r u.6 H.J.9 l.y.",
"t.l.u.B.d u.K.t.x.B.b.5.;X:.` W E ` -X1.+ b m M F U 4XzXxX4XU F ~ V F ' lXxXeXOXG F b b + :.*X$.Y ~ ` >.&X9.!.t.y.Y.t.c.l.l.t.u.",
"t.c.u.S.u.u.G.t.l.r.d q = 4.1X2X<X&X+ . . r ) T N N OXeXwXQ F n ,.4.V H 4XeXqXQ F F P R . . + $X<X<X<X$.# e z.l.t.l.u.u.r.u.y.6 ",
"F.y.y.d l.s u.u.B.4 y.1 & Y A ~ F % . . & b.I F b U N OXOXV n V 4.$.P m H OXQ G G n Z +.$   . n C F H C * d 6 l.s u.y.L.6 s., , ",
"B., s.d.R.j 7 s.9 a.w % W ;X2.B ; r x 2 h.d j O o V G ,.4.F V ~ -X~ Y G C %XH G o o r t.B.9 e = S Y $.A G e d B., h.t.t.u.5 , s.",
"K.d b.{ %.*.u d s.j * ~ -X;X:.% q B.I., , s k.J V n . . . V M F ;X~ V M M . . o M M y t.c.s.6 , W.I - -X1.Z 0 h.5 s.u.y.9 L.4 h.",
"< E.[ ( } %.%.o.Q.o.] A 5.~ - u r.d B.l.h.h.h.u % M M M m n V P ,.R V V n m N M m % s.6 t.B.9 l.8 * P -X1X<.Z = d s Z...C.j , J.",
"6 K.9 h.n.i b.>XI &XR >.A O A.5 m.g.d l.6 k d u.$ . X X . . . o P   . . . . X . . w Y.s.Y.t.4 8 2 k t Y $X6.- V.d P.=.3.-.[ k.B.",
"u.k 6 l.9 k.(.[ ;.I ~ ;X-XS ( _ X...x h.d y.y.m.& . . m ] n @ b >.  . O S ] m . . 0 t.u.h.t., t.K.h.7 ; G - %.z Q.` 3.=. .+.X.4 ",
"h.u.d u.s.)...6.T R 1X%.) o.#.%.%.{ g., d 9 Y.1 X . b }.hX&.{.V ! D ! '.,XgX#.. . # p.8 t.t.9 s.B., d q - <.~ >X` ,Xb.j h.h.t.5 ",
"J.5 k.c X.O.+.` K %XC 3.,Xc.z [ ..M.K.J.d s.d j X b F sXgXpXkXrXoXuXuXkXtXgX7XN + o h.6 Z.h.z O.....Q.+.-X=X:.I -.+.(.7 d d 5 T.",
"s.s.k =.%.} x y 5.Z &.5.} s.u.5 Z.9 d.l.d x., e b N ) iXtXaXrXgXkXhXgXtXXXtX}.H M O P.h.B.g. .3.3.;.o.O.;.$.&.` I 5.E.Q.c.p.9 x.",
"x.5 x #.[ x 8 N.q { 8.=.*.m.6 s.B.s u.6 Y.u.y.: m P P }.| {.@.}.vXsX:.'.&.@.! E F + h.5 y.u.h.O.O.E.h.l 9.%.Z %XY ` +.O.z s U.h.",
"H.8  .j.u.Y.u.t.l.~.d o.#.A.p.9 B.s U.s l.6 B.d  .P H H K D Z Y 0X:XF D Z K G W S e l.t.l.> H.t.d h.l.X.-.Q.;.B 5.e o.3.;.z h.u.",
"5 B.s I.t.t.Y.t.y.x.h...%.( L.8 B.d u.I.u.t.G.t.d./ ~ W W K F Y ` ` H F Y W ~ R c J.u.s B.d x.h.l., h.o.-.h._.{ = H.d o.;.o.t.u.",
"t.x.t.S.u.u.B.t.B.s d s.p } B.s.H.t.u.F., K.l.d y.k.j } 1.@X1.W 3X,.E @X@X&.X.g.l.h.c.s h.l.t.B.l.d 7 ;.;.a.z.x.i.l.i.l.t.c a., ",
"F.d u.6 G.< y.x.l.s s., d X.6 s.t.G.s t.K.l.9 u.3 y y t ` >.-X*X1X5X$X&X} z l.s.d d h.y.h.d B.h.d s z ;.} a.6 l.6 u.s.c.t.t., , ",
"H., t.h.F.u., p.d i.h.4 l.B.t.9 u.H.Y.> u.8 u.d.^ P F Y K F t F F Z C u h.d.K.d h.4 l.y.v.9 h.t.6 d X.+.> s.y.B.6 y.d y.u.6 , u.",
"J.s.l.5 l.r.5 t.s.l.d.6 c.B.H.u.s h.G.5 , d A.D H F F F C F F >.>.~ :._ S S / D  .6 l.t.x.h.9 , C.y.l T.r.B.4 h.< y.y.t.t.n.t.u.",
"< Y.5 , y.y.l.J.d B.y.5 T., m.9 s u.x.B.l.p.) Y E H E F F + M @X@X@X<.F F Y H H P ^ t.< d K.d u.8 d B.r.Y.6 , h.d 6 L.t.c.5 5 L.",
"y.U.y.N.l.y.B., 9 9 y.J.l.t.Z.t.U.g.h.h.t.u 5.P >XP I 2.+ . o P @X<.n n F F H F F F [ h.I.d > 8 , B.s.h.P.u.h.m.s.I., , 5 < K.h.",
"y.d 5 x.9 h.t.6 y.> v.u.6 s.6 9 B.d s.s.t.i.=.3X3X6.=XA   .   + Z V   # n G P P G G P y t.p.s d T.s , s.g.6 l.d s.d 8 9 , Y.t., ",
"F.s.s.d t.p., y.9 c.y.x.9 L.t.u.d t.s.4 t.6 [ -X<X-X~ % # # : o m n # r . @ Y B 3.3.J D y.p.8 s.B., h.s.s.5 s.d k s u.9 h.l.s.s.",
"v., j.c.L.h.U.s.t.9 y.4 Y.l.d k x.F.L.K.t.l.2 B H K - j., l.h.z * = d.= . @ 6.! 1X+.7Xc K.h.5 x.9 s U.P., U.l.J.d P.y.4 d d , Y.",
"9 s.8 J.k h.h.h.t.t.y.8 B.d t.4 Y.t.r.h.t.l.1 B ~ P B d 2 U.r.g.l.9 F.$   # R @X2X<X2.j u.l.5 G.6 9 h.u.u.9 h.k.u.l.l.< x.t.8 x.",
"J.4 h.h.h.h.6 B.s.t.6 Y.8 I.s h.B.t.l.5 Y.s.z J 1X~ ~ X.h.B., u.6 H.r.h.y.m.S ,.-X%X;.3 u.t.B.d a.c.h.l.t.u.y.l.h.t.u.x.d d U.s.",
"B.u.y.l.u.J.l.t.l.I.9 x.r.B.u.s x.s Y.d l.d 8.Z %X&XI %.X.l., I., x.5 h.d G.y B P P 0 9 B., G.t.s.y.x.l.y.J.h.h.x.l.t.B.G.t.u.h.",
", B.6 U.t.d I.6 t.x.u.t.u.< T.s Z.s u.T.d s y m o X M - u B.s x.B.y.r.B.s d y V >.<.r 9 l.u.y.s.l.6 s.9 l.y.Y.y.d B.d u.h.u.t.u.",
"r.l.d z.l.r.c.t.K.5 y.y.d 6 x.d G.u.s.B., Y.; C H V m n t N.d t.l.< K.u.8 b.2X$X$X@XJ x d l.s.l.l.8 < G.l.t.z.l.s.s.u.x.9 u.t., ",
"B.6 u.6 H.< u.c.s.y.y., l.B.6 y.u.H.t.d I.l J 4.5X;XY V G 9.W.h.9 Y.h.9 t.( M G J G A j c.d c.u.8 8 , x.t.u., c., x.u.l.u.t., 5 ",
"Y., u.u.G.u.> 9 s.a.J., l.L.6 t.t.B.Y.> z 5.>.R m H ~ Y R t b.[.8 y.9 y.l.u m n n m = 8 v.9 s.6 t.t.s.L.> h.t.x.5 d d u.p.y.< u.",
"B.l.h.< r.t.s t.s.B.k 6 B.c.Y.h.r.t.D.j.,.J P + @XY V %XP 1.,.D.y., , K.j C b G >.>.G u l.h.9 6 k.y.y.L.r.l., u.d t.u.y.s.a.s l.",
", L.6 , u.6 H.h.d h.d d K.> m.6 d s.t.V.) ; fX,X2X>XcXpX8 I R (.T.y.y.8.$.H G <.2X1X~ G x P.t.u.4 y.Y.r.L.9 4 l.6 y.c.t.h.4 d Y.",
"u.P.u.B.g.u.c.2 d 5 l.K.u.h.m.t.Y.h.N.B.fXvXjXVXMXBXCXpXdXdXj Z.u.5 9 ..C 4.1XP F F P 2X9.z > i , K.9 h.L.u.u.j.y.H., > 5 6 U.y.",
"d y.6 x.8 h.d s.s., v.g.8 t.d t.B.d pX!.iXA.W.bXCXCXnXl W.iXW.pXu.s.Q.>.R ) ,XR *X%XZ 3.n -Xt.t.T.6 , t.h.4 h.s.u.9 t.y., T.y., ",
"K.y.y.d t.j., s.8 l.s.z.s.Y.d u.s s h.b.|.d aX_.|.!.|.|.r. X/.A.9 k X.D jX|.VXMX9.9.MX!.uX!.4 s.x.6 F.y.t.k d d g.6 s.5 h.s.y.c.",
"l.4 j.Y.x.g.K.d u.t.u., Y.l.d k B.h.m.B.d B.n.bX|.XXcXZ.4 B.t.Z.l.t..Xj.BXiXmXCXCXCXBX/.mX/.n.T.8 8 v.Z., K.J.U.u.Y.d t.x.p., L.",
"t.s.5 v.d y.d.B.d y.9 t.B.y.9 4 Y.d y.u.h.h.k |.nXNXyX9 > Y.u.t.h.a.].n.!.h.].fXMXbX].N.m./. X~.9 s.l.t.h.8 h.k s.u.c., l.d d h.",
"I.> h.s.u.I.t.g.l.u.t.K.5 I.9 h.B.s B.s B.d l.d T.4 .Xg.u.B.< l.6 F.4  XC.[.pX].s.a.dXW.m.pXH.5 u.l.c.x.5 h.9 l.J.h.t.F.t.y.B.s.",
"B.h.s.h.y.B.l.y.l.G.d l.u.c.h.t.l.s L.r.u.y.~.nXCXCXmXP.l.i.5 Y., z.8 c.8 F.yXBXCXCXpXd J.7 G.t.l.9 c.l.s.H.z.r.h.B.6 B.B.t.p.x.",
"> B.y.K.y.t.G.t.u.x.s.t.u., H.y.Y.s u.G.t.t.B./.NXNX!.Y.h.Y.5 h.c.s s G.y.6 y.iXvXjXB.6 l.u.y.s l.t.t.t.h.h.c.l.t.x.y.u.t.h.y.y.",
"u.l.9 l.h.u.B.s I., s.9 t.r.h.d B.u.t.B., Y.s y.p.h.s.s.u.x.u.s l.< B.u.9 t.Y././.|.fXu.t.h.l.y.l.5 , B.h.d l.l.u.y.u.Z.< h.s , ",
"B.< u.r.H., s.x.t.u.d , G.B.t.t.u.H.u.d G.y.V.dXyXbX].t.6 h.l.B.p.G.y.d d 9 [.vXCXVX].d P.y.g.h.8 9 6 B.6 u.t.c., G.i.d l.s > t.",
"Y.< l.t.F.u.> s s.y.H., h.I.t.t.y.B.Y., s t.h.Y.dXaXL.l.< t.l.T.s d 5 u.x.s.B.W.nX_.u.r.c.t.y.5 u.t.y.H.6 c.6 l.5 t.d s.d l.< u.",
"a.N.j., d l.d s.y.K.8 9 L.s.Y.s.t.d B.y.< s Z.d d Y.x.Y.t.h.d B.u., < n.d t.Z.v.W.d.h.p.u.l.d t.s.t.h.u.g.g., y.s.d l.p.F.k 7 x.",
", H., 5 h., Y.8 d s.d k F.4 B., d s.s T.d d d h.h.~.9 m.6 h.u.t.T.d k s u.c. XiXVXbXB.d u.K.t.d > u.T.d B.t.5 B.< l.h.s s.4 t.Y.",
"h.n.y.x.u.h.c., d < H.B.d c.d.p.I.s.l.l.s y.s T.m./.K.d.k L.h.x.h.s t.d T.t.g.~._.n.k.l.F.t., s 5 Y.5 l.Z.u.y.p.h.B., , 5 r.L.8 ",
"d y.s l.d u.6 s.y.d h.h.8 9 p.p.B.9 s.d t.h.x.d A.pXs.s h.l.d t.u.y.s.K., t.d h., u.l.k 9 s.y.t.T., , k h.4 l.y.y.9 u.y.5 U.t., ",
"U.s h.5 s.P., s.9 s.h.a.z.Y.6 s.6 s.m.5 d s.l.s.n.W.l.4 y.d 5 g.9 9 u.l.y.B.5 d |._.a.9 9 y., u.u.t.Y.s.d k 6 u.B.d s.4 u.a.p.Y.",
"h.5 g.Y.h.a.B.d l.y.s.4 T.h.p.8 F.9 g.l.k c., s.d T.s.h.4 J.d Z.h.t.Y., y.y.B.t.~.W.T.s.Y.u.y.Y.8 d x.x.8 J.Y.Y.s.Y.d s.c.t.6 c.",
"t.y.u.l.9 y.d L.9 y.4 h.z.z.8 d H.9 t.y.c.s.t.t.h.h.L.8 , H.t.9 h.u.B.d B.u.t.Y.yX_.k.t.9 c.< c.9 B.h.t.l.t.y.k s.d L., h.8 x.l.",
"I., a.u.u.T.s.y.z.l.y.B., T.d y.B.t.B.t.h.9 l.u.T.4 c.p.d B.< l.< c., h.h.T.r.u.p.t.l.s.l., K.6 s.l.B.c., y.d l.U.y.6 K.h.s.l.y."
};
