/* XPM */
static char *result[] = {
/* columns rows colors chars-per-pixel */
"64 64 245 2 ",
"   c #111E2F",
".  c #0C1233",
"X  c #0D1835",
"o  c #111A34",
"O  c #111739",
"+  c #141A3C",
"@  c #191D3D",
"#  c #2A1F34",
"$  c #192D2D",
"%  c #1C342A",
"&  c #1B2639",
"*  c #1E3134",
"=  c #243D2B",
"-  c #222938",
";  c #253937",
":  c #27531D",
">  c #2F6E0E",
",  c #34740E",
"<  c #377A0E",
"1  c #2E6715",
"2  c #366D19",
"3  c #347412",
"4  c #387614",
"5  c #3A7B14",
"6  c #3D771B",
"7  c #3F781B",
"8  c #284828",
"9  c #2E5526",
"0  c #33562A",
"q  c #2D4737",
"w  c #34493A",
"e  c #3B5A38",
"r  c #3A6727",
"t  c #3D7224",
"y  c #3D6731",
"u  c #4A4E08",
"i  c #4E650C",
"p  c #417E17",
"a  c #417D1C",
"s  c #716B13",
"d  c #736A18",
"f  c #495638",
"g  c #505931",
"h  c #6C592E",
"j  c #406C27",
"k  c #457D24",
"l  c #457628",
"z  c #4B7C2B",
"x  c #426935",
"c  c #4B7636",
"v  c #587435",
"b  c #161C40",
"n  c #1A1E42",
"m  c #1C2145",
"M  c #18244B",
"N  c #1E2449",
"B  c #1D2851",
"V  c #252A45",
"C  c #22264C",
"Z  c #24294E",
"A  c #332E47",
"S  c #293545",
"D  c #34364E",
"F  c #252B53",
"G  c #272C57",
"H  c #2B2D55",
"J  c #2B2F58",
"K  c #2C3355",
"L  c #24325A",
"P  c #2D325B",
"I  c #333253",
"U  c #32345C",
"Y  c #383A59",
"T  c #2A3665",
"R  c #353662",
"E  c #363963",
"W  c #363967",
"Q  c #3A3B65",
"!  c #3E3D6A",
"~  c #423D5A",
"^  c #423E6C",
"/  c #354847",
"(  c #375342",
")  c #384454",
"_  c #3E4168",
"`  c #2C467B",
"'  c #3C4377",
"]  c #3F6B7E",
"[  c #425B48",
"{  c #51524F",
"}  c #424A5B",
"|  c #445657",
" . c #496748",
".. c #49634D",
"X. c #516D4D",
"o. c #4E7A40",
"O. c #547748",
"+. c #4D6355",
"@. c #536859",
"#. c #597556",
"$. c #667A5D",
"%. c #707051",
"&. c #42436C",
"*. c #444A69",
"=. c #4A4B68",
"-. c #504D6D",
";. c #4C5668",
":. c #565B68",
">. c #454372",
",. c #494674",
"<. c #4B4B74",
"1. c #484778",
"2. c #4D4B7B",
"3. c #514D7C",
"4. c #4D5472",
"5. c #4A5276",
"6. c #54537D",
"7. c #565879",
"8. c #605E68",
"9. c #586A66",
"0. c #5C7162",
"q. c #5D6873",
"w. c #63786B",
"e. c #697579",
"r. c #85780F",
"t. c #835B20",
"y. c #4A8917",
"u. c #45811D",
"i. c #4B851F",
"p. c #4F881F",
"a. c #59851C",
"s. c #458222",
"d. c #4C8425",
"f. c #4D8A21",
"g. c #4E832A",
"h. c #508727",
"j. c #528B21",
"k. c #548729",
"l. c #558B2C",
"z. c #4E9521",
"x. c #579123",
"c. c #5B9424",
"v. c #5E9A27",
"b. c #599528",
"n. c #5E992C",
"m. c #568636",
"M. c #5B8E32",
"N. c #5E9235",
"B. c #659926",
"V. c #629B2A",
"C. c #659B37",
"Z. c #66973A",
"A. c #5EA527",
"S. c #66A229",
"D. c #68A228",
"F. c #6DAA2C",
"G. c #6BA433",
"H. c #69A236",
"J. c #6FAB35",
"K. c #73AE31",
"L. c #73A63E",
"P. c #72AB3A",
"I. c #71B132",
"U. c #79B23B",
"Y. c #558E5F",
"T. c #628B47",
"R. c #679644",
"E. c #6C9654",
"W. c #73A447",
"Q. c #75A357",
"!. c #688467",
"~. c #72916C",
"^. c #748978",
"/. c #7AA362",
"(. c #95890F",
"). c #AC8F0F",
"_. c #978627",
"`. c #85B258",
"'. c #A3A559",
"]. c #91927B",
"[. c #8EAE6F",
"{. c #89B167",
"}. c #B2B46B",
"|. c #A0C57A",
" X c #C1D05F",
".X c #C5CD6D",
"XX c #385087",
"oX c #345C94",
"OX c #3E7282",
"+X c #3C6FAF",
"@X c #4C5386",
"#X c #565283",
"$X c #595683",
"%X c #5B5A84",
"&X c #585887",
"*X c #5D598A",
"=X c #615C8D",
"-X c #645E90",
";X c #5E6183",
":X c #447889",
">X c #656587",
",X c #777686",
"<X c #71728D",
"1X c #6A6496",
"2X c #6B6696",
"3X c #6E699B",
"4X c #716B9D",
"5X c #4B78AA",
"6X c #7873A4",
"7X c #827882",
"8X c #41858E",
"9X c #788691",
"0X c #71B18D",
"qX c #7D9CB3",
"wX c #6AA1B2",
"eX c #47CFB9",
"rX c #5AAFCE",
"tX c #72A6C9",
"yX c #7AE3E1",
"uX c #8C8B96",
"iX c #96B683",
"pX c #ABB28B",
"aX c #8E8DA1",
"sX c #ACAEB6",
"dX c #ABCB8D",
"fX c #ACC898",
"gX c #B4CB9A",
"hX c #AFEC91",
"jX c #BAD1AA",
"kX c #AEEAB3",
"lX c #CBCD8A",
"zX c #E2EE9C",
"xX c #DBDBAB",
"cX c #C5D9B6",
"vX c #89AFCE",
"bX c #BCBCC3",
"nX c #89C6D8",
"mX c #A8CBDC",
"MX c #9BD9E3",
"NX c #8BEBE6",
"BX c #DEEDC7",
"VX c #DBE8D0",
"CX c #EAEFE8",
"ZX c #EEF3E9",
"AX c #F8FAF7",
/* pixels */
"j.j.p.x.a x.V.i.x.V.i.x.i.i.x.p.x.a V.p.p.p.S.p V.j.a G.B.a.a G., c.u.F.< v.p.u.U.I.p i.P., B.p.c.< x.x.i.P.v.a p.J.p V.x.p.u.x.",
"4 v.p.G.p.p.B.u.p.x.p.u.i., F.p.U.u.p.D.p p.V.i.p p.p s a.K.5 x.z p f.A.a.i x.p.v.x.V.< x.x.i.p.x.p.5 p.x.x.x.c.y.c.h.f.p.p.p.p ",
"v.f.u.i.x.a x.s.G., p.5 5 B.i.f.u.x.5 c.p V.p f.6 p.a.u r.p a.0 f t b.s r.1 x.x.6 p.p.p.p i.C.u.p.6 , B.p.7 p.p.u.f.f.P., p., , ",
"S.< u.p.F.4 i.c.u.p.p , F.V.5 u.j.D.c.4 B.a p.u.5 K.j.a.(.(.v { g d s (.r.u.G.6 p., x.u.P.u.p.p.5 5 u.V., p.u.V.3 S.f.a a.4 , p.",
"K.< v.a B.p., 5 f.i.G., j.J.f.u.a B.P., 5 u.x.V.u.n.P.k.u _.).).).).(.d u u.P.G.P., i.u.C.f.7 3 G.s.p.P.y.J.6 j.4 u.i.p.6 J.3 f.",
"5 C.i., a j.i.x.f.P.6 , U.u.P.i.u.t ..p.p u.N.a u.U.f.J.!.^.%.t.t.h ~.^.v i.x.x.l.6 p.a a c t j.t u.x.u.M.i., f.f.5 v.u.J.7 3 V.",
"< G.3 i.M., G.3 6 u.s.7 n.3 L.1 z / e.V.6 6 s.p.f.x.5 H.g.9Xf s u h  .0.j.c.f.f.v.a P.p D.!./ 1 > d.G.s.v.u.u.J., K.u.3 7 3 u.F.",
"j.s.a n.i.j.x., u., J.x.7 n.y #.l 4.l.x.u.p.u.P.f.a P.u.l E.<Xe.7Xe.<Xz Q.a f.P.i.u.g.j.v.z &.0 #.T.3 j.M.i.j.k x.c., , , b.V.5 ",
"i.f.6 p.a g.4 i.6 x.f.f.6 k & @.V 7.g.5 u.7 G.a p.u.r / ' W ' ! ,.! ' W 5.q 2 j., j.j.7 7 g.%XS $.V 2 a j.> j.f.a a j.a f.V.s., ",
"J.5 h.y.c.J.i.p.7 i.f.a n.y + ) C 7.R.u.f.u.i.l l ; & n T ! T G J U W W G b ; 8 z 2 f.u.d.g.%XK ) n x x.5 l.< x.n.d.f.> i.a a P.",
"j.u.u.W.p.h.n.a x.i.f.6 K.= + <.+ Y q j.6 v.: ; ! J J n R R n + O n B W G m E P Q ; Z.f.H.e R b 6.+ 8 b.u.j.P.J.j.J.i.u.b.u.a B.",
"j.7 p.c.6 i.a K.7 i., v.f.x o K n n S ..R.l N E P ! J P ,.T R J #XR R ! >.J R W U P q c ..w M B K o r k j.j.i.k i.6 J.3 f.6 G.j.",
"I., a x.p.Z.= +.@.0.9.e Y.G G @XqXL F ,.^.0 E m H J &.3.P ! ! *X1X1.^ R E #XR J m Z ) q.,.J T 9X@XH K 0X; w.@.9.0.= : F.G.7 x.f.",
"u.x.p.V.a k ; I R W _ :XOXT 3.MXMX@XG 2.>Xx ; . X O C Z <._ *X-X3X#X*X2.Q G n o . o q >X1.J @XnXmX@XL ] OX! ! R K q 6 V.j.x.a i.",
"u.v.p.A.f.p.c.; m ;X4X' L F W wXvX*.K 3X1X=.. . n M ` oXG m U <.&X^ C n L oXL m b . U 2X1XQ 7.qXwXW B L @X4X6.& ; j.p.p.y.i.f.5 ",
"S.i.i.7 x.5 p.k g.t 9X-X_ J P P Z U *X&.F Z . N F T rXyXtXT C H N C Z oXnXyX+XL F b b H *.=XP F K L K Y 1X9Xl k 6 p.f.F.6 f., , ",
"S., f.f.G.u.4 f.a d.r H &.4X3X4X4X3.I . . ; Z H G ` rXNXvXXXC U 6.R G 5XMXyX+XT F F m + . F 6.3X3X4X4X-.A l u.v., j.p u.p.3 3 p.",
"F.u.A.t m.u.4 u.f.f.c.$ H =.A ^ Z . . . % w.U K F G XX+X` B @ &.3.J C F oX+XT G C U <.} . . o C P 3.Y F = Z.4 x.5 j.i.i.a J.4 j.",
", R. .( *...z 0.O.@.| U #X3X^ - o   0 r f.s.; . n Q R *XY H F ,.6.^ H H <.3.G U . X r 2 9 0   o I I ~ #XU = 1 k a p J.u.S.7 , S.",
"6 X.[  .;.*.%X-.-.,.^ =X3X^ C = v k i.c.5 k w C b O O + b N m ,.6.Q C n b + . + m Z Z.i.P.u.1 2 8 m ,.3X=XY # M.6 I.y y k 3 j.V.",
"i.k 5 x.j 0.7.-.5.I $X2X#XF 8 5 B.i.p.j.p f.j S N n M n C C C ,.=XC C F N n N N C q s.p.j.u.4 u.m.0 A 2.1XI w p d.o.;.;.[ R.x.3 ",
"j.p.u.p.l.!.9.&.K %XY 3._ ( [  . ...g., a 7 L.2 . . b . . O n I I O @ . . + b .   p.i.6 u.u.6 p.B., 9 V I Y | O.:.;.4...X.X.s.5 ",
"G.3 l.j.G.V.+.I 6.E D ;X#.*.;._ *.X.H.G.a i.a l . . . . # . . I H . . . - . . . & 5 x.5 V.j.3 a.a a L.- Y ^ 3.;.7.#.o.3 p p 4 W.",
"f.f.l #.[ +.[ =.A *.q.| R.g. .[ #.a d.j.a v., 8 . . D '.].~ { C V # { ~ pX%.b .   9 P.p.C.c ..#.[ +.+.4.2X=XI 6.+.^.T.a v.u.u.v.",
"x.4 z =.*.| x v x w.x *.c C.5 p.B.5 p.5 J.f.k $ . O 5.hXpX.XuX%.}.=.lX].gX0XF . . 8 x.4 i.c ;.4.4.4.@.;.2.=.<.U 3.+.~.k.a a L.p.",
"F.6 ( ;. .P.f.a c.K.l *.( F.u.7 v.u.P.p x.p c.* N M iXhXgXkXlXxXzXxXlXkXfXzX:.M @ 8 x.u.j., R. . .g.b.#.;XA &.,.I :...#.R.7 p.i.",
"5 M. .C.a u.P.s.i.x.g.*.;., K.6 V.a p.J.f.u.S.% C ^ :..X8. X8.zXZX}.8.}.:.'.U R M e f.p C.u.x.h.B., j.;.0.>XA <.=.X.:.3.X.x.u.y.",
"u.z.i.S.p.p.B.u.v.u.t | =.r S.f.F.y.i.D.3 G.j.8 H F H Q D %.F 8XeX} A { G U H P - j v.p p.x.y.V.x.a y 4.X.M.w.e r x.c @.;.h.f., ",
"S.a p.5 D.< i.c.x.u.f.2 | O.5 f.a D.p u.D.x.6 p.w P ! >.G F G 2.#XQ Z F U ! ^ K t a j.i.j.a V.p.a p  .-. .s.s.x.5 p.p.M.z  .3 , ",
"G., u.p.S.p., a u.p.j.3 l.m.u.6 p.F.L.> f.7 i.z ) Q U ! 2.>.R ^ 2.J R ,.#XQ X.x x.3 j.i.n.7 j.u.< k 9.4.r f.u.n.4 i.a f.f.5 , p.",
"G.p.x.5 x.y.5 u.i.x.d.5 v.V.F.f.p p.D.p 3 a Z.) T C J N 1.#X#X*X4X&X#X@X1.r T.m.V.5 x.p v.j.6 , C.z ;.W.y.S.3 a.< i.i.u.u.M.u.p.",
"< P.5 , i.i.x.G.a V.i.4 U., M.a p p.c.V.j.g.7._ &XJ #XG F P ^ 3.3.,.,.K G U F P / 6 i.< p G.a p.6 l m.y.P.5 , p.p p P.p n.5 3 K.",
"i.P.d.n.j.i.V., 7 7 f.D.x.u.C.u.P.h.f.x.< / #X#X6X2.#XH O . J ^ Q ^ C F Z F F C P / N.j.K.a , 6 , V.f.i.G.j.j.M.i.I., , 4 < G.j.",
"i.a 4 c.a p.u.5 d.> n.i.5 f.5 5 V.a i.f.u.f 3.-X1X-XI # . . O R R C . V F J Q G $XU ( f.u.u.6 u.U.p , p.f.7 j.k p.u.7 6 , P.u., ",
"V.f.f.a u.z , i.6 v.i.v.a J.u.f.a p f.3 u.a e Q R C m o .   % & C O = . + ,.#X,.6X&.3.0 f.u.6 j.v., x.f.f.4 i.a k a f.6 p.x.f.f.",
"n., l.c.J.j.P.d.u.6 s.3 P.x.a k c.G.G.J.u.j.= E R n ; 0 : j 0 & @ * j . . I &X*X6X#X} 2 J.h.4 j.6 7 L.J., P.x.C.a G.i.4 i.a , P.",
"a j.7 C.s.j.x.j.u.u.i.6 V.u.u.3 P.u.i.p.i.h.S ,.=XQ q.v > P.f.g.j.7 j.. . @ I 3.6.3. .a.j.x.5 B.5 6 f.f.p.6 x.l.f.x.x.5 x.a a c.",
"V.3 p.x.i.f.5 v.j.a 5 P.6 K.a p.B.u.x.5 P.m.*.&.-X-XD <Xj.B., i.5 K.k l j z V I m I h.4 f.u.B.a d.n.x.x.u.f.i.x.j.u.f.c.a a L.i.",
"B.p.i.x.p.G.x.u.a.K.a c.y.B.y.u.a.p P.u.x.6 ; b O O N 8 a x., J.< x.< a.a C.D R 3.Y z 7 V., D.u.p.i.c.x.f.G.p.j.b.j.p S.F.u.i.a.",
", n.5 P.u.u.F.u.u.c.i.u.p.< U.7 J.p p.P.k 2 m n C M n ; i.V.p x.V.i.u.V.p w.3X>.=XE [ 6 x.i.i.f.x.5 i.p j.i.P.i.a V.p p.p.p.u.p.",
"y.x.a z.c.p.n.u.G.4 i.i.a 5 c.a D.p.f.S.3 X.U *X1X&.Z F } ~.u.u.x.< F.j.j Y N ! &.H ..f.a j.p.x.x.6 , D.x.u.z.j.f.f.i.v.6 p.u., ",
"V.5 p.5 F.< y.V.f.u.i., x.V.5 i.i.F.u.7 $._ 2.K H &.^ J I o.B.c.a L.p.6 k * N b + m r y.n.a v.p.7 6 , x.p j.< n.3 c.p.x.p.a , 5 ",
"I.4 f.p.D.p.> 6 f.d.G., x.J.p u.u.D.P. .Q $XH U ! b =X-XH ,.O.W.p d.6 g.e n n U ^ U q a n.a p.6 u.i.p.J., j.p c.4 a a p.s.i., p.",
"V.j.j., i.y.p u.f.V.k 5 v.v.P.p.u.i.S.0 % O.sX>X#XuXCX`.8 V 9.G.a > a q.R C W #X=X3.U / x.j.a 3 l.i.i.J.d.c.3 j.p u.f.i.f.d.p c.",
", J.5 , p.5 G.j.7 x.a a J.> n.5 u.p.u.P.p.R.AXbXsXAXZXT.a 9 t u.`.y.z D J $X@XG F J 2.>Xe W.u.f., i.J.y.J.a > j.3 p.V.p j.3 a P.",
"p.H.p.n.h.p.v.4 7 5 x.G.f.f.M.u.P.j.x.j.4 l.jXCXAXAXjXN.a P.j.V.a.c q.U / 9XaX^ 2X&.,XD Y  .> k < G.7 j.J.f.j.k.p.F.3 > 4 5 P.i.",
"u.i.5 c.6 j.7 i.f., n.f.6 s.a u.B.7 f.f.f.N.gXjXjXjXgXs.i.B.a f.p.T.) 9.E.gXAX7X>XaXcXx ^.t u.7 U.3 , a j., j.f.p.6 s.i., U.i., ",
"G.i.i.a u.l., f.7 x.f.x.d.P.p i.p u.x.> u.u.|.CXAXAX{.6 p.6 , d.6 Q.Q.jXcXdXZXAXAXAXiX[.jXl./.f.x.5 G.f.u.k a a d.p f.4 j.f.i.c.",
"x.3 l.L.c.d.G.a j.u.i., P.x.a k V.f.M.V.a c.5 {.iXdXp.c.3 V.i.C.x.Q.`./.Z.{.cXAXZXVXdXk.|.W.fXJ.7 7 n.V.3 G.D.P.f.P.a u.c.u., J.",
"a f.3 n.a p.d.V.a i.a u.B.u.a 3 K.u.f.f.l.j.5 a i.B.j.7 > P.i.u.p.u.P./.g.C.BXfXpXcXW.f./.{., B.a f.x.s.j.7 j.k g.f.n., x.a 7 x.",
"K.> j.p.a.P.y.h.x.f.u.G.4 P.a p.B.u.B.u.n.a x.u.U.3 F.i.y.V., x.5 S.5 p.p.U./.AXAXfXB.a p.5 F.< i.x.v.v.3 j.a x.C.p.u.S.a i.S.f.",
"V.p.f.x.a V.x.i.x.D.a x.p.V.j.p x.5 K.u.p.i.B.a D.f.j.V.x.p.7 P.< c.6 v.6 B.f.f.U.b.y.6 J., D.u.x.a v.j.f.K.j.f.a.v.5 S.V.s.f.j.",
", V.i.F.d.p D.a f.x.p.u.p., F.i.P.u.p.D.p u.B.i.5 f.u.K.p.K.3 j.c.u.5 D.u.5 i.f.b.x.v.5 a.p.i.u.x.a u.u.p.j.v.x.u.c.i.i.u.a.i.i.",
"p.j.p z.p.p.n.p K.< p.7 u.y.a.a V.p.y.c.4 P.p i.s.j.p.p.p.x.p.u.x.5 V.p.6 y.S.f.s.f.x.f.a h.x.i.c.4 , B.p.a z.x.p.i.p.G.< p.p , ",
"V.< p.u.F., h.v.u.p.u., G.V.u.y.p.G.p.a D.f.d.i.5 J.j.u.5 j.x.v.u.D.p.a u.6 V.u.p.< x.a J.d.d.j.a a 4 B.5 f.p v., S.p.u.x.6 > y.",
"P.< x.i.D.p., p f.i.G., j.I.a p i.B.P., a a j.G.p x.G.x., u.c.U.a a 4 p.c.i.W.n.L.a p.u.V.u.i.4 p.a p.F.5 B.p x.3 u.6 f.k x.< f.",
"p.N.d., a x.p p.i.G.a 4 L.f.P.f.u.a B.f.< p C.a p P.x.U.u.j.a B.p., < M.a l.gXfXZX/.x.u.p.x.a y.g.5 a.p.h.h., i.f.a x.u.D.k 3 v.",
", G., 5 j., P.6 7 f.a k S., V., u.p.p U.a a a p.f.x.7 M.5 j.p.a U.a k a p.n.f.{.iXa V.a p.G.u.a , z.U.a B.u.4 V.< x.h.p f.3 i.P.",
"x.M.i.v.p.a.n., a < F.V.a n.g.s.K.f.x.x.p i.p U.p.p.G.g.k K.p.v.p.p i.a U.u.f.P.h.a l.x.B.u.< a 5 P.3 x.C.p.i.z x.V., > 3 y.G.7 ",
"7 i.6 x.u.f.5 f.f.a j.f.6 7 s.s.n.7 f.a a j.v.a f.u.p.a f.c.a u.f.i.i.D.< u.a M.iXf.x.u.6 f.i.u.U., , s.p.3 x.i.f.6 f.i.6 P.a , ",
"J.p f.5 f.H., d.6 z.i.g.x.P.5 f.7 f.M.5 u.i.x.f.f.s.x.5 f.s.3 h.a a f.x.i.V.5 s.[.u.f.7 7 i., p.f.u.P.f.a k 5 p.V.a f.3 f.d.u.P.",
"x.4 h.P.j.d.V.a x.i.p.3 U.j.s.6 S.p f.x.k n., f.7 U.f.j.3 D.a C.p.a P., i.i.V.N.VXi.U.f.P.p.i.P.7 7 c.c.4 G.P.P.f.P.a f.v.a 5 V.",
"a f.i.x.7 f.7 J.6 i.5 j.b.x.6 p G.6 p i.v.f.u.u.p.j.P.6 , G.a 7 p.j.B.u.V.j.u.P.s.3 l.u.7 v.< n.7 S.j.p x.a i.k f.a J.3 j.7 c.x.",
"P.3 f.p.f.U.f.f.x.x.f.v.3 U.a i.V.u.S.u.j.7 x.p.U.3 v.s.a B.5 x.< v., p.p.U.u.f.u.7 x.f.x., G.5 f.x.V.n., i.a x.L.i.5 G.j.f.j.f."
};
