/* XPM */
static char *result[] = {
/* columns rows colors chars-per-pixel */
"64 64 238 2 ",
"   c #0C1233",
".  c #0E1831",
"X  c #0D1639",
"o  c #121836",
"O  c #111639",
"+  c #141A3C",
"@  c #2B1E2F",
"#  c #16272E",
"$  c #1D332C",
"%  c #1B2634",
"&  c #1A233C",
"*  c #233B2D",
"=  c #29293B",
"-  c #233736",
";  c #343E3C",
":  c #1E431F",
">  c #244C1F",
",  c #2D5B1B",
"<  c #2F6E0E",
"1  c #34740E",
"2  c #377A0E",
"3  c #2D621A",
"4  c #336E13",
"5  c #356C1B",
"6  c #386A1D",
"7  c #347412",
"8  c #387614",
"9  c #3A7B14",
"0  c #3D771B",
"q  c #3F781B",
"w  c #284A28",
"e  c #2D5426",
"r  c #34562B",
"t  c #2A4432",
"y  c #344D3B",
"u  c #3B5937",
"i  c #3B6627",
"p  c #3E7325",
"a  c #3E6238",
"s  c #5E4B05",
"d  c #6C570B",
"f  c #52600F",
"g  c #417E17",
"h  c #45761B",
"j  c #417D1C",
"k  c #6E6C13",
"l  c #50582D",
"z  c #426B2A",
"x  c #427324",
"c  c #447D23",
"v  c #497D23",
"b  c #48782B",
"n  c #507B2A",
"m  c #44693A",
"M  c #497337",
"N  c #77672A",
"B  c #676936",
"V  c #171D41",
"C  c #1A1E43",
"Z  c #1C2245",
"A  c #192447",
"S  c #1E244A",
"D  c #1D2B52",
"F  c #22254C",
"G  c #262948",
"H  c #23294D",
"J  c #2A364A",
"K  c #363A49",
"L  c #252B52",
"P  c #2A2D54",
"I  c #292D57",
"U  c #312F58",
"Y  c #2B3357",
"T  c #2D315A",
"R  c #363857",
"E  c #32345C",
"W  c #2D3663",
"Q  c #353661",
"!  c #363963",
"~  c #393A64",
"^  c #343869",
"/  c #3D3C69",
"(  c #403D64",
")  c #413E6D",
"_  c #37484B",
"`  c #3B5445",
"'  c #3B4458",
"]  c #2C4961",
"[  c #3B4469",
"{  c #2C4477",
"}  c #354575",
"|  c #4C4B4E",
" . c #415B48",
".. c #42445B",
"X. c #48585A",
"o. c #4A684A",
"O. c #4E7540",
"+. c #547646",
"@. c #4C6454",
"#. c #4D6855",
"$. c #556B5B",
"%. c #5C7858",
"&. c #747253",
"*. c #444C65",
"=. c #474769",
"-. c #43446D",
";. c #444A6A",
":. c #504F6E",
">. c #4B5568",
",. c #515E69",
"<. c #444372",
"1. c #494675",
"2. c #4A4B73",
"3. c #484876",
"4. c #4D4A7B",
"5. c #524E7D",
"6. c #4F5471",
"7. c #525474",
"8. c #54537D",
"9. c #585878",
"0. c #576565",
"q. c #5C637A",
"w. c #647867",
"e. c #737367",
"r. c #626C76",
"t. c #956A26",
"y. c #807152",
"u. c #4A8917",
"i. c #45811D",
"p. c #4B851F",
"a. c #4F881F",
"s. c #54871D",
"d. c #738B1F",
"f. c #498127",
"g. c #4C8425",
"h. c #4D8A21",
"j. c #4F8E2A",
"k. c #508727",
"l. c #528B21",
"z. c #51832C",
"x. c #558A2C",
"c. c #598B2A",
"v. c #579123",
"b. c #569726",
"n. c #5B9424",
"m. c #5E9A27",
"M. c #5E992C",
"N. c #5A8D32",
"B. c #598838",
"V. c #5D9430",
"C. c #629B29",
"Z. c #608D3E",
"A. c #659B36",
"S. c #679A36",
"D. c #5EA527",
"F. c #66A229",
"G. c #69A229",
"H. c #6DAA2C",
"J. c #66A130",
"K. c #6BA433",
"L. c #6FAB35",
"P. c #6BA23A",
"I. c #73AE31",
"U. c #71A73B",
"Y. c #72AB3A",
"T. c #72B231",
"R. c #79B23B",
"E. c #5D8942",
"W. c #67924D",
"Q. c #6A9849",
"!. c #668857",
"~. c #71A249",
"^. c #77A852",
"/. c #708F6D",
"(. c #768675",
"). c #8D8714",
"_. c #A58D14",
"`. c #908F54",
"'. c #82B157",
"]. c #8D8B74",
"[. c #84A96D",
"{. c #91BA6A",
"}. c #A5B36E",
"|. c #AECB74",
" X c #C0C04C",
".X c #335183",
"XX c #325795",
"oX c #3767A6",
"OX c #4D4F84",
"+X c #555282",
"@X c #595585",
"#X c #5C5985",
"$X c #5C5689",
"%X c #5E5B8C",
"&X c #615F84",
"*X c #615D8D",
"=X c #615D91",
"-X c #5C6994",
";X c #65658D",
":X c #74788A",
">X c #666192",
",X c #6C6797",
"<X c #726D9D",
"1X c #4878A7",
"2X c #7A75A6",
"3X c #817BAC",
"4X c #509199",
"5X c #5189B6",
"6X c #7293AE",
"7X c #3D84C9",
"8X c #58A6C8",
"9X c #5CB5D5",
"0X c #70AECD",
"qX c #59DFC2",
"wX c #899690",
"eX c #9DBC88",
"rX c #ACAD8A",
"tX c #8891AC",
"yX c #AEADAD",
"uX c #99D184",
"iX c #A7C591",
"pX c #B6CDA6",
"aX c #CBCF8F",
"sX c #DAF091",
"dX c #EEEF9C",
"fX c #E0DFA2",
"gX c #C4E0B1",
"hX c #ECFBB0",
"jX c #89A8C6",
"kX c #98E0D8",
"lX c #B6EFEF",
"zX c #CFCFD4",
"xX c #DAE5D2",
"cX c #EAEECD",
"vX c #CAEFF0",
"bX c #E9EAEA",
"nX c #F2F7ED",
"mX c #F7F8F7",
/* pixels */
"l.a.l.v.j v.C.a.v.C.h.l.a.i.v.l.v.g C.s.s.l.F.i.m.a.i.K.C.a.i.K.1 n.u.G.2 C.a.i.R.L.g h.Y.1 C.a.v.2 v.v.a.Y.m.j a.Y.g C.v.s.g v.",
"8 m.l.F.h.a.C.i.a.v.h.i.a.1 H.h.R.i.l.C.g a.C.p.9 s.i.H.h.R.2 v.n.9 a.C.a.9 v.a.m.v.m.2 v.v.p.a.v.s.9 a.v.v.v.v.u.v.h.h.a.l.a.g ",
"D.p.f.p.l.j v.i.H.1 l.8 8 C.p.h.i.v.9 v.q m.g a.q a.v.i.h.i.l.9 a.f.v.j j g v.v.q l.a.h.g a.S.i.a.q 1 C.a.q p.a.i.h.h.Y.1 l.8 1 ",
"C.2 i.a.H.8 h.v.g l.0 1 K.C.g g a.H.v.9 C.j a.p.9 T.h.a.7 v.v.J.g n.a.p.i.g K.q a.2 v.i.Y.j p.a.8 i.9 F.< h.u.C.8 F.h.j s.8 < h.",
"I.2 n.q C.a.< g h.p.C.1 v.I.h.i.g C.Y.1 9 i.j.m.g m.Y.C.1 j b.R.h 9 8 n.v.i.Y.K.L.1 a.i.C.a.j 1 K.i.a.Y.u.P.0 v.8 i.a.a.0 U.1 a.",
"g A.a.1 i.v.p.v.h.U.j 1 R.i.U.i.i.0 C.a.g p.V.q i.R.a.U.i.a.9 m.v.8 g g.j h.b.v.x.q a.q f.v.j l.c g v.u.N.h.1 h.h.g n.i.L.0 7 F.",
"1 K.7 p.N.1 H.7 0 i.f.j m.7 U.1 h.z.i.C.q q i.h.g.v.9 K.j V.h.h.C.j 0 0 a.v.h.h.n.j Y.g F.v.9 0 < p.K.i.m.i.i.K.1 L.i.1 q < i.H.",
"l.f.j m.p.a.v.7 i.1 K.v.j m.c j H.h.h.v.g a.p.Y.h.i.S.s k F.a.n z g s.s.d.f h.U.p.f.g.l.m.i.1 j h.U.9 a.N.p.h.f.v.n.1 1 2 b.A.8 ",
"h.h.q a.f.g.8 p.g v.h.l.0 h.i.i.v.i.a.8 i.j K.j l.j s.h t.d.z l z i g ).).h h s.2 l.l.0 j h.j j K.7 8 q v.< a.a.q i.a.j h.M.i.1 ",
"K.9 k.q v.K.p.l.0 h.h.q M.K.9 g.i.v.S.i.p.j p.a.p.h.h.h k _.N y.N t.).).k v.a.9 h.9 l.i.k.h.4 h.i.h.I.n.9 x.2 v.m.g.h.< p.i.i.~.",
"l.f.i.R.a.h.C.j l.g.p.0 I.h.h.0 A.8 b v.q m.1 a.0 I.h.l.h (.N t.t.t.B w.x i.C.a.l.h.R.h.H.f.j I.0 f.a.v.i.v.Y.U.h.L.p.i.m.i.9 C.",
"l.g a.c.0 h.g Y.j h.1 m.h.F.q p F.u ,.i.K.h.a.j v.i.R.0 %.[.%.d s l /.(.Q.l.g R.f.0 l.j q 0.i n.f.K.a.f.h.h.h.f.p.0 L.8 h.0 K.s.",
"T.1 j v.a.R.a.i.v.K.p.m.7 I.x #.z.R Q.g l.j m.a.T.1 n.h.p Q.0.&.y.e.0.x.h.I.g.i.i.q n.h.v.i R 3 o.n m.m.8 f.i.v.U.v.9 H.J.q v.a.",
"i.v.h.m.j a.H.i.v.m.h.p.l.0 a 0.y 9.B.n.l.a.G.g n.v.0 S.w.>.-X*X>X*X=X@.#.x.h.j Y.Y.9 h.L.b 8.y %.t v.f.h.G.G.q p.I.i.m.v.v.q a.",
"i.m.a.D.a.a.C.i.v.u.i.a.p.3 % >.+ 9.z.C.8 C.n.j j r - F ^ / ^ W ^ ^ ^ ^ ^ & u i c.l.m.1 l.B.9.G >.& 3 C.v.a.b.l.i.n.a.a.u.h.h.9 ",
"F.p.p.j v.i.a.h.m.7 a.1 g r X -.C 8.p h.h.v.p r ` H Z   L T S C V C L T A V A _ y i h.h.g M 8.C [ + : m.u.g i.l.i.a.a.L.9 h.< 1 ",
"C.1 a.h.K.i.2 a.q h.i.7 m.i . R V A - a z.0 - T Q ^ T I <.~ P C ! P I <./ L ~ E [ G i h E.- C C E . i I.8 a.p.m.1 v.q i.h.7 1 a.",
"G.i.m.9 m.i.5 j z.z.N.5 z.` A I [ H P *.%.e T ! T ^ T [ ) T / 5.,X) ~ Q 3.! I ~ I ! G 0.:.L H ^ I Z y ^.h ~.p x.5 c h.a.j U.8 l.",
"2 U.i.1 h.v # E 3.<.-.] 4XL [ jXkXOXI ) :Xi K   X Z ^ W / <.+X$X,X+X8.<.! <.D A   O ` :X-.I OXkXjX} ] 4X] +X4.3.L # A.9 G.0 1 F.",
"9 K.0 a.N.9 z.% L 2.>X.X.XI 4.0XvX6XI $X2X0..       A W F + 8.$X,X>X<.S C L X X     ;.3X#XT 6XvX0X4.L W { @X[ H & J.1 1 c 7 l.C.",
"u.f.9 c.j v.n , w ` wX@XQ P L >.{ L 3.@X/ I   + D T 1X9X1XT C R Q C C { 6X9XXXY H O H / #X4.F } *.L P U *XtXu w c l.2 1 1 P.a.8 ",
"l.a.q h.a.b ..M x m.b -.<X@X@X@X@X>X>XO X A Z L I XX9XlXvXoXP 1.1.P T 0XvXkX7X{ L H O   o #X*X@X@X@X*X<XR i a.p.c q h.0 l.v.i.9 ",
"J.8 x.h.K.M.+.;. .0 h # S *X7.*X+XP     # @.T T L I 1X8X1XF Z U @XQ D ^ 5X8X.XL H E ~ G     R 8.#X,X8.G $ A.i.n.g.V.a.2 j j 8 R.",
"h.h.c U.h.h.x.*.9.o.o.F 1.,X..U o . $ * 5 N.%   H ! W +X~ F Z 1.8.^ L D } 4.I E O o o.b * -     T R ..1.G e K.!.,.E.h.j m.i.q n.",
"v.8 h.c.v g.x q.;.4.<.1.=X*X^ o r w h 9 U.l.r Z O H H <.P F P 1.8.) P S ~ E Z C O Z k.7 p.c r e ; G @X,X) G y :.>.g C.a.g g U.h.",
"H.q b *.X.%.(.| 8.R 1.<X*XU - h C.g Y.i.l.g M G S Z V V F H F 1.&XP F F C C C F H - c.u.v.< H.i.e R 2.@X>XR ..7.E.l.g G.L.0 l.h.",
"9 V.X.[ :.;X,.9.~ =.9.+X~ - S.0 C.j a.L.l.g G.e V V H V + C H -.5.C F + C C F V & B.a.g C.i.v.l.c.:.7.-.=.= X.7.m H.i.z.l.v.g a.",
"f.o.o.o.o. .$.P -.2.G *XX., C.h.H.i.a.G.1 K.v.6               U P               # l.m.g l.l.i.C.x.o.:.=.R 5.5.8.7.+.#.6.@.h.h.1 ",
"F.j a.9 F.2 p ..8.G =.6.X.@. .z.c C.g i.G.v.0 x     & _ &.+ = G F O % = &.J O   . q a.p.l.j F.h.j x m ,.@X) =.=.9.q.6.6.:.M 7 1 ",
"G.1 p.a.F.a.1 i ; r.!.7 O.*.*.;.*.Z.U.< h.0 h.*     ] sXrX}.].$.`.=.}.(.aXwXD .   > v.u.M.0 h.j 8 v n %.*X9.~ 1.7.0.:X#.o.o.7 a.",
"K.a.v.8 v.u.8 m =.$.g.9 n.B.>.*.z l.G.0 7 q P.* A A tXsXpXcXfXyXcXyXdXkXgXfX9.A A e v.g n.l.b i $.,.6.q.:.= %XE [ %.B.i.i.N.j a.",
"2 Y.9 1 p.p.x.*.*.N.a.8 R.1 M.j g l.n.C.v.a.k.$ A W &.uXe.uX].sXhX|.w.|.(.}.R T + w a.2 i.A.@.6.7.>.$.i./.>.Y 8.K 6 Y.j m.8 8 I.",
"h.Y.h.m.l.a.+.;.;.p h.F.v.i.A.f.Y.k.h.v.9 q j * S P P 7.K  XY 4XqX:...`.U ( G P O e P.a.T.i.7 X.>.B.h.l.U.!...= z I.1 1 8 1 K.c.",
"g.q 8 n.j a.m ;.X.< M.a.9 h.8 9 C.0 h.h.i.a.a.f.| U Q / T L I 6.4X( F P P U ) E r a.h.a.i.j 0 i.R.i.7 h.h.9 q.6.M p.0 0 1 I.i.1 ",
"S.a.h.q i.f.8 X. .m.f.n.q L.i.h.q i.h.7 p.q K.i.B.-.Q ~ 5.E P Q R P U ) 4./ R o.8 a.q 7 h.i.0 a.C.7 v.h.h.8 ,.6.,.j h.0 l.v.p.h.",
"m.1 x.n.U.l.U.b b 0 h.1 Y.v.g c n.F.L.K.i.v.9 n R I I 1.4.OX4.@X,X1.4.5.7.+.S.i.U.q C.0 P.a.8 b.q 9 U.P.1 Y.O.>.o.U.g.7 i.j 7 I.",
"q h.0 J.c h.v.l.f.i.a.0 C.i.i.7 Y.i.a.a.i.v.3 J [ L L S U <.4.#X*X4.8.` ` y u u 0 7 A.h.a.v.7 F.9 q h.a.a.q B.,.z.v.v.7 v.f.0 n.",
"F.7 h.v.l.k.9 C.a.q 9 I.0 I.g a.C.i.v.8 Y.z.r.) >XT 8.T F C Q ! P ) T J L T L ! ` i.n.8 a.i.C.0 g.m.v.v.i.a.g.z.l.p.a.m.g j U.p.",
"C.h.h.l.a.G.l.i.l.T.0 n.u.C.a.i.v.g Y.i.v.y +X+X2XOX+XL O   L 5.5.) S L L L I L +X_ x.q C.1 F.u.h.a.n.v.h.S.a.a.j.v.g C.F.u.a.l.",
"1 m.9 U.i.g T.i.i.v.a.f.a.2 R.9 H.0 a.R.c i :.*X>X>XI @     . U E Z . A L 2.4.~ <X;.w.0 v.a.a.p.v.8 p.g v.p.Y.a.j C.q h.l.a.i.a.",
"u.v.j b.v.a.m.i.K.8 a.a.g 9 n.j F.a.a.C.1 I.t E U Z C . . % * Z F o u   + E *X=X2X*XE z q v.h.c.v.0 1 G.v.p.b.v.h.h.a.n.q a.i.1 ",
"C.9 a.9 H.2 a.m.h.p.p.< b.m.9 p.a.H.u.j I.a.w ! R Z y 5 6 x x % o y x     = ~ ,X<X*X .h m.i.D.h.q 0 1 v.9 p.1 m.1 n.a.v.a.q 2 9 ",
"Y.1 a.a.G.u.< q p.a.J.1 v.K.j p.i.C.Y.< j c K 3.*X~ r.B.2 a.v.R.0 s.6 . . . F U G P v g m.q a.q g h.l.L.1 l.g m.8 j j a.f.i.1 a.",
"C.v.l.1 a.i.g i.p.S.c 9 m.m.Y.a.i.p.F.g 1 b 2./ >X,XU :Xi.a.i.G.h < 4 c.x 6 G E E G k.h v.l.q 8 x.p.p.L.h.v.1 p.j i.a.a.h.h.i.v.",
"1 L.9 1 a.9 K.l.j v.j j K.< V.8 i.h.i.Y.h.0 - V + O S t g a.i.i.R.a.p.q h./.#X<.>XE o.g g U.i.p.7 a.U.u.L.q 7 v.8 a.C.9 l.7 j Y.",
"a.P.h.C.k.a.m.7 0 8 v.K.a.l.V.p.Y.s.v.l.8 x Z H P F C & p Y.v.C.a.8 j g Q.-.P $X>XE w.l.H.g < c 1 K.q h.L.h.l.z.a.H.7 < 7 9 Y.p.",
"j p.9 n.0 l.j p.h.2 M.l.0 i.j i.C.j l.g.h.u ! %X,X1.L H ' (.j a.s.h.h.C.4 - Z + O + z g.h a.i.g R.8 2 q v.< v.h.a.q f.p.1 R.p.1 ",
"K.p.p.g i.x.1 h.0 v.h.j.h.Y.j a.g g l.7 X.*X<.I P E OX8.P @.1 k.0 i.h.m.e Z C U ~ P t 8 i.p.8 a.n.9 J.h.i.c 0 q h.g h.8 l.h.p.n.",
"v.7 x.U.n.k.K.j a.i.h.7 Y.n.j c C.l.N.!.E 2.R E 1.V #X&XU 2.+.S.v.i.U.0.E H U *X<X5.R z Y.l.g I.0 0 m.C.1 K.F.U.h.Y.j i.n.i.< L.",
"j h.8 C.j a.h.C.0 h.g i.C.h j 7 I.i.p.i r +.zX,X=.yXbXE.> + X.g.l.i.S.R I *X4.L I I 8.;Xm v.1 C.j h.v.f.v.q h.f.h.a.m.1 v.i.j v.",
"I.< l.h.a.K.i.g.v.h.i.K.8 Y.g l.C.i.C.g C.B.nXxXzXmXnXZ.v b 4 v.9 K.@.) P ;X:.U 4.P 7.( =.M H.9 a.v.m.m.7 a.q v.S.a.p.F.i.i.F.h.",
"C.l.h.l.a.C.v.p.v.G.j v.a.m.l.g s.g Y.u.a.h.{.xXmXmX^.F.v.h.0 I.7 W.' * 6 gXmX:X:.tXpXe m 3 C.i.v.q n.v.a.L.v.p.l.C.8 C.C.f.h.l.",
"< C.p.K.a.i.G.i.a.n.l.i.a.1 H.h.Y.g l.G.g i.C.Q.Q.^.g T.a.T.8 l.n.g 6 c.a.Q.bXbXzXxX'.h l.l.h.g v.i.u.i.h.l.m.v.g n.p.a.i.a.a.a.",
"a.v.g b.a.a.C.j I.1 a.j i.u.l.j n.l.i.C.9 Y.i.h.f.x.p.a.l.v.a.j v.9 C.a.p '.{.uXeX'.{.k.j l.l.h.v.8 < F.l.q b.v.a.p.a.K.2 a.9 1 ",
"C.2 h.i.H.2 h.n.i.a.g 7 K.C.g g a.H.a.j C.l.h.j 9 U.a.i.9 l.v.C.j S.a.g j E.xXQ.^.pXQ.h K.h.k.l.0 q 8 C.9 h.g C.1 K.a.i.l.g < i.",
"I.8 v.h G.a.< g h.a.K.1 l.I.i.i.i.C.Y.1 g v l.K.i.v.H.v.1 i.v.R.g j 8 l.n.V.iXnXnXiXv.i.M.i.p.7 a.i.a.H.9 m.9 v.7 i.q a.c v.2 a.",
"g.C.k.1 j v.g a.i.U.q 8 Y.h.Y.h.i.j C.a.2 g S.j g R.n.~.i.u.j C.a.1 8 N.j i.C.S.A.c l.f.a.v.q u.g.u.s.a.k.k.1 i.a.j v.p.J.c 8 m.",
"1 K.1 7 l.1 Y.0 q a.j c F.1 C.1 i.a.g R.j j j l.s.b.9 N.9 c.a.i.R.g c g a.m.h.l.c.0 m.j h.G.p.j < h.R.j C.i.0 C.2 v.l.g p.1 i.Y.",
"l.N.a.m.a.l.m.7 j 2 K.C.j m.g.f.T.h.v.v.g a.g R.a.a.K.g.c I.l.n.l.g g g R.i.h.~.h.0 x.v.F.i.1 j 8 Y.8 v.A.a.h.c v.C.1 < 8 u.K.0 ",
"q p.0 v.i.a.9 h.p.g v.a.0 0 i.f.m.q h.q j a.n.j h.g a.j l.v.j i.l.g.h.K.1 u.j a.1 h.v.i.0 h.h.j R.2 1 c a.7 l.h.p.0 a.p.8 Y.i.7 ",
"Y.g h.9 l.S.7 h.q h.h.g.b.Y.9 h.q a.V.0 j a.v.a.h.f.v.8 h.j 8 g.j 0 a.l.p.m.9 j q j h.q q p.1 a.h.i.Y.h.j f.9 h.C.i.h.7 h.g.f.L.",
"v.7 k.Y.l.g.C.j v.h.h.7 R.h.f.0 F.q h.v.c m.1 p.j R.h.l.8 G.j S.l.i.T.2 p.p.C.i.C.h.R.h.Y.h.p.Y.0 q n.n.8 S.U.I.h.Y.q h.m.j 8 m.",
"i.p.a.v.0 h.j K.q p.7 l.b.b.0 g K.0 q f.m.h.i.f.l.h.L.0 1 K.j 0 l.h.F.q m.s.f.U.i.7 x.i.q m.2 m.i.C.a.i.v.i.h.c h.0 L.1 l.0 m.v.",
"Y.1 g.a.h.R.h.p.b.v.a.C.1 R.q p.m.u.F.u.h.j v.h.R.2 M.i.j C.9 v.2 m.1 l.a.R.i.a.i.j v.a.v.7 K.8 h.v.C.m.1 p.j v.U.h.9 F.c.h.v.p."
};
