/* XPM */
static char *result[] = {
/* columns rows colors chars-per-pixel */
"64 64 244 2 ",
"   c #0F1E2D",
".  c #0C1233",
"X  c #0D1836",
"o  c #131B33",
"O  c #111639",
"+  c #151A3D",
"@  c #182A2E",
"#  c #1D352A",
"$  c #162232",
"%  c #1A2536",
"&  c #223A2E",
"*  c #27283A",
"=  c #263737",
"-  c #2B5C19",
";  c #2F6E0E",
":  c #34740E",
">  c #377A0E",
",  c #2F621A",
"<  c #336E14",
"1  c #3A6A1C",
"2  c #357412",
"3  c #367315",
"4  c #387614",
"5  c #3A7B14",
"6  c #3C761B",
"7  c #3F781B",
"8  c #1F4221",
"9  c #284826",
"0  c #2C5325",
"q  c #335828",
"w  c #2B4436",
"e  c #364B37",
"r  c #2F5133",
"t  c #395837",
"y  c #366327",
"u  c #3A6C23",
"i  c #3C7322",
"p  c #3D6336",
"a  c #6B570A",
"s  c #586F16",
"d  c #417E17",
"f  c #477A1B",
"g  c #417D1C",
"h  c #6B660C",
"j  c #707711",
"k  c #5F5224",
"l  c #455937",
"z  c #42692A",
"x  c #437624",
"c  c #447C24",
"v  c #477B28",
"b  c #4B7C2B",
"n  c #52792E",
"m  c #446937",
"M  c #516E3C",
"N  c #497534",
"B  c #517B38",
"V  c #747227",
"C  c #161C41",
"Z  c #1A1E42",
"A  c #1C2245",
"S  c #14244A",
"D  c #1E2349",
"F  c #1D2A54",
"G  c #222A44",
"H  c #272847",
"J  c #22254B",
"K  c #242A4E",
"L  c #2A3548",
"P  c #353A4D",
"I  c #252B52",
"U  c #232C56",
"Y  c #2A2D54",
"T  c #2B2F59",
"R  c #2D3155",
"E  c #2D325B",
"W  c #28335C",
"Q  c #32345C",
"!  c #393859",
"~  c #2E3664",
"^  c #363661",
"/  c #363862",
"(  c #3A3A64",
")  c #363A69",
"_  c #3D3D6A",
"`  c #2A3D72",
"'  c #383E72",
"]  c #403F5B",
"[  c #413E69",
"{  c #3B4946",
"}  c #344E4B",
"|  c #3E5543",
" . c #3A4753",
".. c #3E4267",
"X. c #294274",
"o. c #344F70",
"O. c #45594A",
"+. c #58574D",
"@. c #444659",
"#. c #48585A",
"$. c #496747",
"%. c #4F7249",
"&. c #567A48",
"*. c #4D6558",
"=. c #556B5A",
"-. c #597754",
";. c #677854",
":. c #444D66",
">. c #42436D",
",. c #454A6A",
"<. c #484969",
"1. c #495665",
"2. c #4E576D",
"3. c #52586E",
"4. c #454373",
"5. c #4B4B74",
"6. c #494778",
"7. c #4D4A7A",
"8. c #514E7C",
"9. c #4D5572",
"0. c #54537C",
"q. c #585779",
"w. c #576766",
"e. c #57686B",
"r. c #62766C",
"t. c #6B6F70",
"y. c #8B7B0E",
"u. c #8C6F15",
"i. c #857325",
"p. c #A3722F",
"a. c #807F6C",
"s. c #4A8917",
"d. c #45811D",
"f. c #4B851F",
"g. c #4F881F",
"h. c #52831D",
"j. c #458122",
"k. c #4C8425",
"l. c #4D8A21",
"z. c #4E8129",
"x. c #4E8C29",
"c. c #508727",
"v. c #528B21",
"b. c #52842E",
"n. c #558B2C",
"m. c #5A8D2D",
"M. c #579123",
"N. c #5B9424",
"B. c #529A22",
"V. c #5E9A27",
"C. c #5B922C",
"Z. c #5E992C",
"A. c #518233",
"S. c #568937",
"D. c #5B8E32",
"F. c #5D9332",
"G. c #658F2E",
"H. c #629B2A",
"J. c #659A35",
"K. c #669938",
"L. c #5EA527",
"P. c #66A229",
"I. c #69A229",
"U. c #6DAA2C",
"Y. c #66A130",
"T. c #6BA433",
"R. c #6FAB35",
"E. c #6BA13A",
"W. c #73AE31",
"Q. c #70A639",
"!. c #72AB3A",
"~. c #72B231",
"^. c #79B23B",
"/. c #598F43",
"(. c #5E8152",
"). c #689647",
"_. c #6B9D42",
"`. c #6C9256",
"'. c #75A747",
"]. c #698668",
"[. c #768D71",
"{. c #92890F",
"}. c #A28B0F",
"|. c #939255",
" X c #828065",
".X c #858673",
"XX c #88AF68",
"oX c #95B87A",
"OX c #A1A07A",
"+X c #9EC379",
"@X c #AFCD7A",
"#X c #C1C14E",
"$X c #33588E",
"%X c #3D688E",
"&X c #555381",
"*X c #515184",
"=X c #595683",
"-X c #5C5A85",
";X c #5C5689",
":X c #5D5A8A",
">X c #615E8A",
",X c #645F91",
"<X c #507092",
"1X c #67648C",
"2X c #656193",
"3X c #6B6698",
"4X c #746F9E",
"5X c #4C74A5",
"6X c #7B76A6",
"7X c #807AAB",
"8X c #4E9497",
"9X c #7E8595",
"0X c #4E85AD",
"qX c #6489B0",
"wX c #3E84C6",
"eX c #5AA9C8",
"rX c #5CB7D4",
"tX c #6DA4C5",
"yX c #939297",
"uX c #94B98F",
"iX c #A7B58B",
"pX c #8A89A6",
"aX c #A7A8B1",
"sX c #A9DB84",
"dX c #A8C594",
"fX c #B0CD96",
"gX c #B9F190",
"hX c #B4D6A6",
"jX c #CCCD8C",
"kX c #F2F29D",
"lX c #C9C7A2",
"zX c #C3DAAB",
"xX c #C7DAB8",
"cX c #EDF2A8",
"vX c #8EA7C5",
"bX c #BDBEC4",
"nX c #90CED9",
"mX c #8FEED9",
"MX c #A8D8E5",
"NX c #ADEFEB",
"BX c #D4E3CC",
"VX c #DFE9D6",
"CX c #EEF1EC",
"ZX c #F7F9F7",
/* pixels */
"v.v.g.M.g M.H.f.M.H.f.M.f.f.M.g.M.g H.g.v.g.I.d.V.g.d U.H.g.d.T.> M.d.I.> H.g.d.^.R.d f.!.> H.g.M.> N.M.f.Q.H.g g.Q.d H.N.v.5 M.",
"4 V.l.P.l.g.H.f g.M.g.d.f.: U.g.^.d.g.I.d g.H.f.d g.g U.g.^.> M.M.5 g.H.v.5 M.g.V.M.V.> M.M.f.v.N.g.5 g.M.M.M.N.s.M.g.l.g.v.g.d.",
"H.l.j.f.M.g v.d.T.: g.5 5 H.f.g.d.M.5 M.6 H.d g.g l.N.d.l.j.v.5 v.d.M.d.g d N.M.7 v.g.g.d f.T.d.g.7 ; H.v.5 f.g.d.g.g.Q.: v.: : ",
"H.> d.l.U.4 l.M.d.v.d : U.H.5 d.g.U.M.4 H.d v.d.5 W.l.g.: M.M.Y.g N.f.f.g d U.7 g.: M.j.Q.d.d.g.5 d d H.: g.d.H.: T.g.d.g.2 : g.",
"~.> N.g H.g.: d g.f.J.: M.R.g.d.7 H.!.> 5 d.M.V.g H.E.N.: f M.^.d.5 4 H.M.f R.T.R.: l.f P.g.g : T.j.f.!.s.R.6 M.> d.g.g.6 R.2 v.",
"d J.f.: g M.f.M.l.Q.g : ^.d.!.f.f g H.g.d.j.F.7 d.!.f a h h.5 B l 3 d s h s M.v.n.g l.g j.M.g v.c d M.d.D.j.2 l.l.d N.d.W.6 2 H.",
": T.2 f.D.: T.2 6 d.j.g V.2 Q.2 c.c.g H.5 g d.v.k.M.4 G.{.G.s l l z f j y.f.l.l.N.g Q.d.Y.v.5 6 ; l.T.d.H.d.d.R.2 R.d.2 7 2 g R.",
"v.k.g V.f.v.M.: d.> R.v.g V.c 5 U.l.v.M.d f.d.!.l.d.Q.f h }.u.i.i.{.{.y.h c l.!.f.j.l.v.V.d.: f v.T.5 v.D.f.g.j.M.M.2 : > M.H.4 ",
"f.l.5 v.d.k.5 f.7 M.l.v.6 l.j.d.M.f v 5 j.g T.g v.g v.3 n .Xi.p.u.p.V  X1 k.g h.: v.v.g g j.g d.T.: 3 g M.; v.l.g d g.g l.Z.d.: ",
"T.5 c.d.M.T.f.g.7 f.l.7 Z.T.5 z.d.m e.j.l.g f.g.l.l.l.g (..Xw.a a k ].[.S.M.f.5 c.5 g.d.v.=.r d.f j.!.N.5 n.> M.Z.k.g.; f.d.d.'.",
"v.d.d.'.l.c.V.f v.f.l.6 ~.g.i | B K /.M.7 V.: g.7 W.l.M.3 `.O.V V +.;.6 d.d.H.g.v.k.^.l.E.B L N t N g.M.d.v.Q.Q.v.R.f.d.V.j.7 H.",
"v.g v.v.7 l.d.!.d.f.: V.l.Z.w =.e =Xi d.T.l.k.g M.d.!.p *.*.:X;X2X:X,X} r.z.6 ^.d.7 v.g g F.0.| -.| v.j.v.l.v.j.f.7 R.4 l.3 P.v.",
"W.: g M.g.^.g.d.M.T.d.V.: F.% w.$ q._.d v.g H.l.R.- w K ~ ' ' ' ..' ' ~ ~ G q u d.g M.g.M.u q.A *.G z.V.2 f j.v.Q.M.5 U.T.7 M.f.",
"d.M.l.H.g g.T.d.M.H.l.l.l.# + ..A q.n V.v.f.H.9 O.D A O I Q D Z C D I E Z C J P | M d f.W.u 0.D _ A 9 l.l.T.T.g f.!.d H.M.M.g g.",
"d.V.g.L.g.g.I.j.M.s.j.l.d.8 X >.+ D * F.3 H.w I ( W ^ I [ ' D C J J J 6.) U ' T ' G b 2 A.e A A 5.. 9 H.M.v.B.M.d.N.v.l.s.l.l.5 ",
"P.f.f.g M.d x b D.i A., j.{ D T ..I K <.].q Q ^ Q ^ Y 4.[ T _ &X3X_ ( ^ [ _ T ( Y ( G w.<.L K ( W S w ).x b v A.x f j.U.3 g.: : ",
"H.: f.g.T.1 $ ......,.o.8XL ..vXnXo.I 4.t.t P . C Z ) ^ 4.4.&X>X3X&X*X6._ >.J Z . O } t.>.Y 0.tXvX4.W 8Xo.3.,.,.( @ y d.g.4 : v.",
"U.d.V.5 V.s.- A I ,.0.%Xo.U *XnXNX5XY >X4XO.@ . . . C F T I =X:X3X;X7.E K F O X O .  .4X-XR qXMXnX*XK W $X6.,.I A u g.g.5 Q.4 g.",
": Q.g : f.v.g.N 9 r.9X=XW U I 9.X.Y [ >X_ R . + F W 0XrX5XU A Q E Z C ` qXrX$XU I O J _ =X0.K X.9.I R R :XpX| 9 y d.R.5 P.5 : Y.",
"5 T.7 v.C.5 H.: g g %.=X1X6.6.4.5.>X3XZ O D + I W $XrXNXMX$XU ..( Y U tXNXmXwX` I D O O J =X&X4.4.6.7.1Xq.(.c.K.5 W.: : x : M.H.",
"f.c 5 M.x v.l.2 f : G.% H ,Xq.,X0.K . . $ *.^ W Y T 5XeX5XY Z [ =X! J X.qXeX$XU I T ( R . . Q 0.-X2X>XH & x v.f l.v.> 2 2 T.v.2 ",
"v.g.c N #.N : b x D.z G [ >XP R O . o   1 u % O T T W ' T Z Z [ =X( I J ~ ) U / O O w y o   . X W ..H [ * - g.f.c 7 l.6 v.M.d.5 ",
"J.p 1.:.:.:.=.0.@.7.[ *X3X>X( * 9 t J.T.g j.w C O Y T [ Y J Y [ =X[ Y D ( ( Z Z X D b.4 H.z.9 9 = H 8.3X[ Y 9 m.l.V.k.< d.7 4 ^.",
"l.z.v K.*.:.3X] >X[ [ 3X,X^ % < E.d k.M.g V.r K J O O O Z I Z 8.&XT Z J + O O Z I L K.g.H.f.7 T.0 % ( ;X3X[ * K.v.J.*.*.F.d.g N.",
"M.2 g.M.z.[.@.=X/ ,.q.8.( w u z.G.i l.5 Q.l.f.0 + + K C + Z J [ 8.A H C + Z J Z % u v.3 f.g.M.s.f J.= ( 5.* l c.$.1.9.3.2.$.).l.",
"R.6 f M.c.'.r.Q ( 8.G :X9.,.,.:.:.#._.d M.d H.u . . . . . . . H H . . . . . . . o 7 M.d.v.: U.d.g v.b o H 5.,.r.q.1.1.J.R.x c.l.",
"5 V.d.T.x x M @.0.K 3.3.A.p 1.:.1.x g.W.l.d I.u . . C P +.J % H J . o Z ;.= O . @ H.g.5 H.c n.b m.3 n @.>X[ <.<.#.[.d.v.v.M.d.g.",
"d.M.b #.:.#.*.O.e t.-.@.m > F.z.J.d.v.H.4 T.v.@ . . :.sXiX|.a.@.|.R OXa.jX9XS . . q V.d.v.&.2.3.2.3.#.2.>Xq.>.>.q.;.].N.s.g.g.: ",
"P.g %.:.#.p f.N.C.A.z...m P.5 l.d.I.d d.T.M.7 # C S yXgXfXcXlXiXkXyXcXhXzXfX9.C + 9 v.f.v.x =.2.2.$.y -.7.H 0.Q [ =.(.D.c d.> ; ",
"T.3 O.$.H.g.: d.f v.A.,.1.Z.d.7 g.U.Q.; g.g d.= J W ].@X[.sX XkXcXjXt.@Xt.@X! E A 8 M.d.Z.7 c.c 4 c b e.e.3.R 0.( #.3.9.M 5 > l.",
"Y.k.A.5 M.s.4 d.l.M.N :.:.F.T.l.d v.I.5 : g J.& K Q ! a.] #X! uXmXt.@.|.] w.Y Q C 9 M.5 N.v.7 : K.d.b 3.%.[.@.P l N *.9.#.D.5 v.",
"> !.5 : l.j.M.J.f Z.l.p 1.p F.d.d g.N.H.v.l.v.x  .W Q _ I I Y <X8X] Y H Y Q _ Q r 7 g.> d.T.g v.7 g -.9.;.5 %.n.5 d E.N -.m 5 R.",
"l.Q.d.H.v.f.H.: 7 7 f.Y.M $.J.j.!.c.g.v.5 g 6 l.m _ [ [ [ Q Y ) >.R I ( [ _ ..O.v.d.J.g.W.d.: 3 2 H.*.9.(.g.v.F.f.W.: : 3 u Q.v.",
"k.g 4 V.g v.g 5 f.; Z.l.5 l.5 > H.g g.g.d.l.l.v ! T T [ *X*X[ &X3X4.7.8.8.O.b V.5 c.l.c.d.d.7 d.^.c 1.*.x.5 v.c g.d.6 7 : !.d.: ",
"J.g.l.6 d.c : l.7 V.f.N.g E.d.g.g g l.2 d.g J.{ W I T D Q *X,X6X7X,X,Xw.y J., v 3 v.g : f.d.6 v.V.1 -.d.l.4 f.f c g l.7 v.M.f.l.",
"V.: n.V.Q.v.!.f.d.7 f.: !.B.g c N.I.E.R.d.n.3._ ;XT 6.T I Z Q Q Y [ ! L T W I E $.1 H.6 T.v.4 M.6 d Q.Q.: Q.M.J.5 R.l.3 d.g : !.",
"g l.7 T.k.f.M.v.j.f.f.6 H.d.d.2 !.d.g.v.d.O.,X8.6X*X,XI O O ^ 8.7.8.Q K I I U J W r K.c.g.M.4 P.5 g l.l.g.7 M.m.g.M.M.5 N.f 5 N.",
"H.3 g.v.f.v.5 H.v.5 5 !.5 R.d v.H.d.M.2 Q.z 5.>X3X,XY * . . O ^ ^ J . J I U ^ T 0.Q $.< g.d.H.g k.H.M.M.d.g.f.M.v.d.v.N.g g E.l.",
"H.l.f.M.g.T.M.d.M.W.7 N.s.H.g.d.N.d !.d.M.g e [ ^ H Z . . o # Z H C # . Z 4.7.6.6X_ 0.q H.: I.d.l.f.N.M.l.T.g.v.M.C.d H.I.d.v.v.",
": H.5 Q.d.g W.g d N.l.d.g.> ^.7 I.d g.!.f f e ^ ^ Z = m q z 0 $ Z @ , . . ! ;X:X6X;X .u M.g.f.l.M.3 g.d v.f.!.j.g V.g l.v.g.d.l.",
"s.M.d.B.M.g.V.d.Q.> l.g.7 5 M.d I.c.l.H.: E.P >.;XQ e.C.g.H.d.7 c.: D.. . O Y &X>X0.m c.g M.g.M.M.7 : I.M.d.B.M.l.l.g.N.5 g.d.: ",
"H.5 g.5 U.: g.V.l.d.f.; M.P.5 g.g.U.s.5 W.b.( >.>X0.5.r.d.g.N.M.f Q.f 9 0 9 H R A R b s.H.g V.g.6 7 : M.d l.: H.: N.g.M.g.f : 5 ",
"!.: v.g.I.g.; 7 d.g.Y.: M.E.d d.d.I.Q.; g 7 = Z O + J w : f.N.^.d f.g f.M.k.L ^ 0.! x d H.6 g.7 g f.v.W.: v.d N.4 g g g.j.l.: l.",
"H.M.v.: s.d.d d.g.J.c 5 V.V.!.v.d.f.P.d.> i * A J J + w g g.d.I.d.; : Q.c.-.>X4.,X( l d.M.v.7 4 n.f.j.R.l.M.2 l.d d.c.f.l.k.d M.",
": R.5 : g.5 U.v.d.M.7 d.T.; F.5 d.g.d.!.x.t ~ ;X,X[ I I { ].d.d.^.f.f.g b.! J >.5.Y =.d d Q.d.l.2 f.Q.s.R.d < v.4 f.H.d v.2 g !.",
"g.E.l.H.c.g.V.< 6 3 M.T.g.v.F.d.!.v.M.M.$.^ 6.Q Q [ _ I Q `.M.H.g.4 d d.J.& D C + A m v.U.s.; c : T.g v.R.g.v.c.g.U.: ; 4 5 !.f.",
"g f.5 N.7 v.g l.l.> Z.v.6 d.g d.H.d c.-.>.>XR Q [ Z 1X1XY 2.M l.v.f.f.K.r A Z E _ E w c g v.d.d ^.4 : g v.: v.f.g.g d.k.: ^.l.; ",
"T.f.l.5 d.b.: l.6 M.l.M.k.!.g g.d d v.&   $.yX1X4X3.CX/.= A 1XS.g g S.1XQ J E 3X7X>XR r c d.4 f.M.5 I.l.d.c g g z.d l.3 v.l.l.N.",
"M.3 n.Q.N.c.T.g c.d.l.2 !.M.g c H.g.C.H.d.'.ZXbXaXZXCXE.< t 1 K.M.f.E.P Y 0.7.J I Y 5.1X-.m.d W.7 6 V.H.: T.I.Q.v.!.g j.N.d.: R.",
"g l.4 H.g f.k.H.g f.6 f H.f.g 2 !.f f.g.v.C.dXZXZXZXdXg ; !.f.d.v.A.e.[ R 1X2.E ;X! <.! ,.(.: H.c l.M.j.c.g c.c c.f.V.: M.g 7 M.",
"W.; v.l.g.W.d.c.M.v.d.U.4 W.7 g.H.d H.d V.f J.uXzXdX+Xf.d.H.> M.5 `. .# f zXCXpX-XpXhXq q , U.4 l.M.V.N.4 v.g v.I.v.d.P.d.j.H.l.",
"H.g.k.M.f.H.M.f.v.I.g M.g.V.v.d.M.d !.s.v.j.+XVXZXCXoXH.M.g.d !.> B.1 M.d dXZXZXCXZXiXg I.2 I.f M.f N.M.l.W.v.l.v.H.5 H.H.d.l.M.",
": H.f.U.l.g I.d.g.M.g.d.g.: U.f.!.d v.I.d d.I.uXCXdXd W.g.!.4 g.H.d d H.l.b.dXZXZXxX'.4 M.v.f.d M.j.s.d.l.v.N.M.d N.s.v.d.v.f.f.",
"g.v.7 M.g.g.V.d.W.: g.g d.s.v.g N.g.d.H.5 !.d l.F.N.l.g.g.N.g.d v.> H.v.5 XXfX_.K.oXoXf.g v.M.f.M.4 : H.v.g B.M.g.f.g.J.> v.d : ",
"H.> v.s.U.: c.N.d.g.g : U.H.d d.g.U.g.g J.g.l.f 5 R.c.d.5 v.M.H.f I.h.f 5 A.VXxXxXBXE.d R.j.l.v.6 7 3 H.5 g.5 V.: I.f.d.v.d ; d.",
"!.: M.d.I.g.: 5 l.f.T.: v.W.d.d.d.I.!.: d f v.T.d.B.I.M.: d.N.^.d.g 5 v.B.B.|.hXzX`.v.s.Z.d.l.5 v.d.g.U.5 V.d.M.6 c g g.c M.> g.",
"f.G.c.: f M.5 g.f.R.g 4 Q.l.!.l.d.g H.f.> d J.g d.!.N.'.d.v.g H.g.: > D.7 d.'._.'.uXK.d.v.v.7 d.l.d.v.g.c.c.: d.f.g M.d.P.x 4 V.",
": T.: 3 M.: !.7 7 l.g c P.: H.: f f.d.^.g g d.g.v.M.5 F.5 v.g.d.'.5 c d l.E.fXZXZXxXJ.g g.T.d.f ; g.^.g H.d.6 H.> M.v.d l.: d.!.",
"M.D.l.V.g.v.V.: g 5 T.H.g V.k.z.W.l.M.M.d f.d ^.v.s.T.k.c R.v.N.v.d.d.7 ^.d.D.xXVXb.n.M.H.d.: d > Q.4 M.J.g.l.v M.H.> ; 3 s.T.6 ",
"7 f.5 C.5 g.5 c.l.5 M.g.6 6 d.j.H.g l.g d.g.N.g g.g l.d v.M.g d.v.s.f.U.2 s.g g.: l.M.d.g l.f.d.^.2 : c v.: v.l.f.7 g.f.5 !.d.2 ",
"Q.d l.5 g.E.: l.g l.l.x.M.~.5 l.d.g.C.4 d.l.M.l.k.d.M.4 f.d.3 k.g g g.M.g.V.5 7 d.7 l.7 g f.: g.l.d.^.l.g c 5 l.P.g g.< l.k.j.!.",
"M.4 x.!.g.c.H.g M.j.l.2 '.M.j.6 H.d k.M.i V.: l.g ^.l.M.3 I.d.J.g.g !.> d.l.H.j.H.f.^.l.W.g.f.!.6 g M.M.3 T.!.!.l.!.7 l.V.g 4 H.",
"g l.f.M.g f.g Q.g d.4 v.M.B.6 d T.g 5 f.V.l.d.d.v.l.E.6 : T.g 5 v.l.H.5 H.v.d.!.d.2 n.f 6 Z.> H.g H.v.g M.f l.c l.6 W.2 l.7 V.M.",
"!.: k.g.f.^.l.l.M.M.l.H.3 ^.7 l.H.d.Y.d.v.d.M.g.^.: P.j.f H.5 M.> H.: v.v.^.d.l.j.g M.l.M.2 T.4 l.M.H.H.: l.g v.!.l.5 T.v.l.M.f."
};
