/* XPM */
static char *result[] = {
/* columns rows colors chars-per-pixel */
"64 64 249 2 ",
"   c #1C152C",
".  c #0C1233",
"X  c #0E1736",
"o  c #121C34",
"O  c #101639",
"+  c #161B38",
"@  c #151A3C",
"#  c #291E34",
"$  c #16252E",
"%  c #1C352A",
"&  c #1A2538",
"*  c #233D2A",
"=  c #262839",
"-  c #253737",
";  c #313832",
":  c #2C5C1A",
">  c #2F6E0E",
",  c #34740E",
"<  c #3B740E",
"1  c #377A0E",
"2  c #2E6517",
"3  c #346E13",
"4  c #36691C",
"5  c #347412",
"6  c #387614",
"7  c #3A7B14",
"8  c #377018",
"9  c #3D761B",
"0  c #3F781B",
"q  c #29462A",
"w  c #2E522A",
"e  c #345A28",
"r  c #2D4A34",
"t  c #2F4439",
"y  c #324834",
"u  c #3A5938",
"i  c #3A6724",
"p  c #3D7422",
"a  c #3E7028",
"s  c #3E6739",
"d  c #69511B",
"f  c #4E6D12",
"g  c #417E17",
"h  c #417D1C",
"j  c #487C1B",
"k  c #6E7115",
"l  c #494F39",
"z  c #446928",
"x  c #447D23",
"c  c #457828",
"v  c #4B7C2C",
"b  c #456A39",
"n  c #4A7437",
"m  c #4B7B33",
"M  c #527A3B",
"N  c #6F6D34",
"B  c #0C1F45",
"V  c #171C40",
"C  c #1A1E42",
"Z  c #1C2144",
"A  c #14264D",
"S  c #1D244A",
"D  c #282A46",
"F  c #22254B",
"G  c #23294D",
"H  c #302C47",
"J  c #2C374B",
"K  c #37374A",
"L  c #252B52",
"P  c #2A2D55",
"I  c #282D58",
"U  c #302F5A",
"Y  c #273154",
"T  c #2C3154",
"R  c #2D325A",
"E  c #353555",
"W  c #32345D",
"Q  c #353A5C",
"!  c #3A3B5D",
"~  c #2A3967",
"^  c #343661",
"/  c #353A62",
"(  c #3A3A65",
")  c #373A6A",
"_  c #3D3C69",
"`  c #363E71",
"'  c #413E6B",
"]  c #384E43",
"[  c #39454D",
"{  c #3A4455",
"}  c #2C4267",
"|  c #3C4367",
" . c #2C4476",
".. c #394676",
"X. c #435B47",
"o. c #5B5B4D",
"O. c #444A59",
"+. c #465957",
"@. c #4B5C5B",
"#. c #466347",
"$. c #49654C",
"%. c #4D6A4C",
"&. c #506E4C",
"*. c #577B45",
"=. c #54734D",
"-. c #4D6556",
";. c #556A59",
":. c #587756",
">. c #727351",
",. c #43426C",
"<. c #474B68",
"1. c #454A6A",
"2. c #524C69",
"3. c #4E5C63",
"4. c #4B5568",
"5. c #525B69",
"6. c #454472",
"7. c #484777",
"8. c #4C4C74",
"9. c #4D4A7A",
"0. c #514D7A",
"q. c #4F5571",
"w. c #48557A",
"e. c #565678",
"r. c #53537D",
"t. c #615F78",
"y. c #58676A",
"u. c #5E7265",
"i. c #506D70",
"p. c #666269",
"a. c #637D61",
"s. c #6E6E73",
"d. c #697B74",
"f. c #8F790F",
"g. c #9D7D28",
"h. c #4A8917",
"j. c #45811D",
"k. c #4B851F",
"l. c #4F881F",
"z. c #54861E",
"x. c #458222",
"c. c #4C8425",
"v. c #4D8A21",
"b. c #4F832B",
"n. c #4F8C2A",
"m. c #508727",
"M. c #528B21",
"N. c #56882B",
"B. c #558B2C",
"V. c #579123",
"C. c #5B9424",
"Z. c #5E9A27",
"A. c #589429",
"S. c #5E992C",
"D. c #578537",
"F. c #5B8F31",
"G. c #5D9431",
"H. c #5A9138",
"J. c #609122",
"K. c #639521",
"L. c #629B2A",
"P. c #608E3C",
"I. c #659B37",
"U. c #669738",
"Y. c #66A229",
"T. c #69A229",
"R. c #6DAA2C",
"E. c #66A130",
"W. c #6BA433",
"Q. c #6FAB35",
"!. c #6BA23A",
"~. c #73AE31",
"^. c #72AB3A",
"/. c #72B231",
"(. c #79B33B",
"). c #5B8545",
"_. c #4E8455",
"`. c #6A9847",
"'. c #69924F",
"]. c #77A84B",
"[. c #748D73",
"{. c #7BA365",
"}. c #938612",
"|. c #A7830F",
" X c #86875C",
".X c #9CA25A",
"XX c #81987D",
"oX c #8CB665",
"OX c #90B06F",
"+X c #ABAD6F",
"@X c #A3CB79",
"#X c #C7C969",
"$X c #32528B",
"%X c #3A629A",
"&X c #3769A9",
"*X c #524C81",
"=X c #5A5583",
"-X c #595585",
";X c #5C5A85",
":X c #5B568A",
">X c #615C85",
",X c #615D8D",
"<X c #625E91",
"1X c #5B6D94",
"2X c #65648B",
"3X c #6F6F88",
"4X c #6F738A",
"5X c #6A6595",
"6X c #6B6696",
"7X c #6B6698",
"8X c #716C9B",
"9X c #6C73A2",
"0X c #7976A2",
"qX c #807BA8",
"wX c #499198",
"eX c #74A48E",
"rX c #578AB9",
"tX c #7994AB",
"yX c #7E98B0",
"uX c #45C9B4",
"iX c #639EC7",
"pX c #5CB5D1",
"aX c #75E3E1",
"sX c #858A8C",
"dX c #80AA86",
"fX c #9BBB84",
"gX c #A4AF92",
"hX c #979BA1",
"jX c #A9A9B4",
"kX c #ACCD94",
"lX c #ABC698",
"zX c #B6D29C",
"xX c #B4E892",
"cX c #B5D0A6",
"vX c #AEEBAE",
"bX c #E6E698",
"nX c #D2D7AF",
"mX c #CEE4A6",
"MX c #EDF1A7",
"NX c #91CAD5",
"BX c #91E7E4",
"VX c #B8EDED",
"CX c #ABF1ED",
"ZX c #D0D6CF",
"AX c #D7E5CC",
"SX c #F0FACA",
"DX c #E3E4E5",
"FX c #F2F6ED",
"GX c #F9FAF8",
/* pixels */
"M.M.M.V.h V.L.k.V.L.k.V.k.k.V.l.V.h Z.k.M.M.T.j.Z.l.h R.L.l.j.W.1 V.j.T.1 L.l.j.(.Q.h k.~.5 L.l.C.1 C.V.h.^.Z.h v.^.g L.C.M.g M.",
"6 Z.v.Y.v.z.L.j.M.V.l.j.k., R.M.(.j.M.T.g l.L.k.7 V.g R.M.(.1 V.C.7 M.L.l.7 V.l.Z.V.Z.1 V.V.k.z.C.l.7 h.V.V.V.V.h.C.k.v.z.M.M.g ",
"L.v.j.c.V.h V.j.R.3 M.7 1 L.k.l.j.V.7 V.0 J.j.k.0 v.V.j.l.j.z.g M.j.V.j h g V.V.h z.M.v.g v.I.j.l.9 > L.l.0 l.l.j.v.v.^., M.6 , ",
"L.1 j.l.R.6 k.M.g M.0 , R.L.j.7 l.R.V.6 L.g M.j.7 ~.v.z., V.C.L.h C.k.k.g h R.0 M., M.j.^.h k.M.7 g h L., l.j.L., E.v.h M.5 > l.",
"/.1 C.h L.v.3 g v.c.T., M.^.l.j.0 L.~., 7 j.A.Z.h L.k k 3 p z.^.j g 5 C.k j ^.W.Q., v.h Y.l.0 , W.x.l.^.h.Q.0 V.5 j.k.l.0 W., M.",
"g I.k., h V.v.V.v.^.0 , (.j.^.k.j.0 L.M.g j.G.0 j.^.f f.k M.4 l l 6 j }.f j C.V.N.h v.h x.V.j.v.x g V.j.F.c., l.l.j.C.j.Q.0 5 L.",
", W.5 v.F., T.5 9 j.x.h Z.3 ^., b.b.h L.0 0 j.l.c.V.7 K.|.f.l l k k |.}.J.V.z.k.C.h Q.h E.V.7 9 > v.W.j.Z.j.j.!.1 Q.g 5 0 , j.R.",
"M.x.h Z.k.M.V.5 j.5 !.V.h Z.x 7 R.c m V.g l.j.^.v.j.^.f N  Xg.|.g.}.N d U.h v.^.k.x.m.m.A.a , 0 M.W.6 M.F.k.l.x.V.V., , 1 A.I.6 ",
"c.v.h M.j.b.6 k.0 V.v.v.0 v.a p z 4.).0 j.0 !.h M.0 M.c [.dXd d k o.XXXX5 c.9 M., M.M.0 m +.w x.D., 8 h M.5 M.M.h g l.j.l.S.j., ",
"W.7 m.g V.W.k.M.0 k.v.h S.W.$.m - ;.U.x.v.h k.v.v.v.v.x :.d.s.p.s.t.[.v n.V.l.7 c.7 M.j.m.@.= m -.c.~.C.7 N., M.S.c.l.> k.j.g ].",
"M.x.j.^.v.m.L.h V.k.l.9 /.w Q r ( -.m.C.0 Z., v.9 W.u 5.~ 6.` 7.` 7.` ) @.e L.M.M.k.(.v.T.y.<.&.{ e l.V.j.M.^.Q.M.Q.k.j.Z.j.0 Z.",
"M.h M.M.h k.g ^.0 k., Z.x.- { & ( ;.h j.W.v.c.9 z % C F ` ` I ^ I ) ) ~ S & * U.p 0 V.0 h y.8.- ! - c.x.M.M.v.c.k.0 Q.8 v.0 Y.M.",
"~., h V.M.(.k.j.V.W.j L.> o W ( @ 3.b.g M.h y P ) R Z Z W F C . V C G ^ V G W ( G i V.v.N.4.@ | ! o M.Z.5 h j.M.^.V.7 R.E.0 A.j.",
"j.V.l.L.h z.W.j.V.S.v.v.c.% @ U @ Z u :.N.e G ( ^ ) L / 6.I P ( ( / ^ 7.^ U ) ^ Q J 4 %.D.@ C ! V % m.c.v.E.W.h k.^.g Z.V.V.j.l.",
"g Z.z.Y.v.i u :.%.X.%.s i.L W 9X1XG T 7Xb [ U Z W I 9.6.W ,.7.7X:X_ _ ^ 7._ P P Z Q ] 5XU P 7.9X~ Y i._.:.%.:.a.q e l.l.h.l.v.7 ",
"Y.k.k.0 M.4 & / T W T uX} W yXVXiX_ P 7X{ m X . X O F P *X-X:X0X:X:X0.,XS C O . . - [ 7XI ..rXVXyX{ } wXW Q R ^ & p l.Q.7 v.> , ",
"Y., k.v.W.h.: & G qX:X .I R ..NXyX/ _ 0X5X& . @ V A $X~ S Z ,.,X6.6.V A  .~ A C O @ ,X9X7.| tXNX..R L  .:X0XZ & : M.h j.M.6 , M.",
"W.g Z.7 Z.j.8 9 x ).0X;X/ R R T I 6.2XF L C O L I %XaXBX%XI L T C S ~ iXBXpX$XI G O G L 2X,.L Y T R Q *X0X{.2 m.6 M.v.j.h !.6 M.",
"1 ^.h 6 k.M.v.W.l.L.r 8.>X6X7X6X5Xr.G . o J L L ~ &XBXVXrX~ F r.' I  .NXCXpX$XI L S @ . @ r.5X7X6X5X;X1.b 8 , z.h g Q.g Y.0 , Y.",
"7 W.7 v.F.7 L., 0 h 9 q T E 0.W P . . $ i O.W S I ~ $X%XL Z S -X,.I S ~ %X$XI P S U s.$ . X L W W W F * A.l.b.I.g ~., , x 5 M.L.",
"k.x 7 V.h V.M., g 3 b F 9.O.H P + $ w i j.e o X U U 7.=XF C ' =X6.( F P =XW W C . % x e w $ Z Y W _ H = c h M.h v.M., , , !.V.5 ",
"M.M.h m n x , k.f % P 0.7X0.P ; x x v., 0 p Y Z V . @ @ C C P >X6.U C C @ . O V G u v.0 j.0 4 u ! H 0.( - 2 M.v.x h v.0 M.M.j.7 ",
"I.p -.+.3.M U.b.z y E ,X,XU - i M.L.W.W.h x.r F F C C C F P U e.,.C L F C C Z G F i M.7 I.M., v H E 7X:XT y i L.v.Z.b., h h 5 (.",
"m $.X.;.1.1.8.;X+.' ' H P w k.6 !.g c.V.h C., q . @ O . . @ C 0.@ C O . . C X . e h ^.M.L.M.9 L.q = 7.5X0.D N.I.m.;.q.$.F.j.h C.",
"M.8 z.M.b =.2X! e.' 9.e.$ F.7 M.L.g M.7 ^.v.c.% . . . $ . . O 0.. . .   + X . . i x M.7 v.v.V.k.j.z T 6.H [ c.D.@.q.q.5.-.b ^.v.",
"R.g h V.).[.+.;XP 2.>X8.#.=.#.#.&.b Q.g V.g N.$ . X 5.#XE >.C = = D o.p.+XE . . * 0 V.j.M.3 R.h.j z.y D 6.6.3.;Xy.;.z T.Q.0 M.v.",
"7 Z.g ~.v D.;XP 9.,.H 4X$.1.1.1.O.c k.^.z.g b.X o A eXxX+XbXe.#X X3XbXeXxX8.B . o Y.l.g L.v N.b.N.8 -.2X7.' e.K [.`.g M.M.V.h l.",
"x.V.v =.$.#.K 0.,.T t.%.0 a =.$.U.j.l.T.6 T.c @ S { mXcXvXkXnXMXnXbXzXzXzXgXI S + M.Z.g b.3.0.q.q.q.@.0.>X2.W r.+.[.D.V.h.l.l., ",
"Y.0 b 1.1.s c ; ; 8X%.{ x.Y.7 v.h T.g j.W.V.e @ / ( .X X+X>.+XSXMXp..Xp..X4.( G + 0 M.h.v.c 5.5.%.x i 4XD ! r.P ;XD.b.G.j.x., , ",
"W.8 <.+.D.v., j.D.N.#.<.M Z.j.0 v.R.!.> l.h x - W L W U o.O./ uXwXH o.P R L ^ F r 5 V.j.S.9 v.x.6 j.-.5.y.! ,.e.t 4.r.3.c.1 , l.",
"T.&.b.9 C.h.6 j.c.M.$.1.&.L.W.v.h M.T.g , h W.v J _ _ ^ U L ( w.6.L G U | ( ( #.W.7 V.7 S.v.9 5 I.x.-.5.b.d.; ; 5 n 3.5.m G.j.l.",
"1 ^.7 , v.c.M.W.j.L.n <.3.8 S.0 g l.V.L.M.v.M.x.m :.| 8.7._ U -X) I ..*X6.[ *.B.7 9 M.1 j.W.h M.9 c q.5.].x n M.g h `.b =.8 6 Q.",
"c.Q.k.L.M.k.L., 0 0 c.H.+.c I.j.^.n.l.V.7 0 j.m.u u u 1.7.,X:X8X0X*X:X3.M c.M.F.V.j.I.M.~.h , 0 , *.q.-.!.M.M.H.k.~., , 8 5 !.V.",
"k.j.8 C.j.M.j.7 k.> Z.l.a c.7 7 L.g l.k.j.l.v.u ^ L R U W 5.' 9.9.( =.L.h j.c.Z.7 l.v.v.j.j.7 j.(.@.-.b.v.7 M.j.k.j.0 9 , ~.j., ",
"Y.v.c.h j.x , k.0 Z.k.C.0 Q.j.l.0 g v., j.x X.,.I I L G L F _ ' _ ( y #.r X.r s 5 l.h 5 c.j.9 l.Z.s B.j.c.8 j.h x h v.0 M.V.c.l.",
"S.5 N.A.Q.M.^.c.j.0 k., ].V.h x C.E.!.Q.j.a.7.;X/ _ 7.G F G *X*X*X9.J L ^ I L [ *.0 L.7 Q.M.8 V.7 0 ^.Q., ^.C.W.h W.k.7 j.j.5 ~.",
"0 v.0 E.x M.M.M.j.j.k.0 L.j.j.3 ^.j.v.M.c ! 5X5X<X:X/ Z . + ' 0.9.U S L S I I L T e U.l.M.V.5 Y.7 0 M.l.l.0 V.B.v.V.V.6 V.j.9 C.",
"L.5 v.V.l.M.7 L.v.h 7 ~.7 Q.g V.Y.g V.6 W.] 6X5X5X7.=   . . C P L . o F L ^ W I R Q n 8 l.j.L.9 b.Z.M.V.j.l.k.M.M.j.v.C.0 h Q.c.",
"L.v.v.M.k.W.V.j.V./.0 C.h.L.l.j.V.g ^.j.C.p # U W @ O o . w O F C + % . L ,.I 2X,.,.E 7 L., Y.h.v.k.C.A.c.T.M.M.A.V.g Y.T.j.v.M.",
", L.7 ^.j.h ~.h g C.v.x.l.1 (.7 T.g M.^.j 8 F ' ^ Z i U.c N.* $ $ i * . # <X2.0X[.2XM 0 V.l.l.c.V.6 v.7 V.k.^.c.h Z.h l.M.l.j.z.",
"l.V.h V.V.v.Z.j.Q.6 k.k.0 7 C.0 I.l.l.L.1 *.W ,X6.q.:.A.v.L.j.j.C.1 y o o T -X7X<X<.b.M.j.V.v.V.V.9 , Y.V.j.V.V.v.v.l.C.7 z.j.5 ",
"L.7 l.7 R., l.Z.v.k.k., V.Y.7 c.l.R.j.0 ~.:.L :X:X| 8.:.j.l.C.V.j !.x 8 0 r F W ' q M.h.Z.0 Z.v.0 0 , C.g l.1 L.6 C.M.M.M.h , 6 ",
"~., M.l.Y.h.> 0 k.k.E., V.Q.g j.j.T.^.3 h e + @ @ Z - z , k.C.(.g j.g k.C.u Z W ! q M.h Z.0 v.0 g v.M.Q., M.h C.6 h h M.x.k., l.",
"L.M.M., k.h.j.j.c.L.x 7 Z.C.^.M.h.j.T.g , r L ^ T S Z ] j.l.j.Y.j.3 < W.m.t._ :Xr.J c.j.C.M.0 5 B.j.j.Q.v.V., v.g j.k.k.v.c.g C.",
", Q.7 6 l.7 W.M.h V.h h W.> G.7 j.l.j.^.v J 7.8X:XQ G T y.).j.x.(.c.k.0 a.| r.,X0.1.D.h g ^.j.l.5 k.^.h.Q.0 5 M.8 v.Z.g M.6 g ^.",
"l.!.l.Z.v.v.L.3 0 6 C.W.l.M.F.j.^.M.V.n 2X=XU L P ,.;X' { '.V.S.z.6 h 0 b S Z Z C - B.M.R.j.> x 5 W.0 M.Q.k.v.n.l.R.5 > 8 7 ^.k.",
"g v.7 C.0 l.h c.v., Z.M.7 x h j.L.h N.4.! e.F 7.( U 8XQ ,.5.b.v.M.l.l.S.q C C S S - c c.0 l.j.g (.6 , h V., V.k.l.0 j.v., (.k., ",
"!.c.k.g j.B., l.9 V.v.A.c.^.h M.g g c.u.&.gXjX8.4XZXcXm s.Y n b.9 h '.3.G G _ 7X7XQ t 9 j.k.6 l.C.7 T.v.j.x 0 j.c.g v.6 l.v.c.C.",
"V.5 B.^.C.m.R.h v.h v.< ^.V.h x I.A.`.zXnXcXFXZXDXGXlXlXgXD.H.I.V.x.'.T W ) 7._ _ 6.U %.!.M.g ~.9 9 Z.I.1 W.Y.^.v.^.h j.C.j., Q.",
"g k.8 Z.h k.c.L.h v.h j L.j.h 3 ^.].`.OXH.G.lXFXFXZXG.c ].oXlXx.v.b.2.W 8.2XL 6.' T 2X! a.C., L.x v.V.j.M.0 v.x m.v.C., V.j.0 V.",
"~., v.l.M.Q.j.m.V.M.j.W.6 ^.h M.L.j.].fXZ.0 ].oXkXcX].k.fXOXx M.c tXP - ).DXsX0X8XhX'.o D 6 R., l.V.C.C.8 M.h V.I.M.j.Y.j.k.L.v.",
"Z.v.v.V.k.L.V.k.V.L.h V.z.Z.M.g V.g ~.j.M.F.zXGXGXcXA.Y.V.z.h ~., z.q Z.P.FXGXjXjXFX`.7 W.5 T.j.V.0 Z.V.k./.V.h.M.L.7 L.L.j.c.V.",
"5 L.k.W.k.h.T.x.l.C.l.j.l., R.k.^.g M.T.j.h I.kXkXM.g /.l.^.6 M.C.j.g T.v.fXFXGXGXkXZ.5 V.M.k.g V.j.j.j.M.M.Z.M.h C.c.v.j.M.k.k.",
"M.M.0 C.v.l.L.7 /., l.h j.h.M.h Z.z.j.J.6 ~.j.k.x.M.l.k.l.C.h.j.z.1 L.l.0 j.oXOXOXM.C.k.h M.V.k.V.6 , L.M.h V.V.M.k.k.T.1 M.7 , ",
"L.1 v.j.R., v.C.j.l.h , T.L.g j.M.R.M.h T.k.k.j.7 ^.M.h.7 M.V.L.j.I.l.g j.9 L.j.l.1 V.h !.k.m.M.7 h 6 L.7 l.j.L., T.l.j.V.7 , j.",
"~., V.j Y.l.> j.v.k.W.1 M.~.j.j.j.L.^., g h M.W.h V.W.V., j.V.(.g h , M.C.l.L.V.L., l.j.L.j.k.6 v.x.k.R.7 Z.7 V.6 j 0 l.x V., M.",
"c.L.m., h V.h v.k.W.0 7 ^.v.^.v.j.h L.h.1 g I.0 h ~.V.].j.M.h L.l.< 1 F.0 v.Z.A.`.{.M.j.l.V.h j.v.g M.M.m.m., c.v.h V.j.T.x 6 Z.",
", W., 6 M.5 ~.0 0 v.h x Y., L., j.l.j.(.h b.lXfXAXoX7 G.7 M.v.j.(.h x j.l.OXZXAXAXfXL.h v.T.j.h > k.(.h L.j.6 L.1 V.M.g c., j.^.",
"M.F.k.Z.M.M.Z.5 h 1 W.L.h C.b.x.~.l.V.A.h k.j.@XoXj W.c.x Q.M.C.l.g j.h (.x.oXGXcXh B.M.L.j., g 7 ^.5 V.I.k.k.x.V.L.5 3 8 h.W.0 ",
"h k.9 C.h k.7 v.c.g V.l.9 0 x.x.Z.0 v.0 j.l.C.h l.0 c.g v.C.h j.l.l.k.T.6 j.c.].x v.C.j.h v.k.j.(., , x V.5 V.k.c.7 M.j.7 ^.j.5 ",
"!.g M.7 v.!.5 v.9 v.v.c.A.^.7 v.0 l.F.6 j.c.V.A.OXx.V.1 k.j.6 v.j.0 l.V.k.Z.7 h j.0 v.h 0 k., M.v.j.^.v.h x.7 l.L.j.v.5 l.c.j.^.",
"V.6 m.^.v.v.L.0 V.v.v.5 (.v.x.0 Y.j.v.V.p Z., M.'.(.v.V.8 T.j.I.v.0 ~.1 k.k.L.j.L.k.(.v.^.l.c.~.9 h C.V.6 I.^.^.v.^.0 v.Z.h 6 L.",
"j.k.k.V.0 k.h Q.9 c.5 V.A.V.0 g W.0 g k.L.v.j.H.kXM.Q.p , W.h 0 M.v.L.0 L.M.j.^.j.5 N.j.0 Z.1 L.h L.M.h V.j.k.x v.0 Q., M.0 C.V.",
"^., c.l.v.(.v.k.V.V.v.L., (.0 v.Z.j.Y.j.M.h A.V.]., Z.x.h L.7 V.1 Z., M.M.(.j.v.j.0 A.k.V., W.6 v.V.L.L.1 k.0 V.^.v.7 W.V.x.V.v."
};
