/* XPM */
static char *_b0c94863ec14632c3e5e1e6dcdd2fb0YvJKWW9BSsdNSeCo[] = {
/* columns rows colors chars-per-pixel */
"64 64 222 2 ",
"   c #1D1D1D",
".  c #320402",
"X  c #3C0604",
"o  c #380B08",
"O  c #380C0A",
"+  c #380D0C",
"@  c #261B1A",
"#  c #29231E",
"$  c #3A291C",
"%  c #1D1F20",
"&  c #1F2021",
"*  c #222222",
"=  c #2B2621",
"-  c #262827",
";  c #2B2824",
":  c #2B2B2B",
">  c #332824",
",  c #3D2C23",
"<  c #38322A",
"1  c #343434",
"2  c #3A3734",
"3  c #3B3B3B",
"4  c #470906",
"5  c #550D08",
"6  c #47180B",
"7  c #441914",
"8  c #6C150F",
"9  c #78160E",
"0  c #4C2511",
"q  c #593518",
"w  c #432F24",
"e  c #452E25",
"r  c #423321",
"t  c #483527",
"y  c #573B2C",
"u  c #483D36",
"i  c #463D3C",
"p  c #6A3B2B",
"a  c #6D481C",
"s  c #71471A",
"d  c #754C1C",
"f  c #7A4D1D",
"g  c #79501F",
"h  c #48423B",
"j  c #53443A",
"k  c #5E4E3C",
"l  c #6A4523",
"z  c #724D22",
"x  c #7A5221",
"c  c #7E592B",
"v  c #3D3F40",
"b  c #454545",
"n  c #494846",
"m  c #4A4A4A",
"M  c #504E4C",
"N  c #52524C",
"B  c #5E534C",
"V  c #5C5C5C",
"C  c #685D57",
"Z  c #646356",
"A  c #636459",
"S  c #6C635C",
"D  c #737350",
"F  c #5F5F60",
"G  c #666665",
"H  c #696967",
"J  c #777267",
"K  c #7C7C7D",
"L  c #881911",
"P  c #971E14",
"I  c #A21A0F",
"U  c #A61F14",
"Y  c #982A1A",
"T  c #A52116",
"R  c #AA2217",
"E  c #AC2318",
"W  c #B82A1B",
"Q  c #8F2F25",
"!  c #BA392E",
"~  c #C72A1D",
"^  c #D32D1F",
"/  c #D92E1F",
"(  c #E9301F",
")  c #C63326",
"_  c #C73529",
"`  c #DF3121",
"'  c #E93424",
"]  c #EA3F30",
"[  c #83461E",
"{  c #81501E",
"}  c #854925",
"|  c #944924",
" . c #835728",
".. c #985627",
"X. c #925038",
"o. c #A44F29",
"O. c #B95C2E",
"+. c #8A673C",
"@. c #917137",
"#. c #BC632D",
"$. c #B36834",
"%. c #C6622E",
"&. c #DC6B2F",
"*. c #CA6731",
"=. c #D46932",
"-. c #DB6A31",
";. c #DF753C",
":. c #E46E31",
">. c #EA6F30",
",. c #EC7437",
"<. c #8B5A45",
"1. c #B8594C",
"2. c #8E6A41",
"3. c #8B724C",
"4. c #997A55",
"5. c #9B7D59",
"6. c #8D7A74",
"7. c #BE7562",
"8. c #ED5E52",
"9. c #DA7945",
"0. c #CC7055",
"q. c #ED7B42",
"w. c #F07165",
"e. c #87824F",
"r. c #AA8A5D",
"t. c #8C8A68",
"y. c #9B8678",
"u. c #94947B",
"i. c #A68866",
"p. c #A98E6F",
"a. c #B38873",
"s. c #AC9677",
"d. c #B39779",
"f. c #B1A57F",
"g. c #EE834C",
"h. c #F1824B",
"j. c #EA8A5A",
"k. c #D4936E",
"l. c #F09B70",
"z. c #F1A37C",
"x. c #E9D364",
"c. c #FDE678",
"v. c #868684",
"b. c #8B8B8B",
"n. c #959593",
"m. c #9A9A9A",
"M. c #B59E83",
"N. c #B0998E",
"B. c #AD9691",
"V. c #A6A68C",
"C. c #B9A783",
"Z. c #BAA58D",
"A. c #B8B289",
"S. c #A8A19E",
"D. c #B9A791",
"F. c #BDA991",
"G. c #B9B994",
"H. c #A6A5A5",
"J. c #B9ABA9",
"K. c #B4B3B3",
"L. c #BCBCBB",
"P. c #C19E85",
"I. c #F3958D",
"U. c #C6A083",
"Y. c #C2AD99",
"T. c #C2B395",
"R. c #ECA78E",
"E. c #F5B697",
"W. c #D3ABA1",
"Q. c #CAB8A7",
"!. c #D6BBA9",
"~. c #DBBCAE",
"^. c #C7BAB9",
"/. c #D8BFB4",
"(. c #E3BAA8",
"). c #F8BEB2",
"_. c #D5D58B",
"`. c #C8C69C",
"'. c #F7F090",
"]. c #CDCDA2",
"[. c #CFC0AF",
"{. c #D6D6A9",
"}. c #D8D7A9",
"|. c #C1C1BF",
" X c #D5C5B6",
".X c #DDDDB8",
"XX c #F2C4AE",
"oX c #E8C6B9",
"OX c #F7C9B9",
"+X c #F5CDBA",
"@X c #FCFCA5",
"#X c #EEEDB6",
"$X c #C5C5C5",
"%X c #CFC4C4",
"&X c #CBCCCC",
"*X c #D5CAC6",
"=X c #DDD3C7",
"-X c #D4D4D4",
";X c #DAD5D3",
":X c #DDDDDD",
">X c #F1CCC6",
",X c #F7D4C4",
"<X c #F9D5C5",
"1X c #F9D8C9",
"2X c #E4DBD2",
"3X c #E2DBDB",
"4X c #FADAD3",
"5X c #E3E4C9",
"6X c #E8E5D6",
"7X c #FBE4D8",
"8X c #FEF7D7",
"9X c #E4E4E4",
"0X c #EDE9E4",
"qX c #EBEBEB",
"wX c #F8ECE5",
"eX c #F2EEE9",
"rX c #F9F5EB",
"tX c #F4F3F3",
"yX c #FAF6F5",
"uX c #FBFAF7",
"iX c #FDFDFD",
"pX c #FFFFFFFD",
/* pixels */
"pXpXpXpXpXpXpXpXpXpXpXpXpXpXpXpXpXpXpXpXpXpXpXpXpXpXpXpXpXpXpXpXpXpXpXpXpXpXpXpXpXpXpXpXpXpXpXpXpXpXpXpXpXpXpXpXpXpXpXpXpXpXpXpX",
"pXpXpXpXpXpXpXpXpXpXpXpXpXpXpXpXpXpXpXpXpXpXpXpXpXpXpXpXpXpXpXpXpXpXpXpXpXpXpXpXpXpXpXpXpXpXpXpXpXpXpXpXpXpXpXpXpXpXpXpXpXpXpXpX",
"pXpXpXpXpXpXpXpXpXpXpXpXpXpXpXpXpXpXpXpXpXpXpXpXpXpXpXpXpXpXiXiXpXpXpXpXpXpXpXpXpXpXpXpXpXpXpXpXpXpXpXpXpXpXpXpXpXpXpXpXpXpXpXpX",
"pXpXpXpXpXpXpXpXpXpXpXpXpXpXpXpXpXpXpXpXpXpXpXpXpXiX:X:X:X:X:X:X:X:X:X:XtXpXpXpXpXpXpXpXpXpXpXpXpXpXpXpXpXpXpXpXpXpXpXpXpXpXpXpX",
"pXpXpXpXpXpXpXpXpXpXpXpXpXpXpXpXpXpXpXpXpXpXiXiXpX9XV m m m m m m m n m &XpXpXpXpXpXpXpXpXpXpXpXpXpXpXpXpXpXpXpXpXpXpXpXpXpXpXpX",
"pXpXpXpXpXpXpXpXpXpXpXpXpXpXpXpXpXpXpXpXpXpXpXiX:XL.A A G G H H A Z G G K.-XqXpXpXpXpXpXpXpXpXpXpXpXpXpXpXpXpXpXpXpXpXpXpXpXpXpX",
"pXpXpXpXpXpXpXpXpXpXpXpXpXpXpXpXpXpXpXpXpXpXpXtXG V `.{.eXtXuXtX#X@XrXtXK b K.pXpXpXpXpXpXpXpXpXpXpXpXpXpXpXpXpXpXpXpXpXpXpXpXpX",
"pXpXpXpXpXpXpXpXpXpXpXpXpXpXpXpXpXpXpXpXpXyX-X$XJ J .X5XiXiX8X8X@X@XrXiXK 3 K.pXpXpXpXpXpXpXpXpXpXpXpXpXpXpXpXpXpXpXpXpXpXpXpXpX",
"pXpXpXpXpXpXpXpXpXpXpXpXpXpXpXpXpXpXpXpXpX9XV M G..XpXpXpXpXc.x.'.@XrXpXK 3 K.pXpXpXpXpXpXpXpXpXpXpXpXpXpXpXpXpXpXpXpXpXpXpXpXpX",
"pXpXpXpXpXpXpXpXpXpXpXpXpXpXpXpXpXpXpX9Xm.n.u.u.5X5Xm.n.b.t.e.@.e.t.u.b.n : G b.v.v.-XpXpXpXpXpXpXpXpXpXpXpXpXpXpXpXpXpXpXpXpXpX",
"pXpXpXpXpXpXpXpXpXpXpXpXpXpXpXpXpXpXpX-Xb N ]..XiX9Xm 3 #   % % % %     & * @       H.pXpXpXpXpXpXpXpXpXpXpXpXpXpXpXpXpXpXpXpXpX",
"pXpXpXpXpXpXpXpXpXpXpXpXpXpXpXpXpXtXm.b.u.V.6X6Xm.K 1 : * % * * & % %   % * * * * * V K L.pXpXpXpXpXpXpXpXpXpXpXpXpXpXpXpXpXpXpX",
"pXpXpXpXpXpXpXpXpXpXpXpXpXpXpXpXpX9XM A {.5XpXtXV 2 *   * * * & & * & * & * * * * *     b.pXpXpXpXpXpXpXpXpXpXpXpXpXpXpXpXpXpXpX",
"pXpXpXpXpXpXpXpXpXpXpXpXpXpXpXpXpXqXN A {.].b.t.3 : 1 1 * * * * : 1 - * & @ & & & * &   n.pXpXpXpXpXpXpXpXpXpXpXpXpXpXpXpXpXpXpX",
"pXpXpXpXpXpXpXpXpXpXpXpXpXpXpXpXqX-XV H {.`.n 3 - - 3 3 * * @ * 1 3 - & * * - - * * : 2 m.pXpXpXpXpXpXpXpXpXpXpXpXpXpXpXpXpXpXpX",
"pXpXpXpXpXpXpXpXpXpXpXpXpXpXpX:XV A G.].{.`.m 3 3 3 - * * * * * - - & & & & : 3 -   m.9XtXpXpXpXpXpXpXpXpXpXpXpXpXpXpXpXpXpXpXpX",
"pXpXpXpXpXpXpXpXpXpXpXpXpXpXpX-Xb N ].{.`.A.b 3 3 3 * * & * * & > > # % > , 2 3 3 3 K.pXpXpXpXpXpXpXpXpXpXpXpXpXpXpXpXpXpXpXpXpX",
"pXpXpXpXpXpXpXpXpXpXpXpXpXpXpX:Xb N ].G.N b : & * * * * & & & * ..=.r @ o.-.l - K.qXyXpXpXpXpXpXpXpXpXpXpXpXpXpXpXpXpXpXpXpXpXpX",
"pXpXpXpXpXpXpXpXpXpXpXpXpXpXpX-Xb N ].G.b 3 * & * * * * , , = & ..%.y w o.*.p % $XpXpXpXpXpXpXpXpXpXpXpXpXpXpXpXpXpXpXpXpXpXpXpX",
"pXpXpXpXpXpXpXpXpXpXpXpXpXpXpX-Xn N ].G.b 3 - & * & % > %.=.w   @ > O.=.p ; @ * $XpXpXpXpXpXpXpXpXpXpXpXpXpXpXpXpXpXpXpXpXpXpXpX",
"pXpXpXpXpXpXpXpXpXpXpXpXpXpXpX-Xn b u.t.1 1 & & * = p } :.>.6.K K 6.k.z.y.K K v.:XpXpXpXpXpXpXpXpXpXpXpXpXpXpXpXpXpXpXpXpXpXpXpX",
"pXpXpXpXpXpXpXpXpXpXpXpXpXpXpX-Xb 3 3 2 %   * * * w :.>.>.,.7XpXpXpX4X,XyXiXpXpXpXpXpXpXpXpXpXpXpXpXpXpXpXpXpXpXpXpXpXpXpXpXpXpX",
"pXpXpXpXpXpXpXpXpXpXpXpXpXpXpX0Xm.n.<.<.6.S - * % w -.,.l.z.7XpXK.m.oX,XJ.n.-XpXpXpXpXpXpXpXpXpXpXpXpXpXpXpXpXpXpXpXpXpXpXpXpXpX",
"pXpXpXpXpXpXpXpXpXpXpXpXpXpXpXpXpXrXh.g.,X~.< * * t -.q.XX<XyXpXH * Q.,XB   H.pXpXpXpXpXpXpXpXpXpXpXpXpXpXpXpXpXpXpXpXpXpXpXpXpX",
"pXpXpXpXpXpXpXpXpXpXpXpXpXpXpXwXE.R.$.0.,X!.< % % e -.q.XX1XyXpXH ; Q.,XB   H.pXwXwX!.Z.=XpXpXpXpXpXpXpXpXpXpXpXpXpXpXpXpXpXpXpX",
"pXpXpXpXpXpXpXpXpXpXpXpXpXpXpX7X,.-.{ 3.+X!.1 @ % e :.q.XX1XyXpXH - W.<XB   H.pX7X,Xr.s Z.iXpXpXpXpXpXpXpXpXpXpXpXpXpXpXpXpXpXpX",
"pXpXpXpXpXpXpXpXpXpXpXpXpXpXiX7Xq.&.{ @.l.k.: @ * = p X.XX,X7X7X7.X.k.l.a.y./.7X1X<Xr.d Y.pXpXpXpXpXpXpXpXpXpXpXpXpXpXpXpXpXpXpX",
"pXpXpXpXpXpXpXpXpXpXpXpXpXpXiX7Xh.;...o.>.*.w = # * : 3 ~.<XoXoXj.-.:.:.E.,X+X+XOXOX5.d Z.pXpXpXpXpXpXpXpXpXpXpXpXpXpXpXpXpXpXpX",
"pXpXpXpXpXpXpXpXpXpXpXpXpXpXpXyX8X,X9.:.>.>.*.O.> 3 Y.!.>X+XS i t r x ..9.g.g.g.g.g.$.d F.pXpXpXpXpXpXpXpXpXpXpXpXpXpXpXpXpXpXpX",
"pXpXpXpXpXpXpXpXpXpXpXpXpXpXpXpXpXwX9.-.=.-.&.=.t j XX+XoX~.b   & * l z O.=.&.=.=.&...a D.pXpXpXpXpXpXpXpXpXpXpXpXpXpXpXpXpXpXpX",
"pXpXpXpXpXpXpXpXpXpXpXpXpXpXpXpXpX9Xj $ , w , t O.=.h.9.u 3 - @ & * = = , , , , , w > # n.pXpXpXpXpXpXpXpXpXpXpXpXpXpXpXpXpXpXpX",
"pXpXpXpXpXpXpXpXpXpXpXpXpXpXpXiXqX-Xm 1 - = = > %.:.>.&.y 1 2 2 - * & * & & & & & & # # n.pXpXpXpXpXpXpXpXpXpXpXpXpXpXpXpXpXpXpX",
"pXpXpXpXpXpXpXpXpXpXpXpXpXpXpX:XV H :XQ.z a a a f ..:.q.(. XoX~.B   &     & & & % & q s D.pXpXpXpXpXpXpXpXpXpXpXpXpXpXpXpXpXpXpX",
"pXpXpXpXpXpXpXpXpXpXpXpXpXpXpX-Xn N J.Q.p.p.p.p.p.i.*.*.z.E.OX<Xy.C S C C S j w r r D p.F.[.0XpXpXpXpXpXpXpXpXpXpXpXpXpXpXpXpXpX",
"pXpXpXpXpXpXpXpXpXpXpXpXpXpXpX-Xm h a 4.iXpXpXpXpX6Xc { &.,.XX<X1X<X<X<X<X<Xr.s x z Q.pXF.d  XpXpXpXpXpXpXpXpXpXpXpXpXpXpXpXpXpX",
"pXpXpXpXpXpXpXpXpXpXpXpXpXpXpX;Xk k p.Y.iXpXpXpXpXeXC.d.#.#.a.N.B.N.P.U.U.U.d.d.+.x Q.pX Xs.Y.Q.2XpXpXpXpXpXpXpXpXpXpXpXpXpXpXpX",
"pXpXpXpXpXpXpXpXpXpXpXpXpXpXpX2Xc +.0XpXpXpXpXpXpXpXpXeX2.z h i 3 h l d f f Q.pX5.z !.pXpXpXp.d Y.pXpXpXpXpXpXpXpXpXpXpXpXpXpXpX",
"pXpXpXpXpXpXpXpXpXpXpXpXpXpXpX2Xc +.eXpXpXpXpXpXpXpXpXeX@.x t > > w y.C.M.M.F.Y.M.M.2XpXpXiXp.d Y.pXpXpXpXpXpXpXpXpXpXpXpXpXpXpX",
"pXpXpXpXpXpXpXpXpXpXpXpXpXpXpX2X .+.0XpXiXpXpXpXpXpXpX0X2.x 6 o . 7 *XpXiXpXd.x =XpXpXpXiXyXp.x Y.pXpXpXpXpXpXpXpXpXpXpXpXpXpXpX",
"pXpXpXpXpXpXpXpXpXpXpXpXpXpXpXtX=X Xi.M.iXpXpXpXpX0Xi.i.f.A.M.d.X.L 1.1.(.5X`.T.7.1.oXiXQ.r.T.=X0XpXpXpXpXpXpXpXpXpXpXpXpXpXpXpX",
"pXpXpXpXpXpXpXpXpXpXpXpXpXpXpXpXpXqX+.4.tXtXyXyXpX2Xc  .`.{.{.}.1.U U U U.{.{.].1.I W.pXZ.x  XpXpXpXpXpXpXpXpXpXpXpXpXpXpXpXpXpX",
"pXpXpXpXpXpXpXpXpXpXpXpXpXpXpXpXpXiX2X[.r.4.4.4.4.3.j h V Z A A ! ^ / / <.S C C Q I X.4.F.2XtXiXpXpXpXpXpXpXpXpXpXpXpXpXpXpXpXpX",
"pXpXpXpXpXpXpXpXpXpXpXpXpXpXpXpXpXpXpX=Xx d d f f z i i u i i u ! ] ] ] p i i i Y R |  .T.tXpXpXpXpXpXpXpXpXpXpXpXpXpXpXpXpXpXpX",
"pXpXpXpXpXpXpXpXpXpXpXpXpXpXpXpXpXpXpX%X7 6 Y T T Y Q Y ! ) _ _ R.4X4X4X0.) _ ) | { r.'.t.m $XpXpXpXpXpXpXpXpXpXpXpXpXpXpXpXpXpX",
"pXpXpXpXpXpXpXpXpXpXpXpXpXpXpXpXpXpXpX%X+ X L L P T U R ` ( ' ' >XiXiXpXw.( / / | f r._.D   b.&X9XpXpXpXpXpXpXpXpXpXpXpXpXpXpXpX",
"pXpXpXpXpXpXpXpXpXpXpXpXpXpXpXpXpXpXpX%X+ . . X P U T R ` ' ' ' ).iXiXiXw.( ~ R [ x t - # * - - m.pXpXpXpXpXpXpXpXpXpXpXpXpXpXpX",
"pXpXpXpXpXpXpXpXpXpXpXpXpXpXpXpXpXyX&Xn.o . . X P U U R ` ' ' ' I.>X>X).8.( W Y [ x r & & & -   m.pXpXpXpXpXpXpXpXpXpXpXpXpXpXpX",
"pXpXpXpXpXpXpXpXpXpXpXpXpXpXpXpXpX9X3 @ . . . X P R R R ` ' ' ' ' ' ' ' ' ' o.x x x r   & & *   m.pXpXpXpXpXpXpXpXpXpXpXpXpXpXpX",
"pXpXpXpXpXpXpXpXpXpXpXpXpXpXpXtX$XS.h $ . . . X 8 L T R ~ ^ ^ ^ ` ' ' ' W R | x x x r & * & % @ m.pXpXpXpXpXpXpXpXpXpXpXpXpXpXpX",
"pXpXpXpXpXpXpXpXpXpXpXpXpXpXpX&X: ; d a . . . . . 4 P T R R T T ^ ' ' ' 8 . q x x x r & * * *   m.pXpXpXpXpXpXpXpXpXpXpXpXpXpXpX",
"pXpXpXpXpXpXpXpXpXpXpXpXpXpXpX-X: ; z a 0 6 . . . 4 9 9 9 9 P R ^ ( E U 5 . 0 q z x r & * & *   m.pXpXpXpXpXpXpXpXpXpXpXpXpXpXpX",
"pXpXpXpXpXpXpXpXpXpXpXpXpXpXpX&X: # z x d s o . . . . . . X L T ^ ` 5 . . . @ * l x r & * * *   m.pXpXpXpXpXpXpXpXpXpXpXpXpXpXpX",
"pXpXpXpXpXpXpXpXpXpXpXpXpXpXpX-X: # x x x d a q X . . . . . 5 5 8 9 B.J.J.J.K.K.B $ = * * * *   m.pXpXpXpXpXpXpXpXpXpXpXpXpXpXpX",
"pXpXpXpXpXpXpXpXpXpXpXpXpXpXpX&X: # z x x x z z O . . . . . . . . + -XpXpXpXpXpXV & * * * * * * n.iXpXpXpXpXpXpXpXpXpXpXpXpXpXpX",
"pXpXpXpXpXpXpXpXpXpXpXpXpXpXpX-X- # d @.x.f.t t S.S.O . . . . . 6.^.tXpXpXpXpXpX&XL.V & * * v.$X9XpXpXpXpXpXpXpXpXpXpXpXpXpXpXpX",
"pXpXpXpXpXpXpXpXpXpXpXpXpXpXpX-X1 < a 3.@X_.2 2 0X3X7 O O O O O ^.pXpXpXpXpXpXpXpXpXK * - - K.pXpXpXpXpXpXpXpXpXpXpXpXpXpXpXpXpX",
"pXpXpXpXpXpXpXpXpXpXpXpXpXpXpXtX&XK.u < k Z L.&XyXyX%X^.%X^.%X^.qXpXpXpXpXpXpXpXpXpX:X$X$X$XqXpXpXpXpXpXpXpXpXpXpXpXpXpXpXpXpXpX",
"pXpXpXpXpXpXpXpXpXpXpXpXpXpXpXpXpXqXV b b G tXpXpXpXpXpXpXpXpXpXpXiXpXpXpXpXpXpXpXpXpXpXpXpXpXpXpXpXpXpXpXpXpXpXpXpXpXpXpXpXpXpX",
"pXpXpXpXpXpXpXpXpXpXpXpXpXpXpXpXpXiXtXtXtXtXiXpXpXpXpXpXpXpXpXpXpXpXpXpXpXpXpXpXpXpXpXpXpXpXpXpXpXpXpXpXpXpXpXpXpXpXpXpXpXpXpXpX",
"pXpXpXpXpXpXpXpXpXpXpXpXpXpXpXpXpXpXiXpXiXiXpXpXpXpXpXpXpXpXpXpXpXpXpXpXpXpXpXpXpXpXpXpXpXpXpXpXpXpXpXpXpXpXpXpXpXpXpXpXpXpXpXpX",
"pXpXpXpXpXpXpXpXpXpXpXpXpXpXpXpXpXpXpXpXpXpXpXpXpXpXpXpXpXpXpXpXpXpXpXpXpXpXpXpXpXpXpXpXpXpXpXpXpXpXpXpXpXpXpXpXpXpXpXpXpXpXpXpX",
"pXpXpXpXpXpXpXpXpXpXpXpXpXpXpXpXpXpXpXpXpXpXpXpXpXpXpXpXpXpXpXpXpXpXpXpXpXpXpXpXpXpXpXpXpXpXpXpXpXpXpXpXpXpXpXpXpXpXpXpXpXpXpXpX",
"pXpXpXpXpXpXpXpXpXpXpXpXpXpXpXpXpXpXpXpXpXpXpXpXpXpXpXpXpXpXpXpXpXpXpXpXpXpXpXpXpXpXpXpXpXpXpXpXpXpXpXpXpXpXpXpXpXpXpXpXpXpXpXpX",
"pXpXpXpXpXpXpXpXpXpXpXpXpXpXpXpXpXpXpXpXpXpXpXpXpXpXpXpXpXpXpXpXpXpXpXpXpXpXpXpXpXpXpXpXpXpXpXpXpXpXpXpXpXpXpXpXpXpXpXpXpXpXpXpX"
};
