/* XPM */
static char *result[] = {
/* columns rows colors chars-per-pixel */
"76 100 239 2 ",
"   c #0D0F0F",
".  c #0F1010",
"X  c #141414",
"o  c #171719",
"O  c #1A1919",
"+  c #241816",
"@  c #221C1B",
"#  c #3D1310",
"$  c #29211E",
"%  c #210C33",
"&  c #272525",
"*  c #352522",
"=  c #393838",
"-  c #4A0E09",
";  c #550A05",
":  c #540B07",
">  c #590D06",
",  c #5A0F09",
"<  c #48110D",
"1  c #50100B",
"2  c #5C120C",
"3  c #520D10",
"4  c #471A15",
"5  c #5A1515",
"6  c #76160D",
"7  c #611C15",
"8  c #7C1A10",
"9  c #59251E",
"0  c #65241D",
"q  c #75311F",
"w  c #521836",
"e  c #4B2C27",
"r  c #58322C",
"t  c #533534",
"y  c #682B24",
"u  c #722B2A",
"i  c #6C332B",
"p  c #6A352C",
"a  c #763728",
"s  c #663931",
"d  c #6E3B32",
"f  c #643538",
"g  c #6D3C3C",
"h  c #723D34",
"j  c #793C30",
"k  c #6F4C3A",
"l  c #754136",
"z  c #7A483A",
"x  c #090756",
"c  c #0F0B50",
"v  c #00015D",
"b  c #2E114E",
"n  c #2F294E",
"m  c #010362",
"M  c #03056A",
"N  c #060973",
"B  c #131074",
"V  c #2F1B79",
"C  c #2E2C6E",
"Z  c #212372",
"A  c #22247B",
"S  c #4B3359",
"D  c #6A3C45",
"F  c #4A356A",
"G  c #623C7C",
"H  c #454443",
"J  c #494A4A",
"K  c #544846",
"L  c #595656",
"P  c #72514A",
"I  c #5F5865",
"U  c #696665",
"Y  c #6B6B6B",
"T  c #7B7172",
"R  c #871B11",
"E  c #9A1E13",
"W  c #A01D0E",
"Q  c #A11F11",
"!  c #8C2D1C",
"~  c #9C2418",
"^  c #A22315",
"/  c #AA2516",
"(  c #A7271A",
")  c #A42B1D",
"_  c #B22819",
"`  c #BC2A1B",
"'  c #863B28",
"]  c #933326",
"[  c #A83628",
"{  c #AC3A2D",
"}  c #B53427",
"|  c #AA3D32",
" . c #C32B1C",
".. c #CB2D1E",
"X. c #D02F1F",
"o. c #D22F20",
"O. c #CA3425",
"+. c #DE3222",
"@. c #D93425",
"#. c #E63424",
"$. c #E93424",
"%. c #E53728",
"&. c #E43B2C",
"*. c #854D3A",
"=. c #88523E",
"-. c #A3412C",
";. c #9B623B",
":. c #B2633B",
">. c #C84937",
",. c #DC4839",
"<. c #DD4A3C",
"1. c #D0593A",
"2. c #E04233",
"3. c #814D4B",
"4. c #895543",
"5. c #945B47",
"6. c #875854",
"7. c #AD5348",
"8. c #B55549",
"9. c #956249",
"0. c #9C684C",
"q. c #8D6559",
"w. c #A46947",
"e. c #A16C4E",
"r. c #A8774C",
"t. c #A26E50",
"y. c #B86751",
"u. c #A57252",
"i. c #A87959",
"p. c #946964",
"a. c #906D68",
"s. c #9A7772",
"d. c #A87C65",
"f. c #BF7067",
"g. c #BF7169",
"h. c #AE7770",
"j. c #CC4B40",
"k. c #DA4E41",
"l. c #CB5848",
"z. c #DA5043",
"x. c #D85647",
"c. c #CB714E",
"v. c #C77A70",
"b. c #A7805C",
"n. c #B38356",
"m. c #BC8D55",
"M. c #BD9056",
"N. c #9C867D",
"B. c #B58964",
"V. c #B38A6E",
"C. c #AA8C78",
"Z. c #B48B73",
"A. c #C1945A",
"S. c #C7996A",
"D. c #C69077",
"F. c #CFA26F",
"G. c #D8AD77",
"H. c #DCB276",
"J. c #DDB27C",
"K. c #E2B87C",
"L. c #040889",
"P. c #131689",
"I. c #060B97",
"U. c #1E228B",
"Y. c #332C8C",
"T. c #0E12B2",
"R. c #2A2AAA",
"E. c #282AB9",
"W. c #5E339F",
"Q. c #4A37B1",
"!. c #4B4B8A",
"~. c #656491",
"^. c #6E57A8",
"/. c #0C14CB",
"(. c #050FD5",
"). c #0710D6",
"_. c #0912D7",
"`. c #1921D4",
"'. c #3937C8",
"]. c #2A2ED5",
"[. c #292EDA",
"{. c #3538D9",
"}. c #3A3DDE",
"|. c #3439E1",
" X c #393DE1",
".X c #423DC6",
"XX c #3C40E4",
"oX c #5050DA",
"OX c #4C50E1",
"+X c #8676B8",
"@X c #8074C1",
"#X c #878787",
"$X c #968A8A",
"%X c #998E8C",
"&X c #9B908F",
"*X c #999495",
"=X c #B1958F",
"-X c #AA9C9A",
";X c #BAA09D",
":X c #A99FA7",
">X c #A9A8A8",
",X c #B8A7A4",
"<X c #B8B6B5",
"1X c #C58781",
"2X c #C88A83",
"3X c #CE9993",
"4X c #D2A998",
"5X c #E7B999",
"6X c #CEACA8",
"7X c #C8BCB9",
"8X c #DABAB6",
"9X c #ECC588",
"0X c #F6CE8E",
"qX c #F7D08F",
"wX c #F8D18F",
"eX c #FAD391",
"rX c #D1C0BC",
"tX c #C8C7C7",
"yX c #D8C7C5",
"uX c #D5CDD4",
"iX c #D9D3D3",
"pX c #D6D6DE",
"aX c #DCDBDB",
"sX c #E4D8D5",
"dX c #E5DDDD",
"fX c #F6D8D5",
"gX c #E9E1DC",
"hX c #D2CFE1",
"jX c #DADAE2",
"kX c #E6E4E4",
"lX c #E9E5E5",
"zX c #E9E8E8",
"xX c #FFECECEC",
"cX c #F1EDED",
"vX c #EDEFF0",
"bX c #EEF1F1",
"nX c #F2F2F1",
"mX c #F9F7F7",
"MX c #FEFEFE",
/* pixels */
"xXxXxXxXxXxXxXxXxXxXxXxXxXxXxXxXxXxXxXxXxXxXxXxXxXxXxXxXxXxXxXxXxXxXxXxXxXxXxXxXxXxXxXxXxXxXxXxXxXxXxXxXxXxXxXxXxXxXxXxXxXxXzXxXxXxXxXxXxXxXxXxXxXxXxXxX",
"xXxXxXxXxXxXxXxXxXxXxXxXxXxXxXxXxXxXxXxXxXxXxXxXxXxXxXxXxXxXxXxXxXxXxXxXxXxXxXxXxXxXxXxXxXxXxXxXxXxXxXxXxXxXxXxXxXxXxXxXxXxXxXxXxXxXxXxXxXxXxXxXxXxXxXxX",
"xXxXxXxXxXxXxXxXxXxXxXxXxXxXxXxXxXxXxXxXxXxXxXxXxXxXxXxXxXxXxXxXxXxXxXxXxXxXxXxXxXxXxXxXxXxXxXxXxXxXxXxXxXxXxXxXxXxXxXxXxXxXxXxXxXxXxXxXxXxXxXxXxXxXxXxX",
"xXxXxXxXxXxXxXxXxXxXxXxXxXxXxXxXxXxXxXxXxXxXxXxXxXxXxXxXxXxXxXxXxXxXxXxXxXxXxXxXxXxXxXxXxXxXxXxXxXxXxXxXxXxXxXxXxXxXxXxXxXxXxXxXxXxXxXxXxXxXxXxXxXxXxXxX",
"xXxXxXxXxXxXxXxXxXxXxXxXxXxXxXxXxXxXxXxXxXxXxXxXxXxXxXxXxXxXxXxXxXxXxXxXxXxXxXxXxXxXxXxXxXxXxXxXxXxXxXxXxXxXxXxXxXxXxXxXxXxXxXxXxXxXxXxXxXxXxXxXxXxXxXxX",
"xXxXxXxXxXxXxXxXxXxXxXxXxXxXxXxXxXxXxXxXxXxXxXxXxXxXxXxXxXxXxXxXxXxXxXxXxXxXxXxXxXxXxXxXxXxXxXxXxXxXxXxXxXxXxXxXxXxXxXxXxXxXxXxXxXxXxXxXxXxXxXxXxXxXxXxX",
"xXxXxXxXxXxXxXxXxXxXxXxXxXxXxXxXxXxXxXxXxXxXxXxXxXxXxXxXxXxXxXxXxXxXxXxXxXxXxXxXxXxXxXxXxXxXxXxXxXxXxXxXxXxXxXxXxXxXxXxXxXxXxXxXxXxXzXxXxXxXxXxXxXxXxXxX",
"xXxXxXxXxXxXxXxXxXxXxXxXxXxXxXxXxXxXxXxXxXxXxXxXxXxXxXxXxXxXxXxXxXxXvXvXvXxXxXxXxXxXxXxXxXxXxXxXxXxXxXxXxXxXxXxXxXxXxXxXxXxXxXxXxXxXxXxXxXxXxXxXxXxXxXxX",
"xXxXxXxXxXxXxXxXxXxXxXxXxXxXxXxXxXxXxXxXxXxXxXxXxXxXxXxXxXxXxXxXlXyX8X8X8XrX8XsXcXxXxXxXxXxXxXxXxXxXxXxXxXxXxXxXxXxXxXxXxXxXxXxXxXxXxXxXxXxXxXxXxXxXxXxX",
"xXxXxXxXxXxXxXxXxXxXxXxXxXxXxXxXxXxXxXxXxXxXxXxXxXxXxXxXxXxXxXvX4X( ) ( ) ) ( D.cXxXxXxXxXxXxXxXxXxXxXxXxXxXxXxXxXxXxXxXxXxXxXxXxXxXxXxXxXxXxXxXxXxXxXxX",
"xXxXxXxXxXxXxXxXxXxXxXxXxXxXxXxXxXxXxXxXxXxXxXxXxXxXxXvXxXdXsXdXv.Q / / / / / v.gXgXzXxXxXxXxXxXxXxXxXxXxXxXxXxXxXxXxXxXxXxXxXxXxXxXxXxXxXxXxXxXxXxXxXxX",
"xXxXxXxXxXxXxXxXxXxXxXxXxXxXxXxXxXxXxXxXxXxXxXxXxXxXcXyXv.| { | O.#.%.+.+.+.+.l.d.h.iXcXxXxXxXxXxXxXxXxXxXxXxXxXxXxXxXxXxXxXxXxXxXxXxXxXxXxXxXxXxXxXxXxX",
"xXxXxXxXxXxXxXxXxXxXxXxXxXxXxXxXxXxXxXxXxXxXxXxXxXcXmX6XQ Q ^ ~  .%.%.$.$.$.$.>.e.u.iXbXxXxXxXxXxXxXxXxXxXxXxXxXxXxXxXxXxXxXxXxXxXxXxXxXxXxXxXxXxXxXxXxX",
"xXxXxXxXxXxXxXxXxXxXxXxXxXxXxXxXxXxXxXxXxXxXxXcXlX6X6Xv.` ` ` ` o.$.#.#.#.$.$.>.y.y.3X4X8XxXxXxXxXxXxXxXxXxXxXxXxXxXxXxXxXxXxXxXxXxXxXxXxXxXxXxXxXxXxXxX",
"xXxXxXxXxXxXxXxXxXxXxXxXxXxXxXxXxXxXxXxXxXxXcXcXdX| Q ` #.#.#.$.$.#.$.$.#.#.#.&.<.1.} ^ 8.lXxXxXxXxXxXxXxXxXxXxXxXxXxXxXxXxXxXxXxXxXxXxXxXxXxXxXxXxXxXxX",
"xXxXxXxXxXxXxXxXxXxXxXxXxXxXxXxXxXxXxXxXxXxXlXyX8X} _  .$.#.#.#.#.#.#.#.$.#.$.,.l.l.} ) 8.zXxXxXxXxXxXxXxXxXxXxXxXxXxXxXxXxXxXxXxXxXxXxXxXxXxXxXxXxXxXxX",
"xXxXxXxXxXxXxXxXxXxXxXxXxXxXxXxXxXxXxXxXxXbXyX[ } +.#.#.#.#.#.#.$.#.$.#.$.$.$.1.m.m.u.0.V.zXxXxXxXxXxXxXxXxXxXxXxXxXxXxXxXxXxXxXxXxXxXxXxXxXxXxXxXxXxXxX",
"xXxXxXxXxXxXxXxXxXxXxXxXxXxXxXxXxXxXxXxXxXnXyX) ^ +.#.#.#.#.#.#.#.#.#.#.$.$.$.1.m.m.u.t.Z.xXbXbXxXbXbXbXvXvXxXxXxXxXxXxXxXxXxXxXxXxXxXxXxXxXxXxXxXxXxXxX",
"xXxXxXxXxXxXxXxXxXxXxXxXxXxXxXxXxXxXxXzX4X1Xv./ / +.$.#.#.#.#.#.&.2.&.#.$.o. .8.C.V.S.F.Z.C.h.1X2X2XD.1X2X2X8XbXxXxXxXxXxXxXxXxXxXxXxXxXxXxXxXxXxXxXxXxX",
"xXxXxXxXxXxXxXxXxXxXxXxXxXxXxXxXxXxXxXzX8.W ^ Q / +.$.#.#.#.#.#.2.x.<.$.$.` Q 5.&X&X9XeXF., > E Q Q Q Q ^ Q 2XbXxXxXxXxXxXxXxXxXxXxXxXxXxXxXxXxXxXxXxXxX",
"xXxXxXxXxXxXxXxXxXxXxXxXxXxXxXxXxXxXxXzX8.^ / _ ` %.#.#.$.#.#.#.2.z.<.$.#.` E 7.N.N.4X9XD.6 6 ~ ^ ^ ^ ^ ^ ^ 2XnXxXxXxXxXxXxXxXxXxXxXxXxXxXxXxXxXxXxXxXxX",
"xXxXxXxXxXxXxXxXxXxXxXxXxXxXxXxXxXxXxXzX8.Q _ #.$.#.#.#.#.#.$.#.2.z.,.$.#.` ^ -.u.t.N.#Xs.( ~ ^ ^ ( ( ^ ^ ^ 2XbXxXxXxXxXxXxXxXxXxXxXxXxXxXzXxXxXxXxXxXxX",
"xXxXxXxXxXxXxXxXxXxXxXxXxXxXxXxXxXxXxXkX8.Q _ #.#.#.#.$.#.#.$.$.2.z.,.$.#.` ^ -.e.t.N.*Xs.^ ^ ^ ^ ^ ( ^ ^ ^ 2XbXxXxXxXxXxXxXxXxXxXxXxXxXxXxXxXxXxXxXxXxX",
"xXxXxXxXxXxXxXxXxXxXxXxXxXxXxXxXvXdXv.f.{ ^ / #.$.#.#.#.#.#.,.<.,.&.&.$.#.` / ! a q 7.l.j.O.X.X.o.` ^ | 4X3XyXnXxXxXxXxXxXxXxXxXxXxXxXxXxXxXxXxXxXxXxXxX",
"xXxXxXxXxXxXxXxXxXxXxXxXxXxXxXxXvXdX{ Q ^ ^ _ +.$.$.#.#.%.&.k.z.2.$.$.#.$.` / 8 ; >  .$.$.$.#.$.$.X.E 7.xXnXxXxXxXxXxXxXxXxXxXxXxXxXxXxXxXxXxXxXxXxXxXxX",
"xXxXxXxXxXxXxXxXxXzXxXxXxXxXxX8X2X2X[ ^ ^ ^ _ #.$.#.#.%.&.2.k.z.2.$.@.....E R R E ~ X.$.$.$.#.X...} ! 7.kXxXxXxXxXxXxXxXxXxXxXxXxXxXxXxXxXxXxXxXxXxXxXxX",
"xXxXxXxXxXxXxXxXxXxXxXxXxXxXxXg.Q Q ^ ^ ^ ^ / #.#.#.$.&.z.z.z.z.2.$.o.^ ^ 6 : E $.$.#.%.$.$.#./ ^ ! d q.kXxXxXxXxXxXxXxXxXxXxXxXxXxXxXxXxXxXxXxXxXxXxXxX",
"xXxXxXxXxXxXxXxXxXxXxXxXxXxXbXg.Q ^ / ^ / ^ _ #.#.#.%.&.z.z.k.z.2.#.X.^ ^ 6 , E #.#.#.%.$.%.+.) ~ ] h q.gXzXzXzXzXxXxXxXxXxXxXxXxXxXxXxXxXxXxXxXxXxXxXxX",
"xXxXxXxXxXxXxXxXxXxXxXxXxXxXxXg.Q ( o.@.@.@.+.#.$.#.#.&.z.k.&.&.O._ / ) ^ } | ,.<.<.<.,.x.8X6X^.Q.^.r.r.Z.Z.s.q.=XxXxXxXxXxXxXxXxXxXxXxXxXxXxXxXxXxXxXxX",
"xXxXxXxXxXxXxXxXxXxXxXxXxXxXxXg.Q / +.$.#.#.$.#.#.#.#.&.z.k.#.#...^ ^ ^ ^ >.z.z.z.x.z.k.v.dXhXOX|.^.A.m.e.e.*.i s.xXxXxXxXxXxXxXxXxXxXxXxXxXxXxXxXxXxXxX",
"xXxXxXxXxXxXxXxXxXxXxXxXxXxXxXg.^ / +.$.#.#.#.#.$.$.$.@.} }  . .E 6 ! :.:.y.c.c.c.c.l.8.v.fXhXoXXX^.H.H.G.G.n.=.=XzXxXxXxXxXxXxXxXxXxXxXxXxXxXxXxXxXxXxX",
"xXxXxXxXxXxXxXxXxXxXxXxXxXxXxXg.Q / +.$.#.#.#.#.#.#.$.o.^ ^ ( ^ 8 ; q M.M.M.M.M.m.m.i.w.=XfXhXOX X@XwX0XeXeXS.w.=XxXxXxXxXxXxXxXxXxXxXxXxXxXxXxXxXxXxXxX",
"xXxXxXxXxXxXxXxXxXxXxXxXxXxXvXg.^ / +.$.$.%.#.#.#.#.#...^ ^ ~ ^ 8 ; q A.m.A.A.A.M.M.r.e.Z.iXuXoX.X+XwXwXqXqXS.9.=XxXxXxXxXxXxXxXxXxXxXxXxXxXxXxXxXxXxXxX",
"xXxXxXxXxXxXxXxXxXxXxXxXxXxXvXf.^ / +.#.#.#.$.#.#._ / ^ ) ~ j j 0 ; q m.m.H.9X9X9X9XA.M.m.b.b.a.p.Z.wX0XqXqXB.l C.xXxXxXxXxXxXxXxXxXxXxXxXxXxXxXxXxXxXxX",
"xXxXxXxXxXxXxXxXxXxXxXxXxXxXxXf.W ^ #.#.$.$.#.$.+./ ~ ^ ^ ~ h h 0 ; q A.A.K.wXwXqX0XA.m.n.e.e.r.e.S.wXwXqXeXb.p a.xXxXxXxXxXxXxXxXxXxXxXxXxXxXxXxXxXxXxX",
"xXxXxXxXxXxXxXxXxXxXxXxXxXxXxX3Xf.l.O.X.X.o.o.o...) ] ] [ -.h h a q l ;.;.A.H.K.qXqXH.F.S.e.0.z k q.F.F.H.H.Z.s.;XxXxXxXxXxXxXxXxXxXxXxXxXxXxXxXxXxXxXxX",
"xXxXxXxXxXxXxXxXxXxXxXxXxXxXxXxXxXsX{ ^ ^ ^ ( ^ ~ j d *.e.0.l h =.t.=., > *.w.F.qX0XqXqXJ.u.9.$ o * h z e.w.4XvXxXxXxXxXxXxXxXxXxXxXxXxXxXxXxXxXxXxXxXxX",
"xXxXxXxXxXxXxXxXxXxXxXxXxXxXxXxXxXiX{ ^ ^ ~ ~ ^ ~ l s 4.u.0.l s 4.r.=., > *.r.S.qXqX0XqX9Xu.9.$ O * i *.e.e.6XbXxXxXxXxXxXxXxXxXxXxXxXxXxXxXxXxXxXxXxXxX",
"xXxXxXxXxXxXxXxXxXxXxXxXxXxXxXxXxXlX6X6Xk 4 4 4 4 d d 4.u.0.9.5.n.K.y.2 > *.e.S.qXqXqXqXG.=.z @ o @ * K 7XrXsXxXxXxXxXxXxXxXxXxXxXxXxXxXxXxXxXxXxXxXxXxX",
"xXxXxXxXxXxXxXxXxXxXxXxXxXxXxXxXxXxXvXxXJ . o o O s h z e.e.e.u.F.eXA.; ; *.e.S.qXqXqXeXG.l s @ o o . H kXxXxXxXxXxXxXxXxXxXxXxXxXxXxXxXxXxXxXxXxXxXxXxX",
"xXxXxXxXxXxXxXxXxXxXxXxXxXxXxXxXxXxXxXzX*XT Y # # 9 0 l r.0.4.=.S.eXJ.w.w.m.S.5X0X9XG.F.B.l s @ o = T *XzXxXxXxXxXxXxXxXxXxXxXxXxXxXxXxXxXxXzXxXxXxXxXxX",
"xXxXxXxXxXxXxXxXxXxXxXxXxXxXxXxXxXxXxXxXnXmXyX5 > > > q e.0.l s d.eXeXeXwXwXeXeX0X0Xn.w.9.j s + . Y nXbXxXxXxXxXxXxXxXxXxXxXxXxXxXxXxXxXxXxXxXxXxXxXxXxX",
"xXxXxXxXxXxXxXxXxXxXxXxXxXxXxXxXxXxXxXxXyX7X=X5 > < < 9 z z l s i.K.J.J.K.K.K.K.J.J.u.5.4.i y L L #XxXxXxXxXxXxXxXxXxXxXxXxXxXxXxXxXxXxXxXxXxXxXxXxXxXxX",
"xXxXxXxXxXxXxXxXxXxXxXxXxXxXxXxXxXxXxXzXq.h i 2 : O o O O $ l l 4.t.t.t.r.n.A.i.e.e.P h i > 0 iXvXbXxXxXxXxXxXxXxXxXxXxXxXxXxXxXxXxXxXxXxXxXxXxXxXxXxXxX",
"xXxXxXxXxXxXxXxXxXxXxXxXxXxXxXxXxXxXxXzXq.d i , : O O O o * d h 4.t.t.t.t.n.m.i.t.e.*.h y > 0 uXbXxXxXxXxXxXxXxXxXxXxXxXxXxXxXxXxXxXxXxXxXxXxXxXxXxXxXxX",
"xXxXxXxXxXxXxXxXxXxXxXxXxXxXxXxXxXxXxXxX7X,X,X=X%Xb c c Y.C g h ' { -.-.-.' ' f S S U a.s.3X6XdXkXkXkXkXxXxXxXxXxXxXxXxXxXxXxXxXxXxXxXxXxXxXxXxXxXxXxXxX",
"xXxXxXxXxXxXxXxXxXxXxXxXxXxXxXxXxXxXxXxXbXcXcXnXjXZ m P.|..Xg h ] ^ ^ ^ ^ 6 : % m m ~.%X>XMXMXkXdXdXdXgXbXxXxXxXxXxXxXxXxXxXxXxXxXxXxXxXxXxXxXxXxXxXxXxX",
"xXxXxXxXxXxXxXxXxXxXxXxXxXxXxXxXxXxXxXxXvXxXxXvXjXZ v P. X.Xg h ]  .`  . .^ E u S S :X7XuXbXnXxXxXcXcXkXrXtXiXxXxXxXxXxXxXxXxXxXxXxXxXxXxXxXxXxXxXxXxXxX",
"xXxXxXxXxXxXxXxXxXxXxXxXxXxXxXxXxXxXxXxXxXxXxXxXjXZ v P.|.Q.D h { $.$.$.$.$.%.>.e.i.gXMXmXdXdXMXMXMXMXxX&X$X7XxXxXxXxXxXxXxXxXxXxXxXxXxXxXxXxXxXxXxXxXxX",
"xXxXxXxXxXxXxXxXxXxXxXxXxXxXxXxXxXxXxXxXxXxXxXxXpXZ v P.|..XD h { $.#.$.%.#.%.>.e.u.gXMXmXdXkXMXMXMXMXzX&X%XtXxXxXxXxXxXxXxXxXxXxXxXxXxXxXxXxXxXxXxXxXxX",
"xXxXxXxXxXxXxXxXxXxXxXxXxXxXxXxXxXxXxXxXxXxXxXbXpXZ v L.`.E.g h { $.%.,.<.<.<.k.l.x.fXMXMXmXmXMXMXmXzXdXuXyXsXxXxXxXxXxXxXxXxXxXxXxXxXxXxXxXxXxXxXxXxXxX",
"xXxXxXxXxXxXxXxXxXxXxXxXxXxXxXxXxXxXxXxXxXxXxXxXpXZ v L.).T.g h { $.2.z.x.<.z.z.z.x.fXMXMXMXMXMXMXnXdXdXdXdXzXxXvXxXxXxXxXxXxXxXxXxXxXxXxXxXxXxXxXxXxXxX",
"xXxXxXxXxXxXxXxXxXxXxXxXxXxXxXxXxXxXxXxXxXxXxXcXpXZ v L.(.T.g h { $.&.<.z.z.z.k.z.x.fXMXMXcXcXMXMXMXnXkX<X,X=Xp.=XxXxXxXxXxXxXxXxXxXxXxXxXxXxXxXxXxXxXxX",
"xXxXxXxXxXxXxXxXxXxXxXxXxXxXxXxXxXxXxXxXxXxXcXnXaXZ v L.(.E.D h { $.&.x.z.z.z.z.z.x.fXMXmXdXdXMXMXMXMXxX&X&XD ; 6.xXxXxXxXxXxXxXxXxXxXxXxXxXxXxXxXxXxXxX",
"xXxXxXxXzXxXxXxXxXxXxXxXxXxXxXxXxXxXxXxXkXjXjXjXtXA m L.).T.D D | +.@.z.k.k.k.<.k.z.fXMXmXdXdXnXmXmXmXdX&X%XP ; 6.kXdXzXxXxXxXxXxXxXxXxXxXxXxXxXxXxXxXxX",
"xXxXxXxXxXxXxXxXxXxXxXxXxXxXxXxXxXxXxXxX!.Z Z Z U.T././.{.{..X.X!.' | &.%.%.%.O.) } 8XzXlXdXaX,X-X-X>X&Xi.u.' ; 0 6.6.7XvXxXxXxXxXxXxXxXxXxXxXxXxXxXxXxX",
"xXxXxXxXxXxXxXxXxXxXxXxXxXxXxXxXxXxXxXzXC m v m M /.).`.}.}. X XW.a -.%.#.+.#. .^ ) 8XdXdXdXiX&X$X$X%XN.t.u.a ; 7 h h 6XbXxXxXxXxXxXxXxXxXxXxXxXxXxXxXxX",
"xXxXxXxXxXxXxXxXxXxXxXxXkXT L U a.p.3.3.b m N R.E.[.[.{.}.}. X}..XQ.Q.W.^.W.W.V b b C !.!.!.!.C Z I M.b.*.z q > < * * >XbXxXxXxXxXxXxXxXzXxXxXxXxXxXxXxX",
"xXxXxXxXxXxXxXxXxXxXxXxXzXH . e h i > ; c v N }. X X}.}.}.}.}.}.}.}.}. X|.`.(.I.v m m v v v v v v S A.r.l d 0 > < X o >XbXxXxXxXxXxXxXxXxXxXxXxXxXxXxXxX",
"xXxXxXxXxXxXxXxXxXxXxXxXkXH X r h h 5 2 b c B }.}.}.}.}.}.}.}.}.{.}.}.{.|._.).I.v v v m v N N M M F n.e.p d 0 2 4 X o >XbXxXxXxXxXxXxXxXxXxXxXxXxXxXxXxX",
"xXxXxXxXxXxXxXxXxXxXxXxXzXJ X e h h d h 5 ; w }. X}.}.}.}.}.}.}. X.X[._._._.).T.v m v x B '.{./.(.U.j h 2 > 0 h e o o >XbXxXxXxXxXxXxXxXxXxXxXxXxXxXxXxX",
"xXxXxXxXxXxXxXxXxXxXxXxXkXH o e l j h l 7 > w '.{.}.}.}.}.}. X}. X X[.)._.).(.I.v v M m P.{.{./.).Y.h u 2 2 0 d t & & >XbXxXxXxXxXxXxXxXxXxXxXxXxXxXxXxX",
"xXxXxXxXxXxXxXxXxXxXxXxXkXH X k 0.0.0.9.l i y w w '.}.}.}.}.}.}. X X[.).(.I.N M v m R.'.].}..XG S f 5 7 i i e + L tXtXaXxXxXxXxXxXxXxXxXxXxXxXxXxXxXxXxX",
"xXxXxXxXxXxXxXxXxXxXxXvXkXJ X k u.u.e.u.z h u > 5 .X}.}.}.}.}. X XXX[.).(.L.v m v v ].XX X}..XD a y ; 7 h j *   U nXbXxXxXxXxXxXxXxXxXxXxXxXxXxXxXxXxXxX",
"xXxXxXxXxXxXxXxXxXxXxXxXkXJ X k 9.4.9.9.*.z l , 5 '.XX|.XX}.}.}.{.[.].T.T.N c c x v R.E.E.E.E.D h y > 2 r r K K #XxXxXxXxXxXxXxXxXxXxXxXxXxXxXxXxXxXxXxX",
"xXxXxXxXxXxXxXxXxXxXxXxXkXH X e l l l l 9.u.5., 5 Q. XXX}.}.XX}.`.).T.v m % . c v v m m m m c D l y > 1 o X #XbXzXxXxXxXxXxXxXxXxXxXxXxXxXxXxXxXxXxXxXxX",
"xXxXxXxXxXxXxXxXxXxXxXxXkXI = t s s l s 5.0.=., 5 R..X.X{.{.'.].`./.I.x v n & n Z Z c x x x c f a y 2 1 o X #XnXxXxXxXxXxXxXxXxXxXxXxXxXxXxXxXxXxXxXxXxX",
"xXxXxXxXxXxXxXxXxXxXxXxXxXjXiXU O $ r l l z a , 3 5 5 b _./.N M M M x o X *XjXaXhXhXq.g y 3 3 2 2 0 p r O X #XbXxXxXxXxXxXxXxXxXxXxXxXxXxXxXxXxXxXxXxXxX",
"xXxXxXxXxXxXxXxXxXxXxXxXxXxXvXY X @ s h h h i , > > ; b )./.v v m v x X   >XnXxXbXzX6.h y 2 > > > 0 l r o . #XnXxXxXxXxXxXxXxXxXxXxXxXxXxXxXxXxXxXxXxXxX",
"xXxXxXxXxXxXxXxXxXxXxXxXxXxXxXY X @ s h h h i , ; > > w P.U.~.~.~.~.~.U Y 7XbXxXxXzX-XC.a.< # # # 4 e t Y Y >XcXxXxXxXxXxXxXxXxXxXxXxXxXxXxXxXxXxXxXxXxX",
"xXxXxXxXxXxXxXxXxXxXxXxXxXxXxXY X @ s h l d i 2 > > , < X = jXxXxXxXbXbXbXbXxXxXxXxXxXbX<XO o o X X X H zXnXnXxXxXxXxXxXxXxXxXxXxXxXxXxXxXxXxXxXxXxXxXxX",
"xXxXxXxXxXxXxXxXxXxXxXxXxXxXxXY X O s l i i 0 , > > , 4 J Y kXxXxXxXxXxXxXzXxXxXxXxXxXbXtXJ J J J J J Y kXxXxXxXxXxXxXxXxXxXxXxXxXxXxXxXxXxXxXxXxXxXxXxX",
"xXxXxXxXxXxXxXxXxXxXxXxXxXxXxXY X @ s d 2 , , > > > > 6.gXzXxXxXzXxXxXxXxXxXxXxXxXxXxXxXxXzXzXzXzXzXkXzXxXxXxXxXxXxXxXxXxXxXxXxXxXxXxXxXxXxXxXxXxXxXxXxX",
"xXxXxXxXxXxXxXxXxXxXxXxXxXxXxXY   O s l 5 > > , > > > 6.xXxXxXxXxXxXxXxXxXxXxXxXxXxXxXxXxXxXzXxXxXxXxXxXxXxXxXxXxXxXxXxXxXxXxXxXxXxXxXxXxXxXxXxXxXxXxXxX",
"xXxXxXxXxXxXxXxXxXxXxXxXxXxXzX#X= H r p 7 > > > > 3 - 6.xXxXxXxXxXxXxXxXxXxXxXxXxXxXxXxXxXxXxXxXxXxXxXxXxXxXxXxXxXxXxXxXxXxXxXxXxXxXxXxXxXxXxXxXxXxXxXxX",
"xXxXxXxXxXxXxXxXxXxXxXxXxXxXxXkXdXtX= O < > , , : + X I xXxXxXxXxXxXxXxXxXxXxXxXxXxXxXxXxXxXzXxXxXxXxXxXxXxXxXxXxXxXxXxXxXxXxXxXxXxXxXxXxXxXxXxXxXxXxXxX",
"xXxXxXxXxXxXxXxXxXxXxXxXxXxXxXxXxXaX= & < : : : - $ & Y xXxXxXxXxXxXxXxXxXxXxXxXxXxXxXxXxXxXxXxXxXxXxXxXxXxXxXxXxXxXxXxXxXxXxXxXxXxXxXxXxXxXxXxXxXxXxXxX",
"xXxXxXxXxXxXxXxXxXxXxXxXxXxXxXxXxXzXtXtXH O + + * <XtXiXxXxXxXxXxXxXxXxXxXxXxXxXxXxXxXxXxXxXxXxXxXxXxXxXxXxXxXxXxXxXxXxXxXxXxXxXxXxXxXxXxXxXxXxXxXxXxXxX",
"xXxXxXxXxXxXxXxXxXxXxXxXxXxXxXxXxXxXbXxXL X o o & pXnXxXxXxXxXxXxXxXxXxXxXxXxXxXxXxXxXxXxXxXxXxXxXxXxXxXxXxXxXxXxXxXxXxXxXxXxXxXxXxXxXxXxXxXzXxXxXxXxXxX",
"xXzXxXxXxXxXxXxXxXxXxXxXxXxXxXxXxXxXxXzX<X>X>X>X>XkXxXxXxXxXxXxXxXxXxXxXxXxXxXxXxXxXxXxXxXxXxXxXxXxXxXxXxXxXxXxXxXxXxXxXxXxXxXxXxXxXxXxXxXxXxXxXxXxXxXxX",
"xXxXxXzXxXxXxXxXxXxXxXxXxXxXxXxXxXxXxXxXbXbXnXbXcXxXxXxXxXxXxXxXxXxXxXxXxXxXxXxXxXxXxXxXxXxXxXxXxXxXxXxXxXxXxXxXxXxXxXxXxXxXxXxXxXxXxXxXxXxXxXxXxXxXxXxX",
"xXxXxXxXxXxXxXxXxXxXxXxXxXxXxXxXxXxXxXxXxXxXxXxXxXxXxXxXxXxXxXxXxXxXxXxXxXxXxXxXxXxXxXxXxXxXxXxXxXxXxXxXxXxXxXxXxXxXxXxXzXxXxXxXxXxXxXxXxXxXxXxXxXxXxXxX",
"xXxXxXxXxXxXxXxXxXxXxXxXxXxXxXxXxXxXxXxXxXxXxXxXxXxXxXxXxXxXxXxXxXxXxXxXxXxXxXxXxXxXxXxXxXxXxXxXxXxXxXxXxXxXxXxXxXxXxXxXxXxXxXxXxXxXxXxXxXxXxXxXxXxXxXxX",
"xXxXxXxXxXxXxXxXxXxXxXxXxXxXxXxXxXxXxXxXxXxXxXxXxXxXxXxXxXxXxXxXxXxXxXxXxXxXxXxXxXxXxXxXxXxXxXxXxXxXxXxXxXxXxXxXxXxXxXxXxXxXxXxXxXxXxXxXxXxXxXxXxXxXxXxX",
"xXxXxXxXxXxXxXxXxXxXxXxXxXxXxXxXxXxXxXxXxXxXxXxXxXxXxXxXxXxXxXxXxXxXxXxXxXxXxXxXxXxXxXxXxXxXxXxXxXxXxXxXxXxXxXxXxXxXxXxXxXxXxXxXxXxXxXxXxXxXxXxXxXxXxXxX",
"xXxXxXxXxXxXxXxXxXxXxXxXxXxXxXxXxXxXxXxXxXxXxXxXxXxXxXxXxXxXxXxXxXxXxXxXxXxXxXxXxXxXxXxXxXxXxXxXxXxXxXxXxXxXxXxXxXxXxXxXxXxXxXxXxXxXxXxXxXxXxXxXxXxXxXxX",
"xXxXxXxXxXxXxXxXxXxXxXxXxXxXxXxXxXxXxXxXxXxXxXxXxXxXxXxXxXxXxXxXxXxXxXxXxXxXxXxXxXxXxXxXxXxXxXxXxXxXxXxXxXxXxXxXxXxXxXxXxXxXxXxXxXxXxXzXxXxXxXxXxXxXxXxX",
"xXxXxXxXxXxXxXxXxXxXxXxXxXxXxXxXxXxXxXxXxXxXxXxXxXxXxXxXxXxXxXxXxXxXxXxXxXxXxXxXxXxXxXxXxXxXxXxXxXxXxXxXxXxXxXxXxXxXxXxXxXxXxXxXxXxXxXxXxXxXxXxXxXxXxXxX",
"xXxXxXxXxXxXxXxXxXxXxXxXxXxXxXxXxXxXxXxXxXxXzXxXxXxXxXxXxXxXxXxXxXxXxXxXxXxXxXxXxXxXxXxXxXxXxXxXxXxXxXxXxXxXxXxXxXxXxXxXxXxXxXxXxXxXxXxXxXxXxXxXxXxXxXxX",
"xXxXxXxXxXxXxXxXxXxXxXxXxXxXxXxXxXxXxXxXxXxXxXxXxXxXxXxXxXxXxXxXxXxXxXxXxXxXxXxXxXxXxXxXxXxXxXxXxXxXxXxXxXxXxXxXxXxXxXxXxXxXxXxXxXxXxXxXxXxXxXxXxXxXxXxX",
"xXxXxXxXxXxXxXxXxXxXxXxXxXxXxXxXxXxXxXxXxXxXxXxXxXxXxXxXxXxXxXxXxXxXxXxXxXxXxXxXxXxXxXxXxXxXxXxXxXxXxXxXxXxXxXxXxXxXxXxXxXxXxXxXxXxXxXxXxXxXxXxXxXxXxXxX",
"xXxXxXxXxXxXxXxXxXxXxXxXxXxXxXxXxXxXxXxXxXxXxXxXxXxXxXxXxXxXxXxXxXxXxXxXxXxXxXxXxXxXxXxXxXxXxXxXxXxXxXxXxXxXxXxXxXxXxXxXxXxXxXxXxXxXxXxXxXxXxXxXxXxXxXxX",
"xXxXxXxXxXxXxXxXxXxXxXxXxXxXxXxXxXxXxXxXxXxXxXxXxXxXxXxXxXxXxXxXxXxXxXxXxXxXxXxXxXxXxXxXxXxXxXxXxXxXxXxXxXxXxXxXxXxXxXxXxXxXxXxXxXxXxXxXxXxXxXxXxXxXxXxX",
"xXxXxXxXxXxXxXxXxXxXxXxXxXxXxXxXxXxXxXxXxXxXxXxXxXxXxXxXxXxXxXxXxXxXxXxXxXxXxXxXxXxXxXzXxXxXxXxXxXxXxXxXxXxXxXxXxXxXxXxXxXxXxXxXxXxXxXxXxXxXxXxXxXxXxXxX",
"xXxXxXxXxXxXxXxXxXxXxXxXxXxXxXxXxXxXxXxXxXxXxXxXxXxXxXxXxXxXxXxXxXxXxXxXxXxXxXxXxXxXxXxXxXxXxXxXxXxXxXxXxXxXxXxXxXxXxXxXxXxXxXxXxXxXxXxXxXxXxXxXxXxXxXxX",
"xXxXxXxXxXxXxXxXxXxXxXxXxXxXxXxXxXxXxXxXxXxXxXxXxXxXxXxXxXxXxXxXxXxXxXxXxXxXxXxXxXxXxXxXxXxXxXxXxXxXxXxXxXxXxXxXxXxXxXxXxXxXxXxXxXxXxXxXxXxXxXxXxXxXxXxX",
"xXxXxXxXxXxXxXxXxXxXxXxXxXxXxXxXxXxXxXxXxXxXxXxXxXxXxXxXxXxXxXxXzXxXxXxXxXxXxXxXxXxXxXxXxXxXxXxXxXxXxXxXxXxXxXxXxXxXxXxXxXxXxXxXxXxXxXxXxXxXxXxXxXxXxXxX",
"xXxXxXxXxXxXxXxXxXxXxXxXxXxXxXxXxXxXxXxXxXxXxXxXxXxXxXxXxXxXxXxXxXxXxXxXxXxXxXxXxXxXxXxXxXxXxXxXxXxXxXxXxXxXxXxXxXxXxXxXxXxXxXxXxXxXxXxXxXxXxXxXxXxXxXxX",
"xXxXxXxXxXxXxXxXxXxXxXxXxXxXxXxXxXxXxXxXxXxXxXxXxXxXxXxXxXxXxXxXxXxXxXxXxXxXxXxXxXxXxXxXxXxXxXxXxXxXxXxXxXxXxXxXxXxXxXxXxXxXxXxXxXxXxXxXxXxXxXxXxXxXxXxX",
"xXxXxXxXxXxXxXxXxXxXxXxXxXxXxXxXxXxXxXxXxXxXxXxXxXxXxXxXxXxXxXxXxXxXxXxXxXxXxXxXxXxXxXxXxXxXxXxXxXxXxXxXxXxXxXxXxXxXxXxXxXxXxXxXxXxXxXxXxXxXxXxXxXxXxXxX"
};
