/* XPM */
static char *result[] = {
/* columns rows colors chars-per-pixel */
"61 100 242 2 ",
"   c #0F1011",
".  c #141516",
"X  c #181717",
"o  c #171818",
"O  c #1A191A",
"+  c #221615",
"@  c #291514",
"#  c #251B1A",
"$  c #3C1310",
"%  c #2B221D",
"&  c #171626",
"*  c #181733",
"=  c #35092B",
"-  c #222222",
";  c #2D2825",
":  c #362823",
">  c #353535",
",  c #560703",
"<  c #570B05",
"1  c #590D07",
"2  c #550D09",
"3  c #590E08",
"4  c #45110D",
"5  c #56130E",
"6  c #5D130C",
"7  c #4A1110",
"8  c #5A1614",
"9  c #5E1A13",
"0  c #6B140B",
"q  c #73150D",
"w  c #631B15",
"e  c #611D16",
"r  c #662319",
"t  c #722C1E",
"y  c #541F29",
"u  c #492B26",
"i  c #4F2F29",
"p  c #59362D",
"a  c #553931",
"s  c #682B23",
"d  c #722E20",
"f  c #6A342C",
"g  c #7A3729",
"h  c #6E3B32",
"j  c #683B34",
"k  c #723D34",
"l  c #713E3A",
"z  c #694734",
"x  c #654E34",
"c  c #784639",
"v  c #785438",
"b  c #16054A",
"n  c #190649",
"m  c #01035E",
"M  c #0A0758",
"N  c #100D53",
"B  c #2E1B4F",
"V  c #38214F",
"C  c #010361",
"Z  c #060863",
"A  c #060976",
"S  c #191775",
"D  c #26216F",
"F  c #26227A",
"G  c #393671",
"H  c #6A3C47",
"J  c #71327A",
"K  c #53494A",
"L  c #5B5B5B",
"P  c #694C4F",
"I  c #7A4A42",
"U  c #656564",
"Y  c #797473",
"T  c #881C11",
"R  c #911E12",
"E  c #A21F11",
"W  c #962518",
"Q  c #A32415",
"!  c #AD2B17",
"~  c #A52718",
"^  c #A52B1B",
"/  c #B8291B",
"(  c #8E332B",
")  c #853B31",
"_  c #A53826",
"`  c #B83128",
"'  c #CA2D1D",
"]  c #D52E1F",
"[  c #ED341E",
"{  c #CB372F",
"}  c #D83323",
"|  c #E63424",
" . c #E83323",
".. c #E63A2A",
"X. c #E63F30",
"o. c #894B35",
"O. c #8C543B",
"+. c #AA4329",
"@. c #B34D37",
"#. c #D34A34",
"$. c #D94B3D",
"%. c #E54132",
"&. c #864D47",
"*. c #8A5A44",
"=. c #945B46",
"-. c #8B5D53",
";. c #B75D53",
":. c #8E674F",
">. c #95654B",
",. c #9B6749",
"<. c #977756",
"1. c #A56647",
"2. c #A26D4E",
"3. c #A9784C",
"4. c #A36F50",
"5. c #A57153",
"6. c #A87956",
"7. c #B57A50",
"8. c #926965",
"9. c #9D7867",
"0. c #937173",
"q. c #B47066",
"w. c #DA4E41",
"e. c #DB5847",
"r. c #DC6658",
"t. c #E26853",
"y. c #DC796E",
"u. c #E6766D",
"i. c #B5844F",
"p. c #B58755",
"a. c #BB8D54",
"s. c #BE9158",
"d. c #9C8277",
"f. c #B68964",
"g. c #AF8D70",
"h. c #B58F78",
"j. c #B7917B",
"k. c #C29459",
"l. c #C59965",
"z. c #DE837B",
"x. c #C19C71",
"c. c #CEA368",
"v. c #D4A96E",
"b. c #C8A57B",
"n. c #DDB47B",
"m. c #E3B078",
"M. c #040888",
"N. c #100C8F",
"B. c #282381",
"V. c #0B12A9",
"C. c #090FB1",
"Z. c #060DBA",
"A. c #2527A9",
"S. c #70358A",
"D. c #463BB3",
"F. c #7C7389",
"G. c #6558A3",
"H. c #756DAA",
"J. c #6D69B2",
"K. c #070FCA",
"L. c #060FD6",
"P. c #060FD8",
"I. c #0710D6",
"U. c #0912D6",
"Y. c #181ED7",
"T. c #1B22D9",
"R. c #3535CA",
"E. c #3639DA",
"W. c #3A3DDE",
"Q. c #373CE2",
"!. c #473CC9",
"~. c #443CD3",
"^. c #4646D6",
"/. c #5351D3",
"(. c #87398B",
"). c #887A93",
"_. c #8C7FB1",
"`. c #968A88",
"'. c #90888E",
"]. c #9A8E8C",
"[. c #9D918D",
"{. c #9D9291",
"}. c #AF948E",
"|. c #BB9B88",
" X c #A39998",
".X c #B6A29C",
"XX c #998AB0",
"oX c #ADA8AC",
"OX c #B8A8A7",
"+X c #B4ABAA",
"@X c #B8B6B5",
"#X c #BBBBBB",
"$X c #D98F85",
"%X c #E49388",
"&X c #E59D97",
"*X c #CBAC87",
"=X c #CDB08E",
"-X c #DAB999",
";X c #E5BC82",
":X c #C3ADAA",
">X c #D3A8A4",
",X c #C9B3AB",
"<X c #C6B6B5",
"1X c #D8BCB7",
"2X c #E5B6B2",
"3X c #ECC588",
"4X c #F0C887",
"5X c #F5CE8D",
"6X c #F7D08E",
"7X c #FAD28E",
"8X c #EFC998",
"9X c #F8D292",
"0X c #D3C2B9",
"qX c #ECD2A8",
"wX c #EFD5AD",
"eX c #EED4B1",
"rX c #A19EDD",
"tX c #B7B6CD",
"yX c #ADA8DC",
"uX c #AEAFEE",
"iX c #C6C6C6",
"pX c #CCC8C8",
"aX c #D7CAC8",
"sX c #DBD2CD",
"dX c #DBD4D3",
"fX c #D9D9D9",
"gX c #E3CAC8",
"hX c #E4D8C9",
"jX c #E4D9D3",
"kX c #E5DDDD",
"lX c #EAE2DD",
"zX c #E5DFE1",
"xX c #E5E2E2",
"cX c #EAE5E5",
"vX c #EDE9E6",
"CX c #ECECEC",
"nX c #F1EEEE",
"mX c #EEEFF0",
"MX c #EEF0F0",
"NX c #F2F1F1",
"CX c #FFFBF9F7",
"VX c #FEFEFE",
/* pixels */
"CXCXCXCXCXCXCXCXCXCXCXCXCXCXCXCXCXCXCXCXCXCXCXCXCXCXCXCXCXCXCXCXCXCXCXCXCXCXCXCXCXCXCXCXCXCXCXCXCXCXCXCXCXCXCXCXCXCXCXCXCX",
"CXCXCXCXCXCXCXCXCXCXCXCXCXCXCXCXCXCXCXCXCXCXCXCXCXCXCXCXCXCXCXCXCXCXCXCXCXCXCXCXCXCXCXCXCXCXCXCXCXCXCXCXCXCXCXCXCXCXCXCXCX",
"CXCXCXCXCXCXCXCXCXCXCXCXCXCXCXCXCXCXCXCXCXCXCXCXCXCXCXCXCXCXCXCXCXCXCXCXCXCXCXcXCXCXCXCXCXCXCXCXCXCXCXCXCXCXCXCXCXCXCXCXCX",
"CXCXCXCXCXCXCXCXCXCXCXCXCXCXCXCXCXCXCXCXCXCXCXCXCXCXCXCXCXCXCXCXCXCXCXCXCXCXCXCXCXCXCXCXCXCXCXCXCXCXCXCXCXCXCXCXCXCXCXCXCX",
"CXCXCXCXCXCXCXCXCXCXCXCXCXCXCXCXCXCXCXCXCXCXCXCXCXCXCXCXCXCXCXCXCXCXCXCXCXCXCXCXCXCXCXCXCXCXCXCXCXCXCXCXCXCXCXCXCXCXCXCXCX",
"CXCXCXCXCXCXCXCXCXCXCXcXCXCXCXCXCXCXCXCXCXCXCXCXCXCXCXnXnXCXCXCXCXCXCXCXCXCXCXCXCXCXCXCXCXCXCXCXCXCXCXCXCXCXcXCXCXCXCXCXCX",
"CXCXCXCXCXCXCXCXCXCXCXCXCXCXCXCXCXCXCXCXCXCXCXCXCXCXzXsXsXdXsXdXdXsXdXCXCXCXCXCXCXCXCXCXCXCXCXCXCXCXCXCXCXCXCXCXCXCXCXCXCX",
"CXCXCXCXCXCXCXCXCXCXCXCXCXCXCXCXCXCXCXCXCXCXCXCXCXCXOXH I I I I I I 8.zXCXCXCXCXCXCXCXCXCXCXCXCXCXCXCXCXCXCXCXCXCXCXCXCXCX",
"CXCXCXCXCXCXCXCXCXCXCXCXCXCXCXCXCXCXCXnXCXCXmXmXnXMX.Xf l h h h j h &.xXnXCXmXmXCXCXCXCXCXCXCXCXCXCXCXCXCXCXCXCXCXCXCXCXCX",
"CXCXCXCXCXCXCXCXCXCXCXCXCXCXCXCXCXCXdXpXaXaXgXgXgXgX}.) ) ) ) ) ) ) &.gXgXgXgXgXzXCXCXCXCXCXCXCXCXCXCXCXCXCXCXCXCXCXCXCXCX",
"CXCXCXCXCXCXCXCXCXCXCXCXCXCXCXCXCXCX&.0 w ^ ^ _ ^ _ ` | | } | | } | ..X.X.{ ^ _ >XmXCXCXCXCXCXCXCXCXCXCXCXCXCXCXCXCXCXCXCX",
"CXCXCXCXCXCXCXCXCXCXCXCXCXCXCXCXmXcXI , 1 R ~ E Q E '  .|  . . . . . . . .` E E >XmXmXCXCXCXCXCXCXCXCXCXCXCXCXCXCXCXCXCXCX",
"CXCXCXCXCXCXCXCXCXCXCXCXCXCXCXpX8.-.( T T ' ' { { { r.>X&X&X&X&X&X&X%X..[ } ' ] r.u.y.`.9.OXCXCXCXCXCXCXCXCXCXCXCXCXCXCXCX",
"CXCXCXCXCXCXCXCXCXCXCXCXCXCXCX:X3 , R E Q }  .X.e.w.%XxXzXcXzXzXzXxXgXX. . . . . . .' h f 8.vXCXCXCXCXCXCXCXCXCXcXCXCXCXCX",
"CXCXCXCXCXCXCXCXCXCXCXCXvXnXMX:X3 3 R ~ ~ }  .X.w.w.$XzXzXzXlXlXzXxXgXX. . . . . . .{ h k 0.cXCXCXCXCXCXCXCXCXCXCXCXCXCXCX",
"CXCXCXCXCXCXCXCXCXCXCXnXaX8.-.&.T R R ~ ~ { %.r.2X>X&Xz.y.%Xu.z.z.z.z.&X&Xt. . . . .} { ` #.q.q.sXCXCXCXCXCXCXCXCXCXCXCXCX",
"CXCXCXCXCXCXCXCXCXCXCXMX,X2 , 0 Q Q Q Q ~ #.w.$XxXxX&X$.w.$.w.w.w.w.r.jXcXu. . . .|  . . .] Q W 1XCXCXCXCXCXCXCXCXCXCXCXCX",
"CXCXCXCXCXCXCXCXCXCXCXMX<X0 0 q Q Q ~ Q ~ e.r.%XzXxX>X$.e.r.t.t.w.w.r.jXxXz.} { .. ... . .] / / 1XnXCXCXCXCXCXCXCXCXCXCXCX",
"CXCXCXCXCXCXCXCXCXCXvXMX1X~ Q Q Q ~ Q Q ~ m.5XwXzXzX&X$.e.;X7X;Xe.w.r.jXlX|.1.4.#.|  .|  .| | ..2XmXCXCXCXCXCXCXCXCXCXCXCX",
"CXCXCXCXCXCXCXCXCXCXCXMX1X^ ~ Q Q Q Q Q ~ m.7XwXzXzX&X$.e.4X7X;Xe.w.r.jXxX|.2.4.#.| |  .|  . ...gXCXCXCXCXCXCXCXCXCXcXCXCX",
"CXCXCXCXCXCXCXCXCXCXCXMX1XW R R Q Q Q Q ~ m.7XwXkXxX2Xy.u.8XqX8Xu.y.y.kXlX|.3.6.#.| | | | | ] } 2XNXCXCXCXCXCXCXCXCXCXCXCX",
"CXCXCXCXCXCXCXCXCXCXCXMX,X6 1 q Q Q Q Q ^ m.7XwXkXkXjXkXkXkXkXkXzXkXkXkXlX*Xa.a.#.| |  .| ] ~ ~ 1XNXCXCXCXCXCXCXCXCXCXCXCX",
"CXCXCXCXCXCXCXCXCXCXCXMX<X6 1 0 Q Q Q Q ! m.7XqXkXkXkXkXkXkXkXkXkXjXkXkXlX*Xa.a.#.|  .|  .} W ~ 1XmXCXCXCXCXCXCXCXCXCXCXCX",
"CXCXCXCXCXCXCXCXCXCXCXNX#X@ @ $ 0 q W ~ ! @.@.;.h.h.h.h.j.b.b.b.b.*Xb.h.h.1.+.+.` / / / / ~ ) ) 1XNXCXCXCXCXCXCXCXCXCXCXCX",
"CXCXCXCXCXCXCXCXCXCXCXmX@XO o @ 2 1 W Q Q E E +.,.2.2.2.2.a.a.a.p.p.i.4.2._ Q Q Q Q Q Q Q W h c 0XmXCXCXCXCXCXCXCXCXCXCXCX",
"CXCXCXCXCXCXCXCXCXCXCXCX@X# O # 1 1 R Q Q Q Q +.<.2.2.2.5.i.a.a.a.k.a.4.2.+.Q ~ Q ~ Q Q ^ W k c iXCXCXCXCXCXCXCXCXCXCXCXCX",
"CXCXCXCXCXCXCXCXCXCX:Xh.9.p p u @ @ 6 0 0 W Q ^ _ _ _ _ _ +.+._ _ _ +._ _ ^ Q Q Q Q ~ Q Q _ 3.3.x.b.*XjXCXCXCXCXCXCXCXCXCX",
"CXCXCXCXCXCXCXCXCXCX|.1.=.g z p X X 4 , 1 R Q Q E E E E E E Q Q E E E E R E Q Q Q Q W Q Q +.a.a.a.a.a.dXCXCXCXCXCXCXCXCXCX",
"CXCXCXCXCXCXCXCXCXCX=Xf.p.O.O.x X X y t t _ +.@.;.;.;.;.;.+.+.+.;.;.;.;.;.@.+.+.+.+.+.W ( +.c.c.l.c.c.jXmXCXCXCXCXCXCXCXCX",
"CXCXCXCXCXCXCXCXCXCXwX5X;Xs.a.:.X # *.4.3.i.a.=XkXkXkXkXjXl.a.l.jXlXkXkXlX=Xa.s.a.a.3.c h >.5X7X7X6X7XlXCXCXCXCXCXCXCXCXCX",
"CXCXCXCXCXCXCXCXCXCXwX7X3Xa.a.:.O O O.2.4.i.i.*XxXxXlXxXjXk.a.l.jXkXxXlXxX*Xi.a.a.s.3.k h >.5X5X7X7X9XlXCXCXCXCXCXCXCXCXCX",
"CXCXCXCXCXCXCXCXCXCXqXn.n.c.c.3.O O v :.:.b.=X,XyXyXyXyXyXb.c.b.yXyXyXyXyX:Xb.*Xl.s.3.k k >.5X7Xn.n.n.jXCXCXCXCXCXCXCXCXCX",
"CXCXCXCXCXCXCXCXCXCX*Xa.c.5X7Xx.O O p k I jXVXuXW.W.W.Q./.-X7X-X^.W.W.W.W.rXkXkX*Xa.3.h h >.5X5Xp.2.5.sXnXCXCXCXCXCXCXCXCX",
"CXCXCXCXCXCXCXCXCXCX*Xa.k.4X5Xf.O O f l c jXVXuXW.W.W.Q.^.-X7X-X/.E.W.W.E.yXxXzX*Xk.i.c k >.5X5Xf.5.6.sXCXCXCXCXCXCXCXCXCX",
"CXCXCXCXCXCXCXCXCXCX|.3.,.g g d f p *.,.>.aXCXrXW.Q.A.A D 9.p.9.S A N.E.Q.uXCXCXwX4Xn.,.>.5.l.l.0XsXdXcXCXCXCXCXCXCXCXCXCX",
"CXvXCXCXCXCXCXCXvXMX|.4.O.2 , w k l >.4.5.aXkXrXW.Q.A.C M =.4.-.M m S R.Q.uXVXVXeX9Xn.5.2.3.a.s.hXMXCXCXCXCXCXCXCXCXCXCXCX",
"CXCXCXCXCXCXCXCXCXCX|.6.=.3 1 w k k >.4.5.0XlXrX~.Q.A.M Z :.6.:.S M A E.^.uXCXCXeX6Xn.5.4.6.s.s.hXCXCXCXCXCXCXCXCXCXCXCXCX",
"CXCXCXCXCXCXCXCXCXCXkXdX.X3 1 w k k 3.a.p.f.g.9.8.8.8.<.p.n.3Xn.<.<.<.'.).}.b.b.c.k.s.5.,.h.jXhXcXCXCXCXCXCXCXCXCXCXCXvXCX",
"CXCXCXCXCXCXCXCXCXCXCXMX<Xw 1 e h c 3.k.a.5.2.2.2.2.7.a.k.4X9X4Xk.k.s.].].f.a.a.a.a.p.4.4.j.MXCXCXCXCXCXCXCXCXCXCXCXCXCXCX",
"CXCXCXCXCXCXCXCXCXCXCXMX<Xe e r h k 2.i.i.2.,.2.5.4.6.k.l.3X9X3Xk.k.s.[.[.f.i.i.i.a.i.4.4.j.vXCXCXCXCXCXCXCXCXCXCXCXCXCXCX",
"CXCXCXCXCXCXCXCXCXCXCXCXxXpXaX}.6 6 : : : : % x i.a.c.4X3XhXjXhX4X3X3X3X5X,.w r g v O.,.2.j.CXCXCXCXCXCXCXCXCXCXCXCXCXCXCX",
"CXCXCXCXCXCXCXCXCXCXCXCXCXMXMX:X1 2 @ . . .   x k.a.v.7X6XlXxXlX9X6X6X6X7XO.< 1 t h c ,.2.j.vXCXCXCXCXCXCXCXCXCXCXCXCXCXCX",
"CXCXCXCXCXCXCXCXCXCXCXCXCXCXMX:X6 1 i a a - . i ,.,.a.n.n.eXeXeX9X6X3Xf.f.c $ $ z =.5.=X.X,XcXCXCXCXCXCXCXCXCXCXCXCXCXCXCX",
"CXCXCXCXCXCXCXCXCXCXCXCXCXCXMX:X1 6 O.6.3.; o : z h >.a.k.4X6X6X5X9X;Xv k : . o *.p.*XCXCXMXCXCXCXCXCXCXCXcXCXCXCXCXCXCXCX",
"CXCXCXCXCXCXCXCXCXCXCXCXCXCXNXOX3 3 O.3.,.:   : h k >.s.k.4X6X6X9X9X3Xc h : o o *.s.b.MXMXMXCXCXCXCXCXCXCXCXCXCXCXCXCXCXCX",
"CXCXCXCXCXCXCXCXCXCXCXCXCXMXNX,X3 1 g o.c x x a u u a v v f.f.f.<.<.:.c z j a a v o.,.|..X:XCXCXCXCXCXCXCXCXCXCXCXCXCXCXCX",
"CXCXCXCXCXCXCXCXCXCXCXCXCXCXMXOX3 < < < 6 3.k.*.o o . . - j h j O . # h h =.5.5.t < 6 f f 8.CXMXCXCXCXCXCXCXCXCXCXCXCXCXCX",
"cXCXCXCXCXCXCXCXCXCXCXCXcXfXfX.X0 6 6 6 6 ,.a.v # O # # % z c j ; - % h k *.2.4.g 6 s v c 9.xXxXcXCXCXCXCXCXCXCXCXCXCXCXCX",
"CXCXCXCXCXCXCXCXCXCXCXMX#X> > u R R ) f f w 0 s j f c >.>.7.i.i.>.>.=.l h =.5.4.0.d.d.;X3X=X X XfXCXCXCXCXCXCXCXCXCXCXCXCX",
"CXCXCXCXCXCXCXCXCXCXCXMX@XO o $ ~ W ) h k w 1 w k k *.5.5.s.s.a.5.5.2.l k *.2.5.d.]..X5X9X;X].{.dXCXCXCXCXCXCXCXCXCXCXCXCX",
"CXCXCXCXCXCXCXCXCXCXCXCX#X# X 7 ~ ~ g h h 8 8 y H P I 1.2.7.7.q.1.1.2.H H -.5.5.d.{..X6X9X-X X XdXxXxXCXCXCXCXCXCXCXCXCXCX",
"CXCXCXCXCXCXCXCXCXCXCXMX<X5 2 w ~ ~ g k l D.E.!.!.R.S.^ ^ ^ ^ ~ ^ ~ ( D.R.H.`.`.0XfXjXlXjXcXNXNX+X{. XfXCXCXCXCXCXCXCXCXCX",
"CXCXCXCXCXCXCXCXCXCXCXMX,X6 1 0 ~ ~ ) l l D.Q.W.E.Q.J E E Q Q Q ~ Q ( ~.E.H.].{.iXlXlXkXkXCXVXCXoX`.].fXCXCXCXCXCXCXCXCXCX",
"CXCXCXCXCXCXCXCXCXCXCXMX0Xc c ( q q y B V G.J.J.J.J.G.S.J ` ' { J J S.J.J.).9.9.pXNXMXNXNXNXVXVXpX#X<XkXCXCXCXCXCXCXCXCXCX",
"CXCXCXCXCXCXCXCXCXCXCXMXaX3.2.O.1 2 b m Z F.[.[.].[.J.Q.!.{  .{ ~.Q.^.'.[.9.2.5.gXVXVXVXVXVXVXVXvXlXlXCXCXCXCXCXCXCXCXCXCX",
"CXCXCXCXCXCXCXCXCXCXCXnXsX2.2.o.1 2 b m m F.].].`.].J.W.!.{ [ %.!.W.^.'.].9.4.5.0XVXVXVXVXVXVXVXcXkXkXCXCXCXCXCXCXCXCXCXCX",
"CXCXCXCXCXCXCXCXCXCXpX@X<X0X0Xj.3 2 b C Z }.=X=X=X-X_.Q.W.S.(.(.~.Q./.*X=Xg.2.2.0XNXnXnXnXNXVXVXcXkXxXcXCXCXCXCXCXCXCXCXCX",
"CXCXCXCXCXCXCXCXCXCX+X`.+XCXVX1X3 2 b C C *X7X7X7X9XXXQ.W.Q.Q.Q.W.Q./.8X6Xl.2.2.,XlXkXkXkXcXVXVXcXkXzXCXCXCXCXCXCXCXCXCXCX",
"CXCXCXCXCXCXCXCXCXCX+X`.+XVXVX<X7 7 b C Z }.-X-X-X-XXXQ.W.W.W.W.W.W./.>X-Xh.8.8.:XdXdXkXkXvXCXVXcXkXkXcXCXCXCXCXCXCXCXCXCX",
"CXCXCXCXCXCXCXCXCXCX+X`.+XVXVXtXM M m C C C.Y.T.^.^.^.W.W.W.W.W.W.W.W.^.^.^.~.E.H.[.oXkXkXvXVXVXCXkXzXCXCXCXCXCXCXCXCXCXCX",
"CXCXCXCXCXCXCXCXCXCX+X'.+XVXVXtXZ Z C C C Z.U.Y.Q.W.W.W.W.W.W.W.~.Q.~.Q.Q.E.Q.Q.H.{.oXjXlXvXVXVXcXzXzXCXCXCXCXCXCXCXCXCXCX",
"CXCXCXCXCXCXCXCXCXCX<X X+XCXVXtXN N M C C Z.L.Y.E.Q.E.W.W.W.W.W.Q.Q.Q.W.Q.E.E.E.G.).XXpXdXdXCXCXdXsXsXxXCXCXCXCXCXCXcXCXCX",
"CXCXCXCXCXCXCXCXCXCXlXjXkXxXcX:Xl l N m C K.P.U.U.U.T.Q.W.W.^.W.Q.Q.W.W.W.Y.P.L.L.K.R.{.].{.{.{.{.{.{.fXCXCXCXCXCXCXCXCXCX",
"CXCXCXCXCXCXCXCXCXCXxXzXkXzXxX:Xk k N m C K.P.U.U.U.T.W.W.Q.Q.W.W.W.W.W.W.Y.L.L.L.L.R.'.].].].].].`.{.fXCXCXCXCXCXCXCXCXCX",
"CXCXCXCXCXCXCXCXCXCX0XoX0XMXCXtXB B M C C M.M.M.M.M.C.Y.T.Y.Y.T.Q.E.Q.W.W.T.L.I.I.P.Z.G G G G G oXaXpXcXCXCXCXCXCXCXCXCXCX",
"CXCXCXCXCXCXCXCXCXCXoX`.oXVXVXtXm C C m m m m m m m M.P.P.P.U.U.E.W.W.W.W.T.L.I.K.I.Z.Z m m m m tXNXmXCXCXCXCXCXCXCXCXCXCX",
"CXCXCXCXCXCXCXCXCXCX+X`.+XCXVXtXm m m m C m m C m m M.L.L.U.U.U.E.Q.W.W.W.T.I.L.L.L.Z.C m m C M tXmXCXmXCXCXCXCXCXCXCXCXCX",
"CXCXCXCXCXCXCXCXCXCXfXpXiX@X<X'.* * M C m C m m m m A M.M.K.U.U.Y.T.Y.Y.T.V.M.M.M.M.M.C.V.N.= = K U U pXmXCXCXCXCXCXCXCXCX",
"CXCXCXCXCXcXCXCXCXCXCXMXdX].].Y . o M m m m C m m m C m C K.L.L.P.P.P.L.P.M.m m m m A L.P.V.3 1 + . O iXmXCXCXCXCXCXCXCXCX",
"CXCXCXCXCXCXCXCXCXCXCXMXpXY 0.L + + n b b b b n b b M C A C.Z.Z.V.V.V.Z.Z.A m m A A M.Z.C.N.3 1 @ O - #XmXCXCXCXCXCXvXCXCX",
"CXCXCXCXCXCXCXCXCXCXCXMX#X- O @ 1 1 2 1 < 2 2 1 2 1 = C m m C m & o & m C C m m V.L.Z.C Z n 1 1 @ . - #XmXCXCXCXCXCXCXCXCX",
"CXCXCXCXCXCXCXCXCXCXCXMX@Xo o @ 1 1 1 1 1 1 < 1 1 1 = C m m m M o o & m C C m m C.L.Z.C C n 3 1 @ . - #XmXCXCXCXCXCXCXCXCX",
"CXCXCXCXCXCXCXCXCXCXCXCX#XO o @ 1 1 6 w 9 9 w 6 1 1 = n n m m M * * * N N N N b M.V.N.n N = 1 1 @ o # tXCXCXCXCXCXCXCXCXCX",
"CXCXCXCXCXcXCXCXCXCXCXMX#XO o @ 1 1 f k k k k s 1 1 3 3 2 M C C F F F - .   X X O o + 2 2 1 1 1 @ o O 0XMXCXCXCXCXCXCXCXCX",
"CXCXCXCXCXCXCXCXCXCXCXCX@XO o @ 3 3 f k k k k s 1 1 1 1 2 M m Z F B.D & . O X X O X @ 1 1 1 1 1 # o - iXMXCXCXCXCXCXCXCXCX",
"CXCXCXCXCXCXCXCXCXCXCXMX<X7 4 5 s f f k k k k f s f e 3 2 & & * F B.D O . @ 4 4 4 4 2 1 1 4 @ % '.@X@XfXCXCXCXCXCXCXCXCXCX",
"CXCXCXCXCXCXCXCXCXCXCXMX<X6 1 w k k k k k k k k k k s 1 2 X X & F B.D O o 4 1 < 1 1 1 1 1 4 X O #XMXMXMXCXCXCXCXCXCXCXCXCX",
"CXCXCXCXCXCXCXCXCXCXCXMX<X6 1 w k k k k k h h k k h s 1 2 X O & D F D - X $ 3 < 1 1 1 1 < 4 O - @XMXCXCXCXCXCXCXCXCXCXCXCX",
"CXCXCXCXCXCXCXCXCXCXCXMX<X6 1 w k k r 9 9 w 6 w 9 9 6 1 2 + X O * * - o o + @ @ @ @ @ @ O K @X@XxXCXCXCXCXCXCXCXCXCXCXCXCX",
"CXCXCXCXCXCXCXCXCXCXCXMX<X3 1 e k k 9 < 1 1 1 1 1 1 1 2 2 + X X o o . . . . . .   . . .   K CXMXCXCXCXCXCXCXCXCXCXCXCXCXCX",
"CXCXCXCXCXCXCXCXCXCXCXMX#X4 4 7 s s 6 3 1 3 1 1 1 1 1 3 2 + O X o o - L L U L L L L L L L F.CXCXCXCXCXCXCXCXCXCXCXCXCXCXCX",
"CXCXCXCXCXCXCXCXCXCXCXMX@X- o @ 1 1 1 3 1 3 1 3 3 1 1 3 2 X o X o . > fXCXmXCXCXMXMXmXMXCXCXCXCXCXCXCXCXCXCXCXCXCXCXCXCXCX",
"CXCXCXCXCXCXCXCXCXCXCXMX@XX . + 3 1 1 1 3 1 1 1 1 1 1 3 1 X o . .   > fXCXCXCXCXCXCXmXCXCXCXCXCXCXCXCXCXCXCXCXCXCXCXCXCXCX",
"CXCXCXCXvXCXCXCXCXCXCXMXpXU U K 4 4 8 e e e e w e e e e 9 + X - L U Y xXCXCXCXCXCXCXCXCXCXCXCXCXCXCXCXCXCXCXCXCXCXCXCXCXCX",
"CXCXCXCXCXCXCXCXCXCXCXCXCXCXMX@XO O p k k k k k k k k k j - . > fXCXCXCXCXCXCXCXCXCXCXCXCXCXCXCXCXCXCXCXCXCXCXCXCXCXCXCXCX",
"CXCXCXCXCXCXCXCXCXCXCXCXCXCXMXoXo . p z k l k k k l k z h O . ; fXCXCXCXCXCXCXCXCXCXCXCXCXCXCXCXCXCXCXCXCXCXCXCXCXCXCXCXCX",
"CXCXCXCXCXCXCXCXCXCXCXCXCXCXCXiXU U a i i i i i i i i i i U U Y fXCXCXCXCXCXCXCXCXCXCXCXCXCXCXCXCXCXCXCXCXCXCXCXCXCXCXCXCX",
"CXCXCXCXCXCXCXCXCXCXCXCXCXCXCXCXNXCXK . O X X X X O o o ; fXMXMXCXCXCXCXCXCXCXCXCXCXCXCXCXCXCXCXCXCXCXCXCXcXCXCXCXCXCXCXCX",
"CXCXCXCXCXCXCXCXCXCXCXCXCXCXCXCXCXcXL - ; - - - - - - - > fXCXCXCXCXCXCXCXCXCXCXCXCXCXCXCXCXCXCXCXCXCXCXCXCXCXCXCXCXCXCXCX",
"CXCXCXCXCXCXCXCXCXCXCXCXCXCXCXCXCXCXpXiXiXiXpXiXiXpXiXiXpXCXCXCXCXCXCXCXCXCXCXCXCXCXCXCXCXCXCXCXCXCXCXCXCXCXCXCXCXCXCXCXCX",
"CXCXCXCXCXCXCXCXCXCXCXCXCXCXCXCXCXCXCXMXMXMXCXCXMXnXmXnXCXCXCXCXCXCXCXCXCXCXCXCXCXCXCXCXCXCXCXCXCXCXCXCXCXCXCXCXCXCXCXCXCX",
"CXCXCXCXCXCXCXCXCXCXCXCXCXCXCXCXCXCXCXCXCXCXCXCXCXCXCXCXCXCXCXCXCXCXCXCXCXCXCXCXCXCXCXCXCXCXCXCXCXCXCXCXCXCXCXCXCXCXCXCXCX",
"CXCXCXCXCXCXCXCXCXCXCXCXCXCXCXCXCXCXCXCXCXCXCXCXCXCXCXCXCXCXCXCXCXCXCXCXCXCXCXCXCXCXCXCXCXCXCXCXCXCXCXCXCXcXCXCXCXCXCXCXCX",
"CXCXCXCXCXCXCXcXCXCXCXCXCXCXCXCXCXCXCXCXCXCXCXCXCXCXCXCXCXCXCXCXCXCXCXCXCXCXCXCXCXCXCXCXCXCXCXCXCXCXCXCXCXCXCXCXCXCXCXCXCX",
"CXCXCXCXCXCXCXCXCXCXCXCXCXCXCXCXCXCXCXCXCXCXCXCXCXCXCXCXCXCXCXCXCXCXCXCXCXCXCXCXCXCXCXCXCXCXCXCXCXCXCXCXCXCXCXCXCXCXCXCXCX",
"CXCXCXCXCXCXCXCXCXCXCXCXCXCXCXCXCXCXCXCXCXCXCXCXCXCXCXCXCXCXCXCXCXCXCXCXCXCXcXCXCXCXCXCXCXCXCXCXCXCXCXCXCXCXCXCXCXCXCXCXCX",
"CXCXCXCXCXCXCXCXCXCXcXCXCXCXCXCXCXCXCXCXCXCXCXCXCXCXCXCXCXCXCXCXCXCXCXCXCXCXCXCXCXCXCXCXCXCXCXCXCXCXCXCXCXCXCXCXCXCXCXCXCX",
"CXCXCXCXCXCXCXCXCXCXCXCXCXCXCXCXCXCXCXCXCXCXCXCXCXCXCXCXCXCXCXCXCXCXCXCXCXCXCXCXCXCXCXCXCXCXCXCXCXCXCXCXCXCXCXCXCXCXCXCXCX",
"CXCXCXCXCXCXCXCXCXCXCXCXCXCXCXCXCXCXCXCXCXCXCXCXCXCXCXCXCXCXCXCXCXCXCXCXCXCXCXCXCXCXCXCXCXCXCXCXCXCXCXCXCXCXCXCXCXCXCXCXCX",
"CXCXCXCXCXCXCXCXCXCXCXCXCXCXCXCXCXCXCXCXCXCXCXCXCXCXCXCXCXCXCXCXCXCXCXCXCXCXCXCXCXCXCXCXCXCXCXCXCXCXCXCXCXCXCXCXCXCXCXCXCX"
};
