/* XPM */
static char *result[] = {
/* columns rows colors chars-per-pixel */
"70 100 233 2 ",
"   c #141515",
".  c #191817",
"X  c #171818",
"o  c #1B1A1A",
"O  c #37110E",
"+  c #251917",
"@  c #29211F",
"#  c #33221F",
"$  c #131333",
"%  c #350A2D",
"&  c #1F2020",
"*  c #242525",
"=  c #292726",
"-  c #382622",
";  c #363636",
":  c #4C0E09",
">  c #560B05",
",  c #590C06",
"<  c #560D08",
"1  c #54110B",
"2  c #5D140D",
"3  c #491011",
"4  c #5C1B14",
"5  c #68130C",
"6  c #621C14",
"7  c #631E19",
"8  c #751A11",
"9  c #64231C",
"0  c #69271C",
"q  c #752219",
"w  c #4F1432",
"e  c #452824",
"r  c #45322B",
"t  c #59342D",
"y  c #4F2E30",
"u  c #682B25",
"i  c #7F2B21",
"p  c #6B352C",
"a  c #773728",
"s  c #643833",
"d  c #6E3B32",
"f  c #723D33",
"g  c #783C36",
"h  c #774338",
"j  c #7D493A",
"k  c #74513D",
"l  c #080947",
"z  c #060354",
"x  c #00025E",
"c  c #170E50",
"v  c #211658",
"b  c #302A54",
"n  c #010363",
"m  c #0B0D64",
"M  c #04076B",
"N  c #171868",
"B  c #070A7B",
"V  c #262774",
"C  c #3A397E",
"Z  c #512F50",
"A  c #58345D",
"S  c #693D58",
"D  c #4F306E",
"F  c #623E67",
"G  c #484747",
"H  c #504D4D",
"J  c #595756",
"K  c #704D47",
"L  c #686868",
"P  c #787676",
"I  c #86190E",
"U  c #891C11",
"Y  c #A11F11",
"T  c #8E2A1E",
"R  c #9A2619",
"E  c #A32315",
"W  c #A92517",
"Q  c #AD2618",
"!  c #A82B1D",
"~  c #B3281A",
"^  c #BB291A",
"/  c #A6311E",
"(  c #91332D",
")  c #A62D21",
"_  c #A83628",
"`  c #B53326",
"'  c #B0382E",
"]  c #C12B1C",
"[  c #CA2D1E",
"{  c #D22E1F",
"}  c #C92F27",
"|  c #D32F20",
" . c #C93729",
".. c #DC3222",
"X. c #DA3525",
"o. c #DA3631",
"O. c #E63424",
"+. c #E83424",
"@. c #E53728",
"#. c #E43B2B",
"$. c #E23F30",
"%. c #834329",
"&. c #844C39",
"*. c #904E39",
"=. c #AE4236",
"-. c #B04632",
";. c #9C653C",
":. c #CA483B",
">. c #DB4738",
",. c #DC4B3D",
"<. c #E1402A",
"1. c #E34234",
"2. c #875747",
"3. c #8B574B",
"4. c #B35B52",
"5. c #956249",
"6. c #9A684B",
"7. c #9E6E56",
"8. c #A26C4E",
"9. c #AB6A4C",
"0. c #A26E50",
"q. c #BA635A",
"w. c #A47252",
"e. c #A77758",
"r. c #AE7B59",
"t. c #B07550",
"y. c #926F6A",
"u. c #857A7E",
"i. c #B96C64",
"p. c #A67D67",
"a. c #B37462",
"s. c #DA4F41",
"d. c #D45646",
"f. c #DA5143",
"g. c #DC655A",
"h. c #C37B73",
"j. c #B38353",
"k. c #B98957",
"l. c #BE9056",
"z. c #99827A",
"x. c #B08A6E",
"c. c #C18450",
"v. c #C4975C",
"b. c #C08F62",
"n. c #C59765",
"m. c #D0A56E",
"M. c #D7AC78",
"N. c #DDB27A",
"B. c #E2B77E",
"V. c #070B88",
"C. c #111492",
"Z. c #2D2889",
"A. c #080EA7",
"S. c #060DBA",
"D. c #2917AE",
"F. c #1E21A0",
"G. c #2827A9",
"H. c #2A2DBA",
"J. c #42309E",
"K. c #4534BD",
"L. c #615186",
"P. c #6655AD",
"I. c #0B12C9",
"U. c #0D15CF",
"Y. c #050FD5",
"T. c #0811D4",
"R. c #1C22D6",
"E. c #2C2FC3",
"W. c #3536CB",
"Q. c #252BDA",
"!. c #2E32DB",
"~. c #3538D9",
"^. c #3A3DDE",
"/. c #3337E1",
"(. c #3A3EE1",
"). c #443BC6",
"_. c #573CC0",
"`. c #7670D2",
"'. c #927183",
"]. c #898788",
"[. c #978A89",
"{. c #8F9090",
"}. c #9B9999",
"|. c #B89888",
" X c #AD9390",
".X c #B2A199",
"XX c #9B97A6",
"oX c #A7A4A4",
"OX c #A8A8A8",
"+X c #B8A8A7",
"@X c #BAB7B6",
"#X c #CC948D",
"$X c #CE9893",
"%X c #D7A39A",
"&X c #E7BE82",
"*X c #D4AAA5",
"=X c #D7ACA7",
"-X c #C7B4B0",
";X c #D4BEB6",
":X c #EDC688",
">X c #EEC689",
",X c #F3CC8C",
"<X c #F7D08E",
"1X c #F9D291",
"2X c #DCC1BE",
"3X c #AEAFC9",
"4X c #BBBCCE",
"5X c #BDBED1",
"6X c #CEBEC4",
"7X c #C3C3C3",
"8X c #CBC9C9",
"9X c #D8CAC8",
"0X c #D2CED0",
"qX c #D5CED4",
"wX c #D3D3D3",
"eX c #DCD5D3",
"rX c #DDDBDB",
"tX c #E1CCCA",
"yX c #E2D0CE",
"uX c #E3D4D2",
"iX c #E4DDDC",
"pX c #E5E0DF",
"aX c #DEDEE4",
"sX c #E5E3E3",
"dX c #E9E5E4",
"fX c #FFECECEC",
"gX c #F3E9E9",
"hX c #F7F0EE",
"jX c #EEEFF0",
"kX c #EDF0F0",
"lX c #F2F1F1",
"zX c #F9F7F6",
"xX c #FEFEFE",
/* pixels */
"fXfXfXfXfXfXfXfXfXfXfXfXfXfXfXfXfXfXfXfXfXdXfXfXfXfXfXfXfXfXfXfXfXfXfXfXfXfXfXfXfXfXfXfXfXfXfXfXfXfXfXfXfXfXfXfXfXfXfXfXfXfXfXfXfXfXfXfXfXfX",
"fXfXfXfXfXfXfXfXfXfXfXfXfXfXfXfXfXfXfXfXfXfXfXfXfXfXfXfXfXfXfXfXfXfXfXfXfXfXfXfXfXfXfXfXfXfXfXfXfXfXfXfXfXfXfXfXfXfXfXfXfXfXfXfXfXfXfXfXfXfX",
"fXfXfXfXfXfXfXfXfXfXfXfXfXfXfXfXfXfXfXfXfXfXfXfXfXfXfXfXfXfXfXfXfXfXfXfXfXfXfXfXfXfXfXfXfXfXfXfXfXfXfXfXfXfXfXfXfXfXfXfXfXfXfXfXfXfXfXfXfXfX",
"fXfXfXfXfXfXfXfXfXfXfXfXfXfXfXfXfXfXfXfXfXfXfXfXfXfXfXfXfXfXfXfXfXfXfXfXfXfXfXfXfXfXfXfXfXfXfXfXfXfXfXfXfXfXfXfXfXfXfXfXfXfXfXfXfXfXfXfXfXfX",
"fXfXfXfXfXfXfXfXfXfXfXfXfXfXfXfXfXfXfXfXfXfXfXfXfXfXfXfXfXfXfXfXfXfXfXfXfXfXfXfXfXfXfXfXfXfXfXfXfXfXfXfXfXfXfXfXfXfXfXfXfXfXfXfXfXfXfXfXfXfX",
"fXfXfXfXfXfXfXfXfXfXfXfXfXfXfXfXfXfXfXfXfXfXfXfXfXfXfXfXfXfXfXfXfXfXfXfXfXfXfXfXfXfXfXfXfXfXfXfXfXfXfXfXfXfXfXfXfXfXfXfXfXfXfXfXfXfXfXfXfXfX",
"fXfXfXfXfXfXfXfXfXfXfXfXfXfXfXfXfXfXfXfXfXfXfXfXfXfXfXfXfXfXfXfXfXfXfXfXfXfXfXfXfXfXfXfXfXfXfXfXfXfXfXfXfXfXfXfXfXfXfXfXfXfXfXfXfXfXfXfXfXfX",
"fXfXfXfXfXfXfXfXfXfXfXfXfXfXfXfXfXfXfXfXfXfXfXfXfXfXfXfXfXfXfXfXfXfXfXfXfXfXfXfXfXfXfXfXfXfXfXfXfXfXfXfXfXfXfXfXfXfXfXfXfXfXfXfXfXfXfXfXfXfX",
"fXfXfXfXfXfXfXfXfXfXfXfXfXfXfXfXfXfXfXfXfXfXfXfXfXfXfXfXfXfXfXfXfXfXfXfXfXfXfXfXfXfXfXfXfXfXfXfXfXfXfXfXfXfXfXfXfXfXfXfXfXfXfXfXfXfXfXfXfXfX",
"fXfXfXfXfXfXfXfXfXfXfXfXfXfXfXfXfXfXfXfXfXfXfXfXfXfXfXfXfXfXfXfXfXfXfXfXfXfXfXfXfXfXfXfXfXfXfXfXfXfXfXfXfXfXfXfXfXfXfXfXfXfXfXfXfXfXfXfXfXfX",
"fXfXfXfXfXfXfXfXfXfXfXfXfXfXfXfXfXfXfXfXfXfXfXfXfXfXfXfXfXfXfXfXfXfXfXfXfXfXfXfXfXfXfXfXfXfXfXfXfXfXfXfXfXfXfXfXfXfXfXfXfXfXfXfXfXfXfXfXfXfX",
"fXfXfXfXfXfXfXfXfXfXfXfXfXfXfXfXfXfXfXfXfXfXfXfXfXfXfXfXfXfXfXfXfXfXfXfXfXfXfXfXfXfXfXfXfXfXfXfXfXfXfXfXfXfXfXfXfXfXfXfXfXfXfXfXfXfXfXfXfXfX",
"fXfXfXfXfXfXfXfXfXfXfXfXfXfXfXfXfXfXfXfXfXfXfXfXfXfXfXfXfXfXfXfXfXfXfXfXfXfXfXfXfXfXfXfXfXfXfXfXfXfXfXfXfXfXfXfXdXfXfXfXfXfXfXfXfXfXfXfXfXfX",
"fXfXfXfXfXfXfXfXfXfXfXfXfXfXfXfXfXfXfXfXfXfXfXfXfXfXfXfXfXfXfXfXfXfXfXfXfXfXfXfXfXfXfXfXfXfXfXfXfXfXfXfXfXfXfXfXfXfXfXfXfXfXfXfXfXfXfXfXfXfX",
"fXfXfXfXfXfXfXfXfXfXfXfXfXfXfXfXfXfXfXfXfXfXfXfXfXfXfXfXfXfXfXfXfXfXfXfXfXfXfXfXfXfXfXfXfXfXfXfXfXfXfXfXfXfXfXfXfXfXfXfXfXfXfXfXfXfXfXfXfXfX",
"fXfXfXfXfXfXfXfXfXfXfXfXfXfXfXfXfXfXfXfXfXfXfXfXfXfXfXfXfXkXkXkXfXfXkXkXfXfXfXfXfXfXfXfXfXfXfXfXfXfXfXfXfXfXfXfXfXfXfXfXfXfXfXfXfXfXfXfXfXfX",
"fXfXfXfXfXfXfXfXfXfXfXfXfXfXfXfXfXfXfXfXfXfXfXfXfXfXfXfXdX%X$X$X$X$X#X*XfXfXfXfXfXfXfXfXfXfXfXfXfXfXfXfXfXfXfXfXfXfXfXfXfXfXfXfXfXfXfXfXfXfX",
"fXfXfXfXfXfXfXfXfXfXfXfXfXfXfXfXfXfXfXfXfXfXfXfXfXfXfXlXpX' Y Y E Y Y 4.fXjXjXjXfXfXfXfXfXfXfXfXfXfXfXfXfXfXfXfXfXfXfXfXfXfXfXfXfXfXfXfXfXfX",
"fXfXfXfXfXfXfXfXfXfXfXfXfXfXfXfXfXfXfXfXfXfXfXfXfXfXdX;X*X:.^ ] ] ^ ] :.#X#X$X$XuXfXfXfXfXfXfXfXfXfXfXfXfXfXfXfXfXfXfXfXfXfXfXfXfXfXfXfXfXfX",
"fXfXfXfXfXfXfXfXfXfXfXfXfXfXfXfXfXfXfXfXfXfXfXfXfXfXpXx.6.X.O.O.+.+.+.| R Y Y ! 2XjXfXfXfXfXfXfXfXfXfXfXfXfXfXfXfXfXfXfXfXfXfXfXfXfXfXfXfXfX",
"fXfXfXfXfXfXfXfXfXfXfXfXfXfXfXfXfXfXfXfXfXfXfXfXpXyX9Xr.9.#.+.O.+.+.+...Q Q Q ~ =XuXdXfXfXfXfXfXfXfXfXfXfXfXfXfXfXfXfXfXfXfXfXfXfXfXfXfXfXfX",
"fXfXfXfXfXfXfXfXfXfXfXfXfXfXfXfXfXfXfXfXfXfXfXkX*X) ' :.,.@.O.O.+.@.O.O.O.....O.` ' 9XkXfXfXfXfXfXfXfXfXfXfXfXfXfXfXfXfXfXfXfXfXfXfXfXfXfXfX",
"dXfXfXfXfXfXfXfXfXfXfXfXfXfXfXfXfXfXfXfXfXfXfXkX*X/ / :.d.@.O.+.O.+.O.@.O.O.+.O.^ ) =XtXuXfXfXfXfXfXfXfXfXfXfXfXfXfXfXfXfXfXfXfXfXfXfXfXfXfX",
"fXfXfXfXfXfXfXfXfXfXfXfXfXfXfXfXfXfXfXfXfXfXfXkX;X8.9.k.c.<.O.O.O.O.O.O.O.+.O.+.O.@.` ) #XfXfXfXfXfXfXfXfXfXfXfXfXfXfXfXfXfXfXfXfXfXfXfXfXfX",
"fXfXfXfXfXfXfXfXfXfXfXfXfXfXfXfXfXfXfXfXfXfXfXfX;X0.0.k.c.<.+.O.O.+.+.O.O.+.O.O.O.O.Q Y b.jXfXfXfXfXfXfXfXfXfXfXfXfXfXfXfXfXfXfXfXfXfXfXfXfX",
"fXfXfXfXfXfXfXfXfXfXfXfXfXfXfXuXi.q.q.q.q.q.4.2.p.M.&Xx.z.` ^ { @.#.>.1.+.@.O.+.O.O.Q E ' q.h.pXfXfXfXfXfXfXfXfXfXfXfXfXfXfXfXfXfXfXfXfXfXfX",
"fXfXfXfXfXfXfXfXfXfXfXfXfXfXfXtX) Y E Y E Y I > *.1X:X}.[.) E [ +.1.f.,.@.+.O.+.O.O.~ E E Y ' iXfXfXfXfXfXfXfXfXfXfXfXfXfXfXfXfXfXfXfXfXfXfX",
"fXfXfXfXfXfXfXfXfXfXfXfXfXfXfXtX) E W W E E Y U *.|. Xp.7.) E [ +.>.f.,.+.O.O.O.O.O...| ^ E 4.uXfXfXfXfXfXfXfXfXfXfXfXfXfXfXfXfXfXfXfXfXfXfX",
"fXfXfXfXfXfXfXfXfXfXfXfXfXfXfX9X) E E E E E E E 5.[.[.w.8.! E [ +.>.f.,.O.@.O.O.O.O.+.+.[ E =.sXfXfXfXfXfXfXfXfXfXfXfXfXfXfXfXfXfXfXfXfXfXfX",
"fXfXfXfXfXfXfXfXfXfXfXfXfXfXfXuXh.i.' E ~ ^ ^ ^ ' i.i.*.%.R E [ +.#.>.1.#.#.O.+.+.O.O.+.[ E _ $X*XdXfXfXfXfXfXfXfXfXfXfXfXfXfXfXfXfXfXfXfXfX",
"fXfXfXfXfXfXfXfXfXfXfXfXfXfXfXfXfXfXq.R | +.+.+.+.+...5 2 Y E } +.+.O.#.s.,.O.+.+.O.O.+.] E E E =.pXkXfXfXfXfXfXfXfXfXfXfXfXfXfXfXfXfXfXfXfX",
"fXfXfXfXfXfXfXfXfXfXfXfXfXfXfXfXfXfXq.T ` { | +.+.+.O.R U U I Q { ..@.#.f.,.1.#.@.O.O.O.} E E E _ #X%XeXfXfXfXfXfXfXfXfXfXfXfXfXdXfXfXfXfXfX",
"fXfXfXfXfXfXfXfXfXfXfXfXfXfXfXjXfXfXp.p T E ] +.+.+.+.+...5 1 U E [ O.#.s.s.s.s.#.O.O.+.[ E E E E E E =XkXfXfXfXfXfXfXfXfXfXfXfXfXfXfXfXfXfX",
"fXfXfXfXfXfXfXfXfXfXfXfXfXfXrXrXiXiXy.j ( ) ' ,.1.@.#.<...8 5 U W ] O.X.s.s.f.s.#.O.O.+.[ W W Q W E E =XkXfXfXfXfXfXfXfXfXfXfXfXfXfXfXfXfXfX",
"fXfXfXfXfXfXfXfXfXfXfXfXfXeX3.3.a.p.r.j.P.).`.uX%X1.,.,.,.:.:.` E W Q ^ @.$.f.s.#.O.O.O.O...O...| W E =XkXfXfXfXfXfXfXfXfXfXfXfXfXfXfXfXfXfX",
"fXfXfXfXfXfXfXfXfXfXfXfXfXqXK &.w.r.b.n._./.`.dX=Xd.d.d.d.d.,.-./ R R W ..X.:.,.#.O.O.O.O.O.O.O...W R =XkXfXfXfXfXfXfXfXfXfXfXfXfXfXfXfXfXfX",
"fXfXfXfXfXfXfXfXfXfXfXfXjXeXe.e.:X>X>X>XP./.`.aX;Xw.9.k.k.9.9.t.j.( , 8 W W ! ! ..O.O.O.+.O.O.+...W E *XkXfXfXfXfXfXfXfXfXfXfXfXfXfXfXfXfXfX",
"fXfXfXfXfXfXfXfXfXfXfXfXfXuXe.r.:X,X<X<X`.!.`.fX=X0.w.k.l.w.8.j.l.%.> 5 E W E W ..O.O.O.O.O.O.+...W E *XkXfXfXfXfXfXfXfXfXfXfXfXfXfXfXfXfXfX",
"fXfXfXfXfXfXfXfXfXfXfXfXjXeX3.6.>X<X<X,X[.'.'.x.x.j.k.N.B.N.N.v.l.%.> 5 i ( E E ^ ^ ..+.O.+.+.+...W E *XkXfXfXfXfXfXfXfXfXfXfXfXfXfXfXfXfXfX",
"fXfXfXfXfXfXfXfXfXfXfXfXjX9XK K >X<X1X<Xl.w.t.8.t.k.v.:X1X1X1Xm.c.h > 4 d a E E E E ..+.+.+.+.+...W Y *XkXfXfXfXfXfXfXfXfXfXfXfXfXfXfXfXfXfX",
"fXfXfXfXfXfXfXfXfXfXfXfXfXrXp.p.M.N.m.m.5.k 2.0.j.m.m.>X,XB.N.k.;.%.a a d g _ -.T T [ | { { { {  .d.q.;XfXfXfXfXfXfXfXfXfXfXfXfXfXfXfXfXfXfX",
"fXfXfXfXfXfXfXfXfXfXfXfXfXfXfXeXe.8.&.f = X r 0.x.<X<X<X>Xr.w.a , %.6.5.h j 8.8.h d R W E E E Y =.iXfXfXfXfXfXfXfXfXfXfXfXfXfXfXfXfXfXfXfXfX",
"fXfXfXfXfXfXfXfXfXfXfXfXfXfXfXpX|.|.K t @   r 5.k.<X<X<X>Xr.8.a < *.l.j.&.2.8.7.j d q q q q i q.a.fXfXfXfXfXfXfXfXfXfXfXfXfXfXfXfXfXfXfXfXfX",
"fXfXfXfXfXfXfXfXfXfXfXfXfXfXfXfXlXfXJ . X   # d w.<X<X<X>Xr.8.a > r.1X&Xw.0.8.8.j h @ X X   ; rXjXjXfXfXfXfXfXfXfXfXfXfXfXfXfXfXfXfXfXfXfXfX",
"fXfXfXfXfXfXfXfXfXfXfXfXfXfXfXfXfXfXL = &   - d 0.>X,X<X>Xj.t.%.6 k.1X&X7.6.8.8.h p @ . @ @ G rXjXfXfXfXfXfXfXfXfXfXfXfXfXfXfXfXfXfXfXfXfXfX",
"fXfXfXfXfXfXfXfXfXfXfXfXfXfXfXfXfXkXwX8XH   - d 5.v.v.,X1X&X:XB.N.:X1XM.j &.w.6.0 2 1 : y.0XwXdXfXfXfXfXfXfXfXfXfXfXfXfXfXfXfXfXfXfXfXfXfXfX",
"fXfXfXfXfXfXfXfXfXfXfXfXfXfXfXfXfXfXfXfXL * r d &.k.k.&X>X>X>X,X,X,X:Xm.h h 5.5.9 > , > y.iXpXfXfXfXfXfXfXfXfXfXfXfXfXfXfXfXfXfXfXfXfXfXfXfX",
"fXfXfXfXfXfXfXfXfXfXfXfXfXfXfXfXfXfXfXkXwX0X X2 9 j j e.a.r.r.k.v.k.r.6.f s = @ + . : , u 2.y.rXfXfXfXfXfXfXfXfXfXfXfXfXfXfXfXfXfXfXfXfXfXfX",
"fXfXfXfXfXfXfXfXfXfXfXfXfXfXfXfXfXfXfXfXfXlX.X, 6 p g 5.0.0.0.t.l.w.8.5.d t .   . . : , 9 p K aXjXfXfXfXfXfXfXfXfXfXfXfXfXfXfXfXfXfXfXfXfXfX",
"fXfXfXfXfXdXfXfXfXfXfXfXfXfXfXfXfXfXdXdXdXfX9X.X Xy.y.A Z p a *.-.-.-.*.d K Z.Z.c c u. X|.+X-XsXfXfXfXfXfXfXfXfXfXfXfXfXfXfXfXfXfXfXfXfXfXfX",
"fXfXfXfXfXfXfXfXfXfXfXfXfXfXfXfXfXfXsXpXiXiXfXxXrX[.'.m z : , I Y E Y R f S ^.^.B m 5XlXlXjXjXfXfXfXfXfXfXfXfXfXfXfXfXfXfXfXfXfXfXfXfXfXfXfX",
"fXfXfXfXfXfXfXfXfXfXfXfXfXfXfXsX@X@XiXlXhXhXhXfXsXqX6XL S ) Q ] [ [ [ ` f F ^.~.B m 4XjXfXfXfXfXfXfXfXfXfXfXfXfXfXfXfXfXfXfXfXfXfXfXfXfXfXfX",
"fXfXfXfXfXfXfXfXfXfXfXfXfXfXfXrX[.[.rXxXxXxXlXiXfXxXhXx.9.@.+.+.O.+.+. .f S ^.~.B x 7XlXfXfXfXfXfXfXfXfXfXfXfXfXfXfXfXfXfXfXfXfXfXfXfXfXfXfX",
"fXfXfXfXfXfXfXfXfXfXfXfXfXfXfXsX+X+XiXzXxXxXzXfXlXxXhXh.9.<.#.#.<.@.+. .g A !.!.B N 4XlXfXfXfXfXfXfXfXfXfXfXfXfXfXfXfXfXfXfXfXfXfXfXfXfXfXfX",
"fXfXfXfXfXfXfXfXfXfXfXfXfXfXfXfXiXiXpXiXzXxXxXxXxXxXhXg.,.f.f.f.,.<.+. .f A I.Y.B m 4XfXfXfXfXfXfXfXfXfXfXfXfXfXfXfXfXfXfXfXfXfXfXfXfXfXfXfX",
"fXfXfXfXfXfXfXfXfXfXfXfXfXiX-X-X8X8XiXfXzXxXxXxXxXzXgXg.,.f.f.f.f.<.+. .a A Y.Y.B m 4XjXfXfXfXfXfXfXfXfXfXfXfXfXfXfXfXfXfXfXfXfXfXfXfXfXfXfX",
"fXfXfXfXfXfXfXfXfXfXfXfXfX9X7 u [.[.rXxXxXxXxXxXzXiXyXg.s.s.s.s.f.1.+. .a A Y.Y.B m 4XhXfXfXjXfXfXfXfXfXfXfXfXfXfXfXfXfXfXfXfXfXfXfXfXfXfXfX",
"fXfXfXfXfXfXfXfXfXfXfXfXsX;X7 4 z.[.eXxXzXzXzXxXhXiXyXg.s.s.s.s.f.<.O.X.h A U.T.V.m 3XaXaXaXaXfXfXfXfXfXfXfXfXfXfXfXfXfXfXfXfXfXfXfXfXfXfXfX",
"fXfXfXfXfXfXfXfXfXfXjX+X3.2.2 7 6.e. XoXoX.X-XfXdXaXyX=.~ o.o.+.#.' %.S K.).!.!.I.S.Z.V V V L.aXjXfXfXfXjXfXfXfXfXfXfXfXfXfXfXfXfXfXfXfXfXfX",
"fXfXfXfXfXfXfXfXfXfXjX Xs u < 6 6.6.z.[.].].XXqXqXqX5X' E } o.o.o.( S F ^.(.^.^.U.T.V.M n x N qXiXiXpXrXaXdXfXfXfXfXfXfXfXdXfXfXfXfXfXfXfXfX",
"fXfXfXfXfXfXfXfXfXfXkX].+ + < 6 h h w.l.A N N V V V V c c D.D.)._.).).).^.^.^.^././.!.W.F.x m u f 2.3.G ; @XjXfXfXfXfXfXfXfXfXfXfXfXfXfXfXfX",
"fXfXfXfXfXfXfXfXfXjXkX].  o < 2 f f w.l.b x x x M n x n n I.Y.R.^.(.(.(.^.^.^.^./.).^.(.F.n z > 1 d d # X OXjXfXfXfXfXfXfXfXfXfXfXfXfXfXfXfX",
"fXfXfXfXfXfXfXfXfXfXjX].  + 9 u 9 9 &.5.Z.A.A.G.C.x n x M I.Y.R.Q.!.^.^.^.^.^.(.(.^.(.(.Z.% % u u d g - X OXjXfXfXfXfXfXfXfXfXfXfXfXfXfXfXfX",
"fXfXfXfXfXfXfXfXfXfXjX].  + d p < , u f F.Y.Q.(.G.x x x M I.Y.Y.Y.Q.(.^.^.^.^.^.(.(.(./.D , 2 d f f d # X OXjXfXfXfXfXfXfXfXfXfXfXfXfXfXfXfX",
"fXfXfXfXfXfXfXfXfXfXfX7X{.P r e u u 9 9 Z D G.(.W.G.F.M n V.V.S.Y.Q.^.^.^.^.^.^.(.^.D D Z 0 u *.2.3.2.- o OXkXkXfXfXfXfXfXfXfXfXfXfXfXfXfXfX",
"fXfXfXfXfXfXfXfXfXfXfXkXzX0X* o d d 6 > 0 h F (.(.(.^.M x x x A.Y.Q.^.^.^.^.^.^.^.~.w > 9 f j 8.w.9.w.r o OXkXfXfXfXfXfXfXfXfXfXfXfXfXfXfXfX",
"fXfXfXfXfXfXfXfXfXfXfXfXkX0XJ G t t 4 > u g A H.E.E.H.M x z z V.S.R.!./.^.^.^.^.(.~.w , 0 &.K 5.5.5.&.- . OXkXfXfXfXfXfXfXfXfXfXfXfXfXfXfXfX",
"fXfXfXfXfXfXfXfXfXfXfXfXfXfXfX7X= . 3 , u f Z x n n n x z     l M A.Y.R.(.(.^.^.(.).w , a 8.8.h h f d - . OXkXfXfXfXfXfXfXfXfXfXfXfXfXfXfXfX",
"fXfXfXfXfXfXfXfXfXfXfXfXfXfXkX8X=   3 6 0 p y c c v v C C H H b l V.S.S.H.E.!.!.K.J.w , i 5.2.f s e - P }.wXkXfXfXfXfXfXfXfXfXfXfXfXfXfXfXfX",
"fXfXfXfXfXfXfXfXfXfXfXfXfXfXfX8X=   t f 4 , , > 5 f K wXfXfXfXL   $ n n x V.Y.U.w , , , 9 f f f s o . OXzXfXfXfXfXfXfXfXfXfXfXfXfXfXfXfXfXfX",
"fXfXfXfXfXfXfXfXfXfXfXfXfXfXfX8X; & y d 6 > , > 7 h K iXkXfXkXP & c m m m B U.I.w > > > 9 f f f s o . oXkXfXfXfXfXfXfXfXfXfXfXfXfXfXfXfXfXfX",
"fXfXfXfXfXfXfXfXfXfXfXfXfXfXfXsX7X7XJ + + + + . J 9X0XsXfXfXkXwX7X5X5X5X5XXX$ $ 3 > > > 9 f f f p o . oXkXfXfXfXfXfXfXfXfXfXfXfXfXfXfXfXfXfX",
"fXfXfXfXfXfXfXfXfXfXfXfXfXfXfXfXfXfXL * * * * * L lXfXfXfXfXfXjXkXkXkXkXkX@XH J 4 , < , 7 u p a s o . oXlXfXfXfXfXfXfXfXfXfXfXfXfXfXfXfXfXfX",
"fXfXfXfXfXfXfXfXfXfXfXfXfXfXfXfXfXfX0X7X7X7X7X7XwXfXfXfXfXfXfXfXfXfXfXfXkXsXsXpXh , < > , < 2 d s o X oXkXfXfXfXfXfXfXfXfXfXfXfXfXfXfXfXfXfX",
"fXfXfXfXfXfXfXfXfXfXfXfXfXfXfXfXfXfXfXlXfXjXfXlXjXfXfXfXfXfXfXfXfXfXfXfXfXkXfXsXg , , , , < 2 d s o   OXkXfXfXfXfXfXfXfXfXfXfXfXfXfXfXfXfXfX",
"fXfXfXfXfXfXfXfXfXfXfXfXfXfXfXfXfXfXfXfXfXfXfXfXfXfXfXfXfXfXfXfXfXfXfXfXfXfXfXsXK O < , 2 , 2 e r P ].8XkXfXfXfXfXfXfXfXfXfXfXfXfXfXfXfXfXfX",
"fXfXfXfXfXfXfXfXfXfXfXfXfXfXfXfXfXfXfXfXfXfXfXfXfXfXfXfXfXfXfXfXfXfXfXfXfXfXkXsXb   : 1 > , :   ; pXkXfXfXfXfXfXfXfXfXfXfXfXfXfXfXfXfXfXfXfX",
"fXfXfXfXfXfXfXfXfXfXfXfXfXfXfXfXfXfXfXfXfXfXfXfXfXfXfXfXfXfXfXfXfXfXfXfXfXfXfXsX}.z.r O O O e P }.fXfXfXfXfXfXfXfXfXfXfXfXfXfXfXfXfXfXfXfXfX",
"fXfXfXfXfXfXfXfXfXfXfXfXfXfXfXfXfXfXfXfXfXfXfXfXfXfXfXfXfXfXfXfXfXfXfXfXfXfXfXfXkXsXG       ; aXkXfXfXfXfXfXfXfXfXfXfXfXfXfXfXfXfXfXfXfXfXfX",
"fXfXfXfXfXfXfXfXfXfXfXfXfXfXfXfXfXfXfXfXfXfXfXfXfXfXfXfXfXfXfXfXfXfXfXfXfXfXfXfXkXfX}.z.{.{.}.sXfXfXfXfXfXfXfXfXfXfXfXfXfXfXfXfXfXfXfXfXfXfX",
"fXfXfXfXfXfXfXfXfXfXfXfXfXfXfXfXfXfXfXfXfXfXfXfXfXfXfXfXfXfXfXfXfXfXfXfXfXfXfXfXfXfXfXkXkXkXfXfXfXfXfXfXfXfXfXfXfXfXfXfXfXfXfXfXfXfXfXfXfXfX",
"fXfXfXfXfXfXfXfXfXfXfXfXfXfXfXfXfXfXfXfXfXfXfXfXfXfXfXfXfXfXfXfXfXfXfXfXfXfXfXfXfXfXfXfXfXfXfXfXfXfXfXfXfXfXfXfXfXfXfXfXfXfXfXfXfXfXfXfXfXfX",
"fXfXfXfXfXfXfXfXfXfXfXfXfXfXfXfXfXfXfXfXfXfXfXfXfXfXfXfXfXfXfXfXfXfXfXfXfXfXfXfXfXfXfXfXfXfXfXfXfXfXfXfXfXfXfXfXfXfXfXfXfXfXfXfXfXfXfXfXfXfX",
"fXfXfXfXfXfXfXfXfXfXfXfXfXfXfXfXfXfXfXfXfXfXfXfXfXfXfXfXfXfXfXfXfXfXfXfXfXfXfXfXfXfXfXfXfXfXfXfXfXfXfXfXfXfXfXfXfXfXfXfXfXfXfXfXfXfXfXfXfXfX",
"fXfXfXfXfXfXfXfXfXfXfXfXfXfXfXfXfXfXfXfXfXfXfXfXfXfXfXfXfXfXfXfXfXfXfXfXfXfXfXfXfXfXfXfXfXfXfXfXfXfXfXfXfXfXfXfXfXfXfXfXfXfXfXfXfXfXfXfXfXfX",
"fXfXfXfXfXfXfXfXfXfXfXfXfXfXfXfXfXfXfXfXfXfXfXfXfXfXfXfXfXfXfXfXfXfXfXfXfXfXfXfXfXfXfXfXfXfXfXfXfXfXfXfXfXfXfXfXfXfXfXfXfXfXfXfXfXfXdXfXfXfX",
"fXfXfXfXfXfXfXfXfXfXfXfXfXfXfXfXfXfXfXfXfXfXfXfXfXfXfXfXfXfXfXfXfXfXfXfXfXfXfXfXfXfXfXfXfXfXfXfXfXfXfXfXfXfXfXfXfXfXfXfXfXfXfXfXfXfXfXfXfXfX",
"fXfXfXfXfXfXfXfXfXfXfXfXfXfXfXfXfXfXfXfXfXfXfXfXfXfXfXfXfXfXfXfXfXfXfXfXfXfXfXfXfXfXfXfXfXfXfXfXfXfXfXfXfXfXfXfXfXfXfXfXfXfXfXfXfXfXfXfXfXfX",
"fXfXfXfXfXfXfXfXfXfXfXfXfXfXfXfXfXfXfXfXfXfXfXfXfXfXfXfXfXfXfXfXfXfXfXfXfXfXfXfXfXfXfXfXfXfXfXfXfXfXfXfXfXfXfXfXfXfXfXfXfXfXfXfXfXfXfXfXfXfX",
"fXfXfXfXfXfXfXfXfXfXfXfXfXfXfXfXfXfXfXfXfXfXfXfXfXfXfXfXfXfXfXfXfXfXfXfXfXfXfXfXfXfXfXfXfXfXfXfXfXfXfXfXfXfXfXfXfXfXfXfXfXfXfXfXfXfXfXfXfXfX",
"fXfXfXfXfXfXfXfXfXfXfXfXfXfXfXfXfXfXfXfXfXfXfXfXfXfXfXfXfXfXfXfXfXfXfXfXfXfXfXfXfXfXfXfXfXfXfXfXfXfXfXfXfXfXfXfXfXfXfXfXfXfXdXfXfXfXfXfXfXfX",
"fXfXfXfXfXfXfXfXfXfXfXfXfXfXfXfXfXfXfXfXfXfXfXfXfXfXfXfXfXfXfXfXfXfXfXfXfXfXfXfXfXfXfXsXfXfXfXfXfXfXfXfXfXfXfXfXfXfXfXfXfXfXfXfXfXfXfXfXfXfX",
"fXfXfXfXfXfXfXfXfXfXfXfXfXfXfXfXfXfXfXfXfXfXfXfXfXfXfXfXfXfXfXfXfXfXfXfXfXfXfXfXfXfXfXfXfXfXfXfXfXfXfXfXfXfXfXfXfXfXfXfXfXfXfXfXfXfXfXfXfXfX",
"fXfXfXfXfXfXfXfXfXfXfXfXfXfXfXfXfXfXfXfXfXfXfXfXfXfXfXfXfXfXfXfXfXfXfXfXfXfXfXfXfXfXfXfXfXfXfXfXfXfXfXfXfXfXfXfXfXfXfXfXfXfXfXfXfXfXfXfXfXfX",
"fXfXfXfXfXfXfXfXfXfXfXfXfXfXfXfXfXfXfXfXfXfXfXfXfXfXfXfXfXfXfXfXfXfXfXfXfXfXfXfXfXfXfXfXfXfXfXfXfXfXfXfXfXfXfXfXfXfXfXfXfXfXfXfXfXfXfXfXfXfX",
"fXfXfXfXfXfXfXfXfXfXfXfXfXfXfXfXfXdXfXfXfXfXfXfXfXfXfXfXfXfXfXfXfXfXfXfXfXfXfXfXfXfXfXfXfXfXfXfXfXfXfXfXfXfXfXfXfXfXfXfXfXfXfXfXfXfXfXfXfXfX",
"fXfXfXfXdXfXfXfXfXfXfXfXfXfXfXfXfXfXfXfXfXfXfXfXfXfXfXfXfXfXfXfXfXfXfXfXfXfXfXfXfXfXfXfXfXfXfXfXfXfXfXfXfXfXfXfXfXfXfXfXfXfXfXfXfXfXfXfXfXfX",
"fXfXfXfXfXfXfXfXfXfXfXfXfXfXfXfXfXfXfXfXfXfXfXfXfXfXfXfXfXfXfXfXfXfXfXfXfXfXfXfXfXfXfXfXfXfXfXfXfXfXfXfXfXfXfXfXfXfXfXfXfXfXfXfXfXfXfXfXfXfX",
"fXfXfXfXfXfXfXfXfXfXfXfXfXfXfXfXfXfXfXfXfXfXfXfXfXfXfXfXfXfXfXfXfXfXfXfXfXfXfXfXfXfXfXfXfXfXfXfXfXfXfXfXfXfXfXfXfXfXfXfXfXfXfXfXfXfXfXfXfXfX",
"fXfXfXfXfXfXfXfXfXfXfXfXfXfXfXfXfXfXfXfXfXfXfXfXfXfXfXfXfXfXfXfXfXfXfXfXfXfXfXfXfXfXfXfXfXfXfXfXfXfXfXfXfXfXfXfXfXfXfXfXfXfXfXfXfXfXfXfXfXfX"
};
