/* XPM */
static char *result[] = {
/* columns rows colors chars-per-pixel */
"60 56 179 2 ",
"   c #000000",
".  c #090900",
"X  c #130B00",
"o  c #1D1500",
"O  c #6F4100",
"+  c #724400",
"@  c #784700",
"#  c #7B4A00",
"$  c #764B00",
"%  c #6F6403",
"&  c #726604",
"*  c #7C6D04",
"=  c #7A7A04",
"-  c #777703",
";  c #804E01",
":  c #835301",
">  c #895602",
",  c #8C5B02",
"<  c #935D03",
"1  c #956203",
"2  c #9B6404",
"3  c #956902",
"4  c #9C6B03",
"5  c #8C7E05",
"6  c #9F7502",
"7  c #A46B06",
"8  c #A86F06",
"9  c #A27503",
"0  c #AB7307",
"q  c #A27802",
"w  c #AC7C05",
"e  c #B37704",
"r  c #B47906",
"t  c #B17708",
"y  c #B57B08",
"u  c #B97C09",
"i  c #958305",
"p  c #AF8B04",
"a  c #BB8405",
"s  c #B48E04",
"d  c #BA8408",
"f  c #BF8D08",
"g  c #B68507",
"h  c #BD9B05",
"j  c #AC8111",
"k  c #B18615",
"l  c #A7A705",
"z  c #A9A905",
"x  c #A7A805",
"c  c #BFBF06",
"v  c #B5AF21",
"b  c #C3840A",
"n  c #C28E08",
"m  c #C98D08",
"M  c #D08D0C",
"N  c #C19E05",
"B  c #C49108",
"V  c #CA9509",
"C  c #CA9A08",
"Z  c #C99905",
"A  c #DC970E",
"S  c #DD980D",
"D  c #E19B0E",
"F  c #CBA606",
"G  c #CAA805",
"H  c #D8AF07",
"J  c #D4AB08",
"K  c #D8AF08",
"L  c #D2A009",
"P  c #CEBF05",
"I  c #D6B506",
"U  c #DBBB06",
"Y  c #D9B208",
"T  c #DFBB08",
"R  c #EBA30F",
"E  c #EEAB0F",
"W  c #F0AC0F",
"Q  c #EFB00F",
"!  c #E1BC08",
"~  c #F1B10F",
"^  c #F3BF0C",
"/  c #EFA410",
"(  c #EFA810",
")  c #F1A610",
"_  c #F0A910",
"`  c #C79C27",
"'  c #C99D27",
"]  c #C89D28",
"[  c #CAA12D",
"{  c #C3BB28",
"}  c #DAB726",
"|  c #CAA131",
" . c #C1C106",
".. c #D2C105",
"X. c #DED206",
"o. c #DEDE07",
"O. c #D1D107",
"+. c #E2C407",
"@. c #EACF07",
"#. c #E6C408",
"$. c #EDCD08",
"%. c #E1CD07",
"&. c #F4C30C",
"*. c #F5CE0C",
"=. c #EDD107",
"-. c #EBDB07",
";. c #E6D208",
":. c #EDD108",
">. c #EDDF08",
",. c #F6DD06",
"<. c #F8DF06",
"1. c #F4D40A",
"2. c #F8D60C",
"3. c #F7DD08",
"4. c #F8DE09",
"5. c #E7CB13",
"6. c #ECD210",
"7. c #EFE208",
"8. c #FAE306",
"9. c #F7E008",
"0. c #F9E208",
"q. c #F3E908",
"w. c #FBEB08",
"e. c #FDF605",
"r. c #FFFF05",
"t. c #F7F108",
"y. c #FCF408",
"u. c #FFFE08",
"i. c #FFFF1E",
"p. c #F9E72B",
"a. c #F9E82C",
"s. c #F7E42E",
"d. c #FFFF26",
"f. c #FFFF29",
"g. c #F6E638",
"h. c #FBED3C",
"j. c #FFFE34",
"k. c #FFFF38",
"l. c #F9F431",
"z. c #CAA14B",
"x. c #D7B446",
"c. c #CAA150",
"v. c #D0AA61",
"b. c #D9BA6D",
"n. c #D5B473",
"m. c #DCC149",
"M. c #E4CE56",
"N. c #F4EB45",
"B. c #FBEE44",
"V. c #FBEF48",
"C. c #F6E545",
"Z. c #F7F041",
"A. c #FDF143",
"S. c #FFFF43",
"D. c #FCF14A",
"F. c #FFFF4E",
"G. c #F7EA54",
"H. c #FFFF5C",
"J. c #EBDB62",
"K. c #FFFF60",
"L. c #FEFA6B",
"P. c #FFFE73",
"I. c #FEFE7E",
"U. c #DDC38F",
"Y. c #E0C786",
"T. c #FFFE84",
"R. c #FFFF8B",
"E. c #FFFF95",
"W. c #E7D4AF",
"Q. c #E8D6A9",
"!. c #E7D5B0",
"~. c #E8D5B1",
"^. c #FFFEDB",
"/. c #FEFDD4",
"(. c #FEFEE5",
"). c #FFFEEB",
"_. c #FFFFF3",
"`. c #FFFEFE",
"'. c None",
/* pixels */
"'.'.'.'.'.'.'.'.'.'.'.'.'.'.'.'.'.'.'.'.'.'.'.'.'.'.'.'.'.'.'.'.'.'.'.'.'.'.'.'.'.'.'.'.'.'.'.'.'.'.'.'.'.'.'.'.'.'.'.'.",
"'.'.'.'.'.'.'.'.'.'.'.'.'.'.'.'.'.'.'.'.'.'.'.'.'.'.y y y y y y y y '.'.'.'.'.'.'.'.'.'.'.'.'.'.'.'.'.'.'.'.'.'.'.'.'.'.",
"'.'.'.'.'.'.'.'.'.'.'.'.'.'.'.'.'.'.'.'.'.'.'.'.'.'.y y y y y y y y '.'.'.'.'.'.'.'.'.'.'.'.'.'.'.'.'.'.'.'.'.'.'.'.'.'.",
"'.'.'.'.'.'.'.'.'.'.'.'.'.'.'.'.'.'.'.'.'.'.'.'.'.'.y y y y r y y y '.'.'.'.'.'.'.'.'.'.'.'.'.'.'.'.'.'.'.'.'.'.'.'.'.'.",
"'.'.'.'.'.'.'.'.'.'.'.'.'.'.'.'.'.'.'.'.'.'.'.'.'.'.n n n B n B B B '.'.'.'.'.'.'.'.'.'.'.'.'.'.'.'.'.'.'.'.'.'.'.'.'.'.",
"'.'.'.'.'.'.'.'.'.'.'.'.'.'.'.'.'.'.'.'.'.'.'.y y y T 3.,.1.,.,.2.#.d y y y '.'.'.'.'.'.'.'.'.'.'.'.'.'.'.'.'.'.'.'.'.'.",
"'.'.'.'.'.'.'.'.'.'.'.'.'.'.'.'.'.'.'.'.'.'.'.y y y ! 9.3.3.3.,.8.#.y y y y '.'.'.'.'.'.'.'.'.'.'.'.'.'.'.'.'.'.'.'.'.'.",
"'.'.'.'.'.'.'.'.'.'.'.'.'.'.'.'.'.'.'.'.'.'.'.y y y ! 4.3.4.,.3.9.#.d y y y '.'.'.'.'.'.'.'.'.'.'.'.'.'.'.'.'.'.'.'.'.'.",
"'.'.'.'.'.'.'.'.'.'.'.'.'.'.'.'.'.'.'.'.'.'.'.y y y %.w.w.w.w.q.w.;.y y y y '.'.'.'.'.'.'.'.'.'.'.'.'.'.'.'.'.'.'.'.'.'.",
"'.'.'.'.'.'.'.'.'.'.'.'.'.'.'.'.'.'.'.'.'.'.'.y y y ;.u.u.u.u.u.u.>.d y y y '.'.'.'.'.'.'.'.'.'.'.'.'.'.'.'.'.'.'.'.'.'.",
"'.'.'.'.'.'.'.'.'.'.'.'.'.'.'.'.'.'.'.'.'.'.'.y y y ;.u.u.u.u.u.u.>.y y y y '.'.'.'.'.'.'.'.'.'.'.'.'.'.'.'.'.'.'.'.'.'.",
"'.'.'.'.'.'.'.'.'.'.'.'.'.'.'.'.'.'.'.'.'.'.'.y y y ;.u.u.u.u.u.u.>.d y y y '.'.'.'.'.'.'.'.'.'.'.'.'.'.'.'.'.'.'.'.'.'.",
"'.'.'.'.'.'.'.'.'.'.'.'.'.'.'.'.'.'.'.y y y v.!.~.!.Z.u.u.u.u.u.r.l.W.!.~.n.y y y '.'.'.'.'.'.'.'.'.'.'.'.'.'.'.'.'.'.'.",
"'.'.'.'.'.'.'.'.'.'.'.'.'.'.'.'.'.'.'.y y e n.`.`.`.H.r.u.u.u.u.r.S.`.`.`.U.y y y '.'.'.'.'.'.'.'.'.'.'.'.'.'.'.'.'.'.'.",
"'.'.'.'.'.'.'.'.'.'.'.'.'.'.'.'.'.'.'.y y y n.`.`.`.H.r.u.u.u.u.r.S._.`.`.U.e y y '.'.'.'.'.'.'.'.'.'.'.'.'.'.'.'.'.'.'.",
"'.'.'.'.'.'.'.'.'.'.'.'.'.'.'.'.'.'.'.d d a b._._.).H.r.u.u.u.u.r.S.)._._.Y.a d d '.'.'.'.'.'.'.'.'.'.'.'.'.'.'.'.'.'.'.",
"'.'.'.'.'.'.'.'.'.'.'.y y y y y y y B $.:.=.C.E.E.E.k.r.u.u.u.u.u.f.R.E.E.G.=.:.:.C y y y y y y y '.'.'.'.'.'.'.'.'.'.'.",
"'.'.'.'.'.'.'.'.'.'.'.y y y y y y r B ,.<.,.h.T.T.T.j.r.u.u.u.u.r.d.I.T.T.D.,.<.,.Z y y y y y y y '.'.'.'.'.'.'.'.'.'.'.",
"'.'.'.'.'.'.'.'.'.'.'.e r r r y y e B 1.<.,.h.R.T.T.j.u.u.u.u.u.r.d.T.T.R.D.<.<.,.Z e y e e r r y '.'.'.'.'.'.'.'.'.'.'.",
"'.'.'.'.'.'.'.'.'.'.'.` [ [ ] z.c.c.x.s.a.p.A.K.H.K.f.u.u.u.u.u.u.d.H.K.H.D.a.a.p.x.c.c.z.| [ [ ` '.'.'.'.'.'.'.'.'.'.'.",
"# # # : y y y y y y y M.T.T.R.(.`.`.^.T.T.T.F.u.u.u.u.u.u.r.u.u.u.u.u.u.u.S.T.T.I./.`.`.).E.T.T.J.y y y y y y y , # # # ",
"# # # > t y y y y y y M.T.T.R.).`.`.(.R.T.T.F.u.u.u.u.u.u.u.u.u.u.u.u.u.r.S.T.T.T./.`.`._.E.T.T.J.d y y y y y y > # # # ",
"# # # : t y y y y r y M.R.T.E.).`.`.(.R.T.R.F.r.u.u.u.u.u.u.u.u.u.u.u.u.r.S.R.T.R.^.`.`._.E.T.T.J.y y y r y y y , @ # # ",
"# # # , G Y H } m.m.x.N.S.S.S.P.I.I.L.V.B.A.{ - = = O.u.u.u.u.u.u.o.= = - v B.B.B.L.I.I.P.F.S.S.Z.m.x.m.} Y K H 3 @ # # ",
"# # # 3 1.8.<.h.T.R.T.j.r.u.r.r.r.r.e.,.,.8.5       x u.u.u.u.u.u.c .     % <.<.,.y.r.r.r.r.r.r.f.T.R.R.D.,.4.4.9 @ # # ",
"# # + 3 1.3.,.h.T.T.T.k.r.u.u.u.u.u.y.9.4.8.5       x u.u.u.u.u.u. ..     & 8.4.9.y.u.u.u.u.u.r.f.T.T.T.V.,.9.3.6 # # # ",
"# # # 3 :.,.,.g.I.T.I.l.r.u.u.u.u.u.u.0.4.9.5       z u.u.u.u.u.u.c .     & 9.<.3.y.u.u.u.u.u.r.d.I.I.T.C.1.,.:.9 # # # ",
"'.'.'.'.3 4 3 j ` ` ` 5.0.0.w.u.u.u.y.0.4.8.5       z u.u.u.u.u.u. ..     & 9.4.4.y.u.u.u.w.8.w.:.] ` ` k 4 4 3 '.'.'.'.",
"'.'.'.'.$ # # , e y e T 9.4.9.y.u.u.y.9.4.8.5       z u.u.u.u.u.u. ..     & 4.4.9.y.u.u.y.9.4.9.+.y e y 1 # # $ '.'.'.'.",
"'.'.'.'.$ # # 1 y y y ! 9.9.0.y.u.u.y.9.4.8.5       x u.u.u.u.u.u. ..     & 9.3.3.y.u.u.u.9.9.9.#.d y y 1 # # # '.'.'.'.",
"'.'.'.'.# # # < 0 0 0 J :.:.:.y.u.u.y.9.9.9.i X X X z u.u.u.u.u.u. .o X X * 8.3.,.y.u.u.u.:.$.=.Y 0 0 0 1 # # # '.'.'.'.",
"'.'.'.'.'.'.'.'.; ; ; 8 d d f q.u.u.u.9.3.9.N + + + ..u.u.u.u.u.u.X.+ + O p 9.3.9.y.u.u.y.B d d 0 : : ; # '.'.'.'.'.'.'.",
"'.'.'.'.'.'.'.'.# # # 4 u y d q.u.u.y.9.3.3.F # # # ..u.u.u.u.u.u.X.: # @ s 8.4.3.y.u.u.q.n t y 8 # # # # '.'.'.'.'.'.'.",
"'.'.'.'.'.'.'.'.# # # 7 y y d q.r.u.y.9.4.9.h @ @ # ..u.u.u.u.u.u.X.# # + s 4.4.4.y.u.u.y.f y y 8 # # # # '.'.'.'.'.'.'.",
"'.'.'.'.'.'.'.'.# # # 1 7 2 0 >.y.y.y.w.w.w.Y 7 8 7 %.u.u.u.u.u.u.-.8 8 8 L w.w.w.y.y.y.7.w 4 7 2 # # # '.'.'.'.'.'.'.'.",
"'.'.'.'.'.'.'.'.'.'.'.# # # : +.9.4.8.u.r.u.2.) ) / 9.u.u.u.u.u.u.w.( / / *.u.u.u.w.2.3.;., # # # '.'.'.'.'.'.'.'.'.'.'.",
"'.'.'.'.'.'.'.'.'.'.'.# # # : +.9.4.9.u.u.u.2.E / ) 0.u.u.u.u.u.u.w._ / / *.u.u.u.w.3.9.$., # # # '.'.'.'.'.'.'.'.'.'.'.",
"'.'.'.'.'.'.'.'.'.'.'.# # # : +.9.4.0.u.u.u.2./ / / 4.u.u.u.u.u.u.w._ _ / *.u.u.u.0.3.9.;., $ # # '.'.'.'.'.'.'.'.'.'.'.",
"'.'.'.'.'.'.'.'.'.'.'.# # # ; X.9.4.w.u.u.u.y.4.4.4.y.u.u.u.u.u.u.y.4.2.2.w.u.u.u.w.3.4.$., # # # '.'.'.'.'.'.'.'.'.'.'.",
"'.'.'.'.'.'.'.'.'.'.'.# # # : #.9.4.0.u.u.u.u.u.u.u.u.u.u.u.u.u.u.u.u.u.u.u.u.u.u.w.,.9.:., # # # '.'.'.'.'.'.'.'.'.'.'.",
"'.'.'.'.'.'.'.'.'.'.'.# # # : +.9.3.0.u.u.u.r.u.u.u.u.u.u.u.u.u.u.u.u.u.u.u.u.u.r.w.,.9.:., # # # '.'.'.'.'.'.'.'.'.'.'.",
"'.'.'.'.'.'.'.'.'.'.'.# ; # , %.9.9.w.u.u.u.u.u.u.u.u.u.u.u.u.u.u.u.u.u.y.u.u.u.u.w.9.9.=.1 # : # '.'.'.'.'.'.'.'.'.'.'.",
"'.'.'.'.'.'.'.'.# # # 2 0 0 w 9.u.y.u.r.u.u.y.0.0.0.0.0.0.0.9.0.0.0.0.0.0.y.u.u.u.y.u.y.q.g 0 0 7 # # # '.'.'.'.'.'.'.'.",
"'.'.'.'.'.'.'.'.# # # 7 y y d q.u.u.u.u.u.u.y.4.9.,.4.4.9.3.4.4.9.3.4.3.9.w.u.u.u.u.u.u.t.f y y 8 # # # # '.'.'.'.'.'.'.",
"'.'.'.'.'.'.'.'.# # # 4 y y d q.u.u.u.u.u.u.w.9.9.9.4.8.9.9.8.8.9.9.9.3.3.y.u.u.u.u.u.u.t.f y y 8 ; # # # '.'.'.'.'.'.'.",
"'.'.'.'.'.'.'.'.# # # 8 b b n q.u.u.u.y.y.y.0.1.1.1.+.U U U U ..U +.*.1.*.8.y.y.y.u.u.u.t.V b b 0 # # # # '.'.'.'.'.'.'.",
"'.'.'.'.'.'.'.'.# # # b / / ( y.u.u.y.9.8.4.*.( / ( 8 # # : : # # 4 R ) ) ^ 9.9.9.y.u.u.y.Q / / M # # # # '.'.'.'.'.'.'.",
"'.'.'.'.'.'.'.'.# # # b ) ) _ y.u.u.y.9.9.9.&./ / / 7 @ # # # # # < R / ) ^ 9.9.9.y.u.u.y.~ / ) M : # # # '.'.'.'.'.'.'.",
"'.'.'.'.'.'.'.'.# # # b ) ) _ w.u.u.u.9.9.9.&.) ) / 7 # # # # # # 2 / ) ) &.9.9.9.y.u.u.y.~ / ) M # # # # '.'.'.'.'.'.'.",
"'.'.'.'.'.'.'.'.# # # V &.&.&.1.2.2.*.Y K Y C u u u 2 @ # # # # + < u u u V Y Y K $.2.2.2.^ &.&.C ; # # # '.'.'.'.'.'.'.",
"'.'.'.'.'.'.'.'.# # # G 9.3.3.W ) ) D y y y 2 @ # # '.'.'.'.'.'.'.'.# # @ < y y y S ) / _ 1.3.4.U ; # # # '.'.'.'.'.'.'.",
"'.'.'.'.'.'.'.'.# # + F 9.4.3.~ / ) D u y u 2 # # # '.'.'.'.'.'.'.'.# # @ 2 y y y S ) ) _ 1.9.8.I # # # # '.'.'.'.'.'.'.",
"'.'.'.'.'.'.'.'.# # # F 4.3.1.E R / D y y y 2 # # # '.'.'.'.'.'.'.'.# # @ < y y y A / / E 1.3.4.Y $ # # # '.'.'.'.'.'.'.",
"'.'.'.'.'.'.'.'.# # # 3 q 9 6 7 7 2 2 , , , > '.'.'.'.'.'.'.'.'.'.'.'.'.'.> , , , 2 2 2 7 9 q q 3 : # # # '.'.'.'.'.'.'.",
"'.'.'.'.'.'.'.'.# # # # # @ @ # @ @ # # # # # '.'.'.'.'.'.'.'.'.'.'.'.'.'.'.# @ @ # @ @ @ @ # @ # # # # # '.'.'.'.'.'.'.",
"'.'.'.'.'.'.'.'.# # # # # # # # @ # # # # # # '.'.'.'.'.'.'.'.'.'.'.'.'.'.'.# # # # # # # # # # # # # # # '.'.'.'.'.'.'.",
"'.'.'.'.'.'.'.'.# # # # # # # # # # # # # # # '.'.'.'.'.'.'.'.'.'.'.'.'.'.'.# # # # # # # # # # # # # # # '.'.'.'.'.'.'."
"'.'.'.'.'.'.'.'.'.'.'.'.'.'.'.'.'.'.'.'.'.'.'.'.'.'.'.'.'.'.'.'.'.'.'.'.'.'.'.'.'.'.'.'.'.'.'.'.'.'.'.'.'.'.'.'.'.'.'.'.",
"'.'.'.'.'.'.'.'.'.'.'.'.'.'.'.'.'.'.'.'.'.'.'.'.'.'.'.'.'.'.'.'.'.'.'.'.'.'.'.'.'.'.'.'.'.'.'.'.'.'.'.'.'.'.'.'.'.'.'.'.",
"'.'.'.'.'.'.'.'.'.'.'.'.'.'.'.'.'.'.'.'.'.'.'.'.'.'.'.'.'.'.'.'.'.'.'.'.'.'.'.'.'.'.'.'.'.'.'.'.'.'.'.'.'.'.'.'.'.'.'.'.",
};
