/* XPM */
static char *a967f653368d483fa75d8d856ea3a626Uy01tgkKXy50yFl0[] = {
/* columns rows colors chars-per-pixel */
"64 64 200 2 ",
"   c #1E1E1E",
".  c #2E0100",
"X  c #2B0F0E",
"o  c #340402",
"O  c #3B0B08",
"+  c #34150E",
"@  c #201E1F",
"#  c #361210",
"$  c #362B1F",
"%  c #1F1F20",
"&  c #1E2021",
"*  c #222222",
"=  c #2A2725",
"-  c #2B2A2A",
";  c #332720",
":  c #332A21",
">  c #3A2D22",
",  c #3A3228",
"<  c #343434",
"1  c #383535",
"2  c #3C3936",
"3  c #3C3C3C",
"4  c #430805",
"5  c #4C0B07",
"6  c #550A05",
"7  c #580C07",
"8  c #5C0E09",
"9  c #4A1209",
"0  c #63110A",
"q  c #6C130D",
"w  c #70130C",
"e  c #4E230E",
"r  c #49241B",
"t  c #68291E",
"y  c #4B2523",
"u  c #423320",
"i  c #4F3325",
"p  c #573823",
"a  c #443D36",
"s  c #5E3C38",
"d  c #6F2D25",
"f  c #712D28",
"g  c #773E3A",
"h  c #69461E",
"j  c #744C1D",
"k  c #784F1F",
"l  c #4D4337",
"z  c #44403B",
"x  c #54483B",
"c  c #604322",
"v  c #684927",
"b  c #754E22",
"n  c #7A5222",
"m  c #78562B",
"M  c #745838",
"N  c #3E3F40",
"B  c #444443",
"V  c #55554E",
"C  c #5A514B",
"Z  c #555556",
"A  c #5B5B5B",
"S  c #7C5945",
"D  c #615B52",
"F  c #715450",
"G  c #77634B",
"H  c #6A6A5C",
"J  c #6F6F60",
"K  c #686869",
"L  c #747464",
"P  c #787866",
"I  c #7A766B",
"U  c #7A7A7A",
"Y  c #8C1B12",
"T  c #911C13",
"R  c #A51F14",
"E  c #A62116",
"W  c #AB2216",
"Q  c #AF2418",
"!  c #B02216",
"~  c #B32519",
"^  c #B9261A",
"/  c #BF281B",
"(  c #AB3828",
")  c #BF3728",
"_  c #C72A1D",
"`  c #D32D1F",
"'  c #D72E20",
"]  c #D92F20",
"[  c #C13526",
"{  c #D83222",
"}  c #E43222",
"|  c #E93323",
" . c #815223",
".. c #845B2C",
"X. c #985C2A",
"o. c #845E32",
"O. c #AD423A",
"+. c #AF5435",
"@. c #89643A",
"#. c #A96235",
"$. c #BD6532",
"%. c #D9672F",
"&. c #C96630",
"*. c #D36931",
"=. c #E56F31",
"-. c #A65745",
";. c #B75545",
":. c #846747",
">. c #8C6A42",
",. c #956E44",
"<. c #8F704B",
"1. c #94734C",
"2. c #997A57",
"3. c #A37B56",
"4. c #84736B",
"5. c #8F756C",
"6. c #867A72",
"7. c #DB7844",
"8. c #A3825E",
"9. c #8A8072",
"0. c #89887C",
"q. c #97977C",
"w. c #9D9979",
"e. c #AA8563",
"r. c #A78968",
"t. c #A2897B",
"y. c #AC9274",
"u. c #A99B78",
"i. c #B19D77",
"p. c #EE8048",
"a. c #C58667",
"s. c #C79776",
"d. c #868686",
"f. c #8C8A87",
"g. c #979783",
"h. c #929292",
"j. c #AD948D",
"k. c #B89C87",
"l. c #AB9696",
"z. c #A8A889",
"x. c #B8A794",
"c. c #B5B592",
"v. c #AEA5A4",
"b. c #ABABAB",
"n. c #B3A3A2",
"m. c #B5ADAC",
"M. c #BDAEAD",
"N. c #AFB0B0",
"B. c #B6B6B6",
"V. c #BCBBBA",
"C. c #D3A598",
"Z. c #C5B094",
"A. c #C9ADA1",
"S. c #CCBBA8",
"D. c #C7B8B7",
"F. c #E4BBA6",
"G. c #CCC79B",
"H. c #D4C398",
"J. c #CCCCA0",
"K. c #C3C3AB",
"L. c #D4CCA0",
"P. c #D0C1AF",
"I. c #D6D3A5",
"U. c #D9D7A7",
"Y. c #DADAAB",
"T. c #CAC6BA",
"R. c #D5C9BB",
"E. c #DEDEB1",
"W. c #E9C6B4",
"Q. c #EDD6BA",
"!. c #DFE1B4",
"~. c #E1E1B2",
"^. c #BFBFC0",
"/. c #C1C1C1",
"(. c #CBCBCB",
"). c #D4C8C3",
"_. c #DDD3C7",
"`. c #D3D3D3",
"'. c #DDDDDD",
"]. c #E2D9CE",
"[. c #E5DDD3",
"{. c #E6E6C5",
"}. c #E6E6CB",
"|. c #E9E9CC",
" X c #EEEED6",
".X c #E5E1D9",
"XX c #EAE3DC",
"oX c #F1F2DE",
"OX c #E6E6E6",
"+X c #EBE6E6",
"@X c #ECEAE5",
"#X c #EAE8E8",
"$X c #EBEBEB",
"%X c #F1EDEA",
"&X c #F3F3E5",
"*X c #F6F4EC",
"=X c #F7F6F5",
"-X c #F8F6F4",
";X c #F9F9F4",
":X c #FFFFFFFF",
/* pixels */
":X:X:X:X:X:X:X:X:X:X:X:X:X:X:X:X:X:X:X:X:X:X:X:X:X:X:X:X:X:X:X:X:X:X:X:X:X:X:X:X:X:X:X:X:X:X:X:X:X:X:X:X:X:X:X:X:X:X:X:X:X:X:X:X",
":X:X:X:X:X:X:X:X:X:X:X:X:X:X:X:X:X:X:X:X:X:X:X:X:X:X:X:X:X:X:X:X:X:X:X:X:X:X:X:X:X:X:X:X:X:X:X:X:X:X:X:X:X:X:X:X:X:X:X:X:X:X:X:X",
":X:X:X:X:X:X:X:X:X:X:X:X:X:X:X:X:X:X:X:X:X:X:X:X:X:X:X:X;XZ.y.0.d.d.d.d.b.:X:X:X:X:X:X:X:X:X:X:X:X:X:X:X:X:X:X:X:X:X:X:X:X:X:X:X",
":X:X:X:X:X:X:X:X:X:X:X:X:X:X:X:X:X:X:X:X:X:X:X:X:X:X:X:X;X2.j l 3 3 3 < U :X:X:X:X:X:X:X:X:X:X:X:X:X:X:X:X:X:X:X:X:X:X:X:X:X:X:X",
":X:X:X:X:X:X:X:X:X:X:X:X:X:X:X:X:X:X:X:X:X:X:X:X:X`.h.h.h.u.i.w.q.q.q.q.q.h.h.h.`.:X:X:X:X:X:X:X:X:X:X:X:X:X:X:X:X:X:X:X:X:X:X:X",
":X:X:X:X:X:X:X:X:X:X:X:X:X:X:X:X:X:X:X:X:X:X:X:X;Xb.N B B c.!.E.~.E.E.~.z.B B N B.:X:X:X:X:X:X:X:X:X:X:X:X:X:X:X:X:X:X:X:X:X:X:X",
":X:X:X:X:X:X:X:X:X:X:X:X:X:X:X:X:X:X:X:X:X:X:X(.K 0.c.T.`.@X*X*X&X*X*X*X@X`.V.c.0.K `.:X:X:X:X:X:X:X:X:X:X:X:X:X:X:X:X:X:X:X:X:X",
":X:X:X:X:X:X:X:X:X:X:X:X:X:X:X:X:X:X:X:X:X:X:XB.N 9.!.&X:X:X:X:X:X:X:X:X:X;X|.Y.L 3 V.:X:X:X:X:X:X:X:X:X:X:X:X:X:X:X:X:X:X:X:X:X",
":X:X:X:X:X:X:X:X:X:X:X:X:X:X:X:X:X:X:X:X:X`.U 0.z.T.*X;X:X:X:X:X:X:X:X:X:X:X;X&XK.z.0.f.=X:X:X:X:X:X:X:X:X:X:X:X:X:X:X:X:X:X:X:X",
":X:X:X:X:X:X:X:X:X:X:X:X:X:X:X:X:X:X:X:X:X/.3 L ~.|.:X:X:X:X:X:X:X:X:X:X:X:X:X:X|.Y.J Z $X:X:X:X:X:X:X:X:X:X:X:X:X:X:X:X:X:X:X:X",
":X:X:X:X:X:X:X:X:X:X:X:X:X:X:X:X:X:X:X:X:X/.3 P Y.|.:X:X:X:X:X:X:X:X:X:X:X:X:X:X{.U.J Z $X:X:X:X:X:X:X:X:X:X:X:X:X:X:X:X:X:X:X:X",
":X:X:X:X:X:X:X:X:X:X:X:X:X:X:X:X:X:X:X:X:X/.N P Y.|.:X:X:X:X:X:X:X:X:X:X:X:X:X:X|.Y.J Z $X:X:X:X:X:X:X:X:X:X:X:X:X:X:X:X:X:X:X:X",
":X:X:X:X:X:X:X:X:X:X:X:X:X:X:X:X:X:X:X:X:X/.N P Y.|.;X:X:X:X:X:X:X:X:X:X:X:X:X:X|.Y.J Z $X:X:X:X:X:X:X:X:X:X:X:X:X:X:X:X:X:X:X:X",
":X:X:X:X:X:X:X:X:X:X:X:X:X:X:X:X:X:X:X:X:X/.3 P Y.|.:X:X:X:X:X:X:X:X:X:X:X:X:X:X{.Y.J Z $X:X:X:X:X:X:X:X:X:X:X:X:X:X:X:X:X:X:X:X",
":X:X:X:X:X:X:X:X:X:X:X:X:X:X:X:X:X:X:X:X:X/.N P Y.|.:X:X:X:X:X:X:X:X:X:X:X:X:X:X{.Y.J Z $X:X:X:X:X:X:X:X:X:X:X:X:X:X:X:X:X:X:X:X",
":X:X:X:X:X:X:X:X:X:X:X:X:X:X:X:X:X:X:X:X:XV.3 L I.}.:X:X:X:X:X:X:X:X:X:X:X:X:X:X}.I.H Z $X:X:X:X:X:X:X:X:X:X:X:X:X:X:X:X:X:X:X:X",
":X:X:X:X:X:X:X:X:X:X:X:X:X:X:X:X:X:X:X[.8.G - 3 H g.{.*X:X:X:X:X:X:X:X:X:X:XoX!.q.A 3 , 2.y.-X:X:X:X:X:X:X:X:X:X:X:X:X:X:X:X:X:X",
":X:X:X:X:X:X:X:X:X:X:X:X:X:X:X:X:X:X:XR.n c * - 3 P Y.&X:X:X:X:X:X:X:X:X:X:X|.I.L 3 = $ h >.*X:X:X:X:X:X:X:X:X:X:X:X:X:X:X:X:X:X",
":X:X:X:X:X:X:X:X:X:X:X:X:X:X:X:X:X=Xk.y.C.5.* - 3 V J K.{.{.{.{.{.{.{.{.{.{.z.K V 3 = 1 k.C.r.k.;X:X:X:X:X:X:X:X:X:X:X:X:X:X:X:X",
":X:X:X:X:X:X:X:X:X:X:X:X:X:X:X:X:X*X@.,.Q.k.* - 3 3 3 z.J.J.J.J.J.G.J.J.J.G.P 1 3 3 = 2 F.F. .1.=X:X:X:X:X:X:X:X:X:X:X:X:X:X:X:X",
":X:X:X:X:X:X:X:X:X:X:X:X:X:X:X:X:X*X,.X.p.#.* * * = * B Z V V V V V V V Z V 1 = * = % , 7.7. .1.=X:X:X:X:X:X:X:X:X:X:X:X:X:X:X:X",
":X:X:X:X:X:X:X:X:X:X:X:X:X:X:X:X:X*X2.X.=.+.* * * * * < 2 3 3 3 3 3 3 3 3 3 - % % % * > *.%...2.=X:X:X:X:X:X:X:X:X:X:X:X:X:X:X:X",
":X:X:X:X:X:X:X:X:X:X:X:X:X:X:X:X:X:XXXS.X.h * * * @ * * = = - - = - - * - = * & * & % :  .,.].XX:X:X:X:X:X:X:X:X:X:X:X:X:X:X:X:X",
":X:X:X:X:X:X:X:X:X:X:X:X:X:X:X:X:X:X:X_...c ; * - * * * * & & * & & * & & * * & = = * : b 1.-X:X:X:X:X:X:X:X:X:X:X:X:X:X:X:X:X:X",
":X:X:X:X:X:X:X:X:X:X:X:X:X:X:X:X:X:X:X*X[.x.h <.A.I   @ & * * @ & * * & * *     5.A.S M R.}.;X:X:X:X:X:X:X:X:X:X:X:X:X:X:X:X:X:X",
":X:X:X:X:X:X:X:X:X:X:X:X:X:X:X:X:X:X:X:X:X_.@.r.W.j.2 = & @ @ * * & * & * & < a j.W.8.8.*X:X:X:X:X:X:X:X:X:X:X:X:X:X:X:X:X:X:X:X",
":X:X:X:X:X:X:X:X:X:X:X:X:X:X:X:X:X:X:X:X:X=X=XS...r.F.C % @ * & * * & * * * 6.W.e...S.-X:X:X:X:X:X:X:X:X:X:X:X:X:X:X:X:X:X:X:X:X",
":X:X:X:X:X:X:X:X:X:X:X:X:X:X:X:X:X:X:X:X:X=X*XZ.k e.W.F ; = & & & * * * * > t.W.3.b S.-X:X:X:X:X:X:X:X:X:X:X:X:X:X:X:X:X:X:X:X:X",
":X:X:X:X:X:X:X:X:X:X:X:X:X:X:X:X:X:X:X:X:X).@.@.b  .o.$.*.i % % & * * & p %.#.o. .n o.2.%X:X:X:X:X:X:X:X:X:X:X:X:X:X:X:X:X:X:X:X",
":X:X:X:X:X:X:X:X:X:X:X:X:X:X:X:X:X:X:X:X-XP.b m o.o...&.%.i % - < < -   p %.#.o.o.o.m @.XX-X:X:X:X:X:X:X:X:X:X:X:X:X:X:X:X:X:X:X",
":X:X:X:X:X:X:X:X:X:X:X:X:X:X:X:X:X:X:X_.1.G a 6.XXXX[.S 5 O # m.'.'.v.# # 7 j.XXXX.XI l >.r.-X:X:X:X:X:X:X:X:X:X:X:X:X:X:X:X:X:X",
":X:X:X:X:X:X:X:X:X:X:X:X:X:X:X:X:X:X=XR.n v B f.:X:X:XF o o 9 ).;X;XD.4 o o l.;X:X:Xd.l v >.@X;X:X:X:X:X:X:X:X:X:X:X:X:X:X:X:X:X",
":X:X:X:X:X:X:X:X:X:X:X:X:X:X:X:X:X-Xr.G l I `.#X:X&X~.-.Y Y Y O.;.;.( T Y Y A.:X:X:XOX/.C x 1.y.;X:X:X:X:X:X:X:X:X:X:X:X:X:X:X:X",
":X:X:X:X:X:X:X:X:X:X:X:X:X:X:X:X:X*X1.v 3 U :X;X;X XU.;.R ~ ~ Q ! Q ! ! Q E C.=X;X*X:XOXZ z h 1.-X:X:X:X:X:X:X:X:X:X:X:X:X:X:X:X",
":X:X:X:X:X:X:X:X:X:X:X:X:X:X:X:X:X*X>.v 3 U :X&XE.Y.Y.;.R ` | } | } } } ' R s.E.!.!.&XOXV a j <.-X:X:X:X:X:X:X:X:X:X:X:X:X:X:X:X",
":X:X:X:X:X:X:X:X:X:X:X:X:X:X:X:X:X*Xe.M N U =XoXU.I.H.+.Q ` } ] ' ' ' } ' ^ 3.F.U.Y.oX.XV l @.r.=X:X:X:X:X:X:X:X:X:X:X:X:X:X:X:X",
":X:X:X:X:X:X:X:X:X:X:X:X:X:X:X:X:X:X*XV.3 J E.E.E.s.( ] | | ` w 4 4 w } | } [ ( s.!.!.I...:.[.%X:X:X:X:X:X:X:X:X:X:X:X:X:X:X:X:X",
":X:X:X:X:X:X:X:X:X:X:X:X:X:X:X:X:X:X:X(.Z P G.G.L.a.R ' | | | 0 O O w } | | _ R a.L.G.Z.@.2.-X:X:X:X:X:X:X:X:X:X:X:X:X:X:X:X:X:X",
":X:X:X:X:X:X:X:X:X:X:X:X:X:X:X:X:X:X:X=X#Xn.r d ( [ } } | | | ` _ ` ' | | | } } ) ( t s _.%X:X:X:X:X:X:X:X:X:X:X:X:X:X:X:X:X:X:X",
":X:X:X:X:X:X:X:X:X:X:X:X:X:X:X:X:X:X:X:X:XM.o 8 E ^ ] ` ] ] ` | | | | ' ' ' ' ' ^ R 6 y #X:X:X:X:X:X:X:X:X:X:X:X:X:X:X:X:X:X:X:X",
":X:X:X:X:X:X:X:X:X:X:X:X:X:X:X:X:X:X:X:X:XM.o 8 E E E E E E Q { | | ` R E E E E E E 6 y +X:X:X:X:X:X:X:X:X:X:X:X:X:X:X:X:X:X:X:X",
":X:X:X:X:X:X:X:X:X:X:X:X:X:X:X:X:X:X:X:X:XM.o 8 E W ~ ~ ~ E ! ` | | } R E ~ ~ ~ Q E 6 y +X:X:X:X:X:X:X:X:X:X:X:X:X:X:X:X:X:X:X:X",
":X:X:X:X:X:X:X:X:X:X:X:X:X:X:X:X:X:X:X:X:XM.o 8 E ^ } } } ~ W ` | | ' R ^ } } } ^ E 6 y +X:X:X:X:X:X:X:X:X:X:X:X:X:X:X:X:X:X:X:X",
":X:X:X:X:X:X:X:X:X:X:X:X:X:X:X:X:X:X:X:X:XM.X 8 E _ | | } ~ E { | | ] R ^ } | | / E 7 y +X:X:X:X:X:X:X:X:X:X:X:X:X:X:X:X:X:X:X:X",
":X:X:X:X:X:X:X:X:X:X:X:X:X:X:X:X:X:X:X:X:XM.. 7 Q _ | | | ^ E ` | | ' E ^ | } } / E 6 r +X:X:X:X:X:X:X:X:X:X:X:X:X:X:X:X:X:X:X:X",
":X:X:X:X:X:X:X:X:X:X:X:X:X:X:X:X:X:X:X:X:X).F g q E ` ` ` ~ E _ ] | ' E ~ ' ' ' E w g 4.$X:X:X:X:X:X:X:X:X:X:X:X:X:X:X:X:X:X:X:X",
":X:X:X:X:X:X:X:X:X:X:X:X:X:X:X:X:X:X:X:X:X:X:Xn.o 0 E E E E E E ^ | ' E R E E E 0 o M.:X:X:X:X:X:X:X:X:X:X:X:X:X:X:X:X:X:X:X:X:X",
":X:X:X:X:X:X:X:X:X:X:X:X:X:X:X:X:X:X:X:X:X:X:Xn.. 0 E E E E E T T ^ ~ E E E E E 8 X M.:X:X:X:X:X:X:X:X:X:X:X:X:X:X:X:X:X:X:X:X:X",
":X:X:X:X:X:X:X:X:X:X:X:X:X:X:X:X:X:X:X:X:X:X:Xn.. 8 E R E E E 5 o o 6 E W E E W 7 o M.:X:X:X:X:X:X:X:X:X:X:X:X:X:X:X:X:X:X:X:X:X",
":X:X:X:X:X:X:X:X:X:X:X:X:X:X:X:X:X:X:X:X:X:X:XD.s d T Y Y T Y 4 o o 4 Y Y Y Y T f s T.:X:X:X:X:X:X:X:X:X:X:X:X:X:X:X:X:X:X:X:X:X",
":X:X:X:X:X:X:X:X:X:X:X:X:X:X:X:X:X:X:X:X:X:X:X:X:Xj.o o o o o o o o o o o o o o n.=X;X:X:X:X:X:X:X:X:X:X:X:X:X:X:X:X:X:X:X:X:X:X",
":X:X:X:X:X:X:X:X:X:X:X:X:X:X:X:X:X:X:X:X:X:X:X'.b.4.e e e e e + X X # e e e e e 6.b.OX:X:X:X:X:X:X:X:X:X:X:X:X:X:X:X:X:X:X:X:X:X",
":X:X:X:X:X:X:X:X:X:X:X:X:X:X:X:X:X:X:X:X:X:X:XN.  u n n n n b : & & > k n n n n u % V.:X:X:X:X:X:X:X:X:X:X:X:X:X:X:X:X:X:X:X:X:X",
":X:X:X:X:X:X:X:X:X:X:X:X:X:X:X:X:X:X:X:X:XOXB.0.$ p n n k n j $ & & > b n b n k p > f.^.=X:X:X:X:X:X:X:X:X:X:X:X:X:X:X:X:X:X:X:X",
":X:X:X:X:X:X:X:X:X:X:X:X:X:X:X:X:X:X:X:X:XB.* u n n n n n n b $     $ n n n n n n n $ z #X:X:X:X:X:X:X:X:X:X:X:X:X:X:X:X:X:X:X:X",
":X:X:X:X:X:X:X:X:X:X:X:X:X:X:X:X:X:X:X:X:XV.* > c c h c h c c A A H D c c c h c c c : N #X:X:X:X:X:X:X:X:X:X:X:X:X:X:X:X:X:X:X:X",
":X:X:X:X:X:X:X:X:X:X:X:X:X:X:X:X:X:X:X:X:XB.& %   %   *     = (.:X:X/.* % &     * %   3 #X:X:X:X:X:X:X:X:X:X:X:X:X:X:X:X:X:X:X:X",
":X:X:X:X:X:X:X:X:X:X:X:X:X:X:X:X:X:X:X:X:X(.Z Z Z Z Z Z Z Z A '.:X:X`.A Z Z Z Z Z Z Z K $X:X:X:X:X:X:X:X:X:X:X:X:X:X:X:X:X:X:X:X",
":X:X:X:X:X:X:X:X:X:X:X:X:X:X:X:X:X:X:X:X:X:X=X=X=X=X=X=X=X=X=X:X:X:X:X=X=X=X=X=X=X=X=X=X:X:X:X:X:X:X:X:X:X:X:X:X:X:X:X:X:X:X:X:X",
":X:X:X:X:X:X:X:X:X:X:X:X:X:X:X:X:X:X:X:X:X:X:X:X:X:X:X:X:X:X:X:X:X:X:X:X:X:X:X:X:X:X:X:X:X:X:X:X:X:X:X:X:X:X:X:X:X:X:X:X:X:X:X:X",
":X:X:X:X:X:X:X:X:X:X:X:X:X:X:X:X:X:X:X:X:X:X:X:X:X:X:X:X:X:X:X:X:X:X:X:X:X:X:X:X:X:X:X:X:X:X:X:X:X:X:X:X:X:X:X:X:X:X:X:X:X:X:X:X",
":X:X:X:X:X:X:X:X:X:X:X:X:X:X:X:X:X:X:X:X:X:X:X:X:X:X:X:X:X:X:X:X:X:X:X:X:X:X:X:X:X:X:X:X:X:X:X:X:X:X:X:X:X:X:X:X:X:X:X:X:X:X:X:X",
":X:X:X:X:X:X:X:X:X:X:X:X:X:X:X:X:X:X:X:X:X:X:X:X:X:X:X:X:X:X:X:X:X:X:X:X:X:X:X:X:X:X:X:X:X:X:X:X:X:X:X:X:X:X:X:X:X:X:X:X:X:X:X:X",
":X:X:X:X:X:X:X:X:X:X:X:X:X:X:X:X:X:X:X:X:X:X:X:X:X:X:X:X:X:X:X:X:X:X:X:X:X:X:X:X:X:X:X:X:X:X:X:X:X:X:X:X:X:X:X:X:X:X:X:X:X:X:X:X"
};
