/* XPM */
static char *_e2bc46a313b41c2be77c87f0fc6f5191WFrMhXeIjbXwLGa[] = {
/* columns rows colors chars-per-pixel */
"64 64 235 2 ",
"   c #151616",
".  c #1D1D1D",
"X  c #2D0504",
"o  c #320402",
"O  c #350906",
"+  c #3A0906",
"@  c #331713",
"#  c #371E1D",
"$  c #2D261E",
"%  c #38291D",
"&  c #1D1F20",
"*  c #1E2021",
"=  c #212121",
"-  c #2C2522",
";  c #2C2B2B",
":  c #332A22",
">  c #392B23",
",  c #38302C",
"<  c #2E2F30",
"1  c #343434",
"2  c #393838",
"3  c #3B3B3B",
"4  c #490A06",
"5  c #540C08",
"6  c #451A0C",
"7  c #481E16",
"8  c #66140C",
"9  c #78150E",
"0  c #512D17",
"q  c #633917",
"w  c #4B3422",
"e  c #473824",
"r  c #4F332B",
"t  c #553A25",
"y  c #4A3C3B",
"u  c #493E3A",
"i  c #683D27",
"p  c #6C441C",
"a  c #734819",
"s  c #754C1C",
"d  c #7B4D1E",
"f  c #7A501F",
"g  c #59442A",
"h  c #4F4634",
"j  c #49453A",
"k  c #624421",
"l  c #684821",
"z  c #784527",
"x  c #764E21",
"c  c #7B5222",
"v  c #7E5728",
"b  c #70553D",
"n  c #3F4041",
"m  c #434342",
"M  c #4C4643",
"N  c #4B4946",
"B  c #4B4B4B",
"V  c #564D49",
"C  c #5A5649",
"Z  c #565454",
"A  c #595B52",
"S  c #5A5A5A",
"D  c #6D5A52",
"F  c #68685B",
"G  c #726053",
"H  c #646464",
"J  c #6D6D6D",
"K  c #7D6D66",
"L  c #7A7869",
"P  c #717171",
"I  c #7A7977",
"U  c #8C170F",
"Y  c #881911",
"T  c #9B1F14",
"R  c #A91E14",
"E  c #9C2318",
"W  c #9C2A19",
"Q  c #97341B",
"!  c #A52116",
"~  c #AA2217",
"^  c #A72518",
"/  c #B02317",
"(  c #9F3128",
")  c #A63B2B",
"_  c #C72A1D",
"`  c #CE2C1E",
"'  c #D62D1F",
"]  c #C5351F",
"[  c #EA301F",
"{  c #CC3425",
"}  c #C63926",
"|  c #E33122",
" . c #E93323",
".. c #854C1E",
"X. c #8A4B2A",
"o. c #845827",
"O. c #974E31",
"+. c #825F32",
"@. c #A8572C",
"#. c #B35531",
"$. c #87643A",
"%. c #8A663C",
"&. c #966E38",
"*. c #B4612A",
"=. c #B96935",
"-. c #ED4435",
";. c #C5612F",
":. c #CC642F",
">. c #D7692E",
",. c #C76531",
"<. c #D56A33",
"1. c #C2723F",
"2. c #E96D2E",
"3. c #E36E32",
"4. c #EB7132",
"5. c #EC763B",
"6. c #F27637",
"7. c #905450",
"8. c #B85248",
"9. c #8D6E4B",
"0. c #93724A",
"q. c #977248",
"w. c #9A7C57",
"e. c #B16E4D",
"r. c #886E6A",
"t. c #86756D",
"y. c #88756D",
"u. c #9F7F6E",
"i. c #877773",
"p. c #BD7D60",
"a. c #CD7748",
"s. c #ED7D45",
"d. c #DD7A71",
"f. c #9E8145",
"g. c #9E855C",
"h. c #858571",
"j. c #8D8D75",
"k. c #95957E",
"l. c #A48867",
"z. c #A98E73",
"x. c #AE9578",
"c. c #B69577",
"v. c #ABAB72",
"b. c #CF835D",
"n. c #EF8048",
"m. c #F08C58",
"M. c #D39475",
"N. c #EB9675",
"B. c #F2A37B",
"V. c #CCC47B",
"C. c #EBD661",
"Z. c #838484",
"A. c #8A8A8A",
"S. c #988882",
"D. c #999989",
"F. c #949493",
"G. c #9C9B96",
"H. c #9C9C9C",
"J. c #A99187",
"K. c #B89B87",
"L. c #A99992",
"P. c #A4A486",
"I. c #ACAC8C",
"U. c #B7A488",
"Y. c #BAA48B",
"T. c #BEAA93",
"R. c #B9A29A",
"E. c #BDBA92",
"W. c #A6A6A5",
"Q. c #AAAAAA",
"!. c #B6A7A7",
"~. c #BEB0AF",
"^. c #B2B2B2",
"/. c #BEBEBE",
"(. c #CE9D85",
"). c #F1948C",
"_. c #C9AB88",
"`. c #C2AE98",
"'. c #CEB193",
"]. c #F3AC8A",
"[. c #F3B697",
"{. c #C9AEA2",
"}. c #C9B4A2",
"|. c #D4B6A8",
" X c #C4B7B6",
".X c #E4B7A1",
"XX c #F7B9A8",
"oX c #D8D285",
"OX c #C6C396",
"+X c #F5E792",
"@X c #FAF79C",
"#X c #CCC7A9",
"$X c #D1D2A6",
"%X c #D9D6AD",
"&X c #DBDBAC",
"*X c #D2C4B4",
"=X c #DBDBB7",
"-X c #F7C0A5",
";X c #F5C2AB",
":X c #EAC8B9",
">X c #F6C8B9",
",X c #FFFFA1",
"<X c #EFEAB4",
"1X c #E2E3BB",
"2X c #C2C2C2",
"3X c #CAC4C4",
"4X c #CCCCCC",
"5X c #DCD1C5",
"6X c #D5D5D5",
"7X c #DAD6D3",
"8X c #DBDBDB",
"9X c #E1D7CD",
"0X c #FAD5C5",
"qX c #F8D6C6",
"wX c #FDD8C7",
"eX c #FAD7C8",
"rX c #E5DDD3",
"tX c #FADED5",
"yX c #E2E2C6",
"uX c #FFFFCA",
"iX c #E6E0D8",
"pX c #EAE3DB",
"aX c #FCE2D8",
"sX c #E9E6E2",
"dX c #EBEBEB",
"fX c #FAEBE5",
"gX c #F2EDE9",
"hX c #F3F3E2",
"jX c #F4F1ED",
"kX c #EFEFF0",
"lX c #F3F3F2",
"zX c #FDF6F3",
"xX c #FBF9F6",
"cX c #FDFDFD",
"vX c #FFFFFFFD",
/* pixels */
"vXvXvXvXvXvXvXvXvXvXvXvXvXvXvXvXvXvXvXvXvXvXvXvXvXvXvXvXvXvXvXvXvXvXvXvXvXvXvXvXvXvXvXvXvXvXvXvXvXvXvXvXvXvXvXvXvXvXvXvXvXvXvXvX",
"vXvXvXvXvXvXvXvXvXvXvXvXvXvXvXvXvXvXvXvXvXvXvXvXvXvXvXvXvXvXvXvXvXvXvXvXvXvXvXvXvXvXvXvXvXvXvXvXvXvXvXvXvXvXvXvXvXvXvXvXvXvXvXvX",
"vXvXvXvXvXvXvXvXvXvXvXvXvXvXvXvXvXvXvXvXvXvXvXvXvXvXvXvXvXvXvXvXvXvXvXvXvXvXvXvXvXvXvXvXvXvXvXvXvXvXvXvXvXvXvXvXvXvXvXvXvXvXvXvX",
"vXvXvXvXvXvXvXvXvXvXvXvXvXvXvXvXvXvXvXvXvXvXvXvXvXvXvXvXvXvXvXvXvXvXvXvXvXvXvXvXvXvXvXvXvXvXvXvXvXvXvXvXvXvXvXvXvXvXvXvXvXvXvXvX",
"vXvXvXvXvXvXvXvXvXvXvXvXvXvXvXvXvXvXvXvXvXvXvXvXvX4XH.H.H.H.H.H.H.H.H.Q.lXvXvXvXvXvXvXvXvXvXvXvXvXvXvXvXvXvXvXvXvXvXvXvXvXvXvXvX",
"vXvXvXvXvXvXvXvXvXvXvXvXvXvXvXvXvXvXvXvXvXvXvXvXvXW.2 2 3 3 2 2 3 2 2 S lXvXvXvXvXvXvXvXvXvXvXvXvXvXvXvXvXvXvXvXvXvXvXvXvXvXvXvX",
"vXvXvXvXvXvXvXvXvXvXvXvXvXvXvXvXvXvXvXvXvXvXvX/.F.H.W.P.v.P.W.W.W.W.D.j.F.H.dXvXvXvXvXvXvXvXvXvXvXvXvXvXvXvXvXvXvXvXvXvXvXvXvXvX",
"vXvXvXvXvXvXvXvXvXvXvXvXvXvXvXvXvXvXvXvXvXvXvXZ.1 H.vXuX,XuXvXvXvXvX1XOXN N 6XvXvXvXvXvXvXvXvXvXvXvXvXvXvXvXvXvXvXvXvXvXvXvXvXvX",
"vXvXvXvXvXvXvXvXvXvXvXvXvXvXvXvXvXvXvXvXvXvXvXZ.2 G.vXuX,X@X+X<XvXvXhXyXP.k.F.A.6XvXvXvXvXvXvXvXvXvXvXvXvXvXvXvXvXvXvXvXvXvXvXvX",
"vXvXvXvXvXvXvXvXvXvXvXvXvXvXvXvXvXvXvXlXkXdXdXI 2 F.lXyX@XC.C.C.gXjXlXdX1X&XF n ^.xXvXvXvXvXvXvXvXvXvXvXvXvXvXvXvXvXvXvXvXvXvXvX",
"vXvXvXvXvXvXvXvXvXvXvXvXvXvXvXvXvXvXvXI B B B 1 = 2 B j j h e h B B S I dXjX$XE.h.H 6XcXcXvXvXvXvXvXvXvXvXvXvXvXvXvXvXvXvXvXvXvX",
"vXvXvXvXvXvXvXvXvXvXvXvXvXvXvXvXcXdXdXZ . . . . * * . . . . * * . * 1 S 8XkX1X1Xh.N /.dXxXvXvXvXvXvXvXvXvXvXvXvXvXvXvXvXvXvXvXvX",
"vXvXvXvXvXvXvXvXvXvXvXvXvXvXvXvXdXS m ; * = = * = = * = = = = = = = = < S H 6XxX=XE.I S ^.vXvXvXvXvXvXvXvXvXvXvXvXvXvXvXvXvXvXvX",
"vXvXvXvXvXvXvXvXvXvXvXvXvXvXvXvXdX3 . * = = = = = = = = = = = = = = = ; 2 m 3XkXyX%XF 2 W.vXvXvXvXvXvXvXvXvXvXvXvXvXvXvXvXvXvXvX",
"vXvXvXvXvXvXvXvXvXvXvXvXvXvXvXvXdX2 . * = = = = = = = 1 2 1 = = = = 2 2 ; = B S I.&XF 2 W.vXvXvXvXvXvXvXvXvXvXvXvXvXvXvXvXvXvXvX",
"vXvXvXvXvXvXvXvXvXvXvXvXvXvXvXvXdXI H 1 * - ; = = * = ; 2 ; = = * = 1 1 ; ; 3 m D.&Xj.F G.3X8XvXvXvXvXvXvXvXvXvXvXvXvXvXvXvXvXvX",
"vXvXvXvXvXvXvXvXvXvXvXvXvXvXvXvXvXvXlXS . 2 n ; & & & & & * = = = * * ; 3 n n n P.&X&X&Xh.2 Z.vXvXvXvXvXvXvXvXvXvXvXvXvXvXvXvXvX",
"vXvXvXvXvXvXvXvXvXvXvXvXvXvXvXvXvXvXvXF.H m 1 r i w & w i r * * = = * = 1 1 1 1 L P.$X&Xh.2 Z.vXvXvXvXvXvXvXvXvXvXvXvXvXvXvXvXvX",
"vXvXvXvXvXvXvXvXvXvXvXvXvXvXvXvXvXvXvXvXdXB & @.6.X.& O.6.@.. * * * * = = = = = 1 j I.1Xh.3 Z.vXvXvXvXvXvXvXvXvXvXvXvXvXvXvXvXvX",
"vXvXvXvXvXvXvXvXvXvXvXvXvXvXvXvXvXvXvXvXlXB . z @.X.i X.@.i * : i i - = = = = * 1 m I.&Xh.2 Z.vXvXvXvXvXvXvXvXvXvXvXvXvXvXvXvXvX",
"vXvXvXvXvXvXvXvXvXvXvXvXvXvXvXvXvXvXvXvXlXB . = & X.4.z . = = w 3.>.w * = = = = 1 m I.&Xh.2 Z.vXvXvXvXvXvXvXvXvXvXvXvXvXvXvXvXvX",
"vXvXvXvXvXvXvXvXvXvXvXvXvXvXvXvXvXvXvXvXvX/.^.^.^.{.].{.^.^.^.R.5.3.#.X.- * = = ; ; F L A 3 Z.vXvXvXvXvXvXvXvXvXvXvXvXvXvXvXvXvX",
"vXvXvXvXvXvXvXvXvXvXvXvXvXvXvXvXvXvXvXvXvXvXvXvXvXfX0XfXvXvXvXtXs.4.4.:.: = = = = = 1 3 u 3 Z.vXvXvXvXvXvXvXvXvXvXvXvXvXvXvXvXvX",
"vXvXvXvXvXvXvXvXvXvXvXvXvXvXvXvXvXvXvXvXvXvXvXH.H L.0XL.H W.vXfX[.].s.:.: * = * K Y.e.*.L.*X7XcXvXvXvXvXvXvXvXvXvXvXvXvXvXvXvXvX",
"vXvXvXvXvXvXvXvXvXvXvXvXvXvXvXvXvXvXcXvXvXvXvXJ   r.qXK   I vXzXeX>Xs.:.: * = * J.wXm.2.[.cXcXcXvXvXvXvXvXvXvXvXvXvXvXvXvXvXvXvX",
"vXvXvXvXvXvXvXvXvXvXvXvXvXvXvXvXjXx.g.:XaXxXvXJ . t.qXK   I cXzXqX>Xs.;.: * = = S.0Xp.O.b.N.XXcXvXvXvXvXvXvXvXvXvXvXvXvXvXvXvXvX",
"vXvXvXvXvXvXvXvXvXvXvXvXvXvXvXvXgX+.s '.qXzXvXP = t.0Xr.  L vXzXqX>Xs.;.: * = * z.0Xq.s *.2.B.xXvXvXvXvXvXvXvXvXvXvXvXvXvXvXvXvX",
"vXvXvXvXvXvXvXvXvXvXvXvXvXvXvXvXgX9.o.'.qXtXaX|.`.M.m.1.*.M.aXtXqX:Xb w - = * * e.m.&.d *.2.B.zXvXvXvXvXvXvXvXvXvXvXvXvXvXvXvXvX",
"vXvXvXvXvXvXvXvXvXvXvXvXvXvXvXvXgX%.c (.;X;X;X;X;XN.>.>.:.b.|.|.0X:XZ 1 = * > w @.4.@.o.1.m.[.vXvXvXvXvXvXvXvXvXvXvXvXvXvXvXvXvX",
"vXvXvXvXvXvXvXvXvXvXvXvXvXvXvXvXgX%.c <.6.s.s.5.5.,.o.g $ $ ; C >X0X:X{.; - #.3.4.4.4.2.[.zXzXvXvXvXvXvXvXvXvXvXvXvXvXvXvXvXvXvX",
"vXvXvXvXvXvXvXvXvXvXvXvXvXvXvXvXgX+.l #.,.,.,.,.,.O.l > & * * j `.|.;X.Xr w @.:.;.;.;.;..XvXvXvXvXvXvXvXvXvXvXvXvXvXvXvXvXvXvXvX",
"vXvXvXvXvXvXvXvXvXvXvXvXvXvXvXvXsXn = - - - - - - - $ = = & * * - , <.5.3.>.r - - - $ = G.vXvXvXvXvXvXvXvXvXvXvXvXvXvXvXvXvXvXvX",
"vXvXvXvXvXvXvXvXvXvXvXvXvXvXvXvXdXM % * * = = = * * = * = < V M M V <.4.<.:.t % : : M B H.8XsXcXcXvXvXvXvXvXvXvXvXvXvXvXvXvXvXvX",
"vXvXvXvXvXvXvXvXvXvXvXvXvXvXvXvXgX$.s % & * = = * . * & & D :X:X5XXXn.>.o.d s s s s *XvXH.n A.vXvXvXvXvXvXvXvXvXvXvXvXvXvXvXvXvX",
"vXvXvXvXvXvXvXvXvXvXvXvXvXvXdX`.T.U.U.b w w w G y.y.y.y.t.K.qX>X].N.,.=.K.U.Y.Y.Y.Y.T.`.K 2 Z.vXvXvXvXvXvXvXvXvXvXvXvXvXvXvXvXvX",
"vXvXvXvXvXvXvXvXvXvXvXvXvXvX9Xc $.dXcXg.d c c _.wXeXeXeXeXeXqXXX6.2.o.%.jXvXvXvXvXvXg.a h 2 Z.vXvXvXvXvXvXvXvXvXvXvXvXvXvXvXvXvX",
"vXvXvXvXvXvXvXvXvXvXvXvXjXT.T.U.`.jXcXg.c x.T.c.c.c.c.z.S.S.S.l.*.=.U.}.xXvXvXvXvXcX*XY.9.g j.vXvXvXvXvXvXvXvXvXvXvXvXvXvXvXvXvX",
"vXvXvXvXvXvXvXvXvXvXvXvXiXo.w.cXvXvXcXw.o.rXvXz.a s a g 2 n 3 j x $.pXvXvXvXvXvXvXvXvXvXY.d z.vXvXvXvXvXvXvXvXvXvXvXvXvXvXvXvXvX",
"vXvXvXvXvXvXvXvXvXvXvXvXpX$.w.cXvXvXvX*X`.U.K.`.`.`.`.G # # # 0 s $.sXvXvXvXvXvXvXvXvXvXY.a z.vXvXvXvXvXvXvXvXvXvXvXvXvXvXvXvXvX",
"vXvXvXvXvXvXvXvXvXvXvXvXiX$.w.jXzXcXvXcXjXq.d *XvXcXvXr.o + O 6 c $.rXxXvXvXvXvXvXvXxXxXK.v x.vXvXvXvXvXvXvXvXvXvXvXvXvXvXvXvXvX",
"vXvXvXvXvXvXvXvXvXvXvXvXxXiX*X0.g.gXvXM.8._.`.%XyX(.8.( U O.Y.E.OX_.g.l.jXvXvXvXvXvXc.0.T.rXsXvXvXvXvXvXvXvXvXvXvXvXvXvXvXvXvXvX",
"vXvXvXvXvXvXvXvXvXvXvXvXvXvXrX$.9.rXjX8.! _.$X$X#Xp.R R R a.$X*X$XOXv $.pXjXlXjXlXjXl.v }.vXvXvXvXvXvXvXvXvXvXvXvXvXvXvXvXvXvXvX",
"vXvXvXvXvXvXvXvXvXvXvXvXvXvXxXpX5Xw.0.( ! D A A Z O.| | ' ) S S S A N h 9.0.0.0.0.0.*XrXgXvXvXvXvXvXvXvXvXvXvXvXvXvXvXvXvXvXvXvX",
"vXvXvXvXvXvXvXvXvXvXvXvXvXvXcXdXrX0.o.Q E r u j y 7.-. . .8.y y y y j j z d d d s s 5XvXvXvXvXvXvXvXvXvXvXvXvXvXvXvXvXvXvXvXvXvX",
"vXvXvXvXvXvXvXvXvXvXvXvXcXcX8XB C oX+X&...} { { ' d.fXaXfX).{ { { { W W W W ^ W 8 @  XvXvXvXvXvXvXvXvXvXvXvXvXvXvXvXvXvXvXvXvXvX",
"vXvXvXvXvXvXvXvXvXvXvXvXlX4XH.= ; v.V.%.d ] ' | [ ).cXcXvXXX . . .| ~ ! ! ! U Y 5 O  XvXvXvXvXvXvXvXvXvXvXvXvXvXvXvXvXvXvXvXvXvX",
"vXvXvXvXvXvXvXvXvXvXvXvX8X2 * = * * ; k d W R ` [ ).cXvXvXXX . . .| ~ ! ! ! 4 o o +  XvXvXvXvXvXvXvXvXvXvXvXvXvXvXvXvXvXvXvXvXvX",
"vXvXvXvXvXvXvXvXvXvXvXcX8X1 = = = = * p c Q W { [ d.>X>XXX). . . .| ~ ~ ! T 4 o o o S./.sXcXvXvXvXvXvXvXvXvXvXvXvXvXvXvXvXvXvXvX",
"vXvXvXvXvXvXvXvXvXvXvXvX8X1 $ & = = = g f d ..}  . . . . . . . . .| ~ R ! E 4 o o o $ = H.vXvXvXvXvXvXvXvXvXvXvXvXvXvXvXvXvXvXvX",
"vXvXvXvXvXvXvXvXvXvXvXvX8X1 . * = = = p f f f Q ^ _  . . .| ` ` ' ' ~ T Y 9 4 o o o % > I ^.4XvXvXvXvXvXvXvXvXvXvXvXvXvXvXvXvXvX",
"vXvXvXvXvXvXvXvXvXvXvXvX8X1 * = = = = k c c f 6 X U  . . .` ! ~ ~ ! ~ T + o o o o o q c w . P vXvXvXvXvXvXvXvXvXvXvXvXvXvXvXvXvX",
"vXvXvXvXvXvXvXvXvXvXvXvX8X1 . = = = = k c k g 6 o 8 ^ {  .` ! E Y 9 9 8 + o o o 6 6 a f w . P vXvXvXvXvXvXvXvXvXvXvXvXvXvXvXvXvX",
"vXvXvXvXvXvXvXvXvXvXvXvX8X1 = = = * = k x : & @ o o o T  .` R U o o o o o o o o q c c c w . J vXvXvXvXvXvXvXvXvXvXvXvXvXvXvXvXvX",
"vXvXvXvXvXvXvXvXvXvXvXvX8X1 . = = = = > e F.^.!.!.!.!.7.9 8 5 4 o o o o o O 0 q a x x c w . J vXvXvXvXvXvXvXvXvXvXvXvXvXvXvXvXvX",
"vXvXvXvXvXvXvXvXvXvXvXvX8X1 = = = = = & < 6XvXvXvXvXvXt.o o o X o o o o X O s f f o.c d e . P vXvXvXvXvXvXvXvXvXvXvXvXvXvXvXvXvX",
"vXvXvXvXvXvXvXvXvXvXvXvXlX/.F.- = = = F./.lXvXvXvXvXvX7X~.r.o o o o o 7 R.~.h % g.V.&.c e . J vXvXvXvXvXvXvXvXvXvXvXvXvXvXvXvXvX",
"vXvXvXvXvXvXvXvXvXvXvXvXvXvX4X; = = ; 4XvXvXvXvXvXvXvXvXcX!.o O O O O r gXxXZ & v.@Xf.s e * P vXvXvXvXvXvXvXvXvXvXvXvXvXvXvXvXvX",
"vXvXvXvXvXvXvXvXvXvXvXvXvXvXlX2X/././.dXvXvXvXvXvXvXvXvXcXsX X X X X X XxXcX4X/.h.C h % i./.6XvXvXvXvXvXvXvXvXvXvXvXvXvXvXvXvXvX",
"vXvXvXvXvXvXvXvXvXvXvXvXvXvXvXvXvXvXvXvXvXvXvXvXvXvXvXvXcXcXvXvXcXvXvXvXvXvXcXcXA.3 n 2 Q.vXvXvXvXvXvXvXvXvXvXvXvXvXvXvXvXvXvXvX",
"vXvXvXvXvXvXvXvXvXvXvXvXvXvXvXvXvXvXvXvXvXvXvXvXvXvXvXvXvXvXvXvXvXvXvXvXvXvXvXvXlXdXdXdXlXvXvXvXvXvXvXvXvXvXvXvXvXvXvXvXvXvXvXvX",
"vXvXvXvXvXvXvXvXvXvXvXvXvXvXvXvXvXvXvXvXvXvXvXvXvXvXvXvXvXvXvXvXvXvXvXvXvXvXvXvXvXvXvXvXvXvXvXvXvXvXvXvXvXvXvXvXvXvXvXvXvXvXvXvX",
"vXvXvXvXvXvXvXvXvXvXvXvXvXvXvXvXvXvXvXvXvXvXvXvXvXvXvXvXvXvXvXvXvXvXvXvXvXvXvXvXvXvXvXvXvXvXvXvXvXvXvXvXvXvXvXvXvXvXvXvXvXvXvXvX",
"vXvXvXvXvXvXvXvXvXvXvXvXvXvXvXvXvXvXvXvXvXvXvXvXvXvXvXvXvXvXvXvXvXvXvXvXvXvXvXvXvXvXvXvXvXvXvXvXvXvXvXvXvXvXvXvXvXvXvXvXvXvXvXvX",
"vXvXvXvXvXvXvXvXvXvXvXvXvXvXvXvXvXvXvXvXvXvXvXvXvXvXvXvXvXvXvXvXvXvXvXvXvXvXvXvXvXvXvXvXvXvXvXvXvXvXvXvXvXvXvXvXvXvXvXvXvXvXvXvX"
};
