/* XPM */
static char *_1a35fe906ca453cbb9edb259bbad6ebvE362l2Pbkeke9j6[] = {
/* columns rows colors chars-per-pixel */
"64 64 217 2 ",
"   c #1D1D1D",
".  c #2F0100",
"X  c #320201",
"o  c #390503",
"O  c #380D0B",
"+  c #241A19",
"@  c #3A1812",
"#  c #1D1F20",
"$  c #1F2021",
"%  c #222222",
"&  c #2A2623",
"*  c #292826",
"=  c #272828",
"-  c #2A2A2A",
";  c #3B2F21",
":  c #332E2C",
">  c #37322B",
",  c #393733",
"<  c #3C3C3C",
"1  c #4C0905",
"2  c #580D08",
"3  c #401210",
"4  c #73160F",
"5  c #4D2D1E",
"6  c #562B11",
"7  c #73211B",
"8  c #623716",
"9  c #452F24",
"0  c #572B29",
"q  c #443422",
"w  c #473527",
"e  c #553A22",
"r  c #6C3E27",
"t  c #683C3A",
"y  c #764D1C",
"u  c #794F1E",
"i  c #79501F",
"p  c #46423D",
"a  c #6A4821",
"s  c #754C25",
"d  c #724128",
"f  c #7B5222",
"g  c #7F582B",
"h  c #714D35",
"j  c #484848",
"k  c #534A46",
"l  c #585249",
"z  c #575755",
"x  c #634140",
"c  c #635852",
"v  c #6C685C",
"b  c #73655F",
"n  c #696866",
"m  c #6F7263",
"M  c #767675",
"N  c #7D7D75",
"B  c #79797A",
"V  c #871B13",
"C  c #8C1B12",
"Z  c #951D13",
"A  c #A61F15",
"S  c #8C311B",
"D  c #AA2217",
"F  c #AE2418",
"G  c #B62519",
"H  c #873832",
"J  c #AE3C20",
"K  c #BF3B26",
"L  c #C52A1C",
"P  c #D52D1E",
"I  c #E82F1F",
"U  c #D92F20",
"Y  c #C93725",
"T  c #D03527",
"R  c #DD3322",
"E  c #E43222",
"W  c #E83323",
"Q  c #EA3B2C",
"!  c #85451F",
"~  c #864929",
"^  c #895523",
"/  c #815A2C",
"(  c #995929",
")  c #915833",
"_  c #A64221",
"`  c #B1582B",
"'  c #AF5737",
"]  c #876136",
"[  c #8A6338",
"{  c #89653A",
"}  c #93683E",
"|  c #B76734",
" . c #EB4435",
".. c #CF672B",
"X. c #CF692E",
"o. c #D6692D",
"O. c #CC6938",
"+. c #DF6C32",
"@. c #DA733A",
"#. c #EA6F31",
"$. c #ED7031",
"%. c #EF773A",
"&. c #995546",
"*. c #855B53",
"=. c #8B694C",
"-. c #916F47",
";. c #95724A",
":. c #967652",
">. c #997A55",
",. c #9C7D59",
"<. c #B26F4D",
"1. c #816564",
"2. c #85716D",
"3. c #8D7B74",
"4. c #C57D59",
"5. c #E57249",
"6. c #F0786D",
"7. c #C3AC3D",
"8. c #9B8252",
"9. c #9E815D",
"0. c #A2825F",
"q. c #BDA944",
"w. c #8D8575",
"e. c #A68969",
"r. c #A28779",
"t. c #AC9376",
"y. c #AE967A",
"u. c #B59275",
"i. c #BFB379",
"p. c #EF8149",
"a. c #F28751",
"s. c #F28D5A",
"d. c #C3AD40",
"f. c #CB8975",
"g. c #F29668",
"h. c #F2887F",
"j. c #F39D72",
"k. c #C3BA74",
"l. c #E5A47F",
"z. c #F2A27B",
"x. c #FCDF55",
"c. c #FCE05A",
"v. c #FDE369",
"b. c #8A8783",
"n. c #8B8B8B",
"m. c #9C8881",
"M. c #9B9984",
"N. c #959392",
"B. c #9B9B9C",
"V. c #A48D89",
"C. c #A99287",
"Z. c #B3978A",
"A. c #A7A788",
"S. c #B5AA8C",
"D. c #A5A19B",
"F. c #BEA696",
"G. c #B9B993",
"H. c #9EA0A0",
"J. c #A5A5A4",
"K. c #AAAAAA",
"L. c #BABAB9",
"P. c #C89F8A",
"I. c #EB958E",
"U. c #C9A585",
"Y. c #C9A593",
"T. c #C4AB9D",
"R. c #C6B59B",
"E. c #D1B196",
"W. c #F4AC88",
"Q. c #F4B595",
"!. c #CAB9A6",
"~. c #D7B6A6",
"^. c #F6AAA3",
"/. c #F7BFA5",
"(. c #C7C391",
"). c #FDF09B",
"_. c #C8C6A4",
"`. c #DADBAD",
"'. c #C1C1B5",
"]. c #D2C4B4",
"[. c #D8C8BA",
"{. c #D9D9B5",
"}. c #E4C1AE",
"|. c #F8C5AB",
" X c #E7C5B6",
".X c #F7CAB5",
"XX c #FCCFBA",
"oX c #F8D0BE",
"OX c #FBEFB3",
"+X c #C6C5C5",
"@X c #CCCCCC",
"#X c #DACCC5",
"$X c #DCD8C5",
"%X c #DDD3C8",
"&X c #D7D4D4",
"*X c #E3D7CD",
"=X c #F6D2C3",
"-X c #F9D5C5",
";X c #FAD9CA",
":X c #E3DBD4",
">X c #FCDFD7",
",X c #FFFCC9",
"<X c #E7E0D7",
"1X c #EAE3DB",
"2X c #F8E3DB",
"3X c #E4E3E3",
"4X c #ECE7E2",
"5X c #EFEAE4",
"6X c #ECEBEA",
"7X c #F0ECE6",
"8X c #F5EEE9",
"9X c #FDF1EB",
"0X c #F9F8EC",
"qX c #F4F4F3",
"wX c #FCF6F4",
"eX c #FBF8F6",
"rX c #FFFFFFFD",
/* pixels */
"rXrXrXrXrXrXrXrXrXrXrXrXrXrXrXrXrXrXrXrXrXrXrXrXrXrXrXrXrXrXrXrXrXrXrXrXrXrXrXrXrXrXrXrXrXrXrXrXrXrXrXrXrXrXrXrXrXrXrXrXrXrXrXrX",
"rXrXrXrXrXrXrXrXrXrXrXrXrXrXrXrXrXrXrXrXrXrXrXrXrXrXrXrXrXrXrXrXrXrXrXrXrXrXrXrXrXrXrXrXrXrXrXrXrXrXrXrXrXrXrXrXrXrXrXrXrXrXrXrX",
"rXrXrXrXrXrXrXrXrXrXrXrXrXrXrXrXrXrXrXrXrXrXrXrXrXrXrXrXrXrXrXrXrXrXrXrXrXrXrXrXrXrXrXrXrXrXrXrXrXrXrXrXrXrXrXrXrXrXrXrXrXrXrXrX",
"rXrXrXrXrXrXrXrXrXrXrXrXrXrXrXrXrXrXrXrXrXrXrXrXrXrXrXrXrXrXrXrXrXrXrXrXrXrXrXrXrXrXrXrXrXrXrXrXrXrXrXrXrXrXrXrXrXrXrXrXrXrXrXrX",
"rXrXrXrXrXrXrXrXrXrXrXrXrXrXrXrXrXrXrXrXrXrXrXrXrXrXrXrXrXrXrXrXrXrXrXrXrXrXrXrXrXrXrXrXrXrXrXrXrXrXrXrXrXrXrXrXrXrXrXrXrXrXrXrX",
"rXrXrXrXrXrXrXrXrXrXrXrXrXrXrXrXrXrXrXrXrXrXrXrXrXrXrX@Xn.n.n.n.N.y.].rXrXrXrXrXrXrXrXrXrXrXrXrXrXrXrXrXrXrXrXrXrXrXrXrXrXrXrXrX",
"rXrXrXrXrXrXrXrXrXrXrXrXrXrXrXrXrXrXrXrXrXrXrXrXrXrXrXK.< < < < p y y.rXeXrXrXrXrXrXrXrXrXrXrXrXrXrXrXrXrXrXrXrXrXrXrXrXrXrXrXrX",
"rXrXrXrXrXrXrXrXrXrXrXrXrXrXrXrXrXrXrXrXrXrXrXrXB.M M B.+Xi.q.i.(.].J.B B n.qXrXrXrXrXrXrXrXrXrXrXrXrXrXrXrXrXrXrXrXrXrXrXrXrXrX",
"rXrXrXrXrXrXrXrXrXrXrXrXrXrXrXrXrXrXrXrXrXrX6X&XM z z A.0X).v.).OX0X'.z z m @X6XrXrXrXrXrXrXrXrXrXrXrXrXrXrXrXrXrXrXrXrXrXrXrXrX",
"rXrXrXrXrXrXrXrXrXrXrXrXrXrXrXrXrXrXrXrXrXrXN.j A.{.qXOXx.OXrXeX,Xc.).eX$XG.z M eXrXrXrXrXrXrXrXrXrXrXrXrXrXrXrXrXrXrXrXrXrXrXrX",
"rXrXrXrXrXrXrXrXrXrXrXrXrXrXrXrXrXrXrXrX3X@Xn.v _.$X@X(.7.R.@X@X_.d.k.@X$X`.m N @X3XrXrXrXrXrXrXrXrXrXrXrXrXrXrXrXrXrXrXrXrXrXrX",
"rXrXrXrXrXrXrXrXrXrXrXrXrXrXrXrXrXrXrXrXK.j M.`.0X@X: * & * - & = & * % J.eX`.G.j n.rXrXrXrXrXrXrXrXrXrXrXrXrXrXrXrXrXrXrXrXrXrX",
"rXrXrXrXrXrXrXrXrXrXrXrXrXrXrXrXrXrXrXrXK.< y.`.'.n.$ $ % % % % % % %   M L.`.G.< n.rXrXrXrXrXrXrXrXrXrXrXrXrXrXrXrXrXrXrXrXrXrX",
"rXrXrXrXrXrXrXrXrXrXrXrXrXrXrXrXrXrXrXrXK.< y.`.l $ $ $ $ % % $ % % % # % , _.G.< n.rXrXrXrXrXrXrXrXrXrXrXrXrXrXrXrXrXrXrXrXrXrX",
"rXrXrXrXrXrXrXrXrXrXrXrXrXrXrXrXrXrXrXrXJ.< m w., $ $ % $ % % % # % % % % - w.m < n.rXrXrXrXrXrXrXrXrXrXrXrXrXrXrXrXrXrXrXrXrXrX",
"rXrXrXrXrXrXrXrXrXrXrXrXrXrXrXrXrXrXrXeXK.< - % $ % - - = & & ; & = = & % %   & < n.rXrXrXrXrXrXrXrXrXrXrXrXrXrXrXrXrXrXrXrXrXrX",
"rXrXrXrXrXrXrXrXrXrXrXrXrXrXrXrXrXrXrXrXJ.< - % # k +X+X@Xu.` ` <.+X+X+Xn + $ % < n.rXrXrXrXrXrXrXrXrXrXrXrXrXrXrXrXrXrXrXrXrXrX",
"rXrXrXrXrXrXrXrXrXrXrXrXrXrXrXrXrXrXrXeXD.< > & : b rXrX6XW.%.%.j.qXeXrXn.: & - < w.wXrXrXrXrXrXrXrXrXrXrXrXrXrXrXrXrXrXrXrXrXrX",
"rXrXrXrXrXrXrXrXrXrXrXrXrXrXrXrXrXrX9Xj.} % ~ O.U.#XrXK.j C./.|.Y.j N.rX*XY.5.( = h s.2XrXrXrXrXrXrXrXrXrXrXrXrXrXrXrXrXrXrXrXrX",
"rXrXrXrXrXrXrXrXrXrXrXrXrXrXrXrXrX9X;X5.~   ' a./.2XrXB.  m.-X-XT.% 3.eX8X.Xa.| % r +..X9XrXrXrXrXrXrXrXrXrXrXrXrXrXrXrXrXrXrXrX",
"rXrXrXrXrXrXrXrXrXrXrXrXrXrXrXrXeXj.@.( e % r.XX=X>XrXH.  m.-X-XF.% B rX8XXXXXY.% w ^ 5.s.9XeXrXrXrXrXrXrXrXrXrXrXrXrXrXrXrXrXrX",
"rXrXrXrXrXrXrXrXrXrXrXrXrXrXrXrXeXs.+.^ e   v C.}.XX|.P.b T.-X-X~.b C.|.XX XC.2.% q u ..p.9XrXrXrXrXrXrXrXrXrXrXrXrXrXrXrXrXrXrX",
"rXrXrXrXrXrXrXrXrXrXrXrXrXrXrXrXeXg.o.^ e $ + % T./.$.j.-X;X=X-X-X;XW.$.W.[.>     q f ..5.9XrXrXrXrXrXrXrXrXrXrXrXrXrXrXrXrXrXrX",
"rXrXrXrXrXrXrXrXrXrXrXrXrXrXrXrXeX.XQ.| d % c 3.3.1.~ <.z.z.z.z.j.j.4.~ =.3.3.b % e | l.|.wXrXrXrXrXrXrXrXrXrXrXrXrXrXrXrXrXrXrX",
"rXrXrXrXrXrXrXrXrXrXrXrXrXrXrXrXrXrX9Xp.~ % C.-Xk   # d $.$.$.#.%.$.( # # , ~.!.% r %.>XrXrXrXrXrXrXrXrXrXrXrXrXrXrXrXrXrXrXrXrX",
"rXrXrXrXrXrXrXrXrXrXrXrXrXrXrXrXrXrXwXXXe.e Z.oXk + # q d d d d r r 0 # # , ~.~.e :..X9XrXrXrXrXrXrXrXrXrXrXrXrXrXrXrXrXrXrXrXrX",
"rXrXrXrXrXrXrXrXrXrXrXrXrXrXrXrXrXrXrXrX!.{ U.}.c : % # # # # # % # # % : k ~.E.{ S.rXrXrXrXrXrXrXrXrXrXrXrXrXrXrXrXrXrXrXrXrXrX",
"rXrXrXrXrXrXrXrXrXrXrXrXrXrXrXrXrXrXrXrXeX7Xt.] E.C.% # # % % % % % % # 3.~.;.,.4X0XrXrXrXrXrXrXrXrXrXrXrXrXrXrXrXrXrXrXrXrXrXrX",
"rXrXrXrXrXrXrXrXrXrXrXrXrXrXrXrXrXrXeX1X<X1Xe.f Y.Z.w q 9 9 9 9 9 9 9 q 3.E.^ :.:X<X<XeXrXrXrXrXrXrXrXrXrXrXrXrXrXrXrXrXrXrXrXrX",
"rXrXrXrXrXrXrXrXrXrXrXrXrXrXrXrXrXrX6X-.g g f f / ( +.+.+.+.+.+.+.+.+.+.` ) f ^ / g ] :XrXrXrXrXrXrXrXrXrXrXrXrXrXrXrXrXrXrXrXrX",
"rXrXrXrXrXrXrXrXrXrXrXrXrXrXrXrXrX:X].e.8.,.{ f u ( ..X.X.X.X...X.X.X.X.( i s / ,.,.9.!.*XeXrXrXrXrXrXrXrXrXrXrXrXrXrXrXrXrXrXrX",
"rXrXrXrXrXrXrXrXrXrXrXrXrXrXrXrXwX>.} 4XrXeXt.y u u u f f f u f f f ^ i u u y ,.qXrXqX,.} 5XrXrXrXrXrXrXrXrXrXrXrXrXrXrXrXrXrXrX",
"rXrXrXrXrXrXrXrXrXrXrXrXrXrXrXrXeX:.[ 7XrXrXt.f ,.,.f f ! } 8.,.-.! ! i :.e.f ,.eXrXeX>.] 5XrXrXrXrXrXrXrXrXrXrXrXrXrXrXrXrXrXrX",
"rXrXrXrXrXrXrXrXrXrXrXrXrXrXrXrXeX:.{ 7XrXrXt.f %X$Xg S A f.`.{.U.F S i R.7X] >.eXrXeX>.] 5XrXrXrXrXrXrXrXrXrXrXrXrXrXrXrXrXrXrX",
"rXrXrXrXrXrXrXrXrXrXrXrXrXrXrXrXqX>.{ 6XrXrXy.g *X%Xf _ P &.m m =.U J i !.7X] >.eXrXeX>.] 5XrXrXrXrXrXrXrXrXrXrXrXrXrXrXrXrXrXrX",
"rXrXrXrXrXrXrXrXrXrXrXrXrXrXrXrXeX:.] 5XrXwXy./ %X[.^ _ I H < < t I Y u R.4X{ ,.qXeXeX>.] 5XrXrXrXrXrXrXrXrXrXrXrXrXrXrXrXrXrXrX",
"rXrXrXrXrXrXrXrXrXrXrXrXrXrXrXrXeX:.] 7X].>.R.%Xt.<.Y P W T K Y Y W R T ' 0.#X].>.T.eX>.] 5XrXrXrXrXrXrXrXrXrXrXrXrXrXrXrXrXrXrX",
"rXrXrXrXrXrXrXrXrXrXrXrXrXrXrXrXeX9.-.1XS.y R.9X9.(  .Q W W W W W W Q  .' -.1X[.s t.5X9.-.5XrXrXrXrXrXrXrXrXrXrXrXrXrXrXrXrXrXrX",
"rXrXrXrXrXrXrXrXrXrXrXrXrXrXrXrXrX7X$X>./ u { :.[.1X2XI.W W W W W W 6.>X1X%X8.-.g / -.].4XrXrXrXrXrXrXrXrXrXrXrXrXrXrXrXrXrXrXrX",
"rXrXrXrXrXrXrXrXrXrXrXrXrXrXrXrXrXrXqXy.=.8 8 8 #XrXrX^.W W W W W I h.rXrX6Xa 8 8 g e.1XrXrXrXrXrXrXrXrXrXrXrXrXrXrXrXrXrXrXrXrX",
"rXrXrXrXrXrXrXrXrXrXrXrXrXrXrXrXrXrXrXrXV.. X O @XeXrX^.I W W W W I I.eXrX3X5 X . 1.rXrXrXrXrXrXrXrXrXrXrXrXrXrXrXrXrXrXrXrXrXrX",
"rXrXrXrXrXrXrXrXrXrXrXrXrXrXrXrXrXrXrXrXV.. 1 4 f.^.^.6.W W W W W W 5.^.^.I.7 1 X 1.rXrXrXrXrXrXrXrXrXrXrXrXrXrXrXrXrXrXrXrXrXrX",
"rXrXrXrXrXrXrXrXrXrXrXrXrXrXrXrXrXrXrXrXV.. 4 D U W I W W W W W W W I I I U F C X 1.rXrXrXrXrXrXrXrXrXrXrXrXrXrXrXrXrXrXrXrXrXrX",
"rXrXrXrXrXrXrXrXrXrXrXrXrXrXrXrXrXrXrXrXV.. 4 D U W W W W W W W W W W W W I F V X 1.rXrXrXrXrXrXrXrXrXrXrXrXrXrXrXrXrXrXrXrXrXrX",
"rXrXrXrXrXrXrXrXrXrXrXrXrXrXrXrXrXrXrXrXD.3 4 A P I E W W W E E W W W W W U A V O 2.rXrXrXrXrXrXrXrXrXrXrXrXrXrXrXrXrXrXrXrXrXrX",
"rXrXrXrXrXrXrXrXrXrXrXrXrXrXrXrXrXrXrXrX6X&X*.1 Z L E W W L F G L W W W L A 1 t #X5XrXrXrXrXrXrXrXrXrXrXrXrXrXrXrXrXrXrXrXrXrXrX",
"rXrXrXrXrXrXrXrXrXrXrXrXrXrXrXrXrXrXrXrXrXrXb X V G R R E G Z Z D E U E L Z o x eXrXrXrXrXrXrXrXrXrXrXrXrXrXrXrXrXrXrXrXrXrXrXrX",
"rXrXrXrXrXrXrXrXrXrXrXrXrXrXrXrXrXrXrXrXrXrX1.X C D F F D 4 o O 2 F F F D Z o x eXrXrXrXrXrXrXrXrXrXrXrXrXrXrXrXrXrXrXrXrXrXrXrX",
"rXrXrXrXrXrXrXrXrXrXrXrXrXrXrXrXrXrXrXrXrXrXm.0 V Z C C Z 2 . . 1 C C Z Z V 0 b eXrXrXrXrXrXrXrXrXrXrXrXrXrXrXrXrXrXrXrXrXrXrXrX",
"rXrXrXrXrXrXrXrXrXrXrXrXrXrXrXrXrXrXrXrXrXrXwX6Xx X o o o o X X X o o o X 0 :XrXrXrXrXrXrXrXrXrXrXrXrXrXrXrXrXrXrXrXrXrXrXrXrXrX",
"rXrXrXrXrXrXrXrXrXrXrXrXrXrXrXrXrXrXrXrXrXrXL.n.h 6 6 6 6 @ + + @ 6 6 6 6 e w.K.rXrXrXrXrXrXrXrXrXrXrXrXrXrXrXrXrXrXrXrXrXrXrXrX",
"rXrXrXrXrXrXrXrXrXrXrXrXrXrXrXrXrXrXrXrXrXrXM   e f f f f q + % ; s f f f s   z qXrXrXrXrXrXrXrXrXrXrXrXrXrXrXrXrXrXrXrXrXrXrXrX",
"rXrXrXrXrXrXrXrXrXrXrXrXrXrXrXrXrXrXrXrX'.M b.r.] f f f f q $ $ ; s f u u / r.m.B K.rXrXrXrXrXrXrXrXrXrXrXrXrXrXrXrXrXrXrXrXrXrX",
"rXrXrXrXrXrXrXrXrXrXrXrXrXrXrXrXrXrXrXrXB.  V.oX;.s f f f q % % > y f f s ]  XT.  M rXrXrXrXrXrXrXrXrXrXrXrXrXrXrXrXrXrXrXrXrXrX",
"rXrXrXrXrXrXrXrXrXrXrXrXrXrXrXrXrXrXrXrXB.  j c w ; ; ; ; w.L.L.B.> ; ; ; w z k + B rXrXrXrXrXrXrXrXrXrXrXrXrXrXrXrXrXrXrXrXrXrX",
"rXrXrXrXrXrXrXrXrXrXrXrXrXrXrXrXrXrXrXrXH.- * = * - - - = K.rXrX@X: * * - * * - = B rXrXrXrXrXrXrXrXrXrXrXrXrXrXrXrXrXrXrXrXrXrX",
"rXrXrXrXrXrXrXrXrXrXrXrXrXrXrXrXrXrXrXrX6X@X@X@X@X@X@X@X@X6XrXrXqX@X@X@X@X@X@X@X@X3XrXrXrXrXrXrXrXrXrXrXrXrXrXrXrXrXrXrXrXrXrXrX",
"rXrXrXrXrXrXrXrXrXrXrXrXrXrXrXrXrXrXrXrXrXrXrXrXrXrXrXrXrXrXrXrXrXrXrXrXrXrXrXrXrXrXrXrXrXrXrXrXrXrXrXrXrXrXrXrXrXrXrXrXrXrXrXrX",
"rXrXrXrXrXrXrXrXrXrXrXrXrXrXrXrXrXrXrXrXrXrXrXrXrXrXrXrXrXrXrXrXrXrXrXrXrXrXrXrXrXrXrXrXrXrXrXrXrXrXrXrXrXrXrXrXrXrXrXrXrXrXrXrX",
"rXrXrXrXrXrXrXrXrXrXrXrXrXrXrXrXrXrXrXrXrXrXrXrXrXrXrXrXrXrXrXrXrXrXrXrXrXrXrXrXrXrXrXrXrXrXrXrXrXrXrXrXrXrXrXrXrXrXrXrXrXrXrXrX",
"rXrXrXrXrXrXrXrXrXrXrXrXrXrXrXrXrXrXrXrXrXrXrXrXrXrXrXrXrXrXrXrXrXrXrXrXrXrXrXrXrXrXrXrXrXrXrXrXrXrXrXrXrXrXrXrXrXrXrXrXrXrXrXrX",
"rXrXrXrXrXrXrXrXrXrXrXrXrXrXrXrXrXrXrXrXrXrXrXrXrXrXrXrXrXrXrXrXrXrXrXrXrXrXrXrXrXrXrXrXrXrXrXrXrXrXrXrXrXrXrXrXrXrXrXrXrXrXrXrX",
"rXrXrXrXrXrXrXrXrXrXrXrXrXrXrXrXrXrXrXrXrXrXrXrXrXrXrXrXrXrXrXrXrXrXrXrXrXrXrXrXrXrXrXrXrXrXrXrXrXrXrXrXrXrXrXrXrXrXrXrXrXrXrXrX",
"rXrXrXrXrXrXrXrXrXrXrXrXrXrXrXrXrXrXrXrXrXrXrXrXrXrXrXrXrXrXrXrXrXrXrXrXrXrXrXrXrXrXrXrXrXrXrXrXrXrXrXrXrXrXrXrXrXrXrXrXrXrXrXrX"
};
