/* XPM */
static char *result[] = {
/* columns rows colors chars-per-pixel */
"64 64 198 2 ",
"   c #002E00",
".  c #002F00",
"X  c #003000",
"o  c #003100",
"O  c #003200",
"+  c #013500",
"@  c #023400",
"#  c #023500",
"$  c #033500",
"%  c #043600",
"&  c #063701",
"*  c #003D00",
"=  c #023E00",
"-  c #063F00",
";  c #0A4101",
":  c #124402",
">  c #144502",
",  c #154502",
"<  c #005E00",
"1  c #005F00",
"2  c #2A5A04",
"3  c #305F04",
"4  c #026000",
"5  c #0A6301",
"6  c #0C6401",
"7  c #176802",
"8  c #3B6A05",
"9  c #2A7004",
"0  c #2B7104",
"q  c #3B7705",
"w  c #3C7805",
"e  c #3D7805",
"r  c #407906",
"t  c #4B7E07",
"y  c #008000",
"u  c #008100",
"i  c #008A00",
"p  c #008B00",
"a  c #008C00",
"s  c #018C00",
"d  c #008D00",
"f  c #028D00",
"g  c #038D00",
"h  c #038E00",
"j  c #048D00",
"k  c #048E00",
"l  c #048F00",
"z  c #068E00",
"x  c #068F00",
"c  c #078F01",
"v  c #128802",
"b  c #128902",
"n  c #0A9001",
"m  c #0B9001",
"M  c #0F9201",
"N  c #109201",
"B  c #129302",
"V  c #139402",
"C  c #149402",
"Z  c #159502",
"A  c #169502",
"S  c #159602",
"D  c #189602",
"F  c #189702",
"G  c #1F9903",
"H  c #218003",
"J  c #3C8C05",
"K  c #299204",
"L  c #2C9304",
"P  c #209903",
"I  c #219A03",
"U  c #229A03",
"Y  c #279C03",
"T  c #289D04",
"R  c #299D04",
"E  c #2A9D04",
"W  c #2C9E04",
"Q  c #2C9F04",
"!  c #2E9F04",
"~  c #2F9F04",
"^  c #2FA004",
"/  c #2FA104",
"(  c #30A004",
")  c #31A004",
"_  c #30A104",
"`  c #38A305",
"'  c #3AA405",
"]  c #3BA405",
"[  c #3DA505",
"{  c #3DA705",
"}  c #558208",
"|  c #568208",
" . c #568308",
".. c #578308",
"X. c #588308",
"o. c #588408",
"O. c #489F06",
"+. c #40A606",
"@. c #4BA007",
"#. c #45A806",
"$. c #46AA06",
"%. c #4BAB07",
"&. c #52AE07",
"*. c #53AE07",
"=. c #53AF07",
"-. c #54AE07",
";. c #54AF07",
":. c #55AF07",
">. c #55AF08",
",. c #56AF08",
"<. c #55B007",
"1. c #55B108",
"2. c #56B008",
"3. c #57B008",
"4. c #56B108",
"5. c #57B108",
"6. c #56B208",
"7. c #56B308",
"8. c #58B008",
"9. c #58B208",
"0. c #76A30A",
"q. c #79A40B",
"w. c #7AA40B",
"e. c #7BA50B",
"r. c #7DA70B",
"t. c #62B609",
"y. c #65B609",
"u. c #66B609",
"i. c #67B709",
"p. c #6AB809",
"a. c #6BB809",
"s. c #6DB90A",
"d. c #7DB50B",
"f. c #70BA0A",
"g. c #71BA0A",
"h. c #70BB0A",
"j. c #72BB0A",
"k. c #75BC0A",
"l. c #77BD0A",
"z. c #78BD0B",
"x. c #79BE0B",
"c. c #7ABE0B",
"v. c #7ABF0B",
"b. c #7CBF0B",
"n. c #7BC00B",
"m. c #7EC00B",
"M. c #7FC00B",
"N. c #84B70C",
"B. c #92BC0D",
"V. c #92BD0D",
"C. c #95BF0D",
"Z. c #96BF0D",
"A. c #97BF0D",
"S. c #80C10B",
"D. c #82C30B",
"F. c #84C20C",
"G. c #86C30C",
"H. c #89C40C",
"J. c #8AC50C",
"K. c #89C60C",
"L. c #98C00D",
"P. c #99C00D",
"I. c #92C80D",
"U. c #95C90D",
"Y. c #95CA0D",
"T. c #96CA0D",
"R. c #97CB0D",
"E. c #98CC0D",
"W. c #9ACC0E",
"Q. c #9DCD0E",
"!. c #A6CF0F",
"~. c #A7CF0F",
"^. c #A3D00E",
"/. c #A4D00E",
"(. c #A6D00F",
"). c #A7D10F",
"_. c #A8D00F",
"`. c #A8D10F",
"'. c #A8D20F",
"]. c #A9D20F",
"[. c #A9D30F",
"{. c #AAD20F",
"}. c #ABD30F",
"|. c #ACD30F",
" X c #ABD40F",
".X c #ACD40F",
"XX c #ADD40F",
"oX c #ADD50F",
"OX c #AED40F",
"+X c #AED50F",
"@X c #AFD50F",
"#X c #AFD60F",
"$X c #AFD70F",
"%X c #B0D40F",
"&X c #B0D410",
"*X c #B2D710",
"=X c #B1D810",
"-X c #62A052",
/* pixels */
"-X-X-X-X-X-X-X-X-X-X-X-X-X-X-X-X-X-X-X-X-X-X-X-X-X-X-X-X-X-X-X-X-X-X-X-X-X-X-X-X-X-X-X-X-X-X-X-X-X-X-X-X-X-X-X-X-X-X-X-X-X-X-X-X",
"-X-X-X-X-X-X-X-X-X-X-X-X-X-X-X-X-X-X-X-X-X-X-X-X-X-X-X-X-X-X-X-X-X-X-X-X-X-X-X-X-X-X-X-X-X-X-X-X-X-X-X-X-X-X-X-X-X-X-X-X-X-X-X-X",
"-X-X-X-X-X-X-X-X-X-X-X-X-X-X-X-X-X-X-X-X-X-X-X-X-X-X-X-X-X-X-X-X-X-X-X-X-X-X-X-X-X-X-X-X-X-X-X-X-X-X-X-X-X-X-X-X-X-X-X-X-X-X-X-X",
"-X-X-X-X-X-X-X-X-X-X-X-X-X-X-X-X-X-X-X-X-X-X-X-X-X-X-X-X-X-X-X-X-X-X-X-X-X-X-X-X-X-X-X-X-X-X-X-X-X-X-X-X-X-X-X-X-X-X-X-X-X-X-X-X",
"-X-X-X-X-X-X-X-X-X-X-X-X-X-X-X-X-X-X-X-X-X-X-X-X-X-X-X-X-X-X-X-X-X-X-X-X-X-X-X-X-X-X-X-X-X-X-X-X-X-X-X-X-X-X-X-X-X-X-X-X-X-X-X-X",
"-X-X-X-X-X-X-X-X-X-X-X-X-X-X-X-X-X-X-X-X-X-X-X-X-X-X-X-X-X-X-X-X-X-X-X-X-X-X-X-X-X-X-X-X-X-X-X-X-X-X-X-X-X-X-X-X-X-X-X-X-X-X-X-X",
"-X-X-X-X-X-X-X-X-X-X-X-X-X-X-X-X-X-X-X-X-X-X-X-X-X-X-X-X-X-X-X-X-X-X-X-X-X-X-X-X-X-X-X-X-X-X-X-X-X-X-X-X-X-X-X-X-X-X-X-X-X-X-X-X",
"-X-X-X-X-X-X-X-X-X-X-X-X-X-X-X-X-X-X-X-X-X-X-X-X-X-X-X-X-X-X-X-X-X-X-X-X-X-X-X-X-X-X-X-X-X-X-X-X-X-X-X-X-X-X-X-X-X-X-X-X-X-X-X-X",
"-X-X-X-X-X-X-X-X-X-X-X-X-X-X-X-X-X-X-X-X-X-X-X-X-X-X-X-X-X-X-X-X-X-X-X-X-X-X-X-X-X-X-X-X-X-X-X-X-X-X-X-X-X-X-X-X-X-X-X-X-X-X-X-X",
"-X-X-X-X-X-X-X-X-X-X-X-X-X-X-X-X-X-X-X-X-X-X-X-X-X-X-X-X-X-X-X-X-X-X-X-X-X-X-X-X-X-X-X-X-X-X-X-X-X-X-X-X-X-X-X-X-X-X-X-X-X-X-X-X",
"-X-X-X-X-X-X-X-X-X-X-X-X-X-X-X-X-X-X-X-X-X-X-X-X-X-X-X-X-X-X-X-X-X-X-X-X-X-X-X-X-X-X-X-X-X-X-X-X-X-X-X-X-X-X-X-X-X-X-X-X-X-X-X-X",
"-X-X-X-X-X-X-X-X-X-X-X-X-X-X-X-X-X-X-X-X-X-X-X-X-X-X-X-X-X-X-X-X-X-X-X-X-X-X-X-X-X-X-X-X-X-X-X-X-X-X-X-X-X-X-X-X-X-X-X-X-X-X-X-X",
"-X-X-X-X-X-X-X-X-X-X-X-XO $ % % % % % % % % % % % % % % % % % % % % % % % % % % % % % % % % % % % % $ O -X-X-X-X-X-X-X-X-X-X-X-X",
"-X-X-X-X-X-X-X-X-X-X-X-X$ o.r.e.e.e.e.w.q.q.q.q.q.q.q.e.e.e.e.e.e.e.e.e.e.e.e.e.e.e.e.e.e.e.e.e.e.r.o.$ -X-X-X-X-X-X-X-X-X-X-X-X",
"-X-X-X-X-X-X-X-X-X-X-X-X# J 7.<.1.5.5.D.+XoXoXoXoXoX^.t.1.<.4.9.9.9.9.9.9.9.9.9.9.9.9.4.4.5.1.5.4.6.J # -X-X-X-X-X-X-X-X-X-X-X-X",
"-X-X-X-X-X-X-X-X-X-X-X-X+ H / ~ T g i ;.|.{.{.{.{.}.U.V G ( P p p p p p p p p p p p p U A m T j P _ H + -X-X-X-X-X-X-X-X-X-X-X-X",
"-X-X-X-X-X-X-X-X-X-X-X-X% 0.[.`.I.C i >.|.{.{.{.{.}.Y.D k.|.l.j a a a a a a a a a a g p.*.` S.Y b. X0.% -X-X-X-X-X-X-X-X-X-X-X-X",
"-X-X-X-X-X-X-X-X-X-X-X-X% q.oX|.T.C i >.|.{.{.{.{.}.Y.D z.&Xx.k a a a a a a a a a a s N 3.f.R F./.oXq.% -X-X-X-X-X-X-X-X-X-X-X-X",
"-X-X-X-X-X-X-X-X-X-X-X-X% q.oX}.T.C i >.|.{.{.{.{.}.Y.D z.%Xx.k a a a a a a a a a a g 8.,.#.f.] G.@Xq.% -X-X-X-X-X-X-X-X-X-X-X-X",
"-X-X-X-X-X-X-X-X-X-X-X-X% q.oX}.T.C i >.|.{.{.{.{.}.Y.D z.%Xx.k a a a a a a a a a a f [ 2.>.:.3.I.+Xq.% -X-X-X-X-X-X-X-X-X-X-X-X",
"-X-X-X-X-X-X-X-X-X-X-X-X% q.oX}.T.C i >.|.{.{.{.{.}.Y.D z.%Xx.k a a a a a a a a a a s I 3.y.' j.Q.+Xq.% -X-X-X-X-X-X-X-X-X-X-X-X",
"-X-X-X-X-X-X-X-X-X-X-X-X% q.oX}.T.C i >.|.{.{.{.{.}.Y.D z.%Xx.k a a a a a a a a a a g p.>.' S.E M.#Xq.% -X-X-X-X-X-X-X-X-X-X-X-X",
"-X-X-X-X-X-X-X-X-X-X-X-X% q.oX}.T.C i >.|.{.{.{.{.}.Y.D z.%Xx.k a a a a a a a a a a s N 3.f.R F./.oXq.% -X-X-X-X-X-X-X-X-X-X-X-X",
"-X-X-X-X-X-X-X-X-X-X-X-X% q.oX}.T.C i >.|.{.{.{.{.}.Y.D z.%Xx.k a a a a a a a a a a g 8.,.#.f.] G.@Xq.% -X-X-X-X-X-X-X-X-X-X-X-X",
"-X-X-X-X-X-X-X-X-X-X-X-X% q.oX}.T.C i >.|.{.{.{.{.}.Y.D z.%Xx.k a a a a a a a a a a f [ 2.>.:.3.I.+Xq.% -X-X-X-X-X-X-X-X-X-X-X-X",
"-X-X-X-X-X-X-X-X-X-X-X-X% q.oX}.T.C i >.|.{.{.{.{.}.Y.D z.%Xx.k a a a a a a a a a a s I 3.y.' j.Q.+Xq.% -X-X-X-X-X-X-X-X-X-X-X-X",
"-X-X-X-X-X-X-X-X-X-X-X-X% q.oX}.T.C i >.|.{.{.{.{.}.Y.D z.%Xx.k a a a a a a a a a a g p.>.' S.E M.#Xq.% -X-X-X-X-X-X-X-X-X-X-X-X",
"-X-X-X-X-X-X-X-X-X-X-X-X% q.oX}.T.C i >.|.{.{.{.{.}.Y.D z.%Xx.k a a a a a a a a a a s N 3.f.R F./.oXq.% -X-X-X-X-X-X-X-X-X-X-X-X",
"-X-X-X-X-X-X-X-X-X-X-X-X% e.$X+XE.S a 4.@X.X.X.X.X+XE.F v.*Xn.l d d d d d d d d d d h 9.5.$.h.{ K.=Xe.% -X-X-X-X-X-X-X-X-X-X-X-X",
"-X-X-X-X-X-X-X-X-X-X-X-X@ 8  .| t 5 < 0 | } } } } | t 6 w X.e 4 1 1 1 1 1 1 1 1 1 1 4 r 9 7 t 5 q ..8 @ -X-X-X-X-X-X-X-X-X-X-X-X",
"-X-X-X-X-X-X-X-X-X-X-X-XO X . . . . . . . . .       . . . . . X X X X X X X X X X X X . . . . . X . X O -X-X-X-X-X-X-X-X-X-X-X-X",
"-X-X-X-X-X-X-X-X-X-X-X-X-X-Xo & > > , ; * = : , > > > > - ; , : = * * * * * * * * = : - ; , > > & o -X-X-X-X-X-X-X-X-X-X-X-X-X-X",
"-X-X-X-X-X-X-X-X-X-X-X-X-X-X  2 B.Z.L.@.y b N.A.Z.Z.Z.V.K O.P.N.b u u u u u u u u v d.L O.C.Z.B.2   -X-X-X-X-X-X-X-X-X-X-X-X-X-X",
"-X-X-X-X-X-X-X-X-X-X-X-X-X-X  3 _.|.OX2.p Z R.XX}.}.|.'.^ =.@XR.Z a d d d d d d d x Q i.<.&.]._.3   -X-X-X-X-X-X-X-X-X-X-X-X-X-X",
"-X-X-X-X-X-X-X-X-X-X-X-X-X-X  3 !.{.|.>.i C T.}.{.{.{.(.! &.OXT.C p a a a a a a a n %.,.-.s.`.!.3   -X-X-X-X-X-X-X-X-X-X-X-X-X-X",
"-X-X-X-X-X-X-X-X-X-X-X-X-X-X  3 !.{.|.>.i C T.}.{.{.{.(.! &.OXT.C p a a a a a a a M p.#.*.H.].!.3   -X-X-X-X-X-X-X-X-X-X-X-X-X-X",
"-X-X-X-X-X-X-X-X-X-X-X-X-X-X  3 !.{.|.>.i C T.}.{.{.{.(.! &.OXT.C p a a a a a a a g D g.:.+.).~.3   -X-X-X-X-X-X-X-X-X-X-X-X-X-X",
"-X-X-X-X-X-X-X-X-X-X-X-X-X-X  3 !.{.|.>.i C T.}.{.{.{.(.! &.OXT.C p a a a a a a a B m.' *.W.{.!.3   -X-X-X-X-X-X-X-X-X-X-X-X-X-X",
"-X-X-X-X-X-X-X-X-X-X-X-X-X-X  3 !.{.|.>.i C T.}.{.{.{.(.! &.OXT.C p a a a a a a a z W u.;.&.`.!.3   -X-X-X-X-X-X-X-X-X-X-X-X-X-X",
"-X-X-X-X-X-X-X-X-X-X-X-X-X-X  3 !.{.|.>.i C T.}.{.{.{.(.! &.OXT.C p a a a a a a a n %.,.-.s.`.!.3   -X-X-X-X-X-X-X-X-X-X-X-X-X-X",
"-X-X-X-X-X-X-X-X-X-X-X-X-X-X  3 !.{.|.>.i C T.}.{.{.{.(.! &.OXT.C p a a a a a a a M p.#.*.H.].!.3   -X-X-X-X-X-X-X-X-X-X-X-X-X-X",
"-X-X-X-X-X-X-X-X-X-X-X-X-X-X  3 !.{.|.>.i C T.}.{.{.{.(.! &.OXT.C p a a a a a a a g D g.:.+.).~.3   -X-X-X-X-X-X-X-X-X-X-X-X-X-X",
"-X-X-X-X-X-X-X-X-X-X-X-X-X-X  3 !.{.|.>.i C T.}.{.{.{.(.! &.OXT.C p a a a a a a a B m.' *.W.{.!.3   -X-X-X-X-X-X-X-X-X-X-X-X-X-X",
"-X-X-X-X-X-X-X-X-X-X-X-X-X-X  3 !.{.|.>.i C T.}.{.{.{.(.! &.OXT.C p a a a a a a a z W u.;.&.`.!.3   -X-X-X-X-X-X-X-X-X-X-X-X-X-X",
"-X-X-X-X-X-X-X-X-X-X-X-X-X-X  3 !.{.|.>.i C T.}.{.{.{.(.! &.OXT.C p a a a a a a a n %.,.-.s.`.!.3   -X-X-X-X-X-X-X-X-X-X-X-X-X-X",
"-X-X-X-X-X-X-X-X-X-X-X-X-X-X  3 !.{.|.>.i C T.}.{.{.{.(.! &.OXT.C p a a a a a a a M p.#.*.H.].!.3   -X-X-X-X-X-X-X-X-X-X-X-X-X-X",
"-X-X-X-X-X-X-X-X-X-X-X-X-X-X  3 !.{.|.>.i C T.}.{.{.{.(.! &.OXT.C p a a a a a a a g D g.:.+.).~.3   -X-X-X-X-X-X-X-X-X-X-X-X-X-X",
"-X-X-X-X-X-X-X-X-X-X-X-X-X-X  3 !.{.|.>.i C T.}.{.{.{.(.! &.OXT.C p a a a a a a a B m.' *.W.{.!.3   -X-X-X-X-X-X-X-X-X-X-X-X-X-X",
"-X-X-X-X-X-X-X-X-X-X-X-X-X-X  3 !.{.|.>.i C T.}.{.{.{.(.! &.OXT.C p a a a a a a a z W u.;.&.`.!.3   -X-X-X-X-X-X-X-X-X-X-X-X-X-X",
"-X-X-X-X-X-X-X-X-X-X-X-X-X-X  3 !.{.|.>.i C T.}.{.{.{.(.! &.OXT.C p a a a a a a a n %.,.-.s.`.!.3   -X-X-X-X-X-X-X-X-X-X-X-X-X-X",
"-X-X-X-X-X-X-X-X-X-X-X-X-X-X  3 !.{.|.>.i C T.}.{.{.{.(.! &.OXT.C p a a a a a a a M a.#.*.J.].!.3   -X-X-X-X-X-X-X-X-X-X-X-X-X-X",
"-X-X-X-X-X-X-X-X-X-X-X-X-X-X  3 !.{.|.>.i C T.}.{.{.{.(.! &.OXT.C p a a a a a a a a c c.:.) ).~.3   -X-X-X-X-X-X-X-X-X-X-X-X-X-X",
"-X-X-X-X-X-X-X-X-X-X-X-X-X-X-X-X-X-X-X-X-X-X-X-X-X-X-X-X-X-X-X-X-X-X-X-X-X-X-X-X-X-X-X-X-X-X-X-X-X-X-X-X-X-X-X-X-X-X-X-X-X-X-X-X",
"-X-X-X-X-X-X-X-X-X-X-X-X-X-X-X-X-X-X-X-X-X-X-X-X-X-X-X-X-X-X-X-X-X-X-X-X-X-X-X-X-X-X-X-X-X-X-X-X-X-X-X-X-X-X-X-X-X-X-X-X-X-X-X-X",
"-X-X-X-X-X-X-X-X-X-X-X-X-X-X-X-X-X-X-X-X-X-X-X-X-X-X-X-X-X-X-X-X-X-X-X-X-X-X-X-X-X-X-X-X-X-X-X-X-X-X-X-X-X-X-X-X-X-X-X-X-X-X-X-X",
"-X-X-X-X-X-X-X-X-X-X-X-X-X-X-X-X-X-X-X-X-X-X-X-X-X-X-X-X-X-X-X-X-X-X-X-X-X-X-X-X-X-X-X-X-X-X-X-X-X-X-X-X-X-X-X-X-X-X-X-X-X-X-X-X",
"-X-X-X-X-X-X-X-X-X-X-X-X-X-X-X-X-X-X-X-X-X-X-X-X-X-X-X-X-X-X-X-X-X-X-X-X-X-X-X-X-X-X-X-X-X-X-X-X-X-X-X-X-X-X-X-X-X-X-X-X-X-X-X-X",
"-X-X-X-X-X-X-X-X-X-X-X-X-X-X-X-X-X-X-X-X-X-X-X-X-X-X-X-X-X-X-X-X-X-X-X-X-X-X-X-X-X-X-X-X-X-X-X-X-X-X-X-X-X-X-X-X-X-X-X-X-X-X-X-X",
"-X-X-X-X-X-X-X-X-X-X-X-X-X-X-X-X-X-X-X-X-X-X-X-X-X-X-X-X-X-X-X-X-X-X-X-X-X-X-X-X-X-X-X-X-X-X-X-X-X-X-X-X-X-X-X-X-X-X-X-X-X-X-X-X",
"-X-X-X-X-X-X-X-X-X-X-X-X-X-X-X-X-X-X-X-X-X-X-X-X-X-X-X-X-X-X-X-X-X-X-X-X-X-X-X-X-X-X-X-X-X-X-X-X-X-X-X-X-X-X-X-X-X-X-X-X-X-X-X-X",
"-X-X-X-X-X-X-X-X-X-X-X-X-X-X-X-X-X-X-X-X-X-X-X-X-X-X-X-X-X-X-X-X-X-X-X-X-X-X-X-X-X-X-X-X-X-X-X-X-X-X-X-X-X-X-X-X-X-X-X-X-X-X-X-X",
"-X-X-X-X-X-X-X-X-X-X-X-X-X-X-X-X-X-X-X-X-X-X-X-X-X-X-X-X-X-X-X-X-X-X-X-X-X-X-X-X-X-X-X-X-X-X-X-X-X-X-X-X-X-X-X-X-X-X-X-X-X-X-X-X",
"-X-X-X-X-X-X-X-X-X-X-X-X-X-X-X-X-X-X-X-X-X-X-X-X-X-X-X-X-X-X-X-X-X-X-X-X-X-X-X-X-X-X-X-X-X-X-X-X-X-X-X-X-X-X-X-X-X-X-X-X-X-X-X-X",
"-X-X-X-X-X-X-X-X-X-X-X-X-X-X-X-X-X-X-X-X-X-X-X-X-X-X-X-X-X-X-X-X-X-X-X-X-X-X-X-X-X-X-X-X-X-X-X-X-X-X-X-X-X-X-X-X-X-X-X-X-X-X-X-X"
};
