/* XPM */
static char *result[] = {
/* columns rows colors chars-per-pixel */
"90 90 71 1 ",
"  c #002F00",
". c #003100",
"X c #003D00",
"o c #093A01",
"O c #0B4101",
"+ c #134402",
"@ c #194902",
"# c #025500",
"$ c #005E00",
"% c #1A5F02",
"& c #205003",
"* c #076101",
"= c #0D6301",
"- c #136602",
"; c #196802",
": c #336A05",
"> c #2F7104",
", c #367405",
"< c #416F06",
"1 c #427006",
"2 c #467B06",
"3 c #4E7E07",
"4 c #517F07",
"5 c #008100",
"6 c #0D8701",
"7 c #008C00",
"8 c #088F01",
"9 c #158A02",
"0 c #0D9101",
"q c #149402",
"w c #1A9702",
"e c #1E9803",
"r c #239B03",
"t c #2A9D04",
"y c #2FA004",
"u c #32A104",
"i c #3CA505",
"p c #538007",
"a c #409C06",
"s c #41A706",
"d c #4DA107",
"f c #45A806",
"g c #4AAB06",
"h c #52AE07",
"j c #56AF08",
"k c #57B008",
"l c #5BB208",
"z c #68AC09",
"x c #76A10A",
"c c #62B409",
"v c #68B709",
"b c #6DB90A",
"n c #76B20A",
"m c #75BC0A",
"M c #7ABE0B",
"N c #7EC00B",
"B c #86B00C",
"V c #84B80C",
"C c #89BA0C",
"Z c #96BF0D",
"A c #84C30C",
"S c #8CC60C",
"D c #8EC80D",
"F c #90C70D",
"G c #98C10D",
"H c #95C90D",
"J c #9BCC0E",
"K c #A1CF0E",
"L c #A6D10F",
"P c #ABD20F",
"I c None",
/* pixels */
"IIIIIIIIIIIIIIIIIIIIIIIIIIIIIIIIIIIIIIIIIIIIIIIIIIIIIIIIIIIIIIIIIIIIIIIIIIIIIIIIIIIIIIIIII",
"IIIIIIIIIIIIIIIIIIIIIIIIIIIIIIIIIIIIIIIIIIIIIIIIIIIIIIIIIIIIIIIIIIIIIIIIIIIIIIIIIIIIIIIIII",
"IIIIIIIIIIIIIIIIIIIIIIIIIIIIIIIIIIIIIIIIIIIIIIIIIIIIIIIIIIIIIIIIIIIIIIIIIIIIIIIIIIIIIIIIII",
"IIIIIIIIIIIIIIIIIIIIIIIIIIIIIIIIIIIIIIIIIIIIIIIIIIIIIIIIIIIIIIIIIIIIIIIIIIIIIIIIIIIIIIIIII",
"IIIIIIIIIIIIIIIIIIIIIIIIIIIIIIIIIIIIIIIIIIIIIIIIIIIIIIIIIIIIIIIIIIIIIIIIIIIIIIIIIIIIIIIIII",
"IIIIIIIIIIIIIIIIIIIIIIIIIIIIIIIIIIIIIIIIIIIIIIIIIIIIIIIIIIIIIIIIIIIIIIIIIIIIIIIIIIIIIIIIII",
"IIIIIIIIIIIIIIIIIIIIIIIIIIIIIIIIIIIIIIIIIIIIIIIIIIIIIIIIIIIIIIIIIIIIIIIIIIIIIIIIIIIIIIIIII",
"IIIIIIIIIIIIIIIIIIIIIIIIIIIIIIIIIIIIIIIIIIIIIIIIIIIIIIIIIIIIIIIIIIIIIIIIIIIIIIIIIIIIIIIIII",
"IIIIIIIIIIIIIIIIIIIIIIIIIIIIIIIIIIIIIIIIIIIIIIIIIIIIIIIIIIIIIIIIIIIIIIIIIIIIIIIIIIIIIIIIII",
"IIIIIIIIIIIIIIIIIIIIIIIIIIIIIIIIIIIIIIIIIIIIIIIIIIIIIIIIIIIIIIIIIIIIIIIIIIIIIIIIIIIIIIIIII",
"IIIIIIIIIIIIIIIIIIIIIIIIIIIIIIIIIIIIIIIIIIIIIIIIIIIIIIIIIIIIIIIIIIIIIIIIIIIIIIIIIIIIIIIIII",
"IIIIIIIIIIIIIIIIIIIIIIIIIIIIIIIIIIIIIIIIIIIIIIIIIIIIIIIIIIIIIIIIIIIIIIIIIIIIIIIIIIIIIIIIII",
"IIIIIIIIIIIIIIIIIIIIIIIIIIIIIIIIIIIIIIIIIIIIIIIIIIIIIIIIIIIIIIIIIIIIIIIIIIIIIIIIIIIIIIIIII",
"IIIIIIIIIIIIIIIIIIIIIIIIIIIIIIIIIIIIIIIIIIIIIIIIIIIIIIIIIIIIIIIIIIIIIIIIIIIIIIIIIIIIIIIIII",
"IIIIIIIIIIIIIIIIIIIIIIIIIIIIIIIIIIIIIIIIIIIIIIIIIIIIIIIIIIIIIIIIIIIIIIIIIIIIIIIIIIIIIIIIII",
"IIIIIIIIIIIIIIIIIIIIIIIIIIIIIIIIIIIIIIIIIIIIIIIIIIIIIIIIIIIIIIIIIIIIIIIIIIIIIIIIIIIIIIIIII",
"IIIIIIIIIIIIIIIIIIIIIIIIIIIIIIIIIIIIIIIIIIIIIIIIIIIIIIIIIIIIIIIIIIIIIIIIIIIIIIIIIIIIIIIIII",
"IIIIIIIIIIIIIIIII..                                                    ..IIIIIIIIIIIIIIIII",
"IIIIIIIIIIIIIIIII.@<<1<<<<<<<<<<<<<<<<<<<<11<<11<1<<<<<<<1<1<1<<1,<1<1<@.IIIIIIIIIIIIIIIII",
"IIIIIIIIIIIIIIIII.<PPPPPPPPPPPPPPPPPPPPPPPPPPPPPPPPPPPPPPPPPPPPPPPPPPPP<.IIIIIIIIIIIIIIIII",
"IIIIIIIIIIIIIIIII ;ffsfffffMPLPPPPLPPJhsfffffffffffffffffffffffffffffff%.IIIIIIIIIIIIIIIII",
"IIIIIIIIIIIIIIIII #08888777cPPPPPPPPPFq78887775777777777757778777877878#.IIIIIIIIIIIIIIIII",
"IIIIIIIIIIIIIIIII :AAAAb875vPPPLPPPPPHqtAAAr7777777777777777rAg7hVqqMSS: IIIIIIIIIIIIIIIII",
"IIIIIIIIIIIIIIIII 1PPPPD077vPPPPLPPLPF0uPPPt7777777777777777rDlevSuiLPP< IIIIIIIIIIIIIIIII",
"IIIIIIIIIIIIIIIII <PPPPS077cPPPPPPPPPFquLPLu777777777777777778gKiqALLPP< IIIIIIIIIIIIIIIII",
"IIIIIIIIIIIIIIIII <PPPPS077cPPPPPPPLPH8uLPKu77777777777777770ihbgivNLPP1 IIIIIIIIIIIIIIIII",
"IIIIIIIIIIIIIIIII <PPPPS877cPPPPLPLPPHquLPLu7777777777777777tLc7bLwrKPP1 IIIIIIIIIIIIIIIII",
"IIIIIIIIIIIIIIIII <PPPPS877cPPLPPPPPPFquLPLt7777777777777777qfhchglbKPP, IIIIIIIIIIIIIIIII",
"IIIIIIIIIIIIIIIII <PPPPS977cPPPLPPPPPH9uLPLu777777777777777777gPi0SPPPP< IIIIIIIIIIIIIIIII",
"IIIIIIIIIIIIIIIII <PPPPD077cPPPPPPPPPH0uLPKu7777777777777777eNlrcVufKPP< IIIIIIIIIIIIIIIII",
"IIIIIIIIIIIIIIIII <PPPPF077cPPPPPPPPPF0uLPLy7777777777777777rDlwcDtuKPP< IIIIIIIIIIIIIIIII",
"IIIIIIIIIIIIIIIII <PLPPA077cPPPPPLPPPFquLPLu777777777777777770gJsqAKPPP< IIIIIIIIIIIIIIIII",
"IIIIIIIIIIIIIIIII <PPPPS077cPPPPPPKPPHquLPLu77777777777777770uhmgicVLPP< IIIIIIIIIIIIIIIII",
"IIIIIIIIIIIIIIIII <LPPPF075cPPPPLPPPPH0uLPLt7777777777777777tKc7mKwrLPP< IIIIIIIIIIIIIIIII",
"IIIIIIIIIIIIIIIII <PPLPS077vPPPPPPPPPH0uPPKu7777777777777777qghljgkbLPP< IIIIIIIIIIIIIIIII",
"IIIIIIIIIIIIIIIII <PPPPS077cPPPPPPLPPFquLPLu777777777777777777gLi8DPLPP, IIIIIIIIIIIIIIIII",
"IIIIIIIIIIIIIIIII <PPPPS077cPPPPPPPPPH9uLPLu7777777777777777eMltcMisKPP< IIIIIIIIIIIIIIIII",
"IIIIIIIIIIIIIIIII <PLPPF077cPPPPPPPPPH0uLPLt7777777777777777rFcqvDtuKPP< IIIIIIIIIIIIIIIII",
"IIIIIIIIIIIIIIIII <PPPPD877cPPPPPPPPPF0uLPPt777777777777777788gJswAJPPP1 IIIIIIIIIIIIIIIII",
"IIIIIIIIIIIIIIIII <PPLPD077cPPPPPLPPPFquPPKu77777777777777778thMguvALPP1 IIIIIIIIIIIIIIIII",
"IIIIIIIIIIIIIIIII 1PPPPH077cPPPPPPPPPJ0uPPPy7777777777777777tLc7bKerLPP1.IIIIIIIIIIIIIIIII",
"IIIIIIIIIIIIIIIII.&pppp2*$$>ppppppppp2*;ppp;$**$*$*$*$*$$$$$-p>*,4=-3pp&.IIIIIIIIIIIIIIIII",
"IIIIIIIIIIIIIIIII........................................................IIIIIIIIIIIIIIIII",
"IIIIIIIIIIIIIIIIIIII..................................................IIIIIIIIIIIIIIIIIIII",
"IIIIIIIIIIIIIIIIIIII..+++++OXXo++++++++OXO@++XXXXXXXOXXXXXX++XO++++O..IIIIIIIIIIIIIIIIIIII",
"IIIIIIIIIIIIIIIIIIII.oxGZZGa559CGGZGZGGz5dGGV95555555555556Vn5aGGFGxo.IIIIIIIIIIIIIIIIIIII",
"IIIIIIIIIIIIIIIIIIII.oBPPPPg77wJPPPPPPPN7kPPJq7777777777770vvuhMJPPBo.IIIIIIIIIIIIIIIIIIII",
"IIIIIIIIIIIIIIIIIIII.oBPPPPg77wJPPPPPLPM7kPPHq77777777777777tLc7NPPBo.IIIIIIIIIIIIIIIIIIII",
"IIIIIIIIIIIIIIIIIIII.oBPPPPg77wJLPLPPPPM7lPPHq7777777777778fjkkhSPPBo.IIIIIIIIIIIIIIIIIIII",
"IIIIIIIIIIIIIIIIIIII.oCPPPPg77wHPPPPPPPm7lPPHq7777777777770DA7gPPPPBo.IIIIIIIIIIIIIIIIIIII",
"IIIIIIIIIIIIIIIIIIII.oBPPPPg77wJPPLPPPPM7kPPHq7777777777778yiNlyNPPBo.IIIIIIIIIIIIIIIIIIII",
"IIIIIIIIIIIIIIIIIIII.oBPPPPg77wJPLPPPPPm7kPPHq77777777777770yJl0NPPBo.IIIIIIIIIIIIIIIIIIII",
"IIIIIIIIIIIIIIIIIIII.oCPPPPg77wJPPPPPPPm7kPPHq7777777777770NNqgJLPPBo.IIIIIIIIIIIIIIIIIIII",
"IIIIIIIIIIIIIIIIIIII.oBPPPPg77wJPPLPPPPM7kPPHq7777777777770bbygNJPPBo.IIIIIIIIIIIIIIIIIIII",
"IIIIIIIIIIIIIIIIIIII.oBPPPPf77wJPPPPPPPm7lPPJq77777777777777rLc7bPPBo.IIIIIIIIIIIIIIIIIIII",
"IIIIIIIIIIIIIIIIIIII.oBPLPPg57wJPLPPPPPM7lPPHq7777777777778fhlkhSPPBo.IIIIIIIIIIIIIIIIIIII",
"IIIIIIIIIIIIIIIIIIII.oBPLPPg57wJPPPPPPPn7kPPJq7777777777770FA7gPPPPBo.IIIIIIIIIIIIIIIIIIII",
"IIIIIIIIIIIIIIIIIIII.oBPPPPg77wJPPPPPKPM7kPPJq7777777777778yfmkiAPPBo.IIIIIIIIIIIIIIIIIIII",
"IIIIIIIIIIIIIIIIIIII.oBPPPPg77wJPPPPPPPm7lPPHq77777777777778yJl0mPPBo.IIIIIIIIIIIIIIIIIIII",
"IIIIIIIIIIIIIIIIIIII.oBPPPPg77wJPPPPPPPM7lPPJ07777777777770NNwgHLPPBo.IIIIIIIIIIIIIIIIIIII",
"IIIIIIIIIIIIIIIIIIII.oBPLPPf77wJPPPLLPPm7kPPJq7777777777778NbtgAKPPBo.IIIIIIIIIIIIIIIIIIII",
"IIIIIIIIIIIIIIIIIIII.oBPPPPg77wJPPPPPPPm7kPPHq77777777777777tKc7mPPBo.IIIIIIIIIIIIIIIIIIII",
"IIIIIIIIIIIIIIIIIIII.oBPLPPg77wJPPPPPPPM7kPPJ07777777777778ihlkfAPPBo.IIIIIIIIIIIIIIIIIIII",
"IIIIIIIIIIIIIIIIIIII.oBPPPPg75wJPLPPPPPm7kPPJq7777777777770HA8gPPPPBo.IIIIIIIIIIIIIIIIIIII",
"IIIIIIIIIIIIIIIIIIII.oBPPPPg77wJPPLPPLPM7kPPHq7777777777778ufbkiAPPBo.IIIIIIIIIIIIIIIIIIII",
"IIIIIIIIIIIIIIIIIIII.oBPPPPg77wJPPPPPPPm7kPPHq77777777777778tJc8mPPBo.IIIIIIIIIIIIIIIIIIII",
"IIIIIIIIIIIIIIIIIIII.oCPPPPg77wJPPPLPLPM7kPPHq7777777777770MmegDKPPBo.IIIIIIIIIIIIIIIIIIII",
"IIIIIIIIIIIIIIIIIIII.oBPPPPg77wJPPPPPPPm7cPPHq7777777777770mmrhSJLPBo.IIIIIIIIIIIIIIIIIIII",
"IIIIIIIIIIIIIIIIIIII.oBPPPPg77wHPPPPPPPm7kPPJq77777777777777tKl8MPPBo.IIIIIIIIIIIIIIIIIIII",
"IIIIIIIIIIIIIIIIIIII.oBPLLPg77wJLPLPPPPm7kPPGq7777777777778igckfSPPBo.IIIIIIIIIIIIIIIIIIII",
"IIIIIIIIIIIIIIIIIIII.oBPPPPg77wJPPPPPPPM7kPPJq7777777777770FA8gPPPPBo.IIIIIIIIIIIIIIIIIIII",
"IIIIIIIIIIIIIIIIIIII.oBPPPPg77wJLPPPPPPM7kPPHq7777777777778igvkfAPPBo.IIIIIIIIIIIIIIIIIIII",
"IIIIIIIIIIIIIIIIIIII.oBPLPPg77wJPPPPPPPm8kPPHq77777777777777rPc7bPPBo.IIIIIIIIIIIIIIIIIIII",
"IIIIIIIIIIIIIIIIIIIIIIIIIIIIIIIIIIIIIIIIIIIIIIIIIIIIIIIIIIIIIIIIIIIIIIIIIIIIIIIIIIIIIIIIII",
"IIIIIIIIIIIIIIIIIIIIIIIIIIIIIIIIIIIIIIIIIIIIIIIIIIIIIIIIIIIIIIIIIIIIIIIIIIIIIIIIIIIIIIIIII",
"IIIIIIIIIIIIIIIIIIIIIIIIIIIIIIIIIIIIIIIIIIIIIIIIIIIIIIIIIIIIIIIIIIIIIIIIIIIIIIIIIIIIIIIIII",
"IIIIIIIIIIIIIIIIIIIIIIIIIIIIIIIIIIIIIIIIIIIIIIIIIIIIIIIIIIIIIIIIIIIIIIIIIIIIIIIIIIIIIIIIII",
"IIIIIIIIIIIIIIIIIIIIIIIIIIIIIIIIIIIIIIIIIIIIIIIIIIIIIIIIIIIIIIIIIIIIIIIIIIIIIIIIIIIIIIIIII",
"IIIIIIIIIIIIIIIIIIIIIIIIIIIIIIIIIIIIIIIIIIIIIIIIIIIIIIIIIIIIIIIIIIIIIIIIIIIIIIIIIIIIIIIIII",
"IIIIIIIIIIIIIIIIIIIIIIIIIIIIIIIIIIIIIIIIIIIIIIIIIIIIIIIIIIIIIIIIIIIIIIIIIIIIIIIIIIIIIIIIII",
"IIIIIIIIIIIIIIIIIIIIIIIIIIIIIIIIIIIIIIIIIIIIIIIIIIIIIIIIIIIIIIIIIIIIIIIIIIIIIIIIIIIIIIIIII",
"IIIIIIIIIIIIIIIIIIIIIIIIIIIIIIIIIIIIIIIIIIIIIIIIIIIIIIIIIIIIIIIIIIIIIIIIIIIIIIIIIIIIIIIIII",
"IIIIIIIIIIIIIIIIIIIIIIIIIIIIIIIIIIIIIIIIIIIIIIIIIIIIIIIIIIIIIIIIIIIIIIIIIIIIIIIIIIIIIIIIII",
"IIIIIIIIIIIIIIIIIIIIIIIIIIIIIIIIIIIIIIIIIIIIIIIIIIIIIIIIIIIIIIIIIIIIIIIIIIIIIIIIIIIIIIIIII",
"IIIIIIIIIIIIIIIIIIIIIIIIIIIIIIIIIIIIIIIIIIIIIIIIIIIIIIIIIIIIIIIIIIIIIIIIIIIIIIIIIIIIIIIIII",
"IIIIIIIIIIIIIIIIIIIIIIIIIIIIIIIIIIIIIIIIIIIIIIIIIIIIIIIIIIIIIIIIIIIIIIIIIIIIIIIIIIIIIIIIII",
"IIIIIIIIIIIIIIIIIIIIIIIIIIIIIIIIIIIIIIIIIIIIIIIIIIIIIIIIIIIIIIIIIIIIIIIIIIIIIIIIIIIIIIIIII",
"IIIIIIIIIIIIIIIIIIIIIIIIIIIIIIIIIIIIIIIIIIIIIIIIIIIIIIIIIIIIIIIIIIIIIIIIIIIIIIIIIIIIIIIIII",
"IIIIIIIIIIIIIIIIIIIIIIIIIIIIIIIIIIIIIIIIIIIIIIIIIIIIIIIIIIIIIIIIIIIIIIIIIIIIIIIIIIIIIIIIII",
"IIIIIIIIIIIIIIIIIIIIIIIIIIIIIIIIIIIIIIIIIIIIIIIIIIIIIIIIIIIIIIIIIIIIIIIIIIIIIIIIIIIIIIIIII"
};
