/* XPM */
static char *result[] = {
/* columns rows colors chars-per-pixel */
"64 64 140 2 ",
"   c #151815",
".  c #1C1A14",
"X  c #261E18",
"o  c #2B231A",
"O  c #282D1F",
"+  c #342A20",
"@  c #313623",
"#  c #44372A",
"$  c #46392A",
"%  c #50471F",
"&  c #544729",
"*  c #5C4E2F",
"=  c #554534",
"-  c #524C33",
";  c #5D503C",
":  c #615728",
">  c #65592D",
",  c #695E31",
"<  c #686029",
"1  c #71672E",
"2  c #756A2C",
"3  c #7E752F",
"4  c #746D34",
"5  c #776C3C",
"6  c #7C773A",
"7  c #6E5B43",
"8  c #645E50",
"9  c #746244",
"0  c #736C5B",
"q  c #796E5C",
"w  c #817C4C",
"e  c #837B6B",
"r  c #928433",
"t  c #978935",
"y  c #9D9037",
"u  c #9B953C",
"i  c #A3963A",
"p  c #A49A3D",
"a  c #B2A63F",
"s  c #8C8149",
"d  c #999441",
"f  c #9F9B4E",
"g  c #8F895B",
"h  c #908553",
"j  c #A5A448",
"k  c #B7AC48",
"l  c #B6B24C",
"z  c #918560",
"x  c #A0966E",
"c  c #A39B68",
"v  c #A49975",
"b  c #A8A16D",
"n  c #B6B073",
"m  c #C4B94A",
"M  c #CCBB48",
"N  c #D3C74D",
"B  c #DBC74C",
"V  c #DDCA4D",
"C  c #E1CD4D",
"Z  c #EED74F",
"A  c #EFD84F",
"S  c #F0DA4F",
"D  c #EAD650",
"F  c #EFD950",
"G  c #F1DD51",
"H  c #F5E453",
"J  c #F8E756",
"K  c #F7E853",
"L  c #F9EB55",
"P  c #F6E758",
"I  c #F7E95A",
"U  c #FAED5A",
"Y  c #FDF356",
"T  c #FEF857",
"R  c #FDF45C",
"E  c #FEF95D",
"W  c #F6EC64",
"Q  c #FBEF61",
"!  c #F9EE69",
"~  c #FDF563",
"^  c #FEF963",
"/  c #F7F16A",
"(  c #FDF56A",
")  c #FEFA6B",
"_  c #E9E579",
"`  c #FDF674",
"'  c #FEFA74",
"]  c #FEF77C",
"[  c #FEF97B",
"{  c #A59D8B",
"}  c #A39D92",
"|  c #BFAE8E",
" . c #B1AA9E",
".. c #C8B795",
"X. c #FDF784",
"o. c #FEFA83",
"O. c #FCF68C",
"+. c #FEFA8C",
"@. c #EDE996",
"#. c #F6EE99",
"$. c #FDF794",
"%. c #FEFA93",
"&. c #F7F19F",
"*. c #FAF49C",
"=. c #FEFA9B",
"-. c #FBF6A3",
";. c #FEFBA4",
":. c #FAF5AB",
">. c #FFFBAC",
",. c #F9F6B3",
"<. c #FFFBB3",
"1. c #FAF6BC",
"2. c #FEFBBB",
"3. c #F7F3C4",
"4. c #F9F6C5",
"5. c #FCF9C5",
"6. c #F5F2CD",
"7. c #F9F6CA",
"8. c #FCFACC",
"9. c #EBE6DB",
"0. c #F6F4D6",
"q. c #F9F6D3",
"w. c #FEFBD3",
"e. c #F5F4DB",
"r. c #F8F7DB",
"t. c #FCFADB",
"y. c #ECE9E1",
"u. c #EFEFEF",
"i. c #62A052",
"p. c #F5F4E4",
"a. c #F8F7E4",
"s. c #FCFAE4",
"d. c #62A052",
"f. c #62A052",
"g. c #62A052",
"h. c #F8F7F1",
"j. c #62A052",
"k. c #62A052",
"l. c #62A052",
"z. c #62A052",
/* pixels */
"k.g.l.k.g.l.l.g.l.g.g.k.l.g.k.l.k.l.l.k.l.l.g.l.l.g.k.k.g.k.k.g.k.l.g.k.k.g.k.k.g.l.l.g.l.l.g.k.k.g.l.k.g.l.l.g.l.k.g.g.k.g.k.k.",
"g.g.z.g.g.z.g.g.z.l.g.z.l.g.k.l.i.z.k.i.z.l.g.z.l.g.k.l.i.z.z.u.f.l.g.z.l.d.z.l.u.z.k.g.k.j.i.k.z.g.j.z.g.k.k.i.k.z.g.l.z.g.k.z.",
"z.z.d.k.z.i.l.z.i.k.z.i.l.z.g.g.z.g.l.z.i.k.z.i.l.z.i.l.z.g.d.>.$.a.z.g.g.z.g.g.z.g.g.z.g.g.z.g.g.z.g.i.z.g.g.z.l.i.z.g.g.z.l.i.",
"l.k.k.k.g.l.l.l.l.g.l.l.k.g.l.j.g.l.l.k.l.l.g.l.l.g.k.k.k.z.q.` [ 1.k.k.l.g.k.g.g.l.l.g.l.l.g.l.k.k.l.l.g.k.l.k.j.l.l.l.l.g.l.l.",
"g.g.z.l.g.z.l.u.z.k.g.z.l.g.z.l.g.z.l.i.k.l.g.z.k.i.k.k.g.j.;.( [ -.p.z.z.g.l.l.i.k.z.g.z.z.i.l.k.i.l.z.i.z.z.u.l.z.i.l.z.g.l.z.",
"z.l.u.l.z.i.l.z.i.l.z.i.g.z.i.g.z.i.k.z.i.k.z.i.l.z.g.g.z.q.] ^ ' $.5.g.g.z.g.g.z.g.g.z.g.g.z.g.g.z.g.u.z.k.g.z.k.g.z.g.i.z.l.u.",
"l.g.l.h.l.l.k.g.l.k.g.k.l.l.l.l.k.l.l.g.l.l.k.l.l.l.l.k.h.-.` ( ' =.>.a.l.k.k.h.l.l.l.g.l.l.l.l.l.l.l.l.l.l.l.l.k.l.l.l.l.l.l.l.",
"g.g.z.l.g.z.g.g.z.k.g.z.l.i.z.l.i.z.l.g.z.l.u.z.l.i.z.z.6.X.) ( ' =.;.5.l.u.z.l.i.l.z.g.k.l.i.l.z.i.z.z.u.l.z.i.k.k.i.l.z.i.l.z.",
"z.z.i.l.z.i.l.z.i.l.z.i.l.z.i.l.z.g.g.z.i.l.z.g.k.z.g.d.;.] ' ) ' %.;.>.a.z.g.g.z.g.d.z.g.g.z.g.g.z.g.g.z.g.g.z.l.g.z.g.g.z.l.i.",
"l.l.k.k.l.k.l.l.k.l.l.k.l.k.k.k.l.l.k.k.g.k.l.l.k.k.k.q.X.` ) ~ ' %.>.=.4.k.k.g.l.k.k.z.k.g.l.g.g.l.g.l.l.k.g.l.g.g.l.l.g.l.g.k.",
"g.g.z.k.g.z.k.i.z.g.i.z.l.i.z.l.i.z.k.g.z.l.i.z.l.i.j.>.] ' ) ( ) +.>.>.;.p.z.z.u.z.l.d.z.z.i.l.z.i.k.z.i.l.z.u.k.z.i.l.z.g.l.z.",
"z.z.g.l.z.i.l.z.g.k.z.g.l.z.g.g.z.g.g.z.g.g.z.g.k.z.q.X.[ ` ) ^ ) +.>.<.=.5.g.g.z.g.g.z.g.g.z.g.g.z.g.g.z.k.g.z.l.i.z.l.g.z.l.i.",
"k.g.l.l.l.g.l.l.g.l.l.l.k.l.l.k.l.l.g.l.l.g.k.k.k.h.-.] [ ) ~ ^ ) +.;.2.;.;.a.l.k.k.g.k.k.g.l.l.l.l.k.g.l.g.k.l.g.l.l.l.g.l.l.g.",
"g.g.z.g.g.z.l.i.z.l.i.z.g.i.z.k.i.z.l.i.z.l.u.z.l.6.X.] [ ) ( ^ ) o.;.2.<.=.5.l.u.z.z.d.l.z.i.l.z.u.k.z.u.l.z.i.k.z.i.k.z.u.l.z.",
"z.k.i.l.z.i.l.z.g.l.z.g.k.z.i.l.z.g.l.z.g.g.z.g.d.=.] ] ' ) ~ ^ ) o.;.2.2.;.;.a.z.g.g.z.g.g.z.g.g.z.l.g.z.k.g.z.g.g.z.l.g.z.l.u.",
"z.l.k.l.k.g.l.l.g.k.k.g.g.l.g.l.l.g.l.l.g.g.l.k.7.X.] [ ' ( ^ ~ ) [ =.2.2.<.=.2.l.k.k.l.k.g.l.l.k.j.l.g.j.l.g.k.l.g.k.g.g.l.l.g.",
"g.i.z.l.i.z.l.u.z.k.g.z.k.u.z.l.d.z.k.u.z.k.i.j.;.] ] [ ) ( ~ ^ ) [ =.<.2.2.;.=.e.z.z.u.l.z.u.k.z.i.z.z.u.l.z.u.k.z.i.l.z.u.l.z.",
"z.z.i.l.z.g.l.z.d.k.z.g.k.z.d.k.z.g.k.z.g.k.z.7.X.] [ ' ) ~ ~ ^ ^ [ %.>.2.2.>.=.1.g.g.z.g.k.z.g.g.k.g.g.z.g.g.z.l.g.z.l.g.z.l.g.",
"z.l.l.l.l.k.l.l.k.k.l.g.g.l.k.g.k.k.k.z.g.k.j.;.X.[ ' ) ~ ~ R E ) ' +.;.2.2.<.=.=.e.k.l.k.g.z.k.k.z.k.g.z.l.g.l.l.g.k.l.g.l.l.g.",
"g.u.z.k.i.z.g.g.z.k.d.z.k.i.z.k.u.z.k.u.z.j.,.X.] [ ' ~ ~ R ~ ^ ) ' o.=.>.2.2.;.$.<.a.u.z.z.u.z.z.i.k.z.i.l.z.u.l.z.i.k.z.u.l.z.",
"z.z.u.l.z.g.k.l.g.k.z.g.k.l.g.k.j.p.r.8.1.;.$.X.[ ' ( ~ ~ R R ~ ^ ' o.=.;.<.<.>.;.;.:.1.4.q.s.a.g.z.g.g.z.g.g.z.g.g.z.k.g.z.l.g.",
"z.l.g.l.z.g.k.z.g.l.h.p.r.w.1.:.;.$.$.X.X.X.X.X.[ ) ^ ~ R R ~ R ^ ' o.%.;.>.<.>.>.;.-.$.%.%.=.-.:.2.7.0.s.h.g.l.k.g.l.k.g.k.g.g.",
"g.u.z.h.p.s.q.3.2.:.*.$.O.o.o.o.X.[ [ ] ] ' ] ' ) ( ~ ~ R U ~ ~ ^ ) [ %.=.>.>.>.<.;.=.%.+.+.+.+.O.+.+.$.$.;.:.,.5.w.e.f.j.i.l.z.",
"z.j.,.$.O.] ] ] [ [ [ [ [ [ [ [ [ [ ' ` ' ' ' ) ) ~ U ~ U U U R ^ ) [ +.=.;.;.>.>.<.>.;.=.=.=.%.%.%.%.+.%.+.%.+.O.$.$.$.;.,.p.g.",
"z.f.` U ~ ~ ) ) ' ' ' ' ' ' ' ' ' ' ) ' ) ' ) ^ ~ ~ U I U U Q ~ ^ ) [ +.=.=.;.;.>.>.<.>.>.>.>.;.>.;.;.;.;.;.=.=.%.%.+.o.] ( 6.g.",
"g.u.7.! J I U ~ ~ ~ ^ ) ) ) ) ) ) ) ) ^ ) ~ ^ ~ R U p 4 m U U R ^ ) [ _ s g @.;.;.>.>.>.>.>.>.>.>.>.<.<.>.;.;.=.+.[ ` ~ U #.h.z.",
"z.k.g.3.! G H J I W R ~ ~ ~ ~ ~ ~ ~ ^ ^ ~ ~ ~ Q R N - } w J U U E ^ ' f 8 { n ;.=.;.;.;.;.;.;.;.;.;.=.=.=.+.o.[ ` ^ R I #.h.l.i.",
"z.j.g.l.5.! H S G H H P I I I R U R U R Q U U U U a 0 h.x D U U R ^ ) 6 } y.b %.=.%.%.=.=.%.%.+.+.+.+.o.[ ' ) ~ R U U *.d.z.k.g.",
"g.i.z.k.i.8.` H G G F H H H P P P P I I I I P I I p e k.v C J U U ~ ~ 4  .i.c X.+.o.o.o.o.o.[ [ [ ' ' ) ) ~ R R U U &.h.z.u.l.z.",
"z.z.g.k.k.g.7.` I H H F F F G G G H G P P J P P J y q d.z C J I I U Q 4 { 9.h ` ' [ [ ' ' ' ) ) ) ^ ^ ^ R R R J Q -.j.l.l.l.l.g.",
"z.z.g.l.z.g.l.w.` U H S F F F F F G G G G G G P H t ; ..9 V J I I U I 1 q | 5 / ' ) ) ) ^ ) ^ ^ ^ ^ ^ E R L J Q :.i.z.l.g.z.l.g.",
"g.u.z.g.g.z.g.i.w.` Y H H F F F D D F F F F G G G t # 9 * B H J I I I 1 - 7 < W ^ ^ ^ ^ ^ ^ ^ E E E E Y L J Q :.j.z.i.l.z.u.l.z.",
"z.k.g.k.k.g.k.k.k.6.' R K H S S F Z Z Z Z F F S S r # = & C K H J L J 2 $ = > I ^ ^ E ^ E ^ E E R R U J L Q :.j.l.g.k.l.g.k.l.g.",
"z.z.d.k.z.g.k.l.g.k.8.[ Y K H A S S Z Z Z Z S F S r o $ % C H H J J J 2 + # : I E ^ ^ E E E ^ R Y R K U Q :.d.z.g.g.z.k.g.z.l.i.",
"g.d.z.k.d.z.k.d.z.k.d.5.' R K H G G S F Z F Z S S i . X % Z H H J J U r . X , R E E E E ^ E R Y Y J L ~ -.h.z.u.l.z.i.l.z.i.l.z.",
"l.k.g.k.k.k.k.k.g.k.l.g.3.` R K H G G S Z Z Z Z S M @   3 G H H J J L m O . u R ^ E E ^ E R Y R U U ~ ;.h.l.k.l.k.g.l.l.l.k.l.g.",
"z.z.u.k.z.g.k.z.d.k.z.g.g.5.` R J H G S F F Z S S G k d C H H H K K J K l j P E E E E R R R R U Y ~ :.d.z.k.g.z.g.g.z.l.i.z.l.u.",
"g.g.z.k.g.z.g.d.z.k.d.z.k.d.5.' R J H H S S S Z G S G G S H H H H K U L R Y R E E E ~ E R R R R ( -.j.z.i.l.z.i.k.z.i.k.z.g.l.z.",
"k.k.k.k.k.g.l.k.k.l.k.k.g.l.g.,.~ R J H G S S S S G S G S H H H H K K U U U R E E ^ E ^ R ~ R ^ $.f.l.g.l.l.k.l.l.l.k.l.l.k.l.g.",
"z.z.d.k.z.d.k.z.u.k.z.u.k.z.g.a.[ E U J G S S G G G S G S H S H H K K U L R R E E E E R ^ R ^ [ 5.z.k.g.z.l.g.z.l.i.z.g.g.z.l.u.",
"g.d.z.k.d.z.k.d.z.k.d.z.l.u.z.s.X.^ Y U H G F G S S H G H S S H H J J J L Y Y Y E E E ^ ^ ^ ^ [ q.u.l.z.u.l.z.u.l.z.i.l.z.u.l.z.",
"k.k.g.k.k.k.k.k.g.k.k.k.k.l.k.r.] ^ Y U H F F G S S S G S H H H H H K J L L L Y E E R ^ ^ ^ ^ ' 5.l.k.g.l.l.l.l.g.l.l.l.l.l.g.l.",
"z.z.g.k.z.g.k.z.g.k.z.u.g.z.g.6.' E R U J G G S G H S S H S H G H H H K K L L Y E Y E ^ ^ ) ) ' <.z.g.g.z.k.i.z.g.g.z.l.g.z.l.i.",
"g.g.z.g.u.z.g.d.z.k.g.z.l.d.z.8.' R E R H G G G S S H H H H H H H H K H K L L L Y E R ^ ^ ^ ) ) :.i.z.z.i.l.z.g.k.z.i.k.k.g.l.z.",
"k.k.l.l.k.k.g.k.k.k.g.k.l.g.g.<.) ^ E L H G G H G H G G H H H H H H H H K K K L R R ^ E ^ ) ) ' =.f.l.l.l.l.l.l.g.k.k.l.l.g.l.l.",
"z.z.d.l.z.g.k.z.d.k.z.d.l.z.d.-.^ E R L F F S A G G H H H H H H H H H H H H K K U R Y ~ ~ ^ ) ) +.f.g.g.z.l.i.z.g.g.z.g.g.z.k.i.",
"g.g.z.g.d.z.g.g.z.k.g.z.l.u.j.=.^ ^ Y H H S H H G H H K K K K H H H K H H K K K J Y Y Y ~ ^ ) ) X.q.l.l.i.k.z.i.k.z.i.z.z.i.l.z.",
"k.g.k.k.k.k.k.g.l.g.k.l.k.l.a.+.^ E U H S A H S H K K K L K L K K K H H K K H K K U R R R ^ ) ) [ 7.l.l.l.l.l.l.k.k.k.l.l.g.l.l.",
"z.l.d.z.z.d.k.z.i.k.z.g.g.z.e.] ^ R I S H A G H K K K Y Y L Y L Y L K K K H H H K L U Y Y ^ ^ ) ' 5.k.g.z.k.g.z.k.g.z.k.d.z.k.u.",
"g.g.z.k.g.z.k.g.z.k.d.z.k.g.8.' R Y H H S H H H K Y Y T T T Y E E Y Y U K H K H K K L Y Y R ^ ) ) :.l.l.d.l.l.d.k.z.d.k.z.u.l.z.",
"k.k.k.g.k.l.g.g.k.k.g.k.k.k.1.) E L H H H H K K L T T T T E ^ [ ' ) E Y Y K H K H K K L R R ^ ^ ) $.h.l.k.k.l.g.k.k.k.k.k.k.l.z.",
"z.z.d.l.z.i.l.z.i.k.z.g.k.z.-.^ Y K G G H H L Y T T T T ^ [ 2.t.r.5.%.^ T T Y L K K K L U R R ^ ) +.p.g.z.g.g.z.g.i.z.k.d.z.k.u.",
"g.g.z.g.g.z.g.g.z.g.u.z.l.d.$.E L H H H K U Y T T T E [ :.s.z.u.z.l.d.8.%.) E R Y H K K L Y Y ^ ^ [ s.z.g.k.z.g.k.z.d.k.z.g.g.z.",
"k.g.l.k.g.l.k.g.l.l.l.z.k.p.[ R K H H H Y T T E E ' :.r.k.l.l.g.l.k.g.k.j.8.+.^ T Y Y K L L Y Y ~ ' 8.l.g.k.l.g.k.k.g.k.k.k.k.z.",
"z.l.d.k.z.d.k.z.u.l.z.u.g.s.) U H H K Y T T E ' >.a.d.k.z.u.g.z.u.g.z.g.g.z.a.3.+.^ Y Y K L Y Y R ^ ,.g.z.k.g.z.k.d.z.g.g.z.g.u.",
"k.g.z.k.g.z.k.g.z.l.g.z.l.3.^ L H K Y Y E ) -.s.l.g.z.l.g.z.l.g.z.k.g.z.k.g.l.z.d.5.o.Y Y L K Y Y ^ ;.l.d.l.l.g.k.l.g.k.z.d.k.z.",
"k.g.l.k.g.z.g.g.z.k.k.z.k.:.R H K Y E ) *.r.k.k.l.g.l.l.g.z.l.g.k.k.g.l.z.g.k.z.g.l.f.5.[ R L L R Y +.h.g.l.l.g.k.z.g.l.l.k.l.z.",
"z.z.d.l.z.d.l.z.u.l.z.d.k.=.Y K Y ^ %.t.d.k.z.d.l.z.u.h.z.d.g.z.d.g.z.d.g.z.g.g.z.g.g.z.a.,.` U U Y ` p.z.g.g.z.g.g.z.g.d.z.k.i.",
"k.g.z.g.g.z.g.g.z.g.g.l.g.] L R O.w.g.g.z.l.g.l.l.g.l.l.g.l.l.g.z.z.g.k.k.d.k.k.d.l.l.g.l.z.e.-.( Y ~ q.g.l.l.g.k.l.g.l.l.g.k.z.",
"k.g.l.k.g.k.k.g.l.k.g.l.g.:.O.4.d.z.l.k.l.k.g.l.l.i.l.k.g.z.l.g.k.k.g.k.l.g.l.k.g.l.l.g.l.l.g.k.r.=.O.a.g.l.l.g.k.k.g.g.l.g.l.l.",
"z.z.d.l.z.g.k.z.d.k.z.g.g.z.u.l.z.g.k.z.d.g.z.g.g.z.i.k.z.g.k.z.g.g.z.g.g.z.g.g.z.k.g.z.g.g.z.k.g.z.g.g.z.g.g.z.k.d.z.k.d.z.l.i.",
"l.g.z.k.k.z.g.g.k.k.k.z.k.g.z.l.k.z.k.d.z.k.k.z.l.g.l.l.g.z.l.g.k.l.k.z.k.g.l.l.g.z.l.g.k.l.g.z.l.g.l.l.g.z.l.g.k.z.g.l.l.g.k.z.",
"l.l.z.l.z.z.z.l.z.z.l.z.z.k.z.z.k.z.z.k.z.z.k.z.z.k.z.z.k.z.z.k.z.z.k.z.z.k.z.z.k.z.z.k.l.z.k.z.z.k.j.z.k.z.z.k.l.z.k.z.z.k.l.z.",
"z.z.z.z.z.z.z.z.z.z.z.z.z.z.z.z.z.z.z.z.z.z.z.z.z.z.z.z.z.z.z.z.z.z.z.z.z.z.z.z.z.z.z.z.z.z.z.z.z.z.z.z.z.z.z.z.z.z.z.z.z.z.z.z."
};
